<svg width="185" height="54" viewBox="0 0 185 54" fill="none" xmlns="http://www.w3.org/2000/svg">
<path d="M68.3562 13.5613C68.3562 14.6886 68.0118 15.5914 67.3332 16.2647C66.553 17.0629 65.5369 17.4645 64.2918 17.4645C63.1017 17.4645 62.0856 17.0561 61.252 16.2512C60.4168 15.4344 60 14.4321 60 13.2322C60 12.0324 60.4168 11.0301 61.252 10.2201C62.0856 9.40838 63.1017 9 64.2918 9C64.8842 9 65.4491 9.11981 65.9882 9.34256C66.5255 9.567 66.9629 9.87075 67.2798 10.2454L66.5599 10.9575C66.0071 10.3179 65.2545 10.0024 64.2918 10.0024C63.4238 10.0024 62.6712 10.2994 62.0322 10.8984C61.4002 11.4992 61.0833 12.2771 61.0833 13.2322C61.0833 14.1874 61.4002 14.9721 62.0322 15.5728C62.6712 16.1651 63.4238 16.4689 64.2918 16.4689C65.2132 16.4689 65.9882 16.1651 66.5995 15.5661C67.0025 15.1695 67.2316 14.6227 67.2919 13.9241H64.2918V12.9487H68.2942C68.3424 13.1597 68.3562 13.3639 68.3562 13.5613V13.5613Z" fill="white" stroke="white" stroke-width="0.16" stroke-miterlimit="10"/>
<path d="M74.706 10.1795H70.9464V12.7445H74.3357V13.7199H70.9464V16.2849H74.706V17.2788H69.8821V9.18555H74.706V10.1795Z" fill="white" stroke="white" stroke-width="0.16" stroke-miterlimit="10"/>
<path d="M79.1873 17.2788H78.1229V10.1795H75.8169V9.18555H81.4951V10.1795H79.1873V17.2788V17.2788Z" fill="white" stroke="white" stroke-width="0.16" stroke-miterlimit="10"/>
<path d="M85.6042 17.2788V9.18555H86.6669V17.2788H85.6042Z" fill="white" stroke="white" stroke-width="0.16" stroke-miterlimit="10"/>
<path d="M91.3772 17.2788H90.3215V10.1795H88.0068V9.18555H93.6919V10.1795H91.3772V17.2788Z" fill="white" stroke="white" stroke-width="0.16" stroke-miterlimit="10"/>
<path d="M104.442 16.2377C103.627 17.0561 102.618 17.4645 101.414 17.4645C100.204 17.4645 99.1943 17.0561 98.3797 16.2377C97.5668 15.4209 97.1621 14.4186 97.1621 13.2322C97.1621 12.0459 97.5668 11.0436 98.3797 10.2268C99.1943 9.40838 100.204 9 101.414 9C102.611 9 103.62 9.40837 104.435 10.2336C105.255 11.0571 105.66 12.0527 105.66 13.2322C105.66 14.4186 105.255 15.4209 104.442 16.2377ZM99.1668 15.5593C99.7799 16.1651 100.526 16.4689 101.414 16.4689C102.296 16.4689 103.049 16.1651 103.655 15.5593C104.266 14.9535 104.576 14.1756 104.576 13.2322C104.576 12.2889 104.266 11.511 103.655 10.9052C103.049 10.2994 102.296 9.99562 101.414 9.99562C100.526 9.99562 99.7799 10.2994 99.1668 10.9052C98.5554 11.511 98.2454 12.2889 98.2454 13.2322C98.2454 14.1756 98.5554 14.9535 99.1668 15.5593V15.5593Z" fill="white" stroke="white" stroke-width="0.16" stroke-miterlimit="10"/>
<path d="M107.153 17.2788V9.18555H108.444L112.46 15.4799H112.507L112.46 13.924V9.18555H113.523V17.2788H112.414L108.208 10.6739H108.162L108.208 12.2365V17.2788H107.153V17.2788Z" fill="white" stroke="white" stroke-width="0.16" stroke-miterlimit="10"/>
<path d="M40.6772 25.6895C40.637 21.3384 44.3312 19.2216 44.5001 19.1231C42.4079 16.149 39.1652 15.7427 38.0256 15.7103C35.3021 15.4308 32.6602 17.2992 31.2729 17.2992C29.8578 17.2992 27.7213 15.7373 25.4187 15.7832C22.4556 15.8277 19.6836 17.5004 18.1633 20.0978C15.0258 25.3938 17.3658 33.1766 20.3718 37.4574C21.8755 39.554 23.6325 41.8949 25.9324 41.8125C28.1824 41.7221 29.0229 40.4139 31.7381 40.4139C34.4284 40.4139 35.2176 41.8125 37.5632 41.7599C39.9779 41.7221 41.4982 39.6539 42.9493 37.5384C44.687 35.1354 45.3849 32.7689 45.4125 32.6474C45.3558 32.6285 40.7229 30.9045 40.6772 25.6895Z" fill="white"/>
<path d="M36.2464 12.8942C37.4565 11.4186 38.2845 9.41117 38.0547 7.37402C36.3032 7.44962 34.1127 8.55527 32.8513 9.99842C31.7353 11.2701 30.7384 13.3545 30.9959 15.3147C32.9635 15.4578 34.9836 14.3468 36.2464 12.8942Z" fill="white"/>
<path d="M73.2393 41.5112H70.0948L68.3723 36.2341H62.3853L60.7445 41.5112H57.6831L63.6148 23.5454H67.2785L73.2393 41.5112ZM67.8531 34.0201L66.2954 29.3288C66.1306 28.8496 65.8219 27.721 65.3663 25.9444H65.3109C65.1296 26.7085 64.8374 27.8371 64.4359 29.3288L62.9059 34.0201H67.8531Z" fill="white"/>
<path d="M88.4936 34.8745C88.4936 37.0777 87.883 38.8192 86.6617 40.0976C85.5679 41.2357 84.2096 41.804 82.5882 41.804C80.8381 41.804 79.5808 41.1911 78.8151 39.9653H78.7597V46.7896H75.8077V32.8211C75.8077 31.436 75.7704 30.0145 75.6984 28.5565H78.2945L78.4593 30.6098H78.5147C79.4991 29.0627 80.9931 28.2905 82.9981 28.2905C84.5654 28.2905 85.8739 28.894 86.9207 30.1022C87.9702 31.3118 88.4936 32.9021 88.4936 34.8745ZM85.4862 34.9798C85.4862 33.7189 85.1954 32.6794 84.6111 31.8613C83.9728 31.0081 83.1157 30.5815 82.0413 30.5815C81.313 30.5815 80.6511 30.8191 80.0599 31.2875C79.4673 31.76 79.0796 32.377 78.8982 33.1411C78.8068 33.4975 78.7611 33.7891 78.7611 34.0186V36.1786C78.7611 37.1209 79.0574 37.916 79.6501 38.5654C80.2427 39.2147 81.0125 39.5387 81.9596 39.5387C83.0714 39.5387 83.9368 39.1202 84.5557 38.2859C85.1761 37.4503 85.4862 36.3487 85.4862 34.9798Z" fill="white"/>
<path d="M103.776 34.8745C103.776 37.0777 103.165 38.8192 101.942 40.0976C100.85 41.2357 99.4915 41.804 97.8701 41.804C96.12 41.804 94.8628 41.1911 94.0985 39.9653H94.0431V46.7896H91.0911V32.8211C91.0911 31.436 91.0537 30.0145 90.9817 28.5565H93.5778L93.7426 30.6098H93.798C94.7811 29.0627 96.2751 28.2905 98.2814 28.2905C99.8474 28.2905 101.156 28.894 102.205 30.1022C103.251 31.3118 103.776 32.9021 103.776 34.8745ZM100.768 34.9798C100.768 33.7189 100.476 32.6794 99.8917 31.8613C99.2534 31.0081 98.3991 30.5815 97.3232 30.5815C96.5935 30.5815 95.9331 30.8191 95.3405 31.2875C94.7478 31.76 94.3615 32.377 94.1801 33.1411C94.0901 33.4975 94.0431 33.7891 94.0431 34.0186V36.1786C94.0431 37.1209 94.3394 37.916 94.9292 38.5654C95.5218 39.2134 96.2917 39.5387 97.2415 39.5387C98.3534 39.5387 99.2188 39.1202 99.8377 38.2859C100.458 37.4503 100.768 36.3487 100.768 34.9798Z" fill="white"/>
<path d="M120.862 36.4731C120.862 38.0013 120.318 39.2446 119.225 40.2045C118.025 41.2534 116.353 41.7772 114.206 41.7772C112.223 41.7772 110.634 41.4046 109.43 40.6581L110.114 38.2591C111.41 39.0232 112.832 39.4066 114.382 39.4066C115.494 39.4066 116.359 39.1609 116.981 38.6722C117.6 38.1835 117.908 37.5274 117.908 36.7093C117.908 35.9803 117.654 35.3661 117.143 34.8679C116.634 34.3698 115.786 33.9067 114.6 33.4788C111.374 32.3056 109.763 30.5871 109.763 28.3272C109.763 26.8503 110.328 25.6393 111.459 24.697C112.586 23.7534 114.09 23.2822 115.97 23.2822C117.647 23.2822 119.04 23.5671 120.151 24.1354L119.413 26.4817C118.375 25.9309 117.201 25.6555 115.887 25.6555C114.848 25.6555 114.037 25.9053 113.455 26.4021C112.964 26.8462 112.717 27.3876 112.717 28.0288C112.717 28.7389 112.998 29.3262 113.563 29.7879C114.055 30.2145 114.948 30.6762 116.244 31.1743C117.829 31.7967 118.994 32.5243 119.743 33.3586C120.489 34.1902 120.862 35.2311 120.862 36.4731Z" fill="white"/>
<path d="M130.622 30.7165H127.368V37.0061C127.368 38.6059 127.941 39.4051 129.09 39.4051C129.618 39.4051 130.056 39.3605 130.402 39.2714L130.483 41.4571C129.902 41.669 129.136 41.7757 128.188 41.7757C127.022 41.7757 126.111 41.4287 125.453 40.7362C124.798 40.0423 124.469 38.8786 124.469 37.2437V30.7138H122.53V28.5538H124.469V26.1818L127.368 25.3286V28.5538H130.622V30.7165Z" fill="white"/>
<path d="M145.303 34.9272C145.303 36.9185 144.719 38.5533 143.553 39.8318C142.33 41.148 140.707 41.8041 138.684 41.8041C136.735 41.8041 135.183 41.1737 134.025 39.9128C132.868 38.6519 132.289 37.0602 132.289 35.1419C132.289 33.1344 132.884 31.4901 134.079 30.2117C135.271 28.9319 136.88 28.292 138.903 28.292C140.853 28.292 142.422 28.9224 143.605 30.1847C144.738 31.4091 145.303 32.99 145.303 34.9272ZM142.24 35.0204C142.24 33.8256 141.978 32.801 141.448 31.9464C140.829 30.9123 139.944 30.3966 138.798 30.3966C137.611 30.3966 136.71 30.9137 136.091 31.9464C135.561 32.8023 135.299 33.8432 135.299 35.0744C135.299 36.2691 135.561 37.2938 136.091 38.147C136.729 39.1811 137.621 39.6968 138.772 39.6968C139.899 39.6968 140.784 39.1703 141.422 38.12C141.966 37.2492 142.24 36.2138 142.24 35.0204Z" fill="white"/>
<path d="M154.898 31.0877C154.606 31.0351 154.295 31.0081 153.968 31.0081C152.929 31.0081 152.126 31.3901 151.561 32.1556C151.07 32.8306 150.823 33.6838 150.823 34.7138V41.5111H147.873L147.9 32.6362C147.9 31.1431 147.863 29.7836 147.79 28.5578H150.361L150.469 31.0364H150.551C150.862 30.1846 151.354 29.4988 152.027 28.9844C152.684 28.5214 153.395 28.2905 154.16 28.2905C154.433 28.2905 154.68 28.3094 154.898 28.3432V31.0877Z" fill="white"/>
<path d="M168.101 34.4213C168.101 34.937 168.066 35.3716 167.993 35.7267H159.137C159.171 37.0065 159.599 37.9852 160.422 38.6602C161.168 39.2637 162.133 39.5661 163.318 39.5661C164.629 39.5661 165.826 39.3622 166.902 38.9532L167.364 40.9512C166.107 41.4858 164.622 41.7517 162.91 41.7517C160.849 41.7517 159.232 41.1604 158.055 39.9792C156.881 38.7979 156.293 37.2117 156.293 35.2218C156.293 33.2683 156.84 31.6416 157.935 30.3443C159.081 28.9592 160.631 28.2666 162.58 28.2666C164.495 28.2666 165.945 28.9592 166.929 30.3443C167.709 31.4445 168.101 32.8053 168.101 34.4213ZM165.286 33.6747C165.305 32.8215 165.113 32.0844 164.712 31.462C164.202 30.6615 163.416 30.2619 162.36 30.2619C161.395 30.2619 160.61 30.6521 160.01 31.4351C159.519 32.0574 159.227 32.8039 159.137 33.6733H165.286V33.6747Z" fill="white"/>
</svg>
