<svg width="186" height="54" viewBox="0 0 186 54" fill="none" xmlns="http://www.w3.org/2000/svg">
<path d="M13.3438 10.1772C12.9391 10.5923 12.7048 11.2386 12.7048 12.0756V41.9308C12.7048 42.7678 12.9391 43.4142 13.3438 43.8293L13.4437 43.9204L30.5178 27.1973V26.8024L13.4437 10.0793L13.3438 10.1772Z" fill="white"/>
<path d="M38.2695 32.7744L32.5845 27.1972V26.8024L38.2764 21.2252L38.4039 21.2977L45.1446 25.0558C47.0684 26.1223 47.0684 27.8773 45.1446 28.9505L38.4039 32.7018L38.2695 32.7744V32.7744Z" fill="white"/>
<path d="M37.3706 33.7404L31.5512 28.0384L14.3772 44.8678C15.0161 45.5259 16.0581 45.6052 17.243 44.9471L37.3706 33.7404" fill="white"/>
<path d="M37.3706 20.2594L17.243 9.05268C16.0581 8.4013 15.0161 8.48061 14.3772 9.13874L31.5512 25.9614L37.3706 20.2594Z" fill="white"/>
<path d="M65.3308 13.8294C65.3308 14.9566 64.9864 15.8594 64.3078 16.5328C63.5277 17.3309 62.5115 17.7326 61.2664 17.7326C60.0763 17.7326 59.0602 17.3242 58.2267 16.5193C57.3914 15.7025 56.9746 14.7001 56.9746 13.5003C56.9746 12.3005 57.3914 11.2981 58.2267 10.4881C59.0602 9.67644 60.0763 9.26807 61.2664 9.26807C61.8588 9.26807 62.4237 9.38788 62.9628 9.61063C63.5001 9.83507 63.9375 10.1388 64.2544 10.5134L63.5345 11.2256C62.9817 10.586 62.2291 10.2704 61.2664 10.2704C60.3984 10.2704 59.6458 10.5674 59.0068 11.1665C58.3748 11.7673 58.0579 12.5452 58.0579 13.5003C58.0579 14.4554 58.3748 15.2401 59.0068 15.8409C59.6458 16.4332 60.3984 16.7369 61.2664 16.7369C62.1878 16.7369 62.9628 16.4332 63.5742 15.8341C63.9772 15.4376 64.2062 14.8908 64.2665 14.1922H61.2664V13.2168H65.2688C65.317 13.4278 65.3308 13.6319 65.3308 13.8294V13.8294Z" fill="white" stroke="white" stroke-width="0.16" stroke-miterlimit="10"/>
<path d="M71.6806 10.4475H67.921V13.0125H71.3104V13.9879H67.921V16.5529H71.6806V17.5469H66.8567V9.45361H71.6806V10.4475Z" fill="white" stroke="white" stroke-width="0.16" stroke-miterlimit="10"/>
<path d="M76.1619 17.5469H75.0976V10.4475H72.7915V9.45361H78.4697V10.4475H76.1619V17.5469V17.5469Z" fill="white" stroke="white" stroke-width="0.16" stroke-miterlimit="10"/>
<path d="M82.5789 17.5469V9.45361H83.6415V17.5469H82.5789Z" fill="white" stroke="white" stroke-width="0.16" stroke-miterlimit="10"/>
<path d="M88.3518 17.5469H87.2961V10.4475H84.9814V9.45361H90.6665V10.4475H88.3518V17.5469Z" fill="white" stroke="white" stroke-width="0.16" stroke-miterlimit="10"/>
<path d="M101.417 16.5058C100.602 17.3242 99.5927 17.7326 98.3889 17.7326C97.1782 17.7326 96.1689 17.3242 95.3543 16.5058C94.5414 15.689 94.1367 14.6866 94.1367 13.5003C94.1367 12.314 94.5414 11.3116 95.3543 10.4949C96.1689 9.67644 97.1782 9.26807 98.3889 9.26807C99.5858 9.26807 100.595 9.67644 101.41 10.5016C102.229 11.3251 102.634 12.3208 102.634 13.5003C102.634 14.6866 102.229 15.689 101.417 16.5058ZM96.1414 15.8274C96.7545 16.4332 97.5002 16.7369 98.3889 16.7369C99.2707 16.7369 100.023 16.4332 100.63 15.8274C101.241 15.2216 101.551 14.4436 101.551 13.5003C101.551 12.557 101.241 11.7791 100.63 11.1733C100.023 10.5674 99.2707 10.2637 98.3889 10.2637C97.5002 10.2637 96.7545 10.5674 96.1414 11.1733C95.53 11.7791 95.22 12.557 95.22 13.5003C95.22 14.4436 95.53 15.2216 96.1414 15.8274V15.8274Z" fill="white" stroke="white" stroke-width="0.16" stroke-miterlimit="10"/>
<path d="M104.127 17.5469V9.45361H105.419L109.435 15.748H109.482L109.435 14.1921V9.45361H110.498V17.5469H109.389L105.183 10.942H105.136L105.183 12.5046V17.5469H104.127V17.5469Z" fill="white" stroke="white" stroke-width="0.16" stroke-miterlimit="10"/>
<path d="M93.8748 29.3661C90.6388 29.3661 87.9952 31.7793 87.9952 35.1087C87.9952 38.4111 90.6388 40.8496 93.8748 40.8496C97.1178 40.8496 99.7614 38.4111 99.7614 35.1087C99.7614 31.7793 97.1178 29.3661 93.8748 29.3661ZM93.8748 38.5883C92.0992 38.5883 90.5716 37.1523 90.5716 35.1087C90.5716 33.0381 92.0992 31.6274 93.8748 31.6274C95.6504 31.6274 97.1849 33.0381 97.1849 35.1087C97.1849 37.1523 95.6504 38.5883 93.8748 38.5883V38.5883ZM81.046 29.3661C77.803 29.3661 75.1663 31.7793 75.1663 35.1087C75.1663 38.4111 77.803 40.8496 81.046 40.8496C84.2872 40.8496 86.9257 38.4111 86.9257 35.1087C86.9257 31.7793 84.2872 29.3661 81.046 29.3661ZM81.046 38.5883C79.2687 38.5883 77.7359 37.1523 77.7359 35.1087C77.7359 33.0381 79.2687 31.6274 81.046 31.6274C82.8216 31.6274 84.3492 33.0381 84.3492 35.1087C84.3492 37.1523 82.8216 38.5883 81.046 38.5883ZM65.7802 31.1262V33.5663H71.727C71.5531 34.9298 71.0881 35.9322 70.3751 36.6308C69.5071 37.4746 68.1552 38.4111 65.7802 38.4111C62.1205 38.4111 59.2547 35.5171 59.2547 31.9311C59.2547 28.3452 62.1205 25.4511 65.7802 25.4511C67.7591 25.4511 69.1988 26.2088 70.2614 27.191L72.0164 25.4714C70.5301 24.0809 68.553 23.0127 65.7802 23.0127C60.7617 23.0127 56.5439 27.0138 56.5439 31.9311C56.5439 36.8485 60.7617 40.8496 65.7802 40.8496C68.4927 40.8496 70.5301 39.9788 72.1318 38.3453C73.773 36.7371 74.2845 34.4759 74.2845 32.65C74.2845 32.083 74.2363 31.5616 74.1502 31.1262H65.7802ZM128.204 33.0179C127.72 31.7337 126.227 29.3661 123.185 29.3661C120.171 29.3661 117.662 31.6932 117.662 35.1087C117.662 38.3251 120.146 40.8496 123.475 40.8496C126.166 40.8496 127.72 39.2414 128.359 38.3048L126.361 37.0004C125.695 37.9555 124.787 38.5883 123.475 38.5883C122.171 38.5883 121.236 38.0028 120.636 36.8485L128.474 33.6709L128.204 33.0179V33.0179ZM120.213 34.9298C120.146 32.7158 121.968 31.5818 123.273 31.5818C124.296 31.5818 125.164 32.083 125.453 32.8002L120.213 34.9298V34.9298ZM113.842 40.5003H116.419V23.6253H113.842V40.5003ZM109.623 30.6453H109.537C108.958 29.9736 107.854 29.3661 106.456 29.3661C103.521 29.3661 100.838 31.8906 100.838 35.1273C100.838 38.3453 103.521 40.8496 106.456 40.8496C107.854 40.8496 108.958 40.237 109.537 39.5451H109.623V40.3686C109.623 42.5641 108.426 43.7436 106.495 43.7436C104.921 43.7436 103.945 42.6299 103.542 41.6933L101.301 42.6096C101.947 44.1318 103.657 46.0049 106.495 46.0049C109.516 46.0049 112.065 44.2634 112.065 40.0261V29.7154H109.623V30.6453V30.6453ZM106.676 38.5883C104.9 38.5883 103.414 37.132 103.414 35.1273C103.414 33.1039 104.9 31.6274 106.676 31.6274C108.426 31.6274 109.805 33.1039 109.805 35.1273C109.805 37.132 108.426 38.5883 106.676 38.5883V38.5883ZM140.266 23.6253H134.104V40.5003H136.674V34.1063H140.266C143.12 34.1063 145.919 32.083 145.919 28.8649C145.919 25.6486 143.113 23.6253 140.266 23.6253V23.6253ZM140.333 31.759H136.674V25.9726H140.333C142.252 25.9726 143.347 27.5335 143.347 28.8649C143.347 30.1711 142.252 31.759 140.333 31.759ZM156.218 29.3341C154.361 29.3341 152.43 30.1373 151.636 31.9176L153.917 32.8542C154.407 31.9176 155.31 31.6139 156.264 31.6139C157.597 31.6139 158.949 32.3986 158.97 33.784V33.9612C158.505 33.6979 157.509 33.3081 156.285 33.3081C153.829 33.3081 151.326 34.6328 151.326 37.105C151.326 39.3663 153.338 40.8226 155.599 40.8226C157.328 40.8226 158.282 40.0581 158.882 39.1688H158.97V40.4733H161.451V34C161.451 31.0081 159.171 29.3341 156.218 29.3341ZM155.908 38.5816C155.067 38.5816 153.896 38.1732 153.896 37.1523C153.896 35.8461 155.356 35.3449 156.621 35.3449C157.752 35.3449 158.282 35.5896 158.97 35.9119C158.768 37.4746 157.396 38.5816 155.908 38.5816V38.5816ZM170.493 29.7036L167.539 37.0189H167.452L164.398 29.7036H161.627L166.215 39.9265L163.597 45.6151H166.282L173.352 29.7036H170.493V29.7036ZM147.331 40.5003H149.907V23.6253H147.331V40.5003Z" fill="white"/>
</svg>
