<svg width="252" height="33" viewBox="0 0 252 33" fill="none" xmlns="http://www.w3.org/2000/svg">
<path d="M37.988 15.2687C37.5105 15.2687 37.0997 14.9144 37.0381 14.4317C35.6825 3.92578 33.3461 2.14398 33.3204 2.12858C32.1035 1.3224 29.6079 3.18123 28.5912 4.19793L28.1599 4.62413L27.595 4.43414C22.4396 2.66261 16.2418 4.42387 16.1802 4.44441L15.6359 4.60359L15.2354 4.20307C14.2136 3.18123 11.718 1.33267 10.5062 2.11831L10.4446 2.15939C10.4548 2.15939 8.13389 3.96173 6.78855 14.4369C6.7218 14.9606 6.24425 15.3355 5.71536 15.2636C5.1916 15.1968 4.82189 14.7141 4.88865 14.1904C6.32128 3.04772 8.87331 0.870536 9.47922 0.50596C11.8823 -1.04991 15.0352 1.41997 16.1854 2.46235C17.8388 2.05669 22.9531 1.03485 27.6618 2.43667C28.8325 1.38402 31.9545 -1.04477 34.3371 0.500826C34.943 0.870536 37.5053 3.04772 38.938 14.1853C39.0099 14.7141 38.635 15.1917 38.1113 15.2584C38.0702 15.2687 38.0291 15.2687 37.988 15.2687Z" fill="#2B3C67"/>
<path d="M10.7168 4.54187C10.7168 4.54187 8.91959 7.16065 9.76171 10.031C9.76171 10.031 12.0416 7.38145 15.0712 7.82305C15.0712 7.82305 14.3985 5.61506 10.7168 4.54187Z" fill="#2B3C67"/>
<path d="M32.7504 4.54187C32.7504 4.54187 34.5425 7.16065 33.7003 10.031C33.7003 10.031 31.4205 7.38145 28.3857 7.82305C28.3857 7.82305 29.0584 5.61506 32.7504 4.54187Z" fill="#2B3C67"/>
<path d="M31.5639 17.3022C31.4818 17.3022 24.2416 17.3793 21.9361 23.1971C19.6254 17.3844 12.3903 17.3022 12.3082 17.3022H1.8125V18.5808H12.3082C12.6368 18.5808 20.3956 18.663 21.2788 25.7696H22.5933C23.4714 18.6835 31.2353 18.5808 31.5588 18.5808H42.0083V17.3022H31.5639Z" fill="#2B3C67"/>
<path d="M31.8054 24.147C28.3393 24.147 25.4998 26.8582 25.2738 30.2677H18.5523C18.3264 26.8582 15.4868 24.147 12.0156 24.147H0V27.3409H12.0156C13.8693 27.3409 15.3738 28.8505 15.3738 30.6991V32.9019H28.442V30.6991C28.442 28.8454 29.9517 27.3409 31.8002 27.3409H43.821V24.147H31.8054Z" fill="#2B3C67"/>
<path d="M61.1668 24.7509C65.6668 24.7509 67.8418 22.4509 67.8418 19.4009C67.8418 13.1759 58.2668 14.9509 58.2668 12.3009C58.2668 11.3009 59.1168 10.6259 60.6418 10.6259C62.3418 10.6259 64.1418 11.2009 65.4918 12.4509L67.4668 9.85093C65.8168 8.32593 63.6168 7.52593 60.9668 7.52593C57.0418 7.52593 54.6418 9.82593 54.6418 12.6009C54.6418 18.8759 64.2418 16.8509 64.2418 19.8009C64.2418 20.7509 63.2918 21.6509 61.3418 21.6509C59.0418 21.6509 57.2168 20.6259 56.0418 19.4009L54.1168 22.1009C55.6668 23.6759 57.9668 24.7509 61.1668 24.7509ZM88.207 24.4509V15.7259C88.207 13.2509 86.882 12.0759 84.657 12.0759C82.807 12.0759 81.207 13.1759 80.507 14.2759C80.057 12.9009 78.932 12.0759 77.157 12.0759C75.307 12.0759 73.707 13.2259 73.207 13.9509V12.3759H70.032V24.4509H73.207V16.3259C73.682 15.6509 74.607 14.9009 75.707 14.9009C77.007 14.9009 77.507 15.7009 77.507 16.8259V24.4509H80.707V16.3009C81.157 15.6509 82.082 14.9009 83.207 14.9009C84.507 14.9009 85.007 15.7009 85.007 16.8259V24.4509H88.207ZM101.621 24.4509V16.6509C101.621 13.1759 99.0961 12.0759 96.3461 12.0759C94.4461 12.0759 92.5461 12.6759 91.0711 13.9759L92.2711 16.1009C93.2961 15.1509 94.4961 14.6759 95.7961 14.6759C97.3961 14.6759 98.4461 15.4759 98.4461 16.7009V18.3259C97.6461 17.3759 96.2211 16.8509 94.6211 16.8509C92.6961 16.8509 90.4211 17.9259 90.4211 20.7509C90.4211 23.4509 92.6961 24.7509 94.6211 24.7509C96.1961 24.7509 97.6211 24.1759 98.4461 23.2009V24.4509H101.621ZM95.8961 22.6009C94.6461 22.6009 93.6211 21.9509 93.6211 20.8259C93.6211 19.6509 94.6461 19.0009 95.8961 19.0009C96.9211 19.0009 97.9211 19.3509 98.4461 20.0509V21.5509C97.9211 22.2509 96.9211 22.6009 95.8961 22.6009ZM107.82 24.4509V16.4759C108.345 15.7009 109.745 15.1009 110.795 15.1009C111.145 15.1009 111.445 15.1259 111.67 15.1759V12.0759C110.17 12.0759 108.67 12.9509 107.82 14.0259V12.3759H104.645V24.4509H107.82ZM117.579 24.7509C118.904 24.7509 119.754 24.4009 120.229 23.9759L119.554 21.5759C119.379 21.7509 118.929 21.9259 118.454 21.9259C117.754 21.9259 117.354 21.3509 117.354 20.6009V15.1509H119.804V12.3759H117.354V9.07593H114.154V12.3759H112.154V15.1509H114.154V21.4509C114.154 23.6009 115.354 24.7509 117.579 24.7509ZM130.001 24.7509C133.676 24.7509 135.776 22.7259 136.976 20.6509L133.926 19.1759C133.226 20.5509 131.726 21.6009 130.001 21.6009C126.976 21.6009 124.776 19.2759 124.776 16.1259C124.776 12.9759 126.976 10.6509 130.001 10.6509C131.726 10.6509 133.226 11.7259 133.926 13.0759L136.976 11.5759C135.801 9.50093 133.676 7.50093 130.001 7.50093C125.001 7.50093 121.126 11.0009 121.126 16.1259C121.126 21.2509 125.001 24.7509 130.001 24.7509ZM144.489 24.7509C148.489 24.7509 150.889 21.8509 150.889 18.4009C150.889 14.9759 148.489 12.0759 144.489 12.0759C140.514 12.0759 138.114 14.9759 138.114 18.4009C138.114 21.8509 140.514 24.7509 144.489 24.7509ZM144.489 21.9259C142.514 21.9259 141.414 20.3009 141.414 18.4009C141.414 16.5259 142.514 14.9009 144.489 14.9009C146.464 14.9009 147.589 16.5259 147.589 18.4009C147.589 20.3009 146.464 21.9259 144.489 21.9259ZM158.72 24.7509C162.72 24.7509 165.12 21.8509 165.12 18.4009C165.12 14.9759 162.72 12.0759 158.72 12.0759C154.745 12.0759 152.345 14.9759 152.345 18.4009C152.345 21.8509 154.745 24.7509 158.72 24.7509ZM158.72 21.9259C156.745 21.9259 155.645 20.3009 155.645 18.4009C155.645 16.5259 156.745 14.9009 158.72 14.9009C160.695 14.9009 161.82 16.5259 161.82 18.4009C161.82 20.3009 160.695 21.9259 158.72 21.9259ZM179.15 24.4509L174.225 17.8509L179 12.3759H175.1L170.525 17.7509V7.77593H167.35V24.4509H170.525V21.3509L171.975 19.8009L175.175 24.4509H179.15ZM182.179 11.0759C183.229 11.0759 184.079 10.2259 184.079 9.17593C184.079 8.12593 183.229 7.30093 182.179 7.30093C181.154 7.30093 180.279 8.12593 180.279 9.17593C180.279 10.2259 181.154 11.0759 182.179 11.0759ZM183.779 24.4509V12.3759H180.604V24.4509H183.779ZM192.478 24.7509C194.353 24.7509 196.253 24.1759 197.453 23.0759L196.053 21.0259C195.278 21.7759 193.853 22.2259 192.828 22.2259C190.778 22.2259 189.553 20.9509 189.353 19.4259H198.328V18.7259C198.328 14.7759 195.878 12.0759 192.278 12.0759C188.603 12.0759 186.028 14.9009 186.028 18.4009C186.028 22.2759 188.803 24.7509 192.478 24.7509ZM195.253 17.2759H189.303C189.453 16.0759 190.303 14.6009 192.278 14.6009C194.378 14.6009 195.178 16.1259 195.253 17.2759ZM202.023 24.7259C203.123 24.7259 204.048 23.8009 204.048 22.7009C204.048 21.6009 203.123 20.6759 202.023 20.6759C200.923 20.6759 199.998 21.6009 199.998 22.7009C199.998 23.8009 200.923 24.7259 202.023 24.7259ZM222.295 24.4509L215.87 7.77593H211.42L204.97 24.4509H209.02L210.07 21.6259H217.22L218.245 24.4509H222.295ZM216.245 18.5009H211.045L213.645 11.3259L216.245 18.5009ZM230.535 24.7509C233.635 24.7509 235.885 22.4259 235.885 18.4009C235.885 14.3759 233.635 12.0759 230.535 12.0759C229.06 12.0759 227.735 12.7259 226.81 13.9009V12.3759H223.635V29.0509H226.81V22.9009C227.785 24.1509 229.11 24.7509 230.535 24.7509ZM229.535 21.9259C228.51 21.9259 227.335 21.3009 226.81 20.5509V16.2759C227.335 15.5009 228.51 14.9009 229.535 14.9009C231.36 14.9009 232.585 16.3259 232.585 18.4009C232.585 20.5009 231.36 21.9259 229.535 21.9259ZM244.985 24.7509C248.085 24.7509 250.335 22.4259 250.335 18.4009C250.335 14.3759 248.085 12.0759 244.985 12.0759C243.51 12.0759 242.185 12.7259 241.26 13.9009V12.3759H238.085V29.0509H241.26V22.9009C242.235 24.1509 243.56 24.7509 244.985 24.7509ZM243.985 21.9259C242.96 21.9259 241.785 21.3009 241.26 20.5509V16.2759C241.785 15.5009 242.96 14.9009 243.985 14.9009C245.81 14.9009 247.035 16.3259 247.035 18.4009C247.035 20.5009 245.81 21.9259 243.985 21.9259Z" fill="#2B3C67"/>
</svg>
