<svg width="67" height="74" viewBox="0 0 67 74" fill="none" xmlns="http://www.w3.org/2000/svg">
<g clip-path="url(#clip0_74_17)">
<path d="M37.7146 -0.390137C37.7146 0.558818 37.7146 1.48841 37.7146 2.51483C38.7025 2.51483 39.6322 2.51483 40.6008 2.51483C40.6008 3.50251 40.6008 4.41274 40.6008 5.40042C42.5572 5.40042 44.4555 5.40042 46.3926 5.40042C46.3926 6.38811 46.3926 7.29833 46.3926 8.28602C48.349 8.28602 50.2473 8.28602 52.2231 8.28602C52.2231 9.29308 52.2231 10.2227 52.2231 11.2104C54.1796 11.2104 56.0585 11.2104 58.0149 11.2104C58.0149 12.198 58.0149 13.1276 58.0149 14.1347C59.0222 14.1347 59.952 14.1347 60.9205 14.1347C60.9205 16.0907 60.9205 17.9692 60.9205 19.9252C59.0416 19.9252 57.1433 19.9252 55.1675 19.9252C55.1675 20.9323 55.1675 21.8619 55.1675 22.8496C53.211 22.8496 51.3321 22.8496 49.3757 22.8496C49.3757 23.8373 49.3757 24.7669 49.3757 25.7739C48.3684 25.7739 47.4386 25.7739 46.4507 25.7739C46.4507 26.7616 46.4507 27.6718 46.4507 28.6595C44.4943 28.6595 42.5959 28.6595 40.6589 28.6595C40.6589 29.6472 40.6589 30.5574 40.6589 31.5451C38.7025 31.5451 36.8041 31.5451 34.8283 31.5451C34.8283 32.5522 34.8283 33.4817 34.8283 34.4501C33.8404 34.4501 32.93 34.4501 31.9421 34.4501C31.9421 33.5398 31.9421 32.6103 31.9421 31.6032C29.9663 31.6032 28.068 31.6032 26.1116 31.6032C26.1116 30.6155 26.1116 29.7053 26.1116 28.7176C24.1551 28.7176 22.2568 28.7176 20.281 28.7176C20.281 27.7105 20.281 26.781 20.281 25.7933C19.2931 25.7933 18.3827 25.7933 17.3948 25.7933C17.3948 24.8056 17.3948 23.876 17.3948 22.8689C15.419 22.8689 13.5207 22.8689 11.5643 22.8689C11.5643 21.8813 11.5643 20.971 11.5643 19.9833C9.60784 19.9833 7.70952 19.9833 5.77246 19.9833C5.77246 18.0273 5.77246 16.1488 5.77246 14.1928C6.68288 14.1928 7.61267 14.1928 8.61994 14.1928C8.61994 13.1857 8.61994 12.2561 8.61994 11.2685C10.5764 11.2685 12.4553 11.2685 14.4117 11.2685C14.4117 10.2808 14.4117 9.35117 14.4117 8.34412C16.3875 8.34412 18.2859 8.34412 20.2423 8.34412C20.2423 7.35643 20.2423 6.44621 20.2423 5.45852C22.1987 5.45852 24.097 5.45852 26.0728 5.45852C26.0728 4.45147 26.0728 3.52188 26.0728 2.53419C27.0607 2.53419 27.9712 2.53419 28.9978 2.53419C28.9978 1.52714 28.9978 0.558818 28.9978 -0.390137C31.9034 -0.390137 34.809 -0.390137 37.7146 -0.390137Z" fill="white"/>
<path d="M29.0172 35.4503C29.0172 36.4961 29.0172 37.4063 29.0172 38.3746C29.9857 38.3746 30.5087 38.3746 31.4772 38.3746C31.4772 50.0138 31.4772 61.5756 31.4772 73.2148C30.5474 73.2148 30.0051 73.2148 29.0365 73.2148C29.0365 72.2852 29.0365 71.375 29.0365 70.3873C27.0801 70.3873 25.1818 70.3873 23.206 70.3873C23.206 69.3802 23.206 68.4507 23.206 67.463C21.2495 67.463 19.3706 67.463 17.4142 67.463C17.4142 66.4753 17.4142 65.5457 17.4142 64.5774C16.4263 64.5774 15.5158 64.5774 14.5279 64.5774C14.5279 63.5897 14.5279 62.6601 14.5279 61.653C12.5521 61.653 10.6538 61.653 8.6974 61.653C8.6974 60.6654 8.6974 59.7551 8.6974 58.7674C6.74097 58.7674 4.84265 58.7674 2.86685 58.7674C2.86685 57.7604 2.86685 56.8308 2.86685 55.8431C1.87895 55.8431 0.96853 55.8431 0 55.8431C0 44.2039 0 32.6421 0 21.0029C0.910418 21.0029 1.84021 21.0029 2.82811 21.0029C2.82811 21.9325 2.82811 22.8427 2.82811 23.8304C4.78454 23.8304 6.68286 23.8304 8.65866 23.8304C8.65866 24.8375 8.65866 25.7671 8.65866 26.7548C10.6151 26.7548 12.494 26.7548 14.4505 26.7548C14.4505 27.7424 14.4505 28.672 14.4505 29.6404C15.4384 29.6404 16.3488 29.6404 17.3561 29.6404C17.3561 30.6087 17.3561 31.5383 17.3561 32.5453C19.3319 32.5453 21.2302 32.5453 23.1866 32.5453C23.1866 33.533 23.1866 34.4432 23.1866 35.4309C25.1237 35.4503 27.0026 35.4503 29.0172 35.4503Z" fill="white"/>
<path d="M35.2545 38.3552C36.223 38.3552 36.746 38.3552 37.7145 38.3552C37.7145 37.3869 37.7145 36.4767 37.7145 35.489C39.671 35.489 41.5693 35.489 43.5064 35.489C43.5064 34.5013 43.5064 33.5911 43.5064 32.6034C45.4628 32.6034 47.3611 32.6034 49.3369 32.6034C49.3369 31.5964 49.3369 30.6668 49.3369 29.6597C50.3442 29.6597 51.274 29.6597 52.2619 29.6597C52.2619 28.672 52.2619 27.7618 52.2619 26.7935C54.1989 26.7935 56.0779 26.7935 58.0343 26.7935C58.0343 25.8058 58.0343 24.8762 58.0343 23.8692C60.0101 23.8692 61.9084 23.8692 63.8649 23.8692C63.8649 22.8815 63.8649 21.9713 63.8649 21.0029C64.8528 21.0029 65.7632 21.0029 66.7511 21.0029C66.7511 32.5647 66.7511 44.1458 66.7511 55.785C65.8213 55.785 64.9109 55.785 63.923 55.785C63.923 56.7727 63.923 57.7023 63.923 58.7093C61.9472 58.7093 60.0489 58.7093 58.0924 58.7093C58.0924 59.697 58.0924 60.6073 58.0924 61.5949C56.136 61.5949 54.2377 61.5949 52.2619 61.5949C52.2619 62.602 52.2619 63.5316 52.2619 64.5193C51.274 64.5193 50.3635 64.5193 49.3756 64.5193C49.3756 65.507 49.3756 66.4366 49.3756 67.4436C47.3998 67.4436 45.5015 67.4436 43.5451 67.4436C43.5451 68.4313 43.5451 69.3415 43.5451 70.3292C41.5887 70.3292 39.6903 70.3292 37.7145 70.3292C37.7145 71.3363 37.7145 72.2658 37.7145 73.2342C36.7266 73.2342 36.2036 73.2342 35.2351 73.2342C35.2545 61.6143 35.2545 50.0332 35.2545 38.3552Z" fill="white"/>
</g>
<defs>
<clipPath id="clip0_74_17">
<rect width="66.7317" height="72.5854" fill="white" transform="translate(0 0.609863)"/>
</clipPath>
</defs>
</svg>
