<svg width="98" height="74" viewBox="0 0 98 74" fill="none" xmlns="http://www.w3.org/2000/svg">
<g clip-path="url(#clip0_74_155)">
<path d="M0.512146 61.7909C0.512146 52.8613 0.512146 43.9316 0.512146 35.0019C1.78286 35.0019 3.07951 35.0019 4.42802 35.0019C4.42802 31.1239 4.42802 27.3734 4.42802 23.4954C5.7506 23.4954 6.99538 23.4954 8.34389 23.4954C8.34389 20.8931 8.34389 18.3928 8.34389 15.8159C9.66647 15.8159 10.8853 15.8159 12.2079 15.8159C12.2079 13.2391 12.2079 10.7388 12.2079 8.13641C13.5564 8.13641 14.8012 8.13641 16.1238 8.13641C16.1238 6.83523 16.1238 5.63611 16.1238 4.33493C20.0397 4.33493 23.8777 4.33493 27.8195 4.33493C27.8195 3.00824 27.8195 1.7836 27.8195 0.584473C30.4388 0.584473 32.9543 0.584473 35.5735 0.584473C35.5735 1.86014 35.5735 3.08478 35.5735 4.30942C44.6759 4.30942 53.6747 4.30942 62.7771 4.30942C62.7771 3.03375 62.7771 1.80911 62.7771 0.609986C65.4223 0.609986 67.9637 0.609986 70.583 0.609986C70.583 1.88565 70.583 3.08478 70.583 4.38596C74.4988 4.38596 78.3369 4.38596 82.2787 4.38596C82.2787 5.71265 82.2787 6.93729 82.2787 8.23847C83.6013 8.23847 84.8201 8.23847 86.1427 8.23847C86.1427 10.8153 86.1427 13.3156 86.1427 15.918C87.4912 15.918 88.736 15.918 90.0586 15.918C90.0586 18.4948 90.0586 20.9696 90.0586 23.5465C91.3812 23.5465 92.626 23.5465 93.9226 23.5465C93.9226 27.399 93.9226 31.1494 93.9226 35.0019C95.2452 35.0019 96.49 35.0019 97.7088 35.0019C97.7088 43.9826 97.7088 52.8612 97.7088 61.8164C96.4122 61.8164 95.1933 61.8164 93.8707 61.8164C93.8707 63.1176 93.8707 64.3422 93.8707 65.6689C91.2256 65.6689 88.6841 65.6689 86.0649 65.6689C86.0649 66.9701 86.0649 68.1692 86.0649 69.4704C83.4457 69.4704 80.9043 69.4704 78.2591 69.4704C78.2591 70.7971 78.2591 72.0218 78.2591 73.2209C75.6399 73.2209 73.1244 73.2209 70.5052 73.2209C70.5052 69.3939 70.5052 65.6179 70.5052 61.8675C67.86 61.8675 65.3186 61.8675 62.6734 61.8675C62.6734 63.1431 62.6734 64.3422 62.6734 65.5159C53.5969 65.5159 44.5981 65.5159 35.5476 65.5159C35.5476 64.2402 35.5476 63.0666 35.5476 61.8675C32.9024 61.8675 30.335 61.8675 27.7158 61.8675C27.7158 65.6944 27.7158 69.4449 27.7158 73.2209C25.0966 73.2209 22.5551 73.2209 19.91 73.2209C19.91 71.9452 19.91 70.7206 19.91 69.4194C17.2908 69.4194 14.7753 69.4194 12.156 69.4194C12.156 68.1182 12.156 66.8936 12.156 65.6179C9.53681 65.6179 7.02131 65.6179 4.40209 65.6179C4.40209 64.3167 4.40209 63.0921 4.40209 61.8164C3.02764 61.7909 1.78286 61.7909 0.512146 61.7909ZM27.7417 50.2334C31.6835 50.2334 35.5216 50.2334 39.4634 50.2334C39.4634 47.682 39.4634 45.1817 39.4634 42.6049C40.786 42.6049 42.0049 42.6049 43.2237 42.6049C43.2237 41.3037 43.2237 40.0791 43.2237 38.7524C41.9011 38.7524 40.6563 38.7524 39.3597 38.7524C39.3597 36.1755 39.3597 33.7008 39.3597 31.226C35.4438 31.226 31.6057 31.226 27.6899 31.226C27.6899 32.5016 27.6899 33.7263 27.6899 35.0274C26.3673 35.0274 25.1484 35.0274 23.9296 35.0274C23.9296 38.88 23.9296 42.6559 23.9296 46.5084C25.2522 46.5084 26.497 46.5084 27.7677 46.5084C27.7417 47.8096 27.7417 48.9832 27.7417 50.2334ZM58.8872 42.6559C58.8872 45.2583 58.8872 47.7331 58.8872 50.2589C62.8031 50.2589 66.6152 50.2589 70.557 50.2589C70.557 48.9832 70.557 47.7586 70.557 46.4574C71.8796 46.4574 73.0985 46.4574 74.3432 46.4574C74.3432 42.6049 74.3432 38.8544 74.3432 34.9764C73.0466 34.9764 71.8018 34.9764 70.4792 34.9764C70.4792 33.6752 70.4792 32.4761 70.4792 31.2515C66.5633 31.2515 62.7512 31.2515 58.8094 31.2515C58.8094 33.8028 58.8094 36.3031 58.8094 38.88C57.4868 38.88 56.268 38.88 55.0232 38.88C55.0232 40.1811 55.0232 41.4058 55.0232 42.6814C56.3198 42.6559 57.5387 42.6559 58.8872 42.6559Z" fill="white"/>
</g>
<defs>
<clipPath id="clip0_74_155">
<rect width="97.1707" height="72.5854" fill="white" transform="translate(0.512146 0.609863)"/>
</clipPath>
</defs>
</svg>
