<svg width="73" height="74" viewBox="0 0 73 74" fill="none" xmlns="http://www.w3.org/2000/svg">
<g clip-path="url(#clip0_74_5)">
<path d="M72.927 29.6441C68.1183 29.6441 63.3095 29.6441 58.4281 29.6441C58.4281 24.799 58.4281 19.9902 58.4281 15.1452C57.1942 15.1452 56.051 15.1452 54.817 15.1452C54.817 13.9294 54.817 12.7498 54.817 11.534C52.3672 11.534 49.9901 11.534 47.5403 11.534C47.5403 12.7136 47.5403 13.8568 47.5403 15.0907C45.1087 15.0907 42.7315 15.0907 40.2818 15.0907C40.2818 19.9721 40.2818 24.7627 40.2818 29.5897C36.6344 29.5897 33.0595 29.5897 29.4303 29.5897C29.4303 23.5832 29.4303 17.5768 29.4303 11.4977C30.5916 11.4977 31.7711 11.4977 32.9869 11.4977C32.9869 10.2638 32.9869 9.12058 32.9869 7.88663C34.2028 7.88663 35.3823 7.88663 36.6344 7.88663C36.6344 6.63453 36.6344 5.47316 36.6344 4.23921C37.8683 4.23921 39.0115 4.23921 40.2636 4.23921C40.2636 2.98711 40.2636 1.78946 40.2636 0.591797C46.3064 0.591797 52.3672 0.591797 58.41 0.591797C58.41 1.78946 58.41 2.98711 58.41 4.23921C60.8779 4.23921 63.2369 4.23921 65.6685 4.23921C65.6685 5.45502 65.6685 6.63453 65.6685 7.88663C66.9025 7.88663 68.082 7.88663 69.3159 7.88663C69.3159 11.5522 69.3159 15.1089 69.3159 18.7381C70.568 18.7381 71.7475 18.7381 72.927 18.7381C72.927 22.3856 72.927 26.0148 72.927 29.6441Z" fill="white"/>
<path d="M51.1151 40.5138C51.1151 39.2617 51.1151 38.1003 51.1151 36.939C35.3641 36.939 19.7038 36.939 3.97094 36.939C3.97094 38.1366 3.97094 39.3161 3.97094 40.5319C2.71885 40.5319 1.53933 40.5319 0.341675 40.5319C0.341675 49.0063 0.341675 57.4625 0.341675 65.9368C1.50304 65.9368 2.64626 65.9368 3.97094 65.9368C3.97094 68.4047 3.97094 70.8 3.97094 73.1953C19.7038 73.1953 35.4186 73.1953 51.1514 73.1953C51.1514 71.9977 51.1514 70.8 51.1514 69.5479C52.4035 69.5479 53.5649 69.5479 54.7444 69.5479C54.7444 59.8578 54.7444 50.2221 54.7444 40.5138C53.5286 40.5138 52.3672 40.5138 51.1151 40.5138ZM32.9507 47.736C32.9507 48.9155 32.9507 50.0225 32.9507 51.1838C32.9507 51.2564 32.9507 51.329 32.9507 51.3834C31.7893 51.3834 30.6098 51.3834 29.394 51.3834C29.394 55.0309 29.394 58.6057 29.394 62.235C28.1782 62.235 26.9987 62.235 25.7647 62.235C25.7647 58.6601 25.7647 55.0853 25.7647 51.3834C24.4945 51.3834 23.3331 51.3834 22.1536 51.3834C22.1536 51.3109 22.1536 51.2383 22.1536 51.1838C22.1536 50.0588 22.1536 48.97 22.1536 47.8086V44.1794H25.7284C26.9805 44.1794 28.1419 44.1794 29.394 44.1794H32.9507V47.736V47.736Z" fill="white"/>
</g>
<defs>
<clipPath id="clip0_74_5">
<rect width="72.5854" height="72.5854" fill="white" transform="translate(0.341675 0.609863)"/>
</clipPath>
</defs>
</svg>
