<svg width="55" height="76" viewBox="0 0 55 76" fill="none" xmlns="http://www.w3.org/2000/svg">
<g clip-path="url(#clip0_74_75)">
<path d="M0.105275 69.892C0.105275 66.8533 0.105275 63.8145 0.105275 60.7757C1.22614 60.7757 2.347 60.7757 3.5358 60.7757C3.5358 58.6789 3.5358 56.6885 3.5358 54.6373C4.4189 54.6373 5.23408 54.607 6.04925 54.6525C6.62667 54.6829 6.86443 54.531 6.84744 53.984C6.81348 53.0724 6.88141 52.1607 6.89839 51.2491C6.91537 50.3678 6.89839 49.5018 6.89839 48.5598C5.7096 48.5598 4.63968 48.5598 3.5358 48.5598C3.5358 37.4226 3.5358 26.3463 3.5358 15.1939C4.65666 15.1939 5.74356 15.1939 6.91537 15.1939C6.91537 13.1275 6.91537 11.1523 6.91537 9.10116C8.0702 9.10116 9.14012 9.10116 10.295 9.10116C10.295 8.08317 10.295 7.11076 10.295 6.04718C11.4668 6.04718 12.5537 6.04718 13.7085 6.04718C13.7085 5.01399 13.7085 4.05678 13.7085 3.02359C15.9842 3.02359 18.2089 3.02359 20.4846 3.02359C20.4846 1.96002 20.4846 0.972411 20.4846 0C25.019 0 29.5365 0 34.0709 0C34.0709 1.0028 34.0709 2.0056 34.0709 3.05398C36.3805 3.05398 38.5883 3.05398 40.864 3.05398C40.864 4.07197 40.864 5.04438 40.864 6.10796C42.0358 6.10796 43.1227 6.10796 44.2775 6.10796C44.2775 7.14114 44.2775 8.09836 44.2775 9.13155C45.4154 9.13155 46.5023 9.13155 47.6911 9.13155C47.6911 11.1979 47.6911 13.1731 47.6911 15.2243C48.8459 15.2243 49.9158 15.2243 51.0197 15.2243C51.0197 26.3766 51.0197 37.4682 51.0197 48.6509C49.8988 48.6509 48.8119 48.6509 47.725 48.6509C47.725 50.7173 47.725 52.6925 47.725 54.7437C48.8459 54.7437 49.9158 54.7437 51.0706 54.7437C51.0706 56.7797 51.0706 58.7701 51.0706 60.8061C52.2594 60.8061 53.3633 60.8061 54.4502 60.8061C54.4502 63.8449 54.4502 66.8836 54.4502 69.9224C53.3293 69.9224 52.2255 69.9224 51.0197 69.9224C51.0197 70.986 51.0197 71.9584 51.0197 72.9916C48.727 72.9916 46.5023 72.9916 44.2605 72.9916C44.2605 74.04 44.2605 75.0124 44.2605 76C32.933 76 21.6225 76 10.295 76C10.295 74.9972 10.295 73.9944 10.295 72.946C7.98529 72.946 5.77753 72.946 3.48485 72.946C3.48485 71.928 3.48485 70.9556 3.48485 69.9224C2.29606 69.892 1.20916 69.892 0.105275 69.892ZM30.6913 36.4806L30.6743 36.4654C30.6743 37.4682 30.6743 38.471 30.6743 39.4586C33.0179 39.4586 35.2427 39.4586 37.5184 39.4586C37.5184 38.4406 37.5184 37.4986 37.5184 36.4654C40.9319 36.4654 44.2775 36.4654 47.6061 36.4654C47.6061 35.417 47.6061 34.4446 47.6061 33.4114C46.4683 33.4114 45.4154 33.4114 44.2605 33.4114C44.2605 32.3782 44.2605 31.421 44.2605 30.4486C32.899 30.4486 21.6225 30.4486 10.295 30.4486C10.295 31.4514 10.295 32.4086 10.295 33.4418C9.14012 33.4418 8.0702 33.4418 6.98331 33.4418C6.98331 35.3411 6.98331 37.1643 6.98331 38.9724C6.98331 39.413 7.27201 39.4434 7.64564 39.4434C8.54572 39.4434 9.44581 39.4738 10.3629 39.5042C10.3629 41.5098 10.3629 43.5306 10.3629 45.6122C11.5177 45.6122 12.6046 45.6122 13.7594 45.6122C13.7594 47.6481 13.7594 49.6233 13.7594 51.6593C14.9143 51.6593 16.0012 51.6593 17.156 51.6593C17.156 52.7229 17.156 53.6953 17.156 54.7133C18.3108 54.7133 19.3807 54.7133 20.5186 54.7133C20.5186 55.7313 20.5186 56.7037 20.5186 57.6761C21.6904 57.6761 22.7773 57.6761 23.9151 57.6761C23.9151 54.6221 23.9151 51.6137 23.9151 48.6054L23.8982 48.6205C26.1739 48.6205 28.4326 48.6205 30.7083 48.6205L30.6913 48.6054C30.6913 51.6289 30.6913 54.6525 30.6913 57.6761C31.914 57.6761 33.0009 57.6761 34.1388 57.6761C34.1388 56.6581 34.1388 55.7161 34.1388 54.6677C35.2936 54.6677 36.3805 54.6677 37.5353 54.6677C37.5353 53.6042 37.5353 52.6317 37.5353 51.5986C38.6902 51.5986 39.7431 51.5986 40.8979 51.5986C40.8979 49.5626 40.8979 47.6026 40.8979 45.5666C42.0698 45.5666 43.1567 45.5666 44.2266 45.5666C44.2266 43.5002 44.2266 41.5098 44.2266 39.5498C43.0887 39.5498 42.0358 39.5498 40.881 39.5498C40.881 40.5678 40.881 41.525 40.881 42.4822C31.7782 42.4822 22.7603 42.4822 13.6915 42.4822C13.6915 41.4642 13.6915 40.5222 13.6915 39.5194C12.5367 39.5194 11.4328 39.5194 10.3289 39.5194C10.3289 38.5166 10.3289 37.529 10.3289 36.5262C12.6046 36.5262 14.8463 36.5262 17.156 36.5262C17.156 37.5442 17.156 38.4862 17.156 39.4586C19.4317 39.4586 21.6564 39.4586 23.9321 39.4586C23.9321 38.4254 23.9321 37.4378 23.9321 36.4654L23.9151 36.4806C26.1399 36.4806 28.4156 36.4806 30.6913 36.4806Z" fill="white"/>
<path d="M23.8982 48.6054C22.7943 48.6054 21.7074 48.6054 20.5526 48.6054C20.5526 47.6178 20.5526 46.6454 20.5526 45.6274C21.6225 45.6274 22.7094 45.6274 23.8812 45.6274C23.8812 46.6302 23.8812 47.633 23.8812 48.6206C23.8642 48.6358 23.8982 48.6054 23.8982 48.6054Z" fill="white"/>
<path d="M30.6913 48.6358C30.6913 47.6482 30.6913 46.6758 30.6913 45.6426C31.7952 45.6426 32.8821 45.6426 34.0199 45.6426C34.0199 46.5998 34.0199 47.5722 34.0199 48.6206C32.899 48.6206 31.7782 48.6206 30.6743 48.6206C30.6573 48.6054 30.6913 48.6358 30.6913 48.6358Z" fill="white"/>
<path d="M23.8982 36.4502C22.7943 36.4502 21.7074 36.4502 20.5526 36.4502C20.5526 35.4626 20.5526 34.4902 20.5526 33.4722C21.6225 33.4722 22.7094 33.4722 23.8812 33.4722C23.8812 34.475 23.8812 35.4778 23.8812 36.4654C23.8642 36.4806 23.8982 36.4502 23.8982 36.4502Z" fill="white"/>
<path d="M30.6913 36.4805C30.6913 35.4929 30.6913 34.5205 30.6913 33.4873C31.7952 33.4873 32.8821 33.4873 34.0199 33.4873C34.0199 34.4445 34.0199 35.4169 34.0199 36.4653C32.899 36.4653 31.7782 36.4653 30.6743 36.4653C30.6573 36.4501 30.6913 36.4805 30.6913 36.4805Z" fill="white"/>
</g>
<defs>
<clipPath id="clip0_74_75">
<rect width="54.3449" height="75.9696" fill="white" transform="translate(0.105275)"/>
</clipPath>
</defs>
</svg>
