<svg width="73" height="73" viewBox="0 0 73 73" fill="none" xmlns="http://www.w3.org/2000/svg">
<g clip-path="url(#clip0_74_95)">
<path d="M61.3363 0C61.3363 0.954376 61.3363 1.88927 61.3363 2.92156C62.2905 2.92156 63.1862 2.92156 64.1792 2.92156C64.1792 7.8103 64.1792 12.6406 64.1792 17.5099C63.2835 17.5099 62.3683 17.5099 61.3753 17.5099C61.3753 18.5032 61.3753 19.4186 61.3753 20.412C51.6004 20.412 41.9229 20.412 32.1285 20.412C32.1285 13.6145 32.1285 6.81697 32.1285 0C41.8645 0 51.6004 0 61.3363 0ZM55.4558 8.82311C49.5948 8.82311 43.7922 8.82311 37.9896 8.82311C37.9896 9.79696 37.9896 10.7124 37.9896 11.6473C43.8311 11.6473 49.6143 11.6473 55.4558 11.6473C55.4558 10.6929 55.4558 9.77748 55.4558 8.82311Z" fill="white"/>
<path d="M-3.05176e-05 26.2939C5.80258 26.2939 11.6247 26.2939 17.4662 26.2939C17.4662 33.1109 17.4662 39.8694 17.4662 46.7448C11.6441 46.7448 5.82206 46.7448 -3.05176e-05 46.7448C-3.05176e-05 39.9279 -3.05176e-05 33.1109 -3.05176e-05 26.2939Z" fill="white"/>
<path d="M26.287 0C26.287 6.77801 26.287 13.556 26.287 20.3925C21.419 20.3925 16.6095 20.3925 11.7026 20.3925C11.7026 19.4576 11.7026 18.5227 11.7026 17.5488C10.7095 17.5488 9.79432 17.5488 8.82072 17.5488C8.82072 12.6796 8.82072 7.84925 8.82072 2.96051C9.77485 2.96051 10.69 2.96051 11.6831 2.96051C11.6831 1.92823 11.6831 0.973853 11.6831 0C16.5511 0 21.419 0 26.287 0Z" fill="white"/>
<path d="M-3.05176e-05 58.4311C0.954091 58.4311 1.88874 58.4311 2.8818 58.4311C2.8818 57.4573 2.8818 56.5418 2.8818 55.5485C3.87487 55.5485 4.80952 55.5485 5.82206 55.5485C5.82206 54.5357 5.82206 53.6008 5.82206 52.627C7.78871 52.627 9.67748 52.627 11.6441 52.627C11.6441 53.5424 11.6441 54.4773 11.6441 55.4901C12.6567 55.4901 13.5913 55.4901 14.5649 55.4901C14.5649 57.4573 14.5649 59.3465 14.5649 61.2942C13.6497 61.2942 12.7151 61.2942 11.7026 61.2942C11.7026 60.3593 11.7026 59.4244 11.7026 58.4701C10.7095 58.4701 9.79432 58.4701 8.80125 58.4701C8.80125 63.3004 8.80125 68.1307 8.80125 72.9999C7.78871 72.9999 6.85406 72.9999 5.88047 72.9999C5.88047 69.1435 5.88047 65.3065 5.88047 61.3527C3.89434 61.3527 1.96663 61.3527 0.0194413 61.3527C-3.05176e-05 60.3788 -3.05176e-05 59.405 -3.05176e-05 58.4311Z" fill="white"/>
<path d="M20.4844 46.6865C20.4844 39.889 20.4844 33.1305 20.4844 26.333C31.1744 26.333 41.8061 26.333 52.5156 26.333C52.5156 33.0915 52.5156 39.8696 52.5156 46.6865C41.8645 46.6865 31.2134 46.6865 20.4844 46.6865ZM29.2467 37.9219C35.1077 37.9219 40.9103 37.9219 46.674 37.9219C46.674 36.9285 46.674 36.0131 46.674 35.0977C40.8325 35.0977 35.0493 35.0977 29.2467 35.0977C29.2467 36.0521 29.2467 36.9675 29.2467 37.9219Z" fill="white"/>
<path d="M40.9298 72.9805C40.9298 66.183 40.9298 59.4244 40.9298 52.627C51.6199 52.627 62.2904 52.627 72.9805 52.627C72.9805 59.405 72.9805 66.1635 72.9805 72.9805C62.3099 72.9805 51.6393 72.9805 40.9298 72.9805ZM67.1584 61.3527C66.8274 61.3527 66.5548 61.3527 66.2822 61.3527C60.499 61.3721 54.7159 61.3916 48.9327 61.4111C46.674 61.4111 46.6935 61.4111 46.7908 63.651C46.8103 64.1184 46.9856 64.2158 47.4139 64.2158C48.407 64.2158 49.4001 64.2548 50.3931 64.2742C55.709 64.2742 61.0442 64.2742 66.3601 64.2742C66.6132 64.2742 66.8858 64.2742 67.1584 64.2742C67.1584 63.2809 67.1584 62.3655 67.1584 61.3527Z" fill="white"/>
<path d="M37.9117 73C32.0701 73 26.287 73 20.4844 73C20.4844 66.2025 20.4844 59.4635 20.4844 52.6465C26.2675 52.6465 32.0701 52.6465 37.9117 52.6465C37.9117 59.405 37.9117 66.183 37.9117 73Z" fill="white"/>
<path d="M73 37.9609C73 38.9931 73 39.8891 73 40.8629C72.0653 40.8629 71.1307 40.8629 70.1181 40.8629C70.1181 41.8758 70.1181 42.8107 70.1181 43.8235C69.1056 43.8235 68.171 43.8235 67.1974 43.8235C67.1974 44.8168 67.1974 45.7322 67.1974 46.7061C65.2307 46.7061 63.3419 46.7061 61.3558 46.7061C61.3558 45.7712 61.3558 44.8363 61.3558 43.8624C60.3627 43.8624 59.4476 43.8624 58.474 43.8624C58.474 41.8952 58.474 40.006 58.474 38.0388C59.4086 38.0388 60.3433 38.0388 61.3169 38.0388C61.3169 38.9737 61.3169 39.8891 61.3169 40.8629C62.3099 40.8629 63.2251 40.8629 64.2376 40.8629C64.2376 36.0326 64.2376 31.2218 64.2376 26.3525C65.2307 26.3525 66.1459 26.3525 67.1389 26.3525C67.1389 30.1895 67.1389 34.046 67.1389 37.9803C69.1251 37.9609 71.0333 37.9609 73 37.9609Z" fill="white"/>
</g>
<defs>
<clipPath id="clip0_74_95">
<rect width="73" height="73" fill="white"/>
</clipPath>
</defs>
</svg>
