<svg width="72" height="72" viewBox="0 0 72 72" fill="none" xmlns="http://www.w3.org/2000/svg">
<g clip-path="url(#clip0_74_45)">
<path d="M0 72.0001C0 59.5201 0 47.0401 0 34.5601C0.941302 34.5601 1.90181 34.5601 2.90075 34.5601C2.90075 35.5585 2.90075 36.4609 2.90075 37.4593C4.84098 37.4593 6.72359 37.4593 8.68303 37.4593C8.68303 38.4577 8.68303 39.3793 8.68303 40.3585C9.66275 40.3585 10.5656 40.3585 11.5454 40.3585C11.5454 41.3377 11.5454 42.2593 11.5454 43.2577C12.5443 43.2577 13.4664 43.2577 14.4461 43.2577C14.4461 44.2369 14.4461 45.1393 14.4461 46.1185C16.3863 46.1185 18.2689 46.1185 20.19 46.1185C20.19 47.0977 20.19 48.0001 20.19 48.9793C21.1697 48.9793 22.0918 48.9793 23.0907 48.9793C23.0907 49.9777 23.0907 50.8993 23.0907 51.8593C24.0704 51.8593 24.9733 51.8593 25.9723 51.8593C25.9723 52.8385 25.9723 53.7409 25.9723 54.7201C27.9125 54.7201 29.7759 54.7201 31.7161 54.7201C31.7161 55.6993 31.7161 56.6209 31.7161 57.6193C32.7151 57.6193 33.6371 57.6193 34.6169 57.6193C34.6169 58.5985 34.6169 59.5009 34.6169 60.4225C35.5966 60.4225 36.5187 60.4225 37.5176 60.4225C37.5176 59.4625 37.5176 58.5409 37.5176 57.5617C38.4973 57.5617 39.4002 57.5617 40.3799 57.5617C40.3799 56.5825 40.3799 55.6609 40.3799 54.6817C42.3202 54.6817 44.1836 54.6817 46.1238 54.6817C46.1238 53.7025 46.1238 52.7809 46.1238 51.7825C47.1227 51.7825 48.0448 51.7825 49.0245 51.7825C49.0245 50.8033 49.0245 49.9009 49.0245 48.9217C50.0043 48.9217 50.9264 48.9217 51.9253 48.9217C51.9253 47.9233 51.9253 47.0017 51.9253 46.0225C53.8655 46.0225 55.7289 46.0225 57.6692 46.0225C57.6692 45.0433 57.6692 44.1217 57.6692 43.1233C58.6681 43.1233 59.5902 43.1233 60.5699 43.1233C60.5699 42.1441 60.5699 41.2417 60.5699 40.2625C61.5496 40.2625 62.4717 40.2625 63.4322 40.2625C63.4322 39.2833 63.4322 38.3809 63.4322 37.4017C65.3725 37.4017 67.2551 37.4017 69.2145 37.4017C69.2145 36.4033 69.2145 35.4817 69.2145 34.5793C70.1942 34.5793 71.0971 34.5793 72.0192 34.5793C72.0192 47.0593 72.0192 59.5009 72.0192 71.9809C47.968 72.0001 23.9744 72.0001 0 72.0001Z" fill="white"/>
<path d="M37.46 0C37.46 0.9216 37.46 1.8624 37.46 2.8608C38.4397 2.8608 39.3618 2.8608 40.3415 2.8608C40.3415 3.8208 40.3415 4.7232 40.3415 5.7024C42.2625 5.7024 44.1259 5.7024 46.047 5.7024C46.047 6.7008 46.047 7.6224 46.047 8.5824C39.381 8.5824 32.6958 8.5824 25.9723 8.5824C25.9723 7.68 25.9723 6.7776 25.9723 5.76C27.7972 5.76 29.6606 5.76 31.6009 5.76C31.6009 4.7616 31.6009 3.8592 31.6009 2.8992C32.619 2.8992 33.5411 2.8992 34.5785 2.8992C34.5785 1.8816 34.5785 0.9408 34.5785 0C35.539 0 36.4995 0 37.46 0Z" fill="white"/>
<path d="M60.4739 11.5776C60.4739 20.1984 60.4739 28.7808 60.4739 37.4208C59.5326 37.4208 58.6297 37.4208 57.65 37.4208C57.65 38.4 57.65 39.3216 57.65 40.32C55.7097 40.32 53.8463 40.32 51.9253 40.32C51.9253 41.2992 51.9253 42.2016 51.9253 43.1808C50.9264 43.1808 50.0043 43.1808 49.0053 43.1808C49.0053 44.16 49.0053 45.0816 49.0053 46.08C48.0064 46.08 47.0843 46.08 46.1046 46.08C46.1046 47.0592 46.1046 47.9616 46.1046 48.9408C44.1644 48.9408 42.2818 48.9408 40.3223 48.9408C40.3223 49.9392 40.3223 50.8608 40.3223 51.84C39.3426 51.84 38.4397 51.84 37.46 51.84C37.46 52.8192 37.46 53.7408 37.46 54.7008C36.4803 54.7008 35.5774 54.7008 34.5977 54.7008C34.5977 53.7984 34.5977 52.8768 34.5977 51.8784C33.5987 51.8784 32.6766 51.8784 31.6969 51.8784C31.6969 50.8992 31.6969 49.9968 31.6969 49.0176C29.7567 49.0176 27.8741 49.0176 25.9146 49.0176C25.9146 48.0192 25.9146 47.0976 25.9146 46.1184C24.9349 46.1184 24.032 46.1184 23.0523 46.1184C23.0523 45.1392 23.0523 44.2176 23.0523 43.2384C22.0534 43.2384 21.1313 43.2384 20.1323 43.2384C20.1323 42.2784 20.1323 41.376 20.1323 40.3968C18.1921 40.3968 16.3479 40.3968 14.4077 40.3968C14.4077 39.3984 14.4077 38.4768 14.4077 37.4976C13.428 37.4976 12.5251 37.4976 11.5646 37.4976C11.5646 28.8384 11.5646 20.256 11.5646 11.5968C27.8549 11.5776 44.1259 11.5776 60.4739 11.5776ZM43.2423 17.3376C38.3821 17.3376 33.6179 17.3376 28.7962 17.3376C28.7962 18.2976 28.7962 19.2 28.7962 20.1792C27.8164 20.1792 26.8944 20.1792 25.8954 20.1792C25.8954 21.1776 25.8954 22.0992 25.8954 23.0784C24.9157 23.0784 24.0128 23.0784 23.0331 23.0784C23.0331 25.0176 23.0331 26.8992 23.0331 28.8576C22.0342 28.8576 21.1121 28.8576 20.2092 28.8576C20.2092 30.7968 20.2092 32.6592 20.2092 34.5984C21.1697 34.5984 22.0918 34.5984 23.0907 34.5984C23.0907 36.5568 23.0907 38.4384 23.0907 40.3776C24.0704 40.3776 24.9733 40.3776 25.9531 40.3776C25.9531 41.3568 25.9531 42.2784 25.9531 43.2384C26.9328 43.2384 27.8357 43.2384 28.8154 43.2384C28.8154 44.2176 28.8154 45.1392 28.8154 46.0608C33.6564 46.0608 38.4205 46.0608 43.2423 46.0608C43.2423 45.1008 43.2423 44.1984 43.2423 43.2192C44.222 43.2192 45.1441 43.2192 46.143 43.2192C46.143 42.2208 46.143 41.2992 46.143 40.32C47.1227 40.32 48.0256 40.32 49.0053 40.32C49.0053 38.3808 49.0053 36.4992 49.0053 34.5408C50.0043 34.5408 50.9264 34.5408 51.8292 34.5408C51.8292 32.6016 51.8292 30.7392 51.8292 28.8C50.8687 28.8 49.9466 28.8 48.9477 28.8C48.9477 26.8416 48.9477 24.96 48.9477 23.0208C47.968 23.0208 47.0651 23.0208 46.0854 23.0208C46.0854 22.0416 46.0854 21.12 46.0854 20.16C45.1057 20.16 44.2028 20.16 43.2423 20.16C43.2423 19.1808 43.2423 18.2784 43.2423 17.3376Z" fill="white"/>
<path d="M8.58698 31.6609C6.66595 31.6609 4.80256 31.6609 2.91995 31.6609C2.91995 29.7409 2.91995 27.8977 2.91995 25.9585C4.78335 25.9585 6.66595 25.9585 8.58698 25.9585C8.58698 27.8401 8.58698 29.7409 8.58698 31.6609Z" fill="white"/>
<path d="M63.4514 25.939C65.3533 25.939 67.2167 25.939 69.1185 25.939C69.1185 27.859 69.1185 29.7214 69.1185 31.6606C67.2359 31.6606 65.3725 31.6606 63.4514 31.6606C63.4514 29.7982 63.4514 27.8974 63.4514 25.939Z" fill="white"/>
<path d="M31.7353 43.1423C31.7353 41.2223 31.7353 39.3791 31.7353 37.4591C32.6766 37.4591 33.5795 37.4591 34.5592 37.4591C34.5592 36.4799 34.5592 35.5775 34.5592 34.5791C35.5582 34.5791 36.4803 34.5791 37.4408 34.5791C37.4408 33.5999 37.4408 32.6975 37.4408 31.7183C38.4013 31.7183 39.3234 31.7183 40.3223 31.7183C40.3223 30.7199 40.3223 29.7983 40.3223 28.8383C41.302 28.8383 42.2049 28.8383 43.1846 28.8383C43.1846 27.8783 43.1846 26.9567 43.1846 25.9775C44.1836 25.9775 45.1057 25.9775 46.0662 25.9775C46.0662 29.7791 46.0662 33.5423 46.0662 37.4015C45.1633 37.4015 44.2412 37.4015 43.2423 37.4015C43.2423 38.3999 43.2423 39.3215 43.2423 40.3199C42.2433 40.3199 41.3212 40.3199 40.3607 40.3199C40.3607 41.2991 40.3607 42.2015 40.3607 43.1615C37.46 43.1423 34.6169 43.1423 31.7353 43.1423Z" fill="white"/>
<path d="M28.8538 37.4018C27.8548 37.4018 26.952 37.4018 25.9915 37.4018C25.9915 33.6002 25.9915 29.7986 25.9915 25.9202C26.9135 25.9202 27.8356 25.9202 28.7961 25.9202C28.7961 24.941 28.7961 24.0386 28.7961 23.0594C30.7172 23.0594 32.5998 23.0594 34.54 23.0594C34.54 22.0802 34.54 21.1778 34.54 20.2178C35.5197 20.2178 36.4418 20.2178 37.4408 20.2178C37.4408 21.1202 37.4408 22.0418 37.4408 23.0018C38.4205 23.0018 39.3234 23.0018 40.2839 23.0018C40.2839 23.981 40.2839 24.9026 40.2839 25.901C39.381 25.901 38.4589 25.901 37.4792 25.901C37.4792 26.8802 37.4792 27.7826 37.4792 28.7618C36.5187 28.7618 35.5966 28.7618 34.5976 28.7618C34.5976 29.7602 34.5976 30.6818 34.5976 31.6418C33.6179 31.6418 32.715 31.6418 31.7353 31.6418C31.7353 32.6018 31.7353 33.5234 31.7353 34.5218C30.7364 34.5218 29.8143 34.5218 28.8538 34.5218C28.8538 35.5202 28.8538 36.4226 28.8538 37.4018Z" fill="white"/>
</g>
<defs>
<clipPath id="clip0_74_45">
<rect width="72" height="72" fill="white"/>
</clipPath>
</defs>
</svg>
