<svg width="83" height="74" viewBox="0 0 83 74" fill="none" xmlns="http://www.w3.org/2000/svg">
<g clip-path="url(#clip0_74_140)">
<path d="M79.239 7.48759C79.239 8.61228 79.239 9.73696 79.239 10.9482C80.3921 10.9482 81.481 10.9482 82.6341 10.9482C82.6341 12.1594 82.6341 13.2624 82.6341 14.452C81.5237 14.452 80.4561 14.452 79.3031 14.452C79.3031 15.6199 79.3031 16.7013 79.3031 17.8693C78.1287 17.8693 77.0397 17.8693 75.844 17.8693C75.844 24.8337 75.844 31.7115 75.844 38.6327C74.6909 38.6327 73.6019 38.6327 72.4489 38.6327C72.4489 40.9469 72.4489 43.2179 72.4489 45.5322C71.2959 45.5322 70.2069 45.5322 69.0538 45.5322C69.0538 47.8464 69.0538 50.1174 69.0538 52.4749C67.8794 52.4749 66.7691 52.4749 65.6161 52.4749C65.6161 53.6429 65.6161 54.7459 65.6161 55.9139C64.463 55.9139 63.3741 55.9139 62.1783 55.9139C62.1783 57.1034 62.1783 58.2281 62.1783 59.3961C61.0253 59.3961 59.9363 59.3961 58.7832 59.3961C58.7832 60.564 58.7832 61.6671 58.7832 62.8783C57.6089 62.8783 56.4985 62.8783 55.3455 62.8783C55.3455 64.0462 55.3455 65.1493 55.3455 66.3172C53.0608 66.3172 50.8187 66.3172 48.534 66.3172C48.534 67.4851 48.534 68.5882 48.534 69.7561C43.9645 69.7561 39.4592 69.7561 34.847 69.7561C34.847 70.9457 34.847 72.0704 34.847 73.2167C30.2562 73.2167 25.7721 73.2167 21.2027 73.2167C21.2027 72.1353 21.2027 71.0106 21.2027 69.821C16.6119 69.821 12.0851 69.821 7.51568 69.821C7.51568 68.6315 7.51568 67.55 7.51568 66.3388C5.18825 66.3388 2.92487 66.3388 0.661499 66.3388C0.661499 65.1925 0.661499 64.0246 0.661499 62.8783C6.34129 62.8783 12.0424 62.8783 17.8076 62.8783C17.8076 61.9266 17.829 61.0831 17.8076 60.218C17.7863 59.6556 17.9784 59.461 18.5336 59.4826C20.5194 59.5042 22.5052 59.5042 24.5337 59.5042C24.5337 58.293 24.5337 57.19 24.5337 56.022C22.313 56.022 20.0924 56.022 17.7649 56.022C17.7649 54.8325 17.7649 53.7078 17.7649 52.5398C16.6119 52.5398 15.5229 52.5398 14.3699 52.5398C14.3699 51.3719 14.3699 50.2688 14.3699 49.0576C13.1955 49.0576 12.0851 49.0576 10.9534 49.0576C10.9534 47.8681 10.9534 46.7866 10.9534 45.6187C13.1741 45.6187 15.4161 45.6187 17.7009 45.6187C17.7009 44.4508 17.7009 43.3477 17.7009 42.1798C15.5015 42.1798 13.2595 42.1798 10.9534 42.1798C10.9534 40.9902 10.9534 39.8655 10.9534 38.6976C9.80041 38.6976 8.71142 38.6976 7.55838 38.6976C7.55838 37.5296 7.55838 36.4266 7.55838 35.2154C6.38399 35.2154 5.27366 35.2154 4.14197 35.2154C4.14197 32.8795 4.14197 30.6518 4.14197 28.3159C6.36264 28.3159 8.58331 28.3159 10.868 28.3159C10.868 27.1263 10.868 26.0016 10.868 24.8337C9.77905 24.8337 8.69007 24.8337 7.53703 24.8337C7.53703 23.6657 7.53703 22.5627 7.53703 21.3947C6.38399 21.3947 5.29501 21.3947 4.16332 21.3947C4.16332 16.7662 4.16332 12.2026 4.16332 7.57411C6.36264 7.57411 8.60466 7.57411 10.8894 7.57411C10.8894 8.67716 10.8894 9.75859 10.8894 10.9265C12.0424 10.9265 13.1314 10.9265 14.3272 10.9265C14.3272 12.1161 14.3272 13.2408 14.3272 14.4087C15.4802 14.4087 16.5692 14.4087 17.7222 14.4087C17.7222 15.5767 17.7222 16.6797 17.7222 17.8909C20.0496 17.8909 22.2703 17.8909 24.5764 17.8909C24.5764 19.0805 24.5764 20.1619 24.5764 21.3299C29.1459 21.3299 33.6512 21.3299 38.2207 21.3299C38.2207 22.4978 38.2207 23.6008 38.2207 24.7472C39.3737 24.7472 40.4627 24.7472 41.6585 24.7472C41.6585 21.3515 41.6585 17.9342 41.6585 14.4736C42.8115 14.4736 43.9005 14.4736 45.0535 14.4736C45.0535 12.1594 45.0535 9.88836 45.0535 7.53085C46.2279 7.53085 47.3383 7.53085 48.4913 7.53085C48.4913 6.36291 48.4913 5.25985 48.4913 4.09191C50.776 4.09191 53.018 4.09191 55.3455 4.09191C55.3455 2.90234 55.3455 1.77766 55.3455 0.631348C58.7832 0.631348 62.1356 0.631348 65.5734 0.631348C65.5734 1.7344 65.5734 2.83746 65.5734 4.0054C67.8794 4.0054 70.0788 4.0054 72.3848 4.0054C72.3848 5.17334 72.3848 6.27639 72.3848 7.50922C74.7336 7.50922 77.0184 7.50922 79.2817 7.50922L79.239 7.48759Z" fill="white"/>
<path d="M79.2604 7.50911C79.2604 6.38442 79.2604 5.28137 79.2604 4.0918C80.3707 4.0918 81.4597 4.0918 82.6127 4.0918C82.6127 5.17322 82.6127 6.27628 82.6127 7.48748C81.481 7.48748 80.3707 7.48748 79.239 7.48748C79.239 7.48748 79.2604 7.50911 79.2604 7.50911Z" fill="white"/>
</g>
<defs>
<clipPath id="clip0_74_140">
<rect width="81.9512" height="72.5854" fill="white" transform="translate(0.682861 0.609863)"/>
</clipPath>
</defs>
</svg>
