<svg width="63" height="74" viewBox="0 0 63 74" fill="none" xmlns="http://www.w3.org/2000/svg">
<g clip-path="url(#clip0_74_128)">
<path d="M59.6223 0.609863C59.6223 1.55907 59.6223 2.48891 59.6223 3.5156C60.6282 3.5156 61.5749 3.5156 62.5413 3.5156C62.5413 22.9066 62.5413 42.2201 62.5413 61.611C61.5946 61.611 60.6479 61.611 59.642 61.611C59.642 62.599 59.642 63.5094 59.642 64.4974C58.6362 64.4974 57.6895 64.4974 56.6639 64.4974C56.6639 65.5047 56.6639 66.4345 56.6639 67.4031C55.658 67.4031 54.731 67.4031 53.7251 67.4031C53.7251 48.0896 53.7251 28.7568 53.7251 9.34645C51.7134 9.34645 49.7805 9.34645 47.7885 9.34645C47.7885 8.3585 47.7885 7.44804 47.7885 6.46009C34.9488 6.46009 22.1682 6.46009 9.34821 6.46009C9.34821 5.45276 9.34821 4.52293 9.34821 3.53497C10.2949 3.53497 11.2219 3.53497 12.2672 3.53497C12.2672 2.52765 12.2672 1.55907 12.2672 0.609863C28.0654 0.609863 43.8439 0.609863 59.6223 0.609863Z" fill="white"/>
<path d="M41.8913 12.2715C30.0574 12.2715 18.2236 12.2715 6.38974 12.2715V18.0442H0.512268C0.512268 34.5101 0.512268 50.9759 0.512268 67.403H6.38974V73.1758H6.42919V73.1951C20.1564 73.1951 29.3671 73.1951 41.8913 73.1951V67.4224H47.7688C47.7688 50.9372 47.7688 34.4907 47.7688 18.0248H41.8913V12.2715ZM12.3461 35.5368C21.182 35.5368 29.9785 35.5368 38.8342 35.5368C38.8342 37.4352 38.8342 39.3142 38.8342 41.232C30.0574 41.232 21.2215 41.232 12.3461 41.232C12.3461 39.353 12.3461 37.4739 12.3461 35.5368ZM38.8934 49.9686C30.0377 49.9686 21.2412 49.9686 12.3658 49.9686C12.3658 49.0581 12.3658 48.1283 12.3658 47.1404C21.182 47.1404 30.018 47.1404 38.8934 47.1404C38.8934 48.1089 38.8934 49.0194 38.8934 49.9686ZM38.8934 32.5342C30.0377 32.5342 21.2412 32.5342 12.3658 32.5342C12.3658 30.6551 12.3658 28.7567 12.3658 26.8002C21.182 26.8002 30.018 26.8002 38.8934 26.8002C38.8934 28.7373 38.8934 30.6164 38.8934 32.5342Z" fill="white"/>
</g>
<defs>
<clipPath id="clip0_74_128">
<rect width="62.0488" height="72.5854" fill="white" transform="translate(0.512268 0.609863)"/>
</clipPath>
</defs>
</svg>
