<svg width="36" height="36" viewBox="0 0 36 36" fill="none" xmlns="http://www.w3.org/2000/svg">
<path d="M18.0487 2.26758C9.59265 2.26758 2.73621 9.12402 2.73621 17.5801C2.73621 26.0361 9.59265 32.8926 18.0487 32.8926C26.5048 32.8926 33.3612 26.0361 33.3612 17.5801C33.3612 9.12402 26.5048 2.26758 18.0487 2.26758ZM22.974 17.8159L15.5092 23.2471C15.4682 23.2765 15.42 23.294 15.3697 23.2978C15.3195 23.3016 15.2692 23.2914 15.2243 23.2685C15.1794 23.2455 15.1418 23.2106 15.1155 23.1677C15.0891 23.1247 15.0752 23.0753 15.0751 23.0249V12.1694C15.0749 12.1189 15.0887 12.0694 15.115 12.0263C15.1413 11.9831 15.179 11.9481 15.2239 11.9251C15.2689 11.9021 15.3193 11.892 15.3697 11.8959C15.42 11.8998 15.4683 11.9176 15.5092 11.9473L22.974 17.375C23.0093 17.3999 23.038 17.433 23.0579 17.4713C23.0777 17.5097 23.0881 17.5523 23.0881 17.5955C23.0881 17.6387 23.0777 17.6812 23.0579 17.7196C23.038 17.7579 23.0093 17.791 22.974 17.8159Z" fill="#B6D1ED"/>
</svg>
