<svg width="57" height="74" viewBox="0 0 57 74" fill="none" xmlns="http://www.w3.org/2000/svg">
<path d="M54.2003 68.18C54.2857 64.2669 54.352 60.5119 54.4324 56.7598C54.4451 56.0116 54.4549 55.4836 54.6247 54.548C54.7436 53.8518 55.0274 52.381 55.7437 52.666C56.3108 52.9634 56.6755 53.2472 56.7793 54.5502C57.0302 57.9164 56.7804 61.2938 56.5505 64.646C56.3456 67.606 56.1443 69.86 55.8089 72.4683C55.6522 73.6864 54.9613 74.0399 53.8974 73.6662C52.9426 73.3305 51.9569 73.0029 51.0832 72.493C47.9232 70.6718 44.8233 68.7751 41.6893 66.9007C41.2986 66.6703 40.98 66.5141 40.5541 66.1731C40.0421 65.7549 39.6463 65.4793 39.9435 64.9094C40.2207 64.3648 41.0562 64.5721 41.4559 64.7603C44.8311 66.2591 51.7419 69.4676 52.1486 69.5542C51.3634 67.4583 50.6803 65.5019 49.8872 63.5809C44.2999 50.2299 37.8114 37.3937 28.3638 26.2687C20.8855 17.4623 12.4962 9.69864 2.91963 3.24295C2.35653 2.85806 1.81945 2.41981 1.31042 1.98753C0.612013 1.41188 0.350391 0.988094 0.62266 0.604349C1.23035 -0.0466342 1.80342 0.222593 2.27927 0.397509C3.23399 0.733257 4.12969 1.2773 5.00036 1.80128C16.5736 8.93229 26.0294 18.3659 34.2868 29.0903C42.7627 40.0968 48.4377 52.5536 53.0763 65.5407C53.2949 66.2351 53.9959 67.9009 54.2003 68.18Z" fill="#3790EC"/>
</svg>
