<svg width="69" height="61" viewBox="0 0 69 61" fill="none" xmlns="http://www.w3.org/2000/svg">
<path d="M2.47705 5.45351C3.20832 9.29853 3.92524 12.9851 4.62783 16.6718C4.77121 17.4062 4.87159 17.9246 4.90026 18.8751C4.92894 19.5807 4.95762 21.0784 4.19767 20.9488C3.58112 20.776 3.1653 20.5744 2.7925 19.3215C1.84615 16.0813 1.38732 12.7259 0.91415 9.39933C0.498333 6.46156 0.225901 4.21504 0.0108228 1.59409C-0.0895469 0.370014 0.512672 -0.119614 1.63108 0.024395C2.63477 0.154003 3.66715 0.269207 4.62783 0.586025C8.09775 1.70929 11.5247 2.91896 14.9802 4.09983C15.4104 4.24384 15.7545 4.33024 16.242 4.57506C16.8299 4.87748 17.2744 5.06469 17.1024 5.68392C16.9446 6.27436 16.0843 6.24555 15.6542 6.14475C12.0409 5.3815 4.61349 3.68221 4.19767 3.68221C5.40211 5.56871 6.4775 7.34002 7.65326 9.05371C15.8979 20.9488 24.9169 32.1526 36.4737 41.0668C45.6217 48.1232 55.4436 53.9699 66.1545 58.2902C66.7854 58.5494 67.4019 58.8662 67.9898 59.183C68.7928 59.6006 69.1369 59.9606 68.9505 60.3927C68.4917 61.1559 67.8751 61.0119 67.3732 60.9399C66.3695 60.8103 65.3802 60.4647 64.4195 60.1335C51.6152 55.5684 40.4025 48.3104 30.0931 39.5403C19.5112 30.5398 11.3669 19.5375 4.12598 7.80084C3.76752 7.1672 2.73514 5.68392 2.47705 5.45351Z" fill="#3790EC"/>
</svg>
