<svg width="36" height="36" viewBox="0 0 36 36" fill="none" xmlns="http://www.w3.org/2000/svg">
<path d="M14.134 5.96883C13.6264 5.23245 12.9477 4.63034 12.156 4.21425C11.3644 3.79815 10.4835 3.58053 9.58921 3.58008C6.52321 3.58008 4.04871 6.08258 4.04871 9.15733C4.04729 10.0536 4.26172 10.9371 4.67385 11.733C5.08597 12.5289 5.68369 13.2139 6.41646 13.7301C6.0061 14.9721 5.79753 16.272 5.79871 17.5801C5.79871 20.6478 6.92571 23.4531 8.79121 25.6021L6.05421 28.3373C5.97297 28.4187 5.90855 28.5152 5.86462 28.6215C5.8207 28.7277 5.79814 28.8416 5.79822 28.9566C5.7983 29.0715 5.82103 29.1854 5.8651 29.2916C5.90917 29.3977 5.97373 29.4942 6.05508 29.5755C6.13643 29.6567 6.23299 29.7211 6.33924 29.765C6.44549 29.809 6.55935 29.8315 6.67432 29.8314C6.78929 29.8314 6.90312 29.8086 7.00931 29.7646C7.1155 29.7205 7.21197 29.6559 7.29321 29.5746L10.0267 26.8393C12.2518 28.7723 15.1013 29.8347 18.0487 29.8301C20.9964 29.8342 23.8459 28.7712 26.0707 26.8376L28.8042 29.5728C28.8854 29.6542 28.9819 29.7187 29.0881 29.7628C29.1943 29.8069 29.3081 29.8296 29.4231 29.8297C29.5381 29.8298 29.6519 29.8072 29.7582 29.7633C29.8644 29.7194 29.961 29.6549 30.0423 29.5737C30.1237 29.4925 30.1882 29.396 30.2323 29.2898C30.2764 29.1836 30.2991 29.0698 30.2992 28.9548C30.2993 28.8399 30.2767 28.726 30.2328 28.6197C30.1889 28.5135 30.1244 28.4169 30.0432 28.3356L27.308 25.6021C29.241 23.377 30.3033 20.5275 30.2987 17.5801C30.2987 16.2238 30.0782 14.9183 29.6705 13.6986C30.4054 13.1863 31.0055 12.5038 31.4197 11.7094C31.8338 10.915 32.0496 10.0322 32.0487 9.13633C32.0494 8.40721 31.9064 7.6851 31.628 7.01125C31.3496 6.33739 30.9411 5.72499 30.4259 5.20902C29.9108 4.69305 29.299 4.28363 28.6256 4.00413C27.9522 3.72463 27.2303 3.58054 26.5012 3.58008C24.6147 3.58008 22.9487 4.52508 21.9477 5.96358C20.6909 5.54264 19.3741 5.32868 18.0487 5.33008C16.6802 5.33008 15.3642 5.55408 14.134 5.96883ZM9.58921 5.33008C10.739 5.33008 11.7732 5.84808 12.4697 6.67058C10.1609 7.85557 8.2859 9.74034 7.11296 12.0553C6.69911 11.6946 6.36759 11.2492 6.14085 10.7492C5.9141 10.2492 5.79742 9.70632 5.79871 9.15733C5.79871 7.03633 7.50146 5.33008 9.58921 5.33008ZM23.6155 6.66533C24.3137 5.84633 25.348 5.33008 26.503 5.33008C28.5977 5.33008 30.2987 7.03283 30.2987 9.13633C30.2987 10.2931 29.7842 11.3291 28.9722 12.0291C27.7962 9.72216 25.9222 7.84514 23.6172 6.66533H23.6155ZM17.1737 10.5801C17.4058 10.5801 17.6283 10.6723 17.7924 10.8364C17.9565 11.0005 18.0487 11.223 18.0487 11.4551V17.5801H22.4237C22.6558 17.5801 22.8783 17.6723 23.0424 17.8364C23.2065 18.0005 23.2987 18.223 23.2987 18.4551C23.2987 18.6871 23.2065 18.9097 23.0424 19.0738C22.8783 19.2379 22.6558 19.3301 22.4237 19.3301H17.1737C16.9416 19.3301 16.7191 19.2379 16.555 19.0738C16.3909 18.9097 16.2987 18.6871 16.2987 18.4551V11.4551C16.2987 11.223 16.3909 11.0005 16.555 10.8364C16.7191 10.6723 16.9416 10.5801 17.1737 10.5801Z" fill="#B6D1ED"/>
</svg>
