<svg width="72" height="73" viewBox="0 0 72 73" fill="none" xmlns="http://www.w3.org/2000/svg">
<path d="M39.6775 1.23808C39.678 1.23827 39.6784 1.23845 39.6789 1.23864L68.7204 13.5671L36 27.4568L3.27958 13.5671L32.3211 1.23864C32.3216 1.23845 32.322 1.23827 32.3225 1.23808C34.6801 0.253972 37.3198 0.253972 39.6775 1.23808Z" stroke="white"/>
<path d="M0.5 19.4096L32.5 32.8999V72.247L4.08608 60.2869C4.0857 60.2867 4.08533 60.2866 4.08495 60.2864C1.92676 59.3693 0.5 57.2284 0.5 54.8459V19.4096Z" stroke="white"/>
<path d="M39.5 32.8999L71.5 19.4096V54.7985C71.5 57.2075 70.0707 59.3701 67.8921 60.2862L67.8918 60.2863L39.5 72.2467V32.8999Z" stroke="white"/>
</svg>
