<svg width="97" height="67" viewBox="0 0 97 67" fill="none" xmlns="http://www.w3.org/2000/svg">
<path d="M81.1782 50.9201L80.4935 50.2218C70.3914 56.6282 60.9061 59.4181 51.3391 59.5893C41.7627 59.7606 32.0701 57.3089 21.5538 53.177C20.3859 52.718 19.2408 52.1976 18.1233 51.6227L18.1232 51.6227L16.2298 50.6493L15.1422 50.0901L15.5266 51.2511C15.5458 51.3092 15.5747 51.36 15.5844 51.3772L15.5853 51.3786C15.6013 51.4069 15.6206 51.4384 15.6419 51.4715C15.6848 51.5385 15.7432 51.624 15.8168 51.7255C15.9644 51.9291 16.1786 52.2046 16.463 52.5351C17.032 53.1961 17.8854 54.0811 19.0539 55.0518C21.2791 56.9005 24.6468 59.0604 29.3654 60.5766C28.1861 61.9805 27.0394 63.4101 26.1535 64.5333C25.6493 65.1725 25.229 65.7132 24.9348 66.0941C24.8053 66.2617 24.7001 66.3985 24.623 66.4991C18.1735 66.4514 11.8082 64.5331 6.44654 60.9602C2.42041 58.1346 0.12042 53.2811 0.551564 48.3616L0.551661 48.3605C1.36717 38.8058 3.59166 29.3978 7.00414 20.4354L7.00446 20.4346C10.891 10.1725 19.9092 2.71657 30.6854 0.869049C32.1646 0.656568 33.5651 0.513405 35.0207 0.500892L35.1438 0.62477C28.1183 2.38927 22.9679 4.84429 19.536 6.89549C17.7509 7.96249 16.4312 8.91996 15.5547 9.61372C15.1164 9.96059 14.789 10.2416 14.5696 10.4373C14.4599 10.5352 14.3772 10.6118 14.3211 10.6647C14.2931 10.6912 14.2717 10.7117 14.257 10.726L14.2398 10.7427L14.2349 10.7475L14.2334 10.749L14.2329 10.7495C14.2327 10.7497 14.2325 10.7499 14.5853 11.1042L14.2325 10.7499L14.8056 11.5531C35.7548 1.26838 60.3305 1.41749 81.1308 12L82.8197 12.8593L81.7746 11.2786C81.7407 11.2273 81.6974 11.1832 81.6836 11.1689C81.659 11.1434 81.6291 11.1141 81.5953 11.0822C81.5272 11.0178 81.4342 10.9339 81.317 10.8328C81.0822 10.6301 80.7438 10.3526 80.3016 10.0159C79.4171 9.34226 78.1135 8.4289 76.3875 7.40141C73.0723 5.42789 68.1969 3.03231 61.7367 1.10628L62.1896 0.650343C62.6392 0.651635 63.2998 0.660644 64.1757 0.723492C75.8311 1.83279 85.8757 9.50941 90.0558 20.5844L90.0576 20.589C93.3946 29.1749 95.545 38.1336 96.4348 47.316C96.9382 52.5289 94.4944 57.5291 90.1729 60.4309C84.5819 64.0855 78.13 66.0058 71.5256 66.0491C71.4389 65.948 71.3168 65.8052 71.1658 65.6273C70.8456 65.2501 70.3954 64.7151 69.8756 64.0842C68.9631 62.9769 67.8394 61.5785 66.8289 60.2221C77.0479 57.0496 80.9885 51.2065 81.1782 50.9201ZM80.9735 11.8734C80.9733 11.8732 80.972 11.8719 80.9701 11.8696C80.9727 11.8724 80.9737 11.8736 80.9735 11.8734ZM24.0716 37.8731L24.0716 37.874C23.9145 43.0917 27.9215 47.4584 33.0514 47.6174L33.0669 47.1176L33.0831 47.6174C37.9767 47.4586 41.8263 43.4876 42.0619 38.5884L42.062 38.5884L42.0622 38.5795C42.2193 33.3618 38.2123 28.9951 33.0824 28.8361L33.0665 28.8356L33.0507 28.8362C28.1639 28.9949 24.2291 32.9608 24.0716 37.8731ZM54.4766 37.8731L54.4766 37.874C54.3195 43.0917 58.3265 47.4584 63.4564 47.6174L63.4719 47.1176L63.4881 47.6174C68.3749 47.4588 72.31 43.493 72.4672 38.5804L72.4673 38.5795C72.6244 33.3618 68.6173 28.9951 63.4874 28.8361L63.4716 28.8356L63.4557 28.8362C58.569 28.9949 54.6341 32.9608 54.4766 37.8731Z" stroke="white"/>
</svg>
