<svg width="74" height="81" viewBox="0 0 74 81" fill="none" xmlns="http://www.w3.org/2000/svg">
<path d="M22.2721 38.9409C24.4357 39.2207 24.6394 39.5406 26.803 39.8204C26.7229 40.1802 26.3623 40.9399 26.6027 41.2197C27.0434 41.7794 27.8047 42.3791 28.4858 42.4991C30.97 42.9388 33.2938 42.659 35.0568 40.2602M33.2938 34.8229C32.9733 35.5826 32.6528 36.3422 32.3723 37.1418C32.0918 37.9813 32.3322 38.581 33.2137 38.9009C35.6978 39.7804 38.182 39.7005 40.6661 38.9009C41.6277 38.621 41.8681 37.9414 41.4674 37.0218C41.1068 36.2222 40.7462 35.4626 40.3856 34.623M39.0234 40.3402C40.5459 43.2987 44.1119 42.9388 46.2755 42.2592C47.8381 41.7794 47.8781 41.0198 46.9165 39.7005C49.1202 39.4606 49.3639 39.2207 51.6477 38.9808M36.8998 42.7789C35.778 43.7384 34.7763 44.658 33.6945 45.5775C36.0985 47.0168 37.9015 46.9768 39.9048 45.4576C38.9432 44.578 37.9816 43.7384 36.8998 42.7789Z" stroke="white" stroke-linecap="round"/>
<path d="M67.1502 58.6908C64.4657 56.252 61.1001 55.0126 57.6944 54.9327C57.454 52.5339 57.8146 50.1351 58.2153 47.6964C58.9765 43.2586 60.0584 38.8608 60.5392 34.3831C61.5408 25.3477 59.1368 17.1118 53.5675 9.91549C50.1218 5.47773 45.5942 2.51923 40.025 1.31984C39.8647 1.27986 39.7445 1.11994 39.5842 1C37.9816 1 36.3789 1 34.7762 1C34.656 1.07996 34.5759 1.1999 34.4557 1.23988C23.5175 3.47874 17.6276 11.0349 14.4223 20.9899C12.3789 27.3866 12.7796 33.9833 14.1418 40.5C15.0233 44.6579 16.4256 48.7358 16.1051 53.0536C16.065 53.7733 15.9448 54.4529 15.8647 55.1726C12.5392 55.2525 9.21361 56.4919 6.5692 58.9307C2.92313 62.3289 0.0783873 66.247 1.28039 69.4453C3.76453 76.002 28.8063 79.1604 35.3772 79.8801C36.419 80 37.4607 80 38.5024 79.8801C45.0734 79.1604 70.2353 76.002 72.7194 69.4453C73.9615 66.167 70.9565 62.129 67.1502 58.6908ZM23.0367 32.9438C25.2003 32.1043 27.4841 31.4646 29.7679 31.2247C35.6176 30.545 41.4674 30.4651 47.277 31.8244C48.9599 32.2242 50.6026 32.8639 52.0851 33.7034C54.6894 35.1027 55.3305 36.8219 54.5291 39.7004C52.7662 46.2571 49.1602 51.6543 44.3522 56.332C41.7478 58.8507 41.7078 58.8107 40.1452 61.6893C39.7044 59.6103 39.2637 57.5714 38.823 55.4924C38.5024 53.8932 39.1435 52.6538 40.3455 51.6144C41.6276 50.4949 42.8697 49.3355 44.1118 48.1761C44.0316 48.0562 43.9515 47.9762 43.8313 47.8563C41.4674 48.376 39.1034 49.3355 36.7796 49.2955C34.4557 49.2556 32.0917 48.2161 29.5275 47.8563C30.6493 48.9357 31.651 50.1751 32.853 51.0946C34.7361 52.4939 35.4574 54.1731 34.8964 56.4919C34.4557 58.211 34.055 59.9302 33.454 61.6893C32.7328 59.3305 31.0099 57.8512 29.3672 56.292C24.8397 51.8143 21.434 46.6169 19.5108 40.54C18.2687 36.6619 19.1902 34.4231 23.0367 32.9438Z" stroke="white"/>
</svg>
