<svg width="70" height="72" viewBox="0 0 70 72" fill="none" xmlns="http://www.w3.org/2000/svg">
<path d="M29.2391 52.8425V60.2611C29.2391 61.8344 27.9634 63.109 26.3912 63.109C24.8191 63.109 23.5434 61.8344 23.5434 60.2611V52.8425C22.1394 51.9166 21.1955 50.337 21.1955 48.5219C21.1955 45.6564 23.5256 43.3263 26.3911 43.3263C29.2566 43.3263 31.5867 45.6564 31.5867 48.5218L29.2391 52.8425ZM29.2391 52.8425C30.6431 51.9166 31.587 50.337 31.5867 48.5219L29.2391 52.8425ZM7.60867 34.9351H45.174C48.7818 34.9351 51.7174 37.8706 51.7173 41.4785V64.9567C51.7173 68.5645 48.7816 71.5002 45.1738 71.5002H7.60867C4.00089 71.5002 1.06519 68.5645 1.06519 64.9567V41.4785C1.06519 37.8708 4.00089 34.9351 7.60867 34.9351Z" stroke="white"/>
<path d="M27.674 21.1305C27.674 9.75538 36.9285 0.5 48.3044 0.5C59.6802 0.5 68.9349 9.75538 68.9349 21.1305V29.2391H58.1958V21.1305C58.1958 15.6755 53.7594 11.2391 48.3044 11.2391C42.8495 11.2391 38.4131 15.6757 38.4131 21.1305V29.2391H27.674V21.1305Z" stroke="white"/>
</svg>
