<svg width="73" height="73" viewBox="0 0 73 73" fill="none" xmlns="http://www.w3.org/2000/svg">
<path d="M15.1133 0.5H26.7325V20.8867H15.1133C12.6378 20.8867 10.6231 18.872 10.6231 16.3965V4.99023C10.6231 2.51476 12.6378 0.5 15.1133 0.5Z" stroke="white"/>
<path d="M32.0098 20.8867V0.5H57.8867C60.3622 0.5 62.377 2.51476 62.377 4.99023V16.3965C62.377 18.872 60.3622 20.8867 57.8867 20.8867H32.0098Z" stroke="white"/>
<path d="M25.2364 52.1133H36.8555V72.5H25.2364C22.7609 72.5 20.7461 70.4852 20.7461 68.0098V56.6035C20.7461 54.128 22.7609 52.1133 25.2364 52.1133Z" stroke="white"/>
<path d="M42.1328 72.5V52.1133H68.0098C70.4853 52.1133 72.5 54.128 72.5 56.6035V68.0098C72.5 70.4852 70.4853 72.5 68.0098 72.5H42.1328Z" stroke="white"/>
<path d="M4.99026 26.3066H16.6094V46.6934H4.99026C2.51479 46.6934 0.500031 44.6786 0.500031 42.2031V30.7969C0.500031 28.3214 2.51479 26.3066 4.99026 26.3066Z" stroke="white"/>
<path d="M21.8867 46.6934V26.3066H47.7637C50.2392 26.3066 52.2539 28.3214 52.2539 30.7969V42.2031C52.2539 44.6786 50.2392 46.6934 47.7637 46.6934H21.8867Z" stroke="white"/>
<path d="M62.5 27V46.5M62.5 46.5L58 42.5M62.5 46.5L67 42.5" stroke="white" stroke-linecap="round"/>
<path d="M9.5 72.5V53M9.5 53L5 57M9.5 53L14 57" stroke="white" stroke-linecap="round"/>
<rect x="29" y="36" width="16" height="1" fill="white"/>
<rect x="40" y="10" width="16" height="1" fill="white"/>
<rect x="49" y="62" width="16" height="1" fill="white"/>
</svg>
