<svg width="72" height="67" viewBox="0 0 72 67" fill="none" xmlns="http://www.w3.org/2000/svg">
<path d="M35.7007 59.338L36 59.5616L36.2992 59.338L71.5 33.0406V66.4882H0.5V33.0401L35.7007 59.338Z" stroke="white"/>
<path d="M54.4844 37.1766L36 51.0392L17.5156 37.1766V6.28516H54.4844V37.1766ZM51.2656 24.7695C51.2656 16.3525 44.4171 9.50391 36 9.50391C27.5829 9.50391 20.7344 16.3525 20.7344 24.7695C20.7344 33.1866 27.5829 40.0351 36 40.0351C44.4171 40.0351 51.2656 33.1866 51.2656 24.7695Z" stroke="white"/>
<rect x="23.3974" y="33.124" width="29.7915" height="1" transform="rotate(-39.9364 23.3974 33.124)" fill="white"/>
<rect x="6" y="32" width="11" height="1" fill="white"/>
<rect x="3" y="29.0615" width="18.5721" height="1" transform="rotate(-39.9364 3 29.0615)" fill="white"/>
<rect width="18.571" height="1" transform="matrix(-0.766758 -0.641937 -0.641937 0.766758 69.0291 29.0615)" fill="white"/>
<path d="M43.4526 5.86475L37.5 0.99997L36.9635 1.73622L42.8107 6.6315L43.4526 5.86475Z" fill="white"/>
<path d="M31.4983 5.93018L37.5 0.999909L38.0577 1.7428L32.1402 6.69693L31.4983 5.93018Z" fill="white"/>
<rect x="55" y="32" width="11" height="1" fill="white"/>
</svg>
