<svg width="89" height="72" viewBox="0 0 89 72" fill="none" xmlns="http://www.w3.org/2000/svg">
<mask id="path-1-inside-1_78_676" fill="white">
<path d="M27.9898 71.9995C61.5763 71.9995 79.9433 44.3014 79.9433 20.2837C79.9433 19.4971 79.927 18.7137 79.8916 17.9346C83.4566 15.3687 86.5551 12.1668 89 8.52222C85.7284 9.9704 82.2069 10.944 78.514 11.3844C82.2837 9.13335 85.1781 5.57384 86.5432 1.33061C83.0152 3.41268 79.1078 4.92533 74.9485 5.74234C71.6165 2.20938 66.8721 0 61.6193 0C51.5361 0 43.3584 8.13972 43.3584 18.1735C43.3584 19.6006 43.5189 20.9875 43.8319 22.3181C28.656 21.558 15.1983 14.3258 6.19328 3.32762C4.62577 6.01323 3.72119 9.13389 3.72119 12.4637C3.72119 18.7689 6.94492 24.3368 11.8466 27.5929C8.85096 27.5014 6.03707 26.6827 3.57696 25.3201C3.57424 25.3965 3.57424 25.4708 3.57424 25.552C3.57424 34.3549 9.86821 41.7047 18.2244 43.3701C16.6896 43.7857 15.0747 44.0094 13.4092 44.0094C12.2347 44.0094 11.0896 43.8946 9.97706 43.6816C12.3016 50.9036 19.043 56.1589 27.0351 56.3062C20.7852 61.1823 12.9123 64.0867 4.35581 64.0867C2.8841 64.0867 1.42926 64.0028 0 63.8348C8.08136 68.991 17.6774 72 27.9903 72"/>
</mask>
<path d="M79.8916 17.9346L79.3074 17.1229L78.8681 17.4392L78.8926 17.9799L79.8916 17.9346ZM89 8.52222L89.8305 9.07931L91.7562 6.2086L88.5952 7.6078L89 8.52222ZM78.514 11.3844L78.0013 10.5259L78.6325 12.3774L78.514 11.3844ZM86.5432 1.33061L87.4951 1.63686L88.3009 -0.867877L86.0349 0.469405L86.5432 1.33061ZM74.9485 5.74234L74.221 6.42846L74.5997 6.82996L75.1413 6.72359L74.9485 5.74234ZM43.8319 22.3181L43.7819 23.3169L45.1097 23.3834L44.8053 22.0892L43.8319 22.3181ZM6.19328 3.32762L6.96701 2.69411L6.05518 1.58045L5.32962 2.82353L6.19328 3.32762ZM11.8466 27.5929L11.8161 28.5924L15.3198 28.6995L12.4 26.7599L11.8466 27.5929ZM3.57696 25.3201L4.06147 24.4454L2.63562 23.6556L2.57759 25.2845L3.57696 25.3201ZM18.2244 43.3701L18.4858 44.3354L18.4199 42.3894L18.2244 43.3701ZM9.97706 43.6816L10.165 42.6995L8.50833 42.3824L9.02516 43.988L9.97706 43.6816ZM27.0351 56.3062L27.6502 57.0947L29.8756 55.3584L27.0535 55.3064L27.0351 56.3062ZM0 63.8348L0.116707 62.8417L-0.537874 64.6778L0 63.8348ZM27.9898 72.9995C62.2394 72.9995 80.9433 44.736 80.9433 20.2837H78.9433C78.9433 43.8669 60.9132 70.9995 27.9898 70.9995V72.9995ZM80.9433 20.2837C80.9433 19.4833 80.9267 18.6847 80.8906 17.8892L78.8926 17.9799C78.9273 18.7426 78.9433 19.5109 78.9433 20.2837H80.9433ZM80.4758 18.7462C84.1373 16.1109 87.3192 12.8228 89.8305 9.07931L88.1695 7.96513C85.791 11.5108 82.7759 14.6265 79.3074 17.1229L80.4758 18.7462ZM88.5952 7.6078C85.4151 9.01546 81.9903 9.96274 78.3956 10.3915L78.6325 12.3774C82.4236 11.9252 86.0416 10.9253 89.4048 9.43664L88.5952 7.6078ZM79.0267 12.243C82.9997 9.8705 86.0537 6.11733 87.4951 1.63686L85.5912 1.02437C84.3025 5.03035 81.5677 8.39619 78.0013 10.5259L79.0267 12.243ZM86.0349 0.469405C82.6028 2.49489 78.8019 3.96631 74.7558 4.76109L75.1413 6.72359C79.4138 5.88435 83.4276 4.33047 87.0514 2.19182L86.0349 0.469405ZM75.676 5.05622C72.1622 1.33055 67.1577 -1 61.6193 -1V1C66.5864 1 71.0707 3.08822 74.221 6.42846L75.676 5.05622ZM61.6193 -1C50.9883 -1 42.3584 7.58296 42.3584 18.1735H44.3584C44.3584 8.69648 52.0839 1 61.6193 1V-1ZM42.3584 18.1735C42.3584 19.6758 42.5274 21.1397 42.8585 22.5471L44.8053 22.0892C44.5105 20.8354 44.3584 19.5253 44.3584 18.1735H42.3584ZM43.8819 21.3194C28.9977 20.5739 15.7994 13.4815 6.96701 2.69411L5.41954 3.96113C14.5971 15.17 28.3142 22.5421 43.7819 23.3169L43.8819 21.3194ZM5.32962 2.82353C3.6761 5.65652 2.72119 8.95036 2.72119 12.4637H4.72119C4.72119 9.31741 5.57544 6.36994 7.05693 3.83171L5.32962 2.82353ZM2.72119 12.4637C2.72119 19.1179 6.12448 24.9923 11.2933 28.4259L12.4 26.7599C7.76535 23.6813 4.72119 18.42 4.72119 12.4637H2.72119ZM11.8772 26.5934C9.04581 26.5068 6.38697 25.7334 4.06147 24.4454L3.09244 26.1949C5.68717 27.6321 8.65612 28.4959 11.8161 28.5924L11.8772 26.5934ZM2.57759 25.2845C2.57413 25.3817 2.57424 25.4737 2.57424 25.552H4.57424C4.57424 25.4678 4.57434 25.4114 4.57633 25.3557L2.57759 25.2845ZM2.57424 25.552C2.57424 34.8439 9.21694 42.5946 18.029 44.3508L18.4199 42.3894C10.5195 40.8148 4.57424 33.8659 4.57424 25.552H2.57424ZM17.9631 42.4049C16.5118 42.7978 14.9848 43.0094 13.4092 43.0094V45.0094C15.1646 45.0094 16.8673 44.7736 18.4858 44.3354L17.9631 42.4049ZM13.4092 43.0094C12.3002 43.0094 11.218 42.901 10.165 42.6995L9.78908 44.6638C10.9611 44.8881 12.1692 45.0094 13.4092 45.0094V43.0094ZM9.02516 43.988C11.478 51.6084 18.5884 57.1507 27.0167 57.3061L27.0535 55.3064C19.4976 55.1671 13.1253 50.1988 10.929 43.3752L9.02516 43.988ZM26.42 55.5178C20.3401 60.2612 12.6822 63.0867 4.35581 63.0867V65.0867C13.1424 65.0867 21.2304 62.1033 27.6502 57.0947L26.42 55.5178ZM4.35581 63.0867C2.9221 63.0867 1.50625 63.0049 0.116707 62.8417L-0.116707 64.828C1.35227 65.0006 2.8461 65.0867 4.35581 65.0867V63.0867ZM-0.537874 64.6778C7.69823 69.9327 17.4799 73 27.9903 73V71C17.8749 71 8.46449 68.0492 0.537874 62.9918L-0.537874 64.6778Z" fill="white" mask="url(#path-1-inside-1_78_676)"/>
</svg>
