<svg width="61" height="74" viewBox="0 0 61 74" fill="none" xmlns="http://www.w3.org/2000/svg">
<path d="M2.75958 13.2744H44.6786C45.9227 13.2744 46.9367 14.2881 46.9367 15.534V71.2406C46.9367 72.4865 45.9227 73.5002 44.6786 73.5002H2.75958C1.5139 73.5002 0.5 72.4863 0.5 71.2406V15.534C0.5 14.2883 1.5139 13.2744 2.75958 13.2744Z" stroke="white"/>
<rect x="12" y="31" width="23" height="1" fill="white"/>
<rect x="12" y="40" width="23" height="1" fill="white"/>
<rect x="12" y="49" width="23" height="1" fill="white"/>
<path d="M52.1222 66.9355C57.1629 66.9355 60.0242 63.4268 60.0242 59.871V8.06452C60.0242 4.16873 56.6671 1 52.5417 1H15.3602C11.2349 1 7.87775 4.16873 7.87775 8.06452" stroke="white"/>
</svg>
