<svg width="249" height="118" viewBox="0 0 249 118" fill="none" xmlns="http://www.w3.org/2000/svg">
<g filter="url(#filter0_d_327_10670)">
<path d="M216.346 72.587C216.346 75.3095 214.182 77.5 211.523 77.5H37.3298C34.6712 77.5 32.5 75.3086 32.5 72.587V29.4201C32.5 26.6989 34.6721 24.5 37.3298 24.5H211.522C214.181 24.5 216.345 26.6979 216.345 29.4201L216.346 72.587Z" fill="#3790EC" stroke="#3790EC"/>
<path d="M72.6772 49.6895C72.637 45.3384 76.3312 43.2216 76.5001 43.1231C74.4079 40.149 71.1652 39.7427 70.0256 39.7103C67.3021 39.4308 64.6602 41.2992 63.2729 41.2992C61.8578 41.2992 59.7213 39.7373 57.4187 39.7832C54.4556 39.8277 51.6836 41.5004 50.1633 44.0978C47.0258 49.3938 49.3658 57.1766 52.3718 61.4574C53.8755 63.554 55.6325 65.8949 57.9324 65.8125C60.1824 65.7221 61.0229 64.4139 63.7381 64.4139C66.4284 64.4139 67.2176 65.8125 69.5632 65.7599C71.9779 65.7221 73.4982 63.6539 74.9493 61.5384C76.687 59.1354 77.3849 56.7689 77.4125 56.6474C77.3558 56.6285 72.7229 54.9045 72.6772 49.6895Z" fill="white"/>
<path d="M68.2464 36.8942C69.4565 35.4186 70.2845 33.4112 70.0547 31.374C68.3032 31.4496 66.1127 32.5553 64.8513 33.9984C63.7353 35.2701 62.7384 37.3545 62.9959 39.3147C64.9635 39.4578 66.9836 38.3468 68.2464 36.8942Z" fill="white"/>
<path d="M98.877 36.4932C98.877 38.0821 98.3882 39.2782 97.412 40.0815C96.5079 40.8226 95.223 41.1939 93.5587 41.1939C92.7334 41.1939 92.0273 41.1588 91.436 41.0886V32.4067C92.2073 32.2852 93.038 32.2231 93.9353 32.2231C95.5207 32.2231 96.7156 32.5593 97.5214 33.2316C98.4242 33.9916 98.877 35.0784 98.877 36.4932ZM97.347 36.5323C97.347 35.5023 97.0673 34.7125 96.5079 34.1617C95.9485 33.6123 95.1316 33.3369 94.0557 33.3369C93.5988 33.3369 93.2097 33.3666 92.8871 33.4287V40.0288C93.0657 40.0558 93.3925 40.068 93.8674 40.068C94.9779 40.068 95.835 39.7669 96.4387 39.1648C97.0424 38.5627 97.347 37.6852 97.347 36.5323Z" fill="white"/>
<path d="M106.989 37.881C106.989 38.8597 106.703 39.6616 106.13 40.2907C105.529 40.9374 104.733 41.26 103.738 41.26C102.78 41.26 102.017 40.9509 101.448 40.3299C100.881 39.7102 100.597 38.9286 100.597 37.9863C100.597 37.0008 100.889 36.1921 101.476 35.5644C102.063 34.9366 102.852 34.6221 103.846 34.6221C104.805 34.6221 105.574 34.9312 106.157 35.5509C106.711 36.153 106.989 36.9306 106.989 37.881ZM105.484 37.9269C105.484 37.3396 105.354 36.8361 105.095 36.4162C104.791 35.9086 104.357 35.6548 103.794 35.6548C103.211 35.6548 102.768 35.9086 102.463 36.4162C102.203 36.8361 102.074 37.3477 102.074 37.9525C102.074 38.5398 102.204 39.0433 102.463 39.4632C102.777 39.9708 103.215 40.2246 103.78 40.2246C104.334 40.2246 104.769 39.9667 105.081 39.4497C105.35 39.0217 105.484 38.5141 105.484 37.9269Z" fill="white"/>
<path d="M117.867 34.7515L115.825 41.1154H114.495L113.649 38.3519C113.435 37.6621 113.26 36.9763 113.125 36.2959H113.098C112.972 36.9952 112.798 37.6796 112.574 38.3519L111.675 41.1154H110.33L108.41 34.7515H109.901L110.639 37.7768C110.818 38.4923 110.965 39.1741 111.082 39.8194H111.109C111.217 39.2875 111.395 38.6098 111.647 37.7903L112.574 34.7528H113.756L114.644 37.7255C114.858 38.4505 115.033 39.1484 115.167 39.8207H115.207C115.305 39.166 115.454 38.468 115.65 37.7255L116.442 34.7528H117.867V34.7515Z" fill="white"/>
<path d="M125.39 41.1157H123.938V37.4707C123.938 36.3475 123.501 35.7859 122.623 35.7859C122.192 35.7859 121.845 35.9398 121.575 36.249C121.308 36.5581 121.172 36.9226 121.172 37.3398V41.1144H119.721V36.5703C119.721 36.0114 119.703 35.4052 119.668 34.7491H120.944L121.011 35.7441H121.052C121.22 35.4349 121.472 35.1798 121.803 34.9759C122.197 34.7383 122.637 34.6182 123.119 34.6182C123.728 34.6182 124.235 34.8099 124.638 35.1946C125.139 35.6658 125.39 36.3691 125.39 37.3033V41.1157Z" fill="white"/>
<path d="M129.391 41.1155H127.941V31.8315H129.391V41.1155Z" fill="white"/>
<path d="M137.934 37.881C137.934 38.8597 137.648 39.6616 137.074 40.2907C136.473 40.9374 135.676 41.26 134.683 41.26C133.724 41.26 132.961 40.9509 132.393 40.3299C131.825 39.7102 131.541 38.9286 131.541 37.9863C131.541 37.0008 131.834 36.1921 132.421 35.5644C133.008 34.9366 133.797 34.6221 134.79 34.6221C135.749 34.6221 136.518 34.9312 137.102 35.5509C137.656 36.153 137.934 36.9306 137.934 37.881ZM136.428 37.9269C136.428 37.3396 136.298 36.8361 136.039 36.4162C135.735 35.9086 135.301 35.6548 134.739 35.6548C134.154 35.6548 133.711 35.9086 133.408 36.4162C133.148 36.8361 133.019 37.3477 133.019 37.9525C133.019 38.5398 133.149 39.0433 133.408 39.4632C133.722 39.9708 134.16 40.2246 134.725 40.2246C135.279 40.2246 135.712 39.9667 136.025 39.4497C136.295 39.0217 136.428 38.5141 136.428 37.9269Z" fill="white"/>
<path d="M144.957 41.1156H143.654L143.546 40.3825H143.506C143.06 40.9671 142.425 41.26 141.599 41.26C140.983 41.26 140.485 41.067 140.109 40.6836C139.769 40.3353 139.599 39.9019 139.599 39.3876C139.599 38.61 139.931 38.0173 140.6 37.6069C141.267 37.1965 142.206 36.9954 143.415 37.0048V36.886C143.415 36.0477 142.963 35.6292 142.059 35.6292C141.415 35.6292 140.847 35.7871 140.357 36.1003L140.062 35.1715C140.669 34.8057 141.418 34.6221 142.301 34.6221C144.007 34.6221 144.863 35.4996 144.863 37.2546V39.5982C144.863 40.234 144.895 40.7403 144.957 41.1156ZM143.45 38.9286V37.9471C141.85 37.9201 141.05 38.3481 141.05 39.2296C141.05 39.5617 141.141 39.8101 141.328 39.9762C141.515 40.1422 141.753 40.2246 142.037 40.2246C142.355 40.2246 142.653 40.126 142.924 39.9303C143.197 39.7332 143.365 39.4834 143.427 39.177C143.442 39.1081 143.45 39.0244 143.45 38.9286Z" fill="white"/>
<path d="M153.202 41.1155H151.915L151.847 40.0935H151.807C151.395 40.8711 150.695 41.2599 149.71 41.2599C148.924 41.2599 148.269 40.9589 147.75 40.3568C147.231 39.7547 146.972 38.973 146.972 38.0132C146.972 36.9831 147.253 36.1488 147.818 35.5116C148.365 34.9176 149.035 34.6206 149.832 34.6206C150.709 34.6206 151.322 34.9082 151.671 35.4846H151.699V31.8315H153.151V39.401C153.151 40.0206 153.168 40.5917 153.202 41.1155ZM151.699 38.4317V37.3706C151.699 37.187 151.685 37.0385 151.659 36.9251C151.577 36.5849 151.401 36.2987 151.134 36.0678C150.864 35.837 150.538 35.7209 150.163 35.7209C149.622 35.7209 149.198 35.9301 148.887 36.35C148.578 36.7698 148.421 37.3058 148.421 37.9605C148.421 38.5896 148.569 39.0999 148.867 39.4928C149.181 39.9113 149.605 40.1205 150.135 40.1205C150.612 40.1205 150.993 39.9464 151.282 39.5967C151.562 39.2741 151.699 38.8853 151.699 38.4317Z" fill="white"/>
<path d="M165.613 37.881C165.613 38.8597 165.326 39.6616 164.753 40.2907C164.152 40.9374 163.357 41.26 162.362 41.26C161.405 41.26 160.642 40.9509 160.071 40.3299C159.504 39.7102 159.22 38.9286 159.22 37.9863C159.22 37.0008 159.512 36.1921 160.099 35.5644C160.686 34.9366 161.475 34.6221 162.471 34.6221C163.428 34.6221 164.199 34.9312 164.781 35.5509C165.334 36.153 165.613 36.9306 165.613 37.881ZM164.109 37.9269C164.109 37.3396 163.979 36.8361 163.72 36.4162C163.414 35.9086 162.982 35.6548 162.417 35.6548C161.835 35.6548 161.392 35.9086 161.086 36.4162C160.826 36.8361 160.697 37.3477 160.697 37.9525C160.697 38.5398 160.827 39.0433 161.086 39.4632C161.401 39.9708 161.838 40.2246 162.403 40.2246C162.957 40.2246 163.393 39.9667 163.706 39.4497C163.973 39.0217 164.109 38.5141 164.109 37.9269Z" fill="white"/>
<path d="M173.415 41.1157H171.965V37.4707C171.965 36.3475 171.528 35.7859 170.649 35.7859C170.218 35.7859 169.87 35.9398 169.602 36.249C169.333 36.5581 169.199 36.9226 169.199 37.3398V41.1144H167.746V36.5703C167.746 36.0114 167.73 35.4052 167.695 34.7491H168.969L169.037 35.7441H169.077C169.247 35.4349 169.499 35.1798 169.829 34.9759C170.223 34.7383 170.662 34.6182 171.146 34.6182C171.753 34.6182 172.26 34.8099 172.663 35.1946C173.166 35.6658 173.415 36.3691 173.415 37.3033V41.1157Z" fill="white"/>
<path d="M183.181 35.8112H181.583V38.9027C181.583 39.6884 181.867 40.0812 182.429 40.0812C182.689 40.0812 182.905 40.0596 183.075 40.0151L183.113 41.0883C182.826 41.1936 182.45 41.2463 181.986 41.2463C181.413 41.2463 180.967 41.0762 180.644 40.736C180.32 40.3958 180.159 39.8234 180.159 39.0201V35.8112H179.205V34.7514H180.159V33.585L181.581 33.1665V34.7501H183.179V35.8112H183.181Z" fill="white"/>
<path d="M190.863 41.1155H189.41V37.4975C189.41 36.3567 188.973 35.7857 188.096 35.7857C187.423 35.7857 186.963 36.1164 186.711 36.7779C186.669 36.917 186.644 37.0871 186.644 37.2869V41.1141H185.194V31.8315H186.644V35.6669H186.671C187.128 34.9689 187.783 34.6206 188.632 34.6206C189.233 34.6206 189.73 34.8123 190.125 35.1971C190.616 35.6763 190.863 36.3891 190.863 37.3314V41.1155Z" fill="white"/>
<path d="M198.787 37.6325C198.787 37.8863 198.767 38.0996 198.733 38.2738H194.381C194.4 38.9029 194.608 39.3821 195.011 39.7142C195.379 40.0112 195.854 40.1597 196.436 40.1597C197.079 40.1597 197.666 40.0598 198.195 39.8587L198.422 40.8415C197.804 41.1034 197.075 41.2343 196.232 41.2343C195.221 41.2343 194.425 40.9441 193.849 40.3636C193.27 39.7831 192.984 39.0041 192.984 38.0267C192.984 37.0669 193.251 36.2677 193.79 35.6305C194.352 34.9501 195.112 34.6099 196.071 34.6099C197.01 34.6099 197.723 34.9501 198.205 35.6305C198.594 36.1705 198.787 36.8387 198.787 37.6325ZM197.402 37.2667C197.413 36.8468 197.318 36.485 197.121 36.1799C196.869 35.7871 196.485 35.59 195.966 35.59C195.493 35.59 195.106 35.7817 194.811 36.1664C194.57 36.4729 194.428 36.8387 194.381 37.2667H197.402Z" fill="white"/>
<path d="M105.239 65.5112H102.095L100.372 60.2341H94.3853L92.7445 65.5112H89.6831L95.6148 47.5454H99.2785L105.239 65.5112ZM99.8531 58.0201L98.2954 53.3288C98.1306 52.8496 97.8219 51.721 97.3663 49.9444H97.3109C97.1296 50.7085 96.8374 51.8371 96.4359 53.3288L94.9059 58.0201H99.8531Z" fill="white"/>
<path d="M120.494 58.8745C120.494 61.0777 119.883 62.8192 118.662 64.0976C117.568 65.2357 116.21 65.804 114.588 65.804C112.838 65.804 111.581 65.1911 110.815 63.9653H110.76V70.7896H107.808V56.8211C107.808 55.436 107.77 54.0145 107.698 52.5565H110.294L110.459 54.6098H110.515C111.499 53.0627 112.993 52.2905 114.998 52.2905C116.565 52.2905 117.874 52.894 118.921 54.1022C119.97 55.3118 120.494 56.9021 120.494 58.8745ZM117.486 58.9798C117.486 57.7189 117.195 56.6794 116.611 55.8613C115.973 55.0081 115.116 54.5815 114.041 54.5815C113.313 54.5815 112.651 54.8191 112.06 55.2875C111.467 55.76 111.08 56.377 110.898 57.1411C110.807 57.4975 110.761 57.7891 110.761 58.0186V60.1786C110.761 61.1209 111.057 61.916 111.65 62.5654C112.243 63.2147 113.012 63.5387 113.96 63.5387C115.071 63.5387 115.937 63.1202 116.556 62.2859C117.176 61.4503 117.486 60.3487 117.486 58.9798Z" fill="white"/>
<path d="M135.776 58.8745C135.776 61.0777 135.165 62.8192 133.942 64.0976C132.85 65.2357 131.492 65.804 129.87 65.804C128.12 65.804 126.863 65.1911 126.099 63.9653H126.043V70.7896H123.091V56.8211C123.091 55.436 123.054 54.0145 122.982 52.5565H125.578L125.743 54.6098H125.798C126.781 53.0627 128.275 52.2905 130.281 52.2905C131.847 52.2905 133.156 52.894 134.205 54.1022C135.251 55.3118 135.776 56.9021 135.776 58.8745ZM132.768 58.9798C132.768 57.7189 132.476 56.6794 131.892 55.8613C131.253 55.0081 130.399 54.5815 129.323 54.5815C128.594 54.5815 127.933 54.8191 127.341 55.2875C126.748 55.76 126.362 56.377 126.18 57.1411C126.09 57.4975 126.043 57.7891 126.043 58.0186V60.1786C126.043 61.1209 126.339 61.916 126.929 62.5654C127.522 63.2134 128.292 63.5387 129.242 63.5387C130.353 63.5387 131.219 63.1202 131.838 62.2859C132.458 61.4503 132.768 60.3487 132.768 58.9798Z" fill="white"/>
<path d="M152.862 60.4731C152.862 62.0013 152.318 63.2446 151.225 64.2045C150.025 65.2534 148.353 65.7772 146.206 65.7772C144.223 65.7772 142.634 65.4046 141.43 64.6581L142.114 62.2591C143.41 63.0232 144.832 63.4066 146.382 63.4066C147.494 63.4066 148.359 63.1609 148.981 62.6722C149.6 62.1835 149.908 61.5274 149.908 60.7093C149.908 59.9803 149.654 59.3661 149.143 58.8679C148.635 58.3698 147.786 57.9067 146.601 57.4788C143.374 56.3056 141.763 54.5871 141.763 52.3272C141.763 50.8503 142.328 49.6393 143.459 48.697C144.586 47.7534 146.09 47.2822 147.97 47.2822C149.647 47.2822 151.04 47.5671 152.151 48.1354L151.413 50.4817C150.375 49.9309 149.201 49.6555 147.887 49.6555C146.848 49.6555 146.037 49.9053 145.455 50.4021C144.964 50.8462 144.717 51.3876 144.717 52.0288C144.717 52.7389 144.999 53.3262 145.563 53.7879C146.055 54.2145 146.948 54.6762 148.244 55.1743C149.829 55.7967 150.994 56.5243 151.743 57.3586C152.489 58.1902 152.862 59.2311 152.862 60.4731Z" fill="white"/>
<path d="M162.622 54.7165H159.368V61.0061C159.368 62.6059 159.941 63.4051 161.091 63.4051C161.618 63.4051 162.056 63.3605 162.402 63.2714L162.483 65.4571C161.902 65.669 161.136 65.7757 160.188 65.7757C159.022 65.7757 158.111 65.4287 157.453 64.7362C156.798 64.0423 156.469 62.8786 156.469 61.2437V54.7138H154.53V52.5538H156.469V50.1818L159.368 49.3286V52.5538H162.622V54.7165Z" fill="white"/>
<path d="M177.303 58.9272C177.303 60.9185 176.719 62.5533 175.553 63.8318C174.33 65.148 172.707 65.8041 170.684 65.8041C168.735 65.8041 167.183 65.1737 166.025 63.9128C164.868 62.6519 164.289 61.0602 164.289 59.1419C164.289 57.1344 164.884 55.4901 166.079 54.2117C167.271 52.9319 168.88 52.292 170.903 52.292C172.853 52.292 174.422 52.9224 175.605 54.1847C176.738 55.4091 177.303 56.99 177.303 58.9272ZM174.24 59.0204C174.24 57.8256 173.978 56.801 173.448 55.9464C172.829 54.9123 171.944 54.3966 170.798 54.3966C169.611 54.3966 168.71 54.9137 168.091 55.9464C167.561 56.8023 167.299 57.8432 167.299 59.0744C167.299 60.2691 167.561 61.2938 168.091 62.147C168.729 63.1811 169.621 63.6968 170.772 63.6968C171.899 63.6968 172.784 63.1703 173.422 62.12C173.966 61.2492 174.24 60.2138 174.24 59.0204Z" fill="white"/>
<path d="M186.898 55.0877C186.606 55.0351 186.295 55.0081 185.968 55.0081C184.929 55.0081 184.126 55.3901 183.561 56.1556C183.07 56.8306 182.823 57.6838 182.823 58.7138V65.5111H179.873L179.9 56.6362C179.9 55.1431 179.863 53.7836 179.79 52.5578H182.361L182.469 55.0364H182.551C182.862 54.1846 183.354 53.4988 184.027 52.9844C184.684 52.5214 185.395 52.2905 186.16 52.2905C186.433 52.2905 186.68 52.3094 186.898 52.3432V55.0877Z" fill="white"/>
<path d="M200.101 58.4213C200.101 58.937 200.066 59.3716 199.993 59.7267H191.137C191.171 61.0065 191.599 61.9852 192.422 62.6602C193.168 63.2637 194.133 63.5661 195.318 63.5661C196.629 63.5661 197.826 63.3622 198.902 62.9532L199.364 64.9512C198.107 65.4858 196.623 65.7517 194.91 65.7517C192.849 65.7517 191.232 65.1604 190.055 63.9792C188.881 62.7979 188.293 61.2117 188.293 59.2218C188.293 57.2683 188.84 55.6416 189.935 54.3443C191.081 52.9592 192.631 52.2666 194.58 52.2666C196.495 52.2666 197.945 52.9592 198.929 54.3443C199.709 55.4445 200.101 56.8053 200.101 58.4213ZM197.286 57.6747C197.305 56.8215 197.113 56.0844 196.713 55.462C196.202 54.6615 195.417 54.2619 194.36 54.2619C193.395 54.2619 192.61 54.6521 192.01 55.4351C191.519 56.0574 191.227 56.8039 191.137 57.6733H197.286V57.6747Z" fill="white"/>
</g>
<defs>
<filter id="filter0_d_327_10670" x="0" y="0" width="249" height="118" filterUnits="userSpaceOnUse" color-interpolation-filters="sRGB">
<feFlood flood-opacity="0" result="BackgroundImageFix"/>
<feColorMatrix in="SourceAlpha" type="matrix" values="0 0 0 0 0 0 0 0 0 0 0 0 0 0 0 0 0 0 127 0" result="hardAlpha"/>
<feOffset dy="8"/>
<feGaussianBlur stdDeviation="16"/>
<feColorMatrix type="matrix" values="0 0 0 0 0.215686 0 0 0 0 0.564706 0 0 0 0 0.92549 0 0 0 0.4 0"/>
<feBlend mode="normal" in2="BackgroundImageFix" result="effect1_dropShadow_327_10670"/>
<feBlend mode="normal" in="SourceGraphic" in2="effect1_dropShadow_327_10670" result="shape"/>
</filter>
</defs>
</svg>
