<svg width="185" height="54" viewBox="0 0 185 54" fill="none" xmlns="http://www.w3.org/2000/svg">
<path d="M40.6772 25.6895C40.637 21.3384 44.3312 19.2216 44.5001 19.1231C42.4079 16.149 39.1652 15.7427 38.0256 15.7103C35.3021 15.4308 32.6602 17.2992 31.2729 17.2992C29.8578 17.2992 27.7213 15.7373 25.4187 15.7832C22.4556 15.8277 19.6836 17.5004 18.1633 20.0978C15.0258 25.3938 17.3658 33.1766 20.3718 37.4574C21.8755 39.554 23.6325 41.8949 25.9324 41.8125C28.1824 41.7221 29.0229 40.4139 31.7381 40.4139C34.4284 40.4139 35.2176 41.8125 37.5632 41.7599C39.9779 41.7221 41.4982 39.6539 42.9493 37.5384C44.687 35.1354 45.3849 32.7689 45.4125 32.6474C45.3558 32.6285 40.7229 30.9045 40.6772 25.6895Z" fill="white"/>
<path d="M36.2464 12.8942C37.4565 11.4186 38.2845 9.41117 38.0547 7.37402C36.3032 7.44962 34.1127 8.55527 32.8513 9.99842C31.7353 11.2701 30.7384 13.3545 30.9959 15.3147C32.9635 15.4578 34.9836 14.3468 36.2464 12.8942Z" fill="white"/>
<path d="M66.877 12.4932C66.877 14.0821 66.3882 15.2782 65.412 16.0815C64.5079 16.8226 63.223 17.1939 61.5587 17.1939C60.7334 17.1939 60.0273 17.1588 59.436 17.0886V8.40674C60.2073 8.28524 61.038 8.22314 61.9353 8.22314C63.5207 8.22314 64.7156 8.55929 65.5214 9.23159C66.4242 9.99164 66.877 11.0784 66.877 12.4932ZM65.347 12.5323C65.347 11.5023 65.0673 10.7125 64.5079 10.1617C63.9485 9.61229 63.1316 9.33689 62.0557 9.33689C61.5988 9.33689 61.2097 9.36659 60.8871 9.42869V16.0288C61.0657 16.0558 61.3925 16.068 61.8674 16.068C62.9779 16.068 63.835 15.7669 64.4387 15.1648C65.0424 14.5627 65.347 13.6852 65.347 12.5323Z" fill="white"/>
<path d="M74.9895 13.881C74.9895 14.8597 74.7028 15.6616 74.1296 16.2907C73.5287 16.9374 72.7325 17.26 71.7384 17.26C70.7802 17.26 70.0173 16.9509 69.4482 16.3299C68.8805 15.7102 68.5967 14.9286 68.5967 13.9863C68.5967 13.0008 68.8888 12.1921 69.4759 11.5644C70.063 10.9366 70.8522 10.6221 71.8464 10.6221C72.8045 10.6221 73.5744 10.9312 74.1573 11.5509C74.7111 12.153 74.9895 12.9306 74.9895 13.881ZM73.4844 13.9269C73.4844 13.3396 73.3542 12.8361 73.0953 12.4162C72.7907 11.9086 72.3573 11.6548 71.7938 11.6548C71.2108 11.6548 70.7678 11.9086 70.4631 12.4162C70.2028 12.8361 70.0741 13.3477 70.0741 13.9525C70.0741 14.5398 70.2042 15.0433 70.4631 15.4632C70.7775 15.9708 71.215 16.2246 71.7799 16.2246C72.3338 16.2246 72.7685 15.9667 73.0815 15.4497C73.3501 15.0217 73.4844 14.5141 73.4844 13.9269Z" fill="white"/>
<path d="M85.867 10.7515L83.8246 17.1154H82.4954L81.6494 14.3519C81.4348 13.6621 81.2603 12.9763 81.1246 12.2959H81.0983C80.9723 12.9952 80.7979 13.6796 80.5736 14.3519L79.675 17.1154H78.3305L76.41 10.7515H77.9013L78.6393 13.7768C78.8179 14.4923 78.9646 15.1741 79.0823 15.8194H79.1086C79.2166 15.2875 79.3953 14.6098 79.6473 13.7903L80.5736 10.7528H81.756L82.6436 13.7255C82.8582 14.4505 83.0326 15.1484 83.167 15.8207H83.2071C83.3054 15.166 83.4536 14.468 83.6502 13.7255L84.4422 10.7528H85.867V10.7515Z" fill="white"/>
<path d="M93.3895 17.1157H91.9385V13.4707C91.9385 12.3475 91.5009 11.7859 90.6231 11.7859C90.1925 11.7859 89.8449 11.9398 89.5749 12.249C89.3077 12.5581 89.172 12.9226 89.172 13.3398V17.1144H87.7209V12.5703C87.7209 12.0114 87.703 11.4052 87.6683 10.7491H88.9436L89.0114 11.7441H89.0516C89.2205 11.4349 89.4725 11.1798 89.8034 10.9759C90.1966 10.7383 90.6369 10.6182 91.1188 10.6182C91.728 10.6182 92.2348 10.8099 92.6377 11.1946C93.1389 11.6658 93.3895 12.3691 93.3895 13.3033V17.1157V17.1157Z" fill="white"/>
<path d="M97.3911 17.1155H95.9414V7.83154H97.3911V17.1155Z" fill="white"/>
<path d="M105.934 13.881C105.934 14.8597 105.648 15.6616 105.074 16.2907C104.473 16.9374 103.676 17.26 102.683 17.26C101.724 17.26 100.961 16.9509 100.393 16.3299C99.8252 15.7102 99.5414 14.9286 99.5414 13.9863C99.5414 13.0008 99.8335 12.1921 100.421 11.5644C101.008 10.9366 101.797 10.6221 102.79 10.6221C103.749 10.6221 104.518 10.9312 105.102 11.5509C105.656 12.153 105.934 12.9306 105.934 13.881ZM104.428 13.9269C104.428 13.3396 104.298 12.8361 104.039 12.4162C103.735 11.9086 103.301 11.6548 102.738 11.6548C102.154 11.6548 101.711 11.9086 101.408 12.4162C101.148 12.8361 101.019 13.3477 101.019 13.9525C101.019 14.5398 101.149 15.0433 101.408 15.4632C101.722 15.9708 102.16 16.2246 102.725 16.2246C103.278 16.2246 103.712 15.9667 104.025 15.4497C104.295 15.0217 104.428 14.5141 104.428 13.9269Z" fill="white"/>
<path d="M112.957 17.1156H111.654L111.546 16.3825H111.506C111.06 16.9671 110.425 17.26 109.599 17.26C108.983 17.26 108.485 17.067 108.109 16.6836C107.769 16.3353 107.599 15.9019 107.599 15.3876C107.599 14.61 107.931 14.0173 108.6 13.6069C109.267 13.1965 110.206 12.9954 111.415 13.0048V12.886C111.415 12.0477 110.963 11.6292 110.059 11.6292C109.415 11.6292 108.847 11.7871 108.357 12.1003L108.062 11.1715C108.669 10.8057 109.418 10.6221 110.301 10.6221C112.007 10.6221 112.863 11.4996 112.863 13.2546V15.5982C112.863 16.234 112.895 16.7403 112.957 17.1156ZM111.45 14.9286V13.9471C109.85 13.9201 109.05 14.3481 109.05 15.2296C109.05 15.5617 109.141 15.8101 109.328 15.9762C109.515 16.1422 109.753 16.2246 110.037 16.2246C110.355 16.2246 110.653 16.126 110.924 15.9303C111.197 15.7332 111.365 15.4834 111.427 15.177C111.442 15.1081 111.45 15.0244 111.45 14.9286Z" fill="white"/>
<path d="M121.202 17.1155H119.915L119.847 16.0935H119.807C119.395 16.8711 118.695 17.2599 117.71 17.2599C116.924 17.2599 116.269 16.9589 115.75 16.3568C115.23 15.7547 114.972 14.973 114.972 14.0132C114.972 12.9831 115.253 12.1488 115.818 11.5116C116.364 10.9176 117.035 10.6206 117.832 10.6206C118.709 10.6206 119.322 10.9082 119.671 11.4846H119.699V7.83154H121.151V15.401C121.151 16.0206 121.168 16.5917 121.202 17.1155ZM119.699 14.4317V13.3706C119.699 13.187 119.685 13.0385 119.658 12.9251C119.577 12.5849 119.401 12.2987 119.134 12.0678C118.864 11.837 118.538 11.7209 118.163 11.7209C117.622 11.7209 117.198 11.9301 116.886 12.35C116.578 12.7698 116.421 13.3058 116.421 13.9605C116.421 14.5896 116.569 15.0999 116.867 15.4928C117.181 15.9113 117.605 16.1205 118.135 16.1205C118.612 16.1205 118.992 15.9464 119.282 15.5967C119.562 15.2741 119.699 14.8853 119.699 14.4317Z" fill="white"/>
<path d="M133.613 13.881C133.613 14.8597 133.326 15.6616 132.753 16.2907C132.152 16.9374 131.357 17.26 130.362 17.26C129.405 17.26 128.642 16.9509 128.071 16.3299C127.504 15.7102 127.22 14.9286 127.22 13.9863C127.22 13.0008 127.512 12.1921 128.099 11.5644C128.686 10.9366 129.475 10.6221 130.471 10.6221C131.428 10.6221 132.199 10.9312 132.78 11.5509C133.334 12.153 133.613 12.9306 133.613 13.881ZM132.109 13.9269C132.109 13.3396 131.979 12.8361 131.72 12.4162C131.414 11.9086 130.982 11.6548 130.417 11.6548C129.835 11.6548 129.392 11.9086 129.086 12.4162C128.826 12.8361 128.697 13.3477 128.697 13.9525C128.697 14.5398 128.827 15.0433 129.086 15.4632C129.401 15.9708 129.838 16.2246 130.403 16.2246C130.957 16.2246 131.393 15.9667 131.706 15.4497C131.973 15.0217 132.109 14.5141 132.109 13.9269Z" fill="white"/>
<path d="M141.415 17.1157H139.965V13.4707C139.965 12.3475 139.528 11.7859 138.648 11.7859C138.218 11.7859 137.87 11.9398 137.602 12.249C137.333 12.5581 137.199 12.9226 137.199 13.3398V17.1144H135.746V12.5703C135.746 12.0114 135.73 11.4052 135.695 10.7491H136.969L137.037 11.7441H137.077C137.247 11.4349 137.499 11.1798 137.829 10.9759C138.223 10.7383 138.662 10.6182 139.146 10.6182C139.753 10.6182 140.26 10.8099 140.663 11.1946C141.166 11.6658 141.415 12.3691 141.415 13.3033V17.1157V17.1157Z" fill="white"/>
<path d="M151.181 11.8112H149.583V14.9027C149.583 15.6884 149.867 16.0812 150.429 16.0812C150.689 16.0812 150.905 16.0596 151.075 16.0151L151.113 17.0883C150.826 17.1936 150.45 17.2463 149.986 17.2463C149.413 17.2463 148.967 17.0762 148.644 16.736C148.32 16.3958 148.159 15.8234 148.159 15.0201V11.8112H147.205V10.7514H148.159V9.585L149.581 9.1665V10.7501H151.179V11.8112H151.181Z" fill="white"/>
<path d="M158.862 17.1155H157.41V13.4975C157.41 12.3567 156.972 11.7857 156.096 11.7857C155.423 11.7857 154.963 12.1164 154.711 12.7779C154.668 12.917 154.644 13.0871 154.644 13.2869V17.1141H153.194V7.83154H154.644V11.6669H154.671C155.128 10.9689 155.783 10.6206 156.632 10.6206C157.233 10.6206 157.73 10.8123 158.124 11.1971C158.616 11.6763 158.862 12.3891 158.862 13.3314V17.1155V17.1155Z" fill="white"/>
<path d="M166.787 13.6325C166.787 13.8863 166.767 14.0996 166.733 14.2738H162.381C162.4 14.9029 162.608 15.3821 163.011 15.7142C163.379 16.0112 163.854 16.1597 164.436 16.1597C165.079 16.1597 165.667 16.0598 166.195 15.8587L166.423 16.8415C165.804 17.1034 165.075 17.2343 164.232 17.2343C163.221 17.2343 162.425 16.9441 161.849 16.3636C161.27 15.7831 160.984 15.0041 160.984 14.0267C160.984 13.0669 161.251 12.2677 161.79 11.6305C162.352 10.9501 163.112 10.6099 164.071 10.6099C165.01 10.6099 165.723 10.9501 166.205 11.6305C166.594 12.1705 166.787 12.8387 166.787 13.6325ZM165.402 13.2667C165.413 12.8468 165.318 12.485 165.121 12.1799C164.869 11.7871 164.485 11.59 163.966 11.59C163.493 11.59 163.106 11.7817 162.811 12.1664C162.571 12.4729 162.428 12.8387 162.381 13.2667H165.402Z" fill="white"/>
<path d="M73.2392 41.5112H70.0948L68.3723 36.2341H62.3853L60.7445 41.5112H57.6831L63.6148 23.5454H67.2785L73.2392 41.5112ZM67.8531 34.0201L66.2954 29.3288C66.1306 28.8496 65.8219 27.721 65.3663 25.9444H65.3109C65.1296 26.7085 64.8374 27.8371 64.4359 29.3288L62.9059 34.0201H67.8531V34.0201Z" fill="white"/>
<path d="M88.4936 34.8745C88.4936 37.0777 87.883 38.8192 86.6618 40.0976C85.5679 41.2357 84.2096 41.804 82.5882 41.804C80.8381 41.804 79.5808 41.1911 78.8151 39.9653H78.7597V46.7896H75.8077V32.8211C75.8077 31.436 75.7704 30.0145 75.6984 28.5565H78.2945L78.4593 30.6098H78.5147C79.4991 29.0627 80.9931 28.2905 82.9981 28.2905C84.5654 28.2905 85.8739 28.894 86.9207 30.1022C87.9702 31.3118 88.4936 32.9021 88.4936 34.8745ZM85.4862 34.9798C85.4862 33.7189 85.1954 32.6794 84.6111 31.8613C83.9728 31.0081 83.1157 30.5815 82.0413 30.5815C81.313 30.5815 80.6511 30.8191 80.0599 31.2875C79.4673 31.76 79.0796 32.377 78.8982 33.1411C78.8068 33.4975 78.7611 33.7891 78.7611 34.0186V36.1786C78.7611 37.1209 79.0574 37.916 79.6501 38.5654C80.2427 39.2147 81.0125 39.5387 81.9596 39.5387C83.0714 39.5387 83.9368 39.1202 84.5557 38.2859C85.1761 37.4503 85.4862 36.3487 85.4862 34.9798Z" fill="white"/>
<path d="M103.776 34.8745C103.776 37.0777 103.165 38.8192 101.942 40.0976C100.85 41.2357 99.4915 41.804 97.8701 41.804C96.12 41.804 94.8628 41.1911 94.0985 39.9653H94.0431V46.7896H91.0911V32.8211C91.0911 31.436 91.0537 30.0145 90.9817 28.5565H93.5778L93.7426 30.6098H93.798C94.7811 29.0627 96.2751 28.2905 98.2814 28.2905C99.8474 28.2905 101.156 28.894 102.205 30.1022C103.251 31.3118 103.776 32.9021 103.776 34.8745ZM100.768 34.9798C100.768 33.7189 100.476 32.6794 99.8917 31.8613C99.2534 31.0081 98.3991 30.5815 97.3232 30.5815C96.5935 30.5815 95.9331 30.8191 95.3405 31.2875C94.7478 31.76 94.3615 32.377 94.1801 33.1411C94.0901 33.4975 94.0431 33.7891 94.0431 34.0186V36.1786C94.0431 37.1209 94.3394 37.916 94.9292 38.5654C95.5218 39.2134 96.2917 39.5387 97.2415 39.5387C98.3534 39.5387 99.2188 39.1202 99.8377 38.2859C100.458 37.4503 100.768 36.3487 100.768 34.9798Z" fill="white"/>
<path d="M120.862 36.4731C120.862 38.0013 120.318 39.2446 119.225 40.2045C118.025 41.2534 116.353 41.7772 114.206 41.7772C112.223 41.7772 110.634 41.4046 109.43 40.6581L110.114 38.2591C111.41 39.0232 112.832 39.4066 114.382 39.4066C115.494 39.4066 116.359 39.1609 116.981 38.6722C117.6 38.1835 117.908 37.5274 117.908 36.7093C117.908 35.9803 117.654 35.3661 117.143 34.8679C116.634 34.3698 115.786 33.9067 114.6 33.4788C111.374 32.3056 109.763 30.5871 109.763 28.3272C109.763 26.8503 110.328 25.6393 111.459 24.697C112.586 23.7534 114.09 23.2822 115.97 23.2822C117.647 23.2822 119.04 23.5671 120.151 24.1354L119.413 26.4817C118.375 25.9309 117.201 25.6555 115.887 25.6555C114.848 25.6555 114.037 25.9053 113.455 26.4021C112.964 26.8462 112.717 27.3876 112.717 28.0288C112.717 28.7389 112.998 29.3262 113.563 29.7879C114.055 30.2145 114.948 30.6762 116.244 31.1743C117.829 31.7967 118.994 32.5243 119.743 33.3586C120.489 34.1902 120.862 35.2311 120.862 36.4731Z" fill="white"/>
<path d="M130.622 30.7165H127.368V37.0061C127.368 38.6059 127.941 39.4051 129.09 39.4051C129.618 39.4051 130.056 39.3605 130.402 39.2714L130.483 41.4571C129.902 41.669 129.136 41.7757 128.188 41.7757C127.022 41.7757 126.111 41.4287 125.453 40.7362C124.798 40.0423 124.469 38.8786 124.469 37.2437V30.7138H122.53V28.5538H124.469V26.1818L127.368 25.3286V28.5538H130.622V30.7165Z" fill="white"/>
<path d="M145.303 34.9272C145.303 36.9185 144.719 38.5533 143.553 39.8318C142.33 41.148 140.707 41.8041 138.684 41.8041C136.735 41.8041 135.183 41.1737 134.025 39.9128C132.868 38.6519 132.289 37.0602 132.289 35.1419C132.289 33.1344 132.884 31.4901 134.079 30.2117C135.271 28.9319 136.88 28.292 138.903 28.292C140.853 28.292 142.422 28.9224 143.605 30.1847C144.738 31.4091 145.303 32.99 145.303 34.9272ZM142.24 35.0204C142.24 33.8256 141.978 32.801 141.448 31.9464C140.829 30.9123 139.944 30.3966 138.798 30.3966C137.611 30.3966 136.71 30.9137 136.091 31.9464C135.561 32.8023 135.299 33.8432 135.299 35.0744C135.299 36.2691 135.561 37.2938 136.091 38.147C136.729 39.1811 137.621 39.6968 138.772 39.6968C139.899 39.6968 140.784 39.1703 141.422 38.12C141.966 37.2492 142.24 36.2138 142.24 35.0204Z" fill="white"/>
<path d="M154.898 31.0877C154.606 31.0351 154.295 31.0081 153.968 31.0081C152.929 31.0081 152.126 31.3901 151.561 32.1556C151.07 32.8306 150.823 33.6838 150.823 34.7138V41.5111H147.873L147.9 32.6362C147.9 31.1431 147.863 29.7836 147.79 28.5578H150.361L150.469 31.0364H150.551C150.862 30.1846 151.354 29.4988 152.027 28.9844C152.684 28.5214 153.395 28.2905 154.16 28.2905C154.433 28.2905 154.68 28.3094 154.898 28.3432V31.0877Z" fill="white"/>
<path d="M168.101 34.4213C168.101 34.937 168.066 35.3716 167.993 35.7267H159.137C159.171 37.0065 159.599 37.9852 160.422 38.6602C161.168 39.2637 162.133 39.5661 163.318 39.5661C164.629 39.5661 165.826 39.3622 166.902 38.9532L167.364 40.9512C166.107 41.4858 164.622 41.7517 162.91 41.7517C160.849 41.7517 159.232 41.1604 158.055 39.9792C156.881 38.7979 156.293 37.2117 156.293 35.2218C156.293 33.2683 156.84 31.6416 157.935 30.3443C159.081 28.9592 160.631 28.2666 162.58 28.2666C164.495 28.2666 165.945 28.9592 166.929 30.3443C167.709 31.4445 168.101 32.8053 168.101 34.4213ZM165.286 33.6747C165.305 32.8215 165.113 32.0844 164.712 31.462C164.202 30.6615 163.416 30.2619 162.36 30.2619C161.395 30.2619 160.61 30.6521 160.01 31.4351C159.519 32.0574 159.227 32.8039 159.137 33.6733H165.286V33.6747Z" fill="white"/>
</svg>
