<svg width="61" height="69" viewBox="0 0 61 69" fill="none" xmlns="http://www.w3.org/2000/svg">
<path d="M55.5465 2.47705C51.7015 3.20832 48.0149 3.92524 44.3282 4.62783C43.5938 4.77121 43.0754 4.87159 42.1249 4.90026C41.4193 4.92894 39.9216 4.95762 40.0512 4.19767C40.224 3.58112 40.4256 3.1653 41.6785 2.7925C44.9187 1.84615 48.2741 1.38732 51.6007 0.91415C54.5384 0.498333 56.785 0.225901 59.4059 0.0108228C60.63 -0.0895469 61.1196 0.512672 60.9756 1.63108C60.846 2.63477 60.7308 3.66715 60.414 4.62783C59.2907 8.09775 58.081 11.5247 56.9002 14.9802C56.7562 15.4104 56.6698 15.7545 56.4249 16.242C56.1225 16.8299 55.9353 17.2744 55.3161 17.1024C54.7256 16.9446 54.7544 16.0843 54.8553 15.6542C55.6185 12.0409 57.3178 4.61349 57.3178 4.19767C55.4313 5.40211 53.66 6.4775 51.9463 7.65326C40.0512 15.8979 28.8474 24.9169 19.9332 36.4737C12.8768 45.6217 7.0301 55.4436 2.70985 66.1545C2.45063 66.7854 2.13382 67.4019 1.817 67.9898C1.39937 68.7928 1.03935 69.1369 0.607328 68.9505C-0.155916 68.4917 -0.0119074 67.8751 0.0600967 67.3732C0.189704 66.3695 0.535325 65.3802 0.866544 64.4195C5.43161 51.6152 12.6896 40.4025 21.4597 30.0931C30.4602 19.5112 41.4625 11.3669 53.1992 4.12598C53.8328 3.76752 55.3161 2.73514 55.5465 2.47705Z" fill="#3790EC"/>
</svg>
