<svg width="61" height="69" viewBox="0 0 61 69" fill="none" xmlns="http://www.w3.org/2000/svg">
<path d="M5.45351 66.5229C9.29853 65.7917 12.9851 65.0748 16.6718 64.3722C17.4062 64.2288 17.9246 64.1284 18.8751 64.0997C19.5807 64.0711 21.0784 64.0424 20.9488 64.8023C20.776 65.4189 20.5744 65.8347 19.3215 66.2075C16.0813 67.1538 12.7259 67.6127 9.39933 68.0858C6.46156 68.5017 4.21504 68.7741 1.59409 68.9892C0.370014 69.0895 -0.119614 68.4873 0.024395 67.3689C0.154003 66.3652 0.269207 65.3329 0.586025 64.3722C1.70929 60.9022 2.91896 57.4753 4.09983 54.0198C4.24384 53.5896 4.33024 53.2455 4.57506 52.758C4.87748 52.1701 5.06469 51.7256 5.68392 51.8976C6.27436 52.0554 6.24555 52.9157 6.14475 53.3458C5.3815 56.9591 3.68221 64.3865 3.68221 64.8023C5.56871 63.5979 7.34002 62.5225 9.05371 61.3467C20.9488 53.1021 32.1526 44.0831 41.0668 32.5263C48.1232 23.3783 53.9699 13.5564 58.2902 2.84553C58.5494 2.21463 58.8662 1.59808 59.183 1.0102C59.6006 0.207237 59.9606 -0.136887 60.3927 0.0495148C61.1559 0.508347 61.0119 1.12491 60.9399 1.62675C60.8103 2.63046 60.4647 3.6198 60.1335 4.58049C55.5684 17.3848 48.3104 28.5975 39.5403 38.9069C30.5398 49.4888 19.5375 57.6331 7.80084 64.874C7.1672 65.2325 5.68392 66.2649 5.45351 66.5229Z" fill="#3790EC"/>
</svg>
