<svg width="1920" height="648" viewBox="0 0 1920 648" fill="none" xmlns="http://www.w3.org/2000/svg">
<path d="M265.998 296.035H-300V310.104H265.998V296.035Z" fill="#95AEC7"/>
<path d="M265.998 288.129H-300V302.203H265.998V288.129Z" fill="#A6C1DC"/>
<path d="M245.113 8.08057H-279.11V280.415H245.113V8.08057Z" fill="#EDF0F7"/>
<path d="M235.698 14.196H-269.7V275.533H235.698V14.196Z" fill="#D8E6F4"/>
<path d="M-269.7 275.528H235.698V161.356C231.238 162.676 229.237 167.437 234.856 173.265C219.975 167.658 207.972 181.372 217.44 194.587C189.709 192.936 189.088 208.455 188.189 219.664C175.112 213.659 160.005 214.859 161.81 224.07C152.827 216.092 135.868 218.593 128.44 227.277C123.48 206.852 88.6718 196.421 73.0454 206.497C76.1582 196.171 49.7358 192.288 35.7789 202.45C29.9816 183.955 10.5256 188.837 6.91734 204.053C-0.943939 197.074 -15.1799 200.852 -12.9235 213.265C-26 205.657 -44.1185 215.171 -36.1417 230.886C-41.0538 227.829 -52.9035 229.667 -55.4822 240.093C-59.5283 229.389 -79.73 230.128 -81.4427 240.679C-90.0689 223.456 -120.446 230.978 -126.219 252.425C-133.09 240.496 -152.93 245.306 -156.818 255.814C-165.165 243.53 -187.325 238.855 -200.271 248.11C-198.467 244.908 -206.583 234.895 -214.247 239.498C-214.247 239.498 -213.795 220.278 -232.736 219.476C-216.956 203.458 -243.109 172.823 -261.598 174.023C-246.347 165.234 -255.594 147.761 -269.695 156.152V275.528H-269.7Z" fill="#A6C1DC"/>
<g opacity="0.3">
<path opacity="0.3" d="M120.873 275.274H208.165L46.3441 14.0183H-40.9482L120.873 275.274Z" fill="white"/>
<path opacity="0.3" d="M74.1571 275.274H90.3849L-71.4359 14.0183H-87.6637L74.1571 275.274Z" fill="white"/>
</g>
<path d="M-287.212 0.933105V288.355H253.21V0.933105H-287.212ZM240.288 278.303H-274.285V10.9799H240.288V278.303Z" fill="white"/>
<path d="M114.469 13.5239H102.398V278.912H114.469V13.5239Z" fill="#EDF0F7"/>
<path d="M117.355 4.90283H105.289V285.974H117.355V4.90283Z" fill="white"/>
<path d="M1511.17 533.135C1498.87 533.719 1475.37 542.342 1494.8 547.965C1514.24 553.589 1568.19 554.868 1576.88 544.896C1585.57 534.925 1565.12 530.577 1511.17 533.135Z" fill="#DBE7F3"/>
<path d="M1571.66 466.119C1573.9 464.713 1572.94 459.225 1570.25 457.856C1567.55 456.483 1564.33 456.372 1562.27 454.995C1560.21 453.622 1557.66 451.088 1553.92 452.563C1550.21 454.039 1546.61 455.837 1544.31 454.255C1542 452.678 1538.8 449.597 1534.55 449.008C1531.93 448.653 1526.98 454.039 1524.03 453.095C1521.07 452.134 1517.01 449.486 1514.7 450.013C1512.37 450.537 1511.97 455.416 1509.4 454.897C1506.83 454.366 1503.24 453.095 1498.62 454.574C1494 456.045 1490.66 458.693 1488.47 458.375C1486.3 458.056 1483.78 459.609 1484.67 461.607C1485.57 463.618 1480.58 467.365 1504.44 469.785C1516.44 471.121 1554.31 472.874 1571.66 466.119Z" fill="#809DBB"/>
<path d="M1564.52 456.887C1569.17 457.872 1567.54 460.058 1564.17 460.647C1560.79 461.256 1553.2 457.271 1548 458.845C1542.8 460.422 1536.22 465.902 1528.74 463.054C1521.25 460.201 1512.76 462.821 1506.27 462.523C1499.79 462.233 1490.79 460.308 1492.66 459.294C1494.5 458.317 1495.14 456.143 1500.43 455.919C1505.72 455.694 1507.37 458.698 1509.91 457.267C1512.48 455.829 1511.48 453.806 1515.59 453.957C1519.7 454.108 1520.62 457.864 1526.64 456.74C1532.67 455.608 1534.86 450.492 1537.41 451.852C1539.96 453.205 1543.11 457.116 1547.82 455.608C1557.94 452.38 1555.14 454.93 1564.52 456.887Z" fill="#65819D"/>
<path d="M1554.73 454.93C1558.01 454.819 1567.41 458.354 1563.4 458.44C1559.4 458.522 1554.32 456.103 1551.48 457.022C1548.64 457.942 1550.06 455.101 1554.73 454.93Z" fill="#6A8BAC"/>
<path d="M1535.88 455.522C1534.21 456.041 1531.88 458.522 1527.96 458.775C1524.03 459.025 1525.78 461.444 1529.87 461.607C1533.96 461.775 1540.22 454.19 1535.88 455.522Z" fill="#6A8BAC"/>
<path d="M1495.85 463.36C1492.34 461.607 1488.34 459.523 1487.42 461.109C1486.5 462.694 1494.68 467.108 1503.68 467.202C1512.69 467.283 1513.2 465.285 1507.61 464.864C1502.02 464.451 1501.36 466.119 1495.85 463.36Z" fill="#65819D"/>
<path d="M1566.41 461.607C1569.5 459.899 1572.66 460.524 1569.49 463.025C1566.33 465.534 1558.31 469.453 1549.47 468.452C1540.64 467.451 1543.3 463.777 1551.56 463.536C1559.82 463.279 1560.23 465.028 1566.41 461.607Z" fill="#65819D"/>
<path d="M1575.3 469.511C1575.3 469.511 1568.96 511.46 1563.9 537.414C1529.65 550.773 1497.99 537.414 1497.99 537.414L1485.68 470.561L1575.3 469.511Z" fill="#A6C1DC"/>
<path d="M1573.21 466.81L1571.7 475.776C1571.7 475.776 1490.89 470.582 1501.18 507.868C1508.38 533.994 1562.45 530.818 1562.45 530.818L1561.8 534.709C1561.8 534.709 1531.38 546.666 1500.69 534.709C1487.63 523.834 1488.38 467.86 1488.38 467.86L1573.21 466.81Z" fill="#95AEC7"/>
<path d="M1549.99 483.973C1553.58 481.509 1564.01 476.695 1565.9 483.189C1567.81 489.682 1566.59 516.981 1553.66 517.443C1540.74 517.884 1533.54 495.285 1549.99 483.973Z" fill="#B6D1ED"/>
<path d="M1561.13 489.241C1561.88 488.714 1564.09 487.701 1564.48 489.074C1564.88 490.439 1564.63 496.213 1561.9 496.307C1559.16 496.409 1557.64 491.624 1561.13 489.241Z" fill="#C7E0FA"/>
<path d="M1476.71 468.632C1476.71 470.529 1478.29 471.644 1480.13 472.061C1535.26 484.456 1582.57 472.061 1582.57 472.061C1584.47 472.061 1586 470.529 1586 468.632V462.797C1586 460.905 1584.47 459.372 1582.57 459.372C1582.57 459.372 1531.6 468.26 1480.13 459.372C1478.24 459.372 1476.71 460.909 1476.71 462.797V468.632V468.632Z" fill="#B9D1EA"/>
<path d="M1505.96 386.507C1519.16 380.087 1525.91 347.181 1513.24 335.559C1502.3 325.518 1490.5 345.485 1492.15 359.449C1493.8 373.413 1497.96 383.63 1505.96 386.507Z" fill="#95AEC7"/>
<path d="M1534.59 311.464C1549.23 312.523 1571.56 287.435 1566.42 271.027C1561.98 256.855 1541.77 268.211 1536.2 281.125C1530.63 294.039 1529.11 304.962 1534.59 311.464Z" fill="#809DBB"/>
<path d="M1522.36 318.146C1526.91 304.194 1507.94 276.479 1490.78 277.521C1475.95 278.42 1482.11 300.778 1493.31 309.29C1504.5 317.799 1514.73 321.91 1522.36 318.146Z" fill="#B6D1ED"/>
<path d="M1494.53 369.225C1503.63 357.712 1495.42 325.138 1478.97 320.173C1464.75 315.882 1462.79 338.992 1470.34 350.851C1477.89 362.71 1486.06 370.111 1494.53 369.225Z" fill="#65809D"/>
<path d="M1529.03 288.473C1540.52 279.352 1540.01 245.768 1525.13 237.157C1512.27 229.723 1505.06 251.767 1509.69 265.04C1514.33 278.322 1520.59 287.398 1529.03 288.473Z" fill="#809DBB"/>
<path d="M1481.16 341.002C1485.46 359.968 1499.4 383.728 1526.12 411.349C1524.55 368.889 1528.36 287.382 1528.74 285.232C1529.59 280.446 1530.64 279.208 1530.56 284.872C1530.41 295.767 1530.06 328.219 1530.03 360.487C1534.57 359.584 1548.34 353.712 1572.04 317.614C1573.41 314.517 1575.82 314.86 1574.1 318.301C1572.42 321.656 1551.47 357.357 1530.02 365.232C1530.02 389.698 1530.22 413.442 1530.84 426.932C1533.06 475.428 1533.32 449.935 1533.38 452.011C1532.85 455.787 1528.44 452.645 1527.64 452.011C1527.64 435.628 1525.56 433.699 1525.74 417.259C1486.77 376.85 1480.38 347.847 1479.32 340.434C1478.94 337.766 1480.38 337.872 1481.16 341.002Z" fill="#A6C1DC"/>
<path d="M1512.89 453.839L1513.24 453.781C1514.58 453.565 1515.85 453.364 1516.28 452.739L1516.4 452.572C1517.13 451.505 1518.36 449.723 1521.01 449.241C1523.25 448.841 1525.22 448.105 1525.87 446.671C1526.26 445.33 1528.57 444.631 1528.71 444.725C1529.26 445.093 1529.99 445.351 1532.05 444.938C1532.21 444.856 1532.49 444.676 1532.67 444.648C1535.25 444.243 1537.71 448.252 1538.53 449.127C1539.42 450.083 1540.54 450.647 1541.95 450.847C1542.85 450.974 1543.38 451.558 1543.78 451.987C1544.21 452.461 1544.4 452.629 1544.79 452.629C1544.9 452.629 1545.03 452.613 1545.17 452.584C1545.57 452.502 1545.9 452.461 1546.19 452.461C1547.21 452.461 1547.67 452.952 1548.08 453.385C1548.36 453.679 1548.67 454.014 1549.32 454.378C1549.95 454.734 1551.31 455.048 1551.79 456.152C1551.98 456.593 1549.44 456.769 1547.36 456.769C1546.41 456.769 1545.43 456.622 1544.6 456.352C1544.14 456.205 1543.58 456.127 1542.93 456.127C1541.19 456.127 1539.24 456.687 1538.51 457.206C1537.91 457.631 1536.89 457.835 1535.37 457.835C1533.49 457.835 1530.95 457.504 1529.2 457.03C1527.51 456.577 1525.07 456.871 1522.11 457.88C1520.89 458.293 1519.3 458.55 1517.95 458.55C1516.5 458.55 1515.41 458.277 1514.71 457.729C1514.02 457.185 1512.36 457.034 1511.37 456.944C1510.87 456.899 1510.47 456.863 1510.18 456.789C1509.49 456.617 1508.37 456.532 1508.39 456.139C1508.4 455.837 1509.33 454.419 1512.89 453.839Z" fill="#65809D"/>
<path d="M1533.89 445.682C1534.72 445.682 1534.33 447.042 1537.13 449.029C1539.06 450.402 1537.06 451.338 1534.77 449.503C1532.39 447.59 1532.38 445.682 1533.89 445.682Z" fill="#809DBB"/>
<path d="M1539.88 451.117C1541.15 451.08 1543.01 451.963 1542.01 452.257C1541.02 452.551 1537.53 451.194 1539.88 451.117Z" fill="#6A8AAC"/>
<path d="M1536.01 454.476C1537.18 454.966 1538.5 456.544 1537.47 456.401C1536.45 456.254 1533.85 453.561 1536.01 454.476Z" fill="#809DBB"/>
<path d="M1546.79 453.99C1548.2 454.35 1550.58 455.714 1548.19 455.388C1545.8 455.052 1544.92 453.508 1546.79 453.99Z" fill="#809DBB"/>
<path d="M1541.46 453.324C1543.04 453.561 1545.5 454.39 1544.04 454.685C1542.57 454.979 1539.08 454.869 1537.68 452.919C1536.38 451.101 1539.78 453.066 1541.46 453.324Z" fill="#809DBB"/>
<path d="M1531.92 455.326C1533.22 455.522 1535.28 456.209 1534.06 456.454C1532.83 456.699 1529.94 456.605 1528.77 454.987C1527.69 453.479 1530.52 455.114 1531.92 455.326Z" fill="#809DBB"/>
<path d="M1533.02 449.499C1533.99 450.275 1537.2 452.073 1536.14 452.551C1535.08 453.029 1532 451.46 1531.59 450.394C1531.18 449.331 1532.28 448.91 1533.02 449.499Z" fill="#809DBB"/>
<path d="M1529.67 450.394C1528.84 450.394 1528.16 451.423 1527.06 452.11C1525.04 453.369 1526.32 455.142 1528.6 453.307C1530.99 451.403 1531.18 450.394 1529.67 450.394Z" fill="#809DBB"/>
<path d="M1522.92 449.678C1521.65 449.637 1519.79 450.52 1520.78 450.818C1521.78 451.113 1525.27 449.752 1522.92 449.678Z" fill="#6A8AAC"/>
<path d="M1523.39 454.926C1522.22 455.42 1520.9 456.997 1521.93 456.85C1522.95 456.703 1525.56 454.006 1523.39 454.926Z" fill="#6A8AAC"/>
<path d="M1514.94 453.99C1513.53 454.35 1511.16 455.714 1513.55 455.388C1515.94 455.052 1516.82 453.508 1514.94 453.99Z" fill="#809DBB"/>
<path d="M1520.82 452.915C1519.25 453.152 1516.78 453.982 1518.25 454.272C1519.72 454.566 1523.21 454.456 1524.61 452.506C1525.91 450.692 1522.52 452.657 1520.82 452.915Z" fill="#809DBB"/>
<path d="M1526.85 445.968C1525.88 446.916 1525.49 449.58 1526.56 450.165C1527.62 450.749 1530.27 448.685 1530.67 447.386C1531.08 446.086 1527.59 445.249 1526.85 445.968Z" fill="#809DBB"/>
<path d="M1523.98 412.408C1525.39 397.802 1500.85 374.868 1484.32 379.613C1470.05 383.708 1480.92 404.198 1493.69 410.075C1506.47 415.951 1517.35 417.737 1523.98 412.408Z" fill="#7EA0C4"/>
<path d="M1527.84 352.184C1541.04 345.764 1547.79 312.858 1535.12 301.236C1524.18 291.199 1512.38 311.162 1514.03 325.126C1515.68 339.09 1519.84 349.307 1527.84 352.184Z" fill="#65809D"/>
<path d="M1529.28 422.69C1543.85 424.451 1567.36 400.471 1563.02 383.834C1559.27 369.466 1538.53 379.837 1532.34 392.465C1526.16 405.093 1524.11 415.931 1529.28 422.69Z" fill="#65809D"/>
<path d="M1562.7 338.178C1577.35 337.255 1596.1 309.388 1588.8 293.822C1582.49 280.377 1563.99 294.357 1560.21 307.901C1556.43 321.444 1556.39 332.473 1562.7 338.178Z" fill="#6E8EAF"/>
<path d="M1553.16 344.214C1566.85 338.922 1576.34 306.699 1564.69 294.055C1554.63 283.136 1541.19 302.04 1541.67 316.09C1542.14 330.144 1545.43 340.675 1553.16 344.214Z" fill="#B6D1ED"/>
<path d="M1533.25 361.869C1539.44 375.175 1572.22 382.494 1584.06 370.026C1594.28 359.253 1574.53 347.108 1560.54 348.522C1546.55 349.936 1536.27 353.912 1533.25 361.869Z" fill="#95AEC7"/>
<path d="M1527.21 387.929C1535.51 375.833 1525.14 343.884 1508.39 340.034C1493.91 336.708 1493.51 359.899 1501.84 371.223C1510.17 382.551 1518.83 389.384 1527.21 387.929Z" fill="#B6D1ED"/>
<path d="M1743.98 528.303C1701.05 529.096 1619.08 540.79 1686.88 548.416C1754.69 556.048 1942.93 557.783 1973.27 544.254C2003.6 530.731 1932.23 524.834 1743.98 528.303Z" fill="#DBE7F3"/>
<path d="M1714 544.688H1930.59V173.302H1714V544.688Z" fill="#8FAAC5"/>
<path d="M1729.64 544.685H1914.95V186.41H1729.64V544.685Z" fill="#657A9D"/>
<path d="M1733.59 527.698H1911.09V291.634H1733.59V527.698Z" fill="#A6C1DC"/>
<path d="M1820.98 528.484H1824.44V289.926H1820.98V528.484Z" fill="#657A9D"/>
<path d="M1729.64 288.529H1914.95V275.055H1729.64V288.529Z" fill="#A6C1DC"/>
<path d="M1729.64 544.409H1914.95V530.939H1729.64V544.409Z" fill="#8FAAC5"/>
<path d="M1895.59 198.488H1880.87V272.478H1895.59V198.488Z" fill="#809DBB"/>
<path d="M1818.86 197.518L1796.35 268.01L1810.39 272.474L1832.9 201.99L1818.86 197.518Z" fill="#809DBB"/>
<path d="M1865.79 197.093L1854.07 270.153L1868.62 272.473L1880.34 199.417L1865.79 197.093Z" fill="#6E8EAF"/>
<path d="M1832.88 197.372L1811.69 268.267L1825.81 272.473L1847.01 201.578L1832.88 197.372Z" fill="#B6D1ED"/>
<path d="M1848.26 197.093L1836.54 270.153L1851.09 272.473L1862.81 199.417L1848.26 197.093Z" fill="#7EA0C3"/>
<path d="M1773.25 197.093L1761.53 270.153L1776.08 272.473L1787.79 199.417L1773.25 197.093Z" fill="#6E8EAF"/>
<path d="M1791.24 197.093L1779.53 270.153L1794.07 272.473L1805.79 199.417L1791.24 197.093Z" fill="#95AEC7"/>
<path d="M1814.92 399.816C1814.92 402.875 1812.44 405.351 1809.38 405.351C1806.32 405.351 1803.84 402.875 1803.84 399.816C1803.84 396.76 1806.32 394.281 1809.38 394.281C1812.44 394.281 1814.92 396.76 1814.92 399.816Z" fill="#657A9D"/>
<path d="M1842.08 399.816C1842.08 402.875 1839.6 405.351 1836.54 405.351C1833.48 405.351 1831 402.875 1831 399.816C1831 396.76 1833.48 394.281 1836.54 394.281C1839.6 394.281 1842.08 396.76 1842.08 399.816Z" fill="#657A9D"/>
<path d="M1742.91 135.19C1742.91 135.19 1746.67 135.257 1751.1 138.365C1761.36 145.583 1764.44 144.285 1772.82 138.077C1780.34 143.417 1740.02 157.852 1736.12 148.324C1735.54 141.394 1732.79 136.488 1742.91 135.19Z" fill="#65809D"/>
<path d="M1740.6 136.395C1740.6 136.395 1744.55 135.882 1748.98 138.99C1756.23 144.096 1759.8 145.225 1764.24 143.259C1760.68 144.016 1756.97 142.714 1750.86 138.556C1745.41 134.855 1741.13 135.523 1741.13 135.523C1739.18 135.771 1739.35 136.302 1738.25 136.812C1738.94 136.648 1739.72 136.506 1740.6 136.395Z" fill="#536B86"/>
<path d="M1740.74 135.913C1740.74 135.913 1744.7 135.399 1749.12 138.512C1756.38 143.613 1759.95 144.751 1764.38 142.781C1760.82 143.538 1757.11 142.236 1751 138.078C1745.56 134.377 1741.27 135.045 1741.27 135.045C1739.33 135.298 1739.5 135.824 1738.39 136.329C1739.08 136.165 1739.86 136.024 1740.74 135.913Z" fill="#C8D9EA"/>
<path d="M1772.82 138.074C1772.25 138.499 1771.7 138.897 1771.18 139.269C1773.33 141.833 1766.68 145.973 1758.41 148.882C1768.18 145.809 1776.62 140.779 1772.82 138.074Z" fill="#FDC300"/>
<path d="M1737.22 149.812C1740.56 152.601 1749.29 151.61 1757.38 149.196C1756.12 148.457 1754.73 147.545 1753.17 146.447C1748.74 143.334 1744.79 143.848 1744.79 143.848C1738.67 144.636 1737.26 146.739 1737.22 149.812Z" fill="#536B86"/>
<path d="M1752.65 76.6941C1752.65 76.6941 1752.2 79.9176 1754.64 82.3618C1751.96 82.1581 1751.9 82.5035 1752.4 83.3271C1752.91 84.1507 1752.85 84.6378 1751.4 84.5713C1749.95 84.5049 1747.47 84.3809 1747.65 85.3285C1747.83 86.2761 1747.67 86.7277 1746.21 86.5152C1744.74 86.3026 1743.08 85.5809 1743.25 86.3336C1743.41 87.0952 1743.53 87.9498 1742.19 87.4893C1740.84 87.0288 1739.86 86.1964 1738.76 86.9181C1738.69 86.6347 1738.99 85.6916 1740.19 85.6385C1741.39 85.5853 1742.41 85.6385 1741.97 85.0008C1741.53 84.3588 1740.81 83.3625 1742.19 83.1455C1743.58 82.9286 1745.6 82.8533 1744.9 82.043C1744.2 81.2327 1743.38 80.0992 1744.68 79.6032C1745.99 79.1029 1748.9 79.7671 1748.54 78.9789C1748.18 78.1907 1747.88 77.4424 1749 77.0129C1750.12 76.5745 1751.86 76.5214 1752.65 76.6941Z" fill="#607A97"/>
<path d="M1752.17 82.8533C1751.4 82.7603 1750 80.3516 1749.03 79.0763C1748.32 78.1465 1748.62 77.4247 1748.91 77.0483C1747.9 77.4867 1748.19 78.2129 1748.54 78.9745C1748.9 79.7626 1745.99 79.0985 1744.68 79.5988C1744.62 79.6209 1744.56 79.6475 1744.51 79.6741C1744.72 79.6387 1744.98 79.5988 1745.27 79.5545C1746.71 79.3508 1748.15 80.1567 1748.78 80.6615C1749.83 81.5072 1751.38 82.6673 1751.15 83.6238C1751.05 84.0444 1749.95 84.4164 1749.42 84.5182C1749.58 84.5226 1751.24 84.5581 1751.39 84.5669C1752.84 84.6333 1752.9 84.1463 1752.39 83.3227C1752.29 83.1456 1752.21 82.9906 1752.17 82.8533Z" fill="#536B86"/>
<path d="M1747.65 85.3286C1747.63 85.2444 1747.64 85.1692 1747.66 85.0983C1747.31 84.9566 1746.89 84.1994 1746.32 83.4998C1745.45 82.4017 1744.95 81.6224 1744.35 81.0114C1744.22 80.8829 1744.14 80.8564 1744.11 80.8918C1744.28 81.2859 1744.6 81.6933 1744.9 82.0475C1745.48 82.7205 1744.17 82.8888 1742.92 83.0482C1743.87 82.9419 1745.07 83.0039 1745.93 84.2791C1746.66 85.3684 1745.77 86.13 1745.42 86.3647C1745.68 86.4222 1745.95 86.4754 1746.21 86.5152C1747.67 86.7233 1747.83 86.2761 1747.65 85.3286Z" fill="#536B86"/>
<path d="M1741.39 83.7036C1741.34 84.1021 1741.7 84.6158 1741.97 84.9966C1742.33 85.5102 1741.74 85.5722 1740.87 85.6076C1740.87 85.6076 1740.87 85.6076 1740.87 85.612C1741.98 85.7139 1742.49 86.2541 1742.83 86.9316C1743.08 87.454 1742.06 87.3345 1741.59 87.2592C1741.78 87.3389 1741.98 87.4186 1742.19 87.4895C1743.53 87.95 1743.41 87.0954 1743.25 86.3338C1743.23 86.2187 1743.24 86.1345 1743.3 86.0814C1742.45 85.3818 1741.68 84.1774 1741.39 83.7036Z" fill="#536B86"/>
<path d="M1746.51 81.7241C1746.72 81.8171 1747.09 81.9455 1747.18 82.1005C1747.37 82.5699 1747.73 82.6983 1748.15 82.6274C1748.56 82.561 1748.66 82.1669 1748.53 81.888C1748.41 81.609 1748.62 81.3743 1748.65 81.2194C1748.82 80.2231 1748.08 79.8157 1747.43 79.7803C1746.85 79.7493 1746.33 79.922 1746.08 80.5242C1745.82 81.1264 1746.29 81.6312 1746.51 81.7241ZM1747.6 80.998C1747.51 80.7456 1747.62 80.4843 1747.83 80.4179C1748.04 80.3471 1748.27 80.4976 1748.36 80.75C1748.44 81.0024 1748.34 81.2636 1748.13 81.3345C1747.92 81.4009 1747.68 81.2504 1747.6 80.998ZM1747.88 81.5603C1748.13 81.5515 1748.04 82.0297 1748.04 82.0297C1748.01 82.1758 1747.84 82.0651 1747.69 81.8836C1747.55 81.6976 1747.62 81.5647 1747.88 81.5603ZM1746.63 80.6393C1746.83 80.5375 1747.09 80.6482 1747.21 80.8828C1747.33 81.1175 1747.26 81.3921 1747.07 81.4939C1746.87 81.5957 1746.61 81.485 1746.49 81.2504C1746.37 81.0157 1746.44 80.7412 1746.63 80.6393Z" fill="#37495C"/>
<path d="M1749.84 81.1532C1749.84 81.1532 1749.8 80.675 1749.5 80.7502C1749.2 80.8255 1749.23 81.3214 1749.35 81.5827C1748.96 81.9059 1747.66 83.6594 1747.66 83.6594C1747.66 83.6594 1747.07 83.5664 1747.03 83.8586C1746.99 84.1509 1747.48 84.1863 1747.48 84.1863C1747.48 84.1863 1747.63 84.5626 1747.88 84.4918C1748.09 84.4298 1748.06 84.0579 1747.92 83.8453C1748.14 83.6328 1749.67 81.7775 1749.67 81.7775C1749.67 81.7775 1750.26 81.8882 1750.33 81.5915C1750.4 81.2993 1750.01 81.0735 1749.84 81.1532Z" fill="#37495C"/>
<path d="M1749.37 83.2385C1749.37 83.2385 1749.83 82.7825 1749.97 82.9906C1750.12 83.2031 1749.97 83.5042 1749.82 83.5175C1749.98 83.8097 1749.77 84.0843 1749.54 84.0223C1749.31 83.9603 1749.22 83.6326 1749.22 83.6326L1746.04 82.5699C1746.04 82.5699 1745.69 82.9861 1745.43 82.8179C1745.23 82.6851 1745.31 82.4105 1745.58 82.3087C1745.38 82.0209 1745.56 81.8438 1745.73 81.8438C1745.91 81.8438 1746.13 82.2113 1746.13 82.2113L1749.37 83.2385Z" fill="#37495C"/>
<path d="M1757.9 91.2442C1757.72 91.2619 1757.55 91.138 1757.51 90.9564C1756.49 86.0459 1751.88 75.0558 1751.84 74.9451C1751.76 74.7592 1751.85 74.5466 1752.03 74.4669C1752.22 74.3916 1752.43 74.4758 1752.51 74.6618C1752.7 75.1134 1757.19 85.8245 1758.23 90.8059C1758.27 91.0051 1758.14 91.1955 1757.94 91.2354C1757.93 91.2398 1757.92 91.2442 1757.9 91.2442Z" fill="#A6C1DC"/>
<path d="M1752.84 73.7938C1752.89 74.365 1752.47 74.8654 1751.9 74.9185C1751.32 74.9672 1750.82 74.5466 1750.77 73.9754C1750.73 73.4042 1751.15 72.9038 1751.72 72.8551C1752.29 72.802 1752.79 73.2226 1752.84 73.7938Z" fill="#95AEC7"/>
<path d="M1752.64 73.6257C1752.68 74.0463 1752.37 74.4138 1751.95 74.4493C1751.53 74.4847 1751.16 74.1747 1751.12 73.7585C1751.09 73.3379 1751.4 72.9703 1751.82 72.9349C1752.24 72.8995 1752.61 73.205 1752.64 73.6257Z" fill="#A6C1DC"/>
<path d="M1748.19 88.7026C1748.19 88.7026 1751.81 96.1415 1752.52 96.726C1755.74 96.6551 1766.23 94.7644 1766.23 94.7644L1766.62 86.6791C1766.62 86.6791 1764.37 84.3544 1756.56 85.2134C1748.81 86.068 1748.19 88.7026 1748.19 88.7026Z" fill="#95AEC7"/>
<path d="M1750.15 91.2043C1750.76 91.8508 1752.82 93.8788 1762.32 92.971C1766.86 93.1437 1766.22 94.7599 1766.22 94.7599L1766.61 86.6746C1766.61 86.6746 1764.45 84.8193 1756.64 85.6827C1748.89 86.5373 1749.17 90.1815 1750.15 91.2043Z" fill="#A6C1DC"/>
<path d="M1766.21 94.4942C1766.5 95.5657 1763.56 96.9029 1759.75 97.421C1755.94 97.9391 1752.61 97.4919 1752.32 96.4247C1752.02 95.3532 1754.87 94.0691 1758.68 93.551C1762.49 93.0241 1765.91 93.4226 1766.21 94.4942Z" fill="#58738F"/>
<path d="M1765.36 94.7513C1765.59 95.5881 1763.07 96.6331 1759.72 97.0848C1756.38 97.5364 1753.49 97.2309 1753.26 96.394C1753.03 95.5571 1755.55 94.5122 1758.89 94.0561C1762.23 93.6044 1765.13 93.9144 1765.36 94.7513Z" fill="#65809D"/>
<path d="M1754.36 94.6317L1749.85 87.0733L1750.03 87.0068L1754.55 94.5653L1754.36 94.6317Z" fill="#58738F"/>
<path d="M1757.51 93.7814L1754.45 85.5765L1754.65 85.5322L1757.71 93.7371L1757.51 93.7814Z" fill="#58738F"/>
<path d="M1760.65 93.3873L1759.79 85.0894L1760 85.0806L1760.86 93.3784L1760.65 93.3873Z" fill="#58738F"/>
<path d="M1764.08 93.5023L1763.87 93.489L1764.88 85.873L1765.08 85.8863L1764.08 93.5023Z" fill="#58738F"/>
<path d="M1763.57 156.48C1763.54 156.48 1763.51 156.48 1763.47 156.476C1763.03 156.423 1762.73 156.02 1762.78 155.581C1764.87 139.229 1762.94 124.099 1760.96 110.807C1760.12 105.219 1759.28 100.436 1758.47 96.3671C1758.32 95.9598 1758.28 95.3177 1758.94 95.1539C1759.73 95.0122 1760.05 95.8092 1760.01 96.1812C1760.82 100.25 1761.7 104.988 1762.53 110.554C1764.53 123.953 1766.48 139.247 1764.36 155.785C1764.31 156.188 1763.97 156.48 1763.57 156.48Z" fill="#58738F"/>
<path d="M1734.04 105.808C1734.04 105.808 1741.57 109.089 1743.56 102.544C1748.33 105.219 1752.99 104.014 1753.52 100.348C1756.93 104.138 1763.29 102.885 1763.61 98.9312C1767.31 102.416 1772.53 102.389 1773.1 99.0551C1775.02 102.518 1781.02 102.85 1781.62 99.8832C1785.46 103.629 1789.84 123.298 1781.7 135.337C1781.42 131.016 1776.9 131.503 1774.97 134.833C1773.83 131.042 1768.85 131.773 1767 135.173C1765.44 131.007 1760.94 132.898 1759.76 136.272C1758.34 133.084 1753.98 134.744 1751.96 138.379C1750.93 134.979 1747.39 136.347 1745.15 140.443C1744.98 127.252 1743.18 114.77 1734.04 105.808Z" fill="#A4C2E1"/>
<path d="M1746.43 136.542C1749.93 125.468 1744.53 112.357 1738.26 109.005C1740.01 109.005 1743.07 107.402 1743.66 105.068C1741.69 106.556 1739.98 106.738 1738.83 106.592C1736.4 106.835 1734.04 105.803 1734.04 105.803C1743.18 114.765 1744.98 127.248 1745.15 140.438C1747.14 136.794 1750.15 135.315 1751.53 137.414C1751.53 137.414 1751.53 137.414 1751.54 137.414C1750.8 135.519 1748.47 134.354 1746.43 136.542Z" fill="#82A6CB"/>
<path d="M1748.9 105.799C1748.9 105.799 1753.28 105.653 1754.15 102.593C1757.22 104.776 1762.62 104.922 1764.37 101.136C1766.84 103.611 1772.1 103.904 1773.41 101.136C1776.47 103.031 1779.1 103.758 1780.26 103.031C1779.24 103.904 1775.74 104.196 1773.7 103.324C1771.95 104.634 1766.11 105.073 1764.51 102.739C1763.05 104.78 1758.97 106.817 1754.73 104.05C1753.57 105.945 1751.24 106.091 1748.9 105.799Z" fill="#82A6CB"/>
<path d="M1754.16 106.817C1754.16 106.817 1751.53 107.836 1748.62 107.694C1745.7 107.548 1744.09 108.712 1747.45 112.795C1750.81 116.873 1753.28 126.929 1751.68 134.505C1751.83 136.396 1752.84 135.377 1754.16 133.486C1755.47 131.591 1758.24 132.468 1759.7 134.505C1762.33 129.696 1764.96 132.902 1766.99 131.884C1769.04 130.861 1772.98 129.258 1773.99 131.153C1775.01 133.048 1776.77 131.737 1777.93 130.715C1779.1 129.696 1781.29 130.135 1782.45 132.61C1785.08 126.778 1787.85 116.727 1782.45 103.177C1782.16 102.451 1782.75 108.278 1779.24 110.315C1779.68 108.566 1776.91 103.904 1773.56 104.926C1770.2 105.945 1767.14 106.091 1765.39 105.511C1763.63 104.926 1762.91 105.657 1759.84 106.676C1756.78 107.694 1756.93 105.945 1754.16 106.817Z" fill="#B6D1ED"/>
<path d="M1738.5 107.867C1739.31 107.867 1740.34 107.605 1741.53 106.755C1741.57 106.724 1741.58 106.658 1741.55 106.614C1741.52 106.565 1741.46 106.556 1741.41 106.591C1738.46 108.699 1736.65 107.105 1736.58 107.034C1736.54 106.994 1736.47 106.999 1736.43 107.043C1736.39 107.087 1736.39 107.149 1736.43 107.185C1736.45 107.198 1737.2 107.867 1738.5 107.867Z" fill="#5F86AE"/>
<path d="M1779.83 107.07C1779.86 107.07 1779.89 107.056 1779.91 107.025C1782.24 103.819 1781.7 101.778 1781.68 101.694C1781.66 101.641 1781.61 101.606 1781.55 101.623C1781.5 101.641 1781.46 101.699 1781.48 101.747C1781.48 101.769 1782.01 103.784 1779.74 106.906C1779.71 106.95 1779.72 107.016 1779.77 107.047C1779.79 107.061 1779.81 107.07 1779.83 107.07Z" fill="#5F86AE"/>
<path d="M1745.7 133.292C1745.75 133.292 1745.8 133.252 1745.8 133.199C1746.96 121.203 1741.46 114.11 1741.4 114.039C1741.37 113.995 1741.3 113.986 1741.26 114.021C1741.21 114.057 1741.2 114.119 1741.24 114.167C1741.29 114.238 1746.75 121.27 1745.59 133.181C1745.59 133.238 1745.63 133.287 1745.69 133.292C1745.69 133.292 1745.69 133.292 1745.7 133.292Z" fill="#5F86AE"/>
<path d="M1744.88 141.213C1744.68 141.222 1744.51 141.067 1744.5 140.863C1744.49 140.673 1744.63 140.513 1744.81 140.482C1744.88 140.46 1745.16 140.35 1745.45 140.23C1757.81 135.262 1770.32 133.478 1781.66 135.067C1781.86 135.098 1782 135.284 1781.97 135.483C1781.94 135.687 1781.75 135.824 1781.55 135.798C1770.35 134.226 1757.96 135.993 1745.73 140.912C1745.08 141.178 1744.99 141.209 1744.88 141.213Z" fill="#A6C1DC"/>
<path d="M1733.44 106.047C1733.27 106.056 1733.1 105.958 1733.03 105.79C1732.94 105.577 1733.04 105.325 1733.26 105.228C1733.31 105.206 1739.27 102.633 1748.17 100.601C1756.4 98.7231 1768.9 96.9298 1781.77 99.0375C1782 99.0773 1782.16 99.2943 1782.12 99.529C1782.08 99.7592 1781.86 99.9186 1781.62 99.8788C1768.89 97.7932 1756.5 99.5732 1748.36 101.433C1739.53 103.448 1733.65 105.989 1733.59 106.011C1733.54 106.034 1733.49 106.047 1733.44 106.047Z" fill="#A6C1DC"/>
<path d="M1737.22 135.789C1737.28 139.11 1736.18 144.755 1745.19 146.969C1754.21 149.183 1763.45 145.809 1767.62 141.275C1771.77 136.741 1782.18 128.514 1788.18 129.253C1794.2 129.993 1802.37 135.08 1804.36 143.701C1807.03 155.205 1799.36 167.373 1790.61 170.911C1783.61 173.745 1758.35 174.679 1746 170.07C1730.25 164.189 1729.82 144.41 1737.22 135.789Z" fill="#A6C1DC"/>
<path d="M1793.77 168.657C1786.77 171.486 1761.5 172.421 1749.16 167.816C1733.44 161.94 1730.16 152.438 1758.76 148.97C1758.68 148.537 1758.57 147.682 1758.49 146.571C1754.47 147.766 1749.81 148.098 1745.2 146.965C1736.19 144.751 1738.16 139.685 1738.1 136.364C1730.7 144.99 1731.34 164.38 1747.09 170.26C1759.43 174.869 1783.61 173.745 1790.61 170.911C1792.45 170.167 1794.25 169.033 1795.92 167.603C1795.21 168.006 1794.49 168.365 1793.77 168.657Z" fill="#95AEC7"/>
<path d="M1786.56 130.444C1786.57 131.396 1787.3 133.141 1787.96 134.81C1789.34 138.299 1793.98 156.719 1786.7 166.633C1788.55 168.741 1791.41 168.626 1793.03 166.726C1794.64 164.827 1796.38 154.067 1795.45 145.951C1794.53 137.83 1791.75 132.977 1791.87 131.502C1791.98 130.028 1792.9 127.863 1790.8 127.181C1788.35 126.379 1786.54 128.925 1786.56 130.444Z" fill="#65809D"/>
<path d="M1800.8 137.861C1800.84 137.919 1800.91 137.95 1800.98 137.95C1800.98 137.95 1800.98 137.95 1800.99 137.95C1801.11 137.95 1801.21 137.848 1801.21 137.724C1801.21 137.671 1801.19 137.622 1801.16 137.582C1800.48 136.413 1799.57 135.218 1798.48 134.106C1795.29 131.308 1791.42 129.647 1788.19 129.249C1782.18 128.509 1771.78 136.736 1767.62 141.271C1763.46 145.805 1754.21 149.179 1745.2 146.965C1736.59 144.848 1737.2 139.61 1737.23 136.245C1736.96 136.369 1736.72 136.515 1736.51 136.683C1736.21 137.099 1735.91 137.538 1735.64 137.994C1735.19 139.167 1735.16 140.664 1735.58 142.103C1736.34 144.715 1738.44 146.898 1741.48 148.262C1744.16 149.462 1747.36 150.095 1750.74 150.095C1757.24 150.095 1763.65 147.873 1767.89 144.158C1772.26 140.327 1782.49 131.361 1789.78 131.361C1790.89 131.361 1791.9 131.573 1792.79 131.985C1792.8 131.99 1792.81 131.99 1792.82 131.994C1794.9 132.716 1799.16 135.691 1800.8 137.861Z" fill="#65809D"/>
<path d="M1743.43 135.156C1743.43 135.156 1737.61 134.469 1736.23 136.573C1734.66 138.946 1735.26 144.49 1741.56 147.315C1749.6 150.919 1761.23 148.94 1767.73 143.245C1773.57 138.131 1785.69 127.712 1792.88 131.038C1794.96 131.746 1799.25 134.682 1800.99 136.98C1798.82 133.261 1793.53 128.199 1787.12 128.434C1780.71 128.673 1774.85 132.742 1766.93 140.381C1760.78 146.314 1749.85 148.054 1743.26 145.366C1736.68 142.674 1737.98 137.219 1739.11 136.506C1740.23 135.798 1742.23 135.714 1742.23 135.714L1743.43 135.156Z" fill="#B6D1ED"/>
<path d="M1739.1 136.501C1738.59 136.825 1738.05 138.104 1738.21 139.663C1737.87 137.896 1738.47 136.382 1739.03 136.028C1740.15 135.315 1742.15 135.239 1742.15 135.239L1742.48 135.084C1743.06 135.12 1743.43 135.16 1743.43 135.16L1742.21 135.713C1742.21 135.709 1740.22 135.789 1739.1 136.501Z" fill="#DBECFD"/>
<path d="M1741.49 146.836C1749.53 150.441 1761.16 148.461 1767.66 142.767C1773.5 137.653 1785.61 127.234 1792.81 130.559C1794.55 131.153 1797.83 133.305 1799.87 135.333C1800.3 135.895 1800.67 136.448 1800.98 136.975C1799.24 134.682 1794.96 131.746 1792.87 131.033C1785.68 127.712 1773.56 138.131 1767.73 143.241C1761.23 148.935 1749.6 150.914 1741.55 147.31C1737.5 145.49 1735.81 142.541 1735.53 140.039C1735.97 142.435 1737.69 145.131 1741.49 146.836Z" fill="#DBECFD"/>
<path d="M1736.55 136.192C1737.89 134.979 1741.02 134.992 1742.56 135.085L1742.08 135.302C1742.08 135.302 1740.09 135.382 1738.96 136.094C1738.31 136.506 1737.6 138.516 1738.4 140.66C1738.88 142.329 1740.25 144.136 1743.26 145.362C1749.84 148.05 1760.76 146.31 1766.92 140.376C1774.84 132.738 1780.7 128.669 1787.11 128.43C1792.08 128.248 1796.36 131.237 1799.05 134.323C1797.08 132.331 1794.41 130.586 1792.88 130.064C1784.76 126.459 1772.95 136.971 1767.11 142.085C1760.61 147.78 1749.98 149.896 1741.94 146.292C1735.74 143.516 1735.09 138.609 1736.55 136.192Z" fill="#DBECFD"/>
<path d="M1787.26 129.147C1787.27 130.099 1788 131.839 1788.66 133.513C1790.05 137.002 1795.23 156.148 1787.95 166.062C1789.8 168.17 1792.12 167.329 1793.73 165.429C1795.35 163.529 1797.09 152.774 1796.16 144.653C1795.24 136.533 1792.46 131.68 1792.58 130.201C1792.69 128.722 1793.61 126.561 1791.51 125.883C1789.05 125.078 1787.24 127.624 1787.26 129.147Z" fill="#DBECFD"/>
<path d="M1789.27 133.309C1788.61 131.635 1787.88 129.891 1787.87 128.943C1787.86 127.907 1788.7 126.393 1790.01 125.791C1790.47 125.693 1790.97 125.711 1791.51 125.884C1791.67 125.937 1791.81 125.999 1791.94 126.069C1790.44 126.557 1789.46 128.226 1789.47 129.346C1789.49 130.298 1790.21 132.038 1790.87 133.712C1792.26 137.201 1797.44 156.347 1790.17 166.257C1790.48 166.62 1790.81 166.89 1791.15 167.09C1790.26 167.134 1789.37 166.78 1788.56 165.859C1795.84 155.94 1790.66 136.794 1789.27 133.309Z" fill="#B6D1ED"/>
<path d="M1833.52 146.571C1839.74 166.624 1861.06 177.845 1881.14 171.619C1901.22 165.398 1912.45 144.095 1906.22 124.041C1899.99 103.987 1878.66 92.776 1858.59 98.9928C1838.51 105.218 1827.29 126.517 1833.52 146.571Z" fill="#A6C1DC"/>
<path d="M1854.28 113.122C1859.74 107.84 1855.84 102.141 1845.98 109.779C1839.78 114.579 1831.64 132.552 1837.21 144.946C1838.96 125.317 1843.26 123.794 1854.28 113.122Z" fill="#B6D1ED"/>
<path d="M1865.74 164.061C1884.18 158.345 1894.5 138.782 1888.77 120.371C1886.23 112.193 1880.96 105.635 1874.28 101.349C1887.19 103.226 1898.54 112.246 1902.66 125.525C1908.38 143.941 1898.07 163.512 1879.63 169.224C1869.37 172.403 1858.76 170.605 1850.37 165.234C1855.37 165.961 1860.6 165.651 1865.74 164.061Z" fill="#95AEC7"/>
<path d="M1833.03 144.675C1832.66 143.214 1832.36 141.757 1832.17 140.296C1833.32 137.321 1834.82 134.531 1836.7 131.989C1835.42 128.823 1834.27 126.202 1833.42 124.329C1833.73 123.324 1834.09 122.35 1834.47 121.38C1835.21 122.93 1836.6 125.967 1838.28 130.041C1839.32 128.828 1840.46 127.668 1841.69 126.574C1839.91 119.361 1840.75 113.463 1841.85 109.615C1843.02 108.336 1844.28 107.127 1845.62 106.015C1845.02 107.131 1841.35 114.49 1843.57 124.984C1846.43 122.722 1849.71 120.76 1853.37 119.095C1851 109.23 1856.02 102.402 1860.3 98.5632C1861.9 98.147 1863.49 97.8238 1865.09 97.6245C1861.65 99.8296 1852.87 106.706 1855.42 118.232C1870.74 112.028 1889.69 112.192 1902.66 116.067C1903.18 116.948 1903.65 117.86 1904.1 118.794C1891.58 114.371 1871.78 113.853 1856 120.353C1861.24 136.231 1881.8 141.075 1906.71 144.684C1906.53 145.397 1906.35 146.114 1906.12 146.81C1880.67 143.112 1859.63 138.056 1853.95 121.225C1850.75 122.709 1847.32 124.701 1844.16 127.358C1845.76 132.853 1855.18 159.987 1886.43 169.494C1885.45 169.963 1884.44 170.397 1883.41 170.796C1860.05 162.715 1846.9 143.874 1842.36 128.961C1841.27 130.001 1840.21 131.144 1839.22 132.37C1842.86 141.527 1847.29 154.594 1848.93 167.054C1848.1 166.505 1847.29 165.912 1846.5 165.296C1844.78 154.24 1840.98 142.864 1837.69 134.447C1835.69 137.343 1834.07 140.743 1833.03 144.675Z" fill="#65809D"/>
<path d="M778.493 578.695C778.493 588.609 744.582 596.647 702.746 596.647C660.914 596.647 627.003 588.614 627.003 578.695C627.003 568.781 660.914 560.744 702.75 560.744C744.582 560.744 778.493 568.781 778.493 578.695Z" fill="#DBE7F3"/>
<path d="M675.453 533.684C675.453 533.684 679.559 530.729 684.492 529.356C690.724 527.627 694.068 530.603 688.299 534.922C682.698 535.631 672.848 535.531 672.848 535.531L675.453 533.684Z" fill="#809DBB"/>
<path d="M711.074 534.85C711.461 534.578 722.71 528.983 732.19 527.505C747.641 525.096 760.638 530.414 745.41 542.96C730.114 542.968 711.074 534.85 711.074 534.85Z" fill="#809DBB"/>
<path d="M745.553 528.462C748.347 530.96 746.595 533.222 735.837 536.903C728.698 536.907 718.752 536.87 709.532 534.196C708.902 534.502 708.519 534.704 708.456 534.75C708.456 534.75 727.496 542.867 742.792 542.859C754.205 534.372 751.662 530.565 745.553 528.462Z" fill="#6F8AA7"/>
<path d="M747.057 539.417C733.165 526.477 692.9 526.666 672.995 535.039C666.675 535.371 667.671 541.499 672.205 549.365C676.743 557.23 700.258 583.728 740.825 574.846C747.204 551.224 747.057 539.417 747.057 539.417Z" fill="#B6D1ED"/>
<path d="M724.689 562.964C692.077 569.046 678.512 549.591 670.927 542.83C670.927 542.83 671.923 554.133 692.463 566.292C703.973 573.109 715.323 574.616 732.345 575.564C728.967 573.037 725.34 567.82 724.689 562.964Z" fill="#A6BED6"/>
<path d="M722.983 575.153C722.231 575.799 721.105 576.231 720.214 576.5C725.193 576.832 730.547 576.622 736.257 575.715C739.712 566.536 741.955 536 741.955 536C741.955 536 737.026 532.475 731.022 532.894C733.396 533.616 734.875 535.274 731.488 535.623C728.097 535.971 725.782 532.508 725.782 532.508C725.782 532.508 724 534.384 726.013 536.29C728.026 538.196 726.399 540.978 722.836 539.77C719.277 538.557 710.856 541.52 710.856 541.52C710.856 541.52 721.411 540.198 719.806 543.896C718.205 547.593 713.352 547.069 713.352 547.069C713.352 547.069 714.07 549.663 716.806 549.201C719.541 548.735 721.092 553.008 717.987 554.263C714.881 555.522 712.028 551.417 712.028 551.417C712.028 551.417 710.398 554.07 713.717 555.946C717.033 557.818 719.604 561.146 718.205 562.62C716.806 564.093 712.516 560.026 708.797 562.733C711.805 562.787 717.201 564.08 716.621 566.838C716.041 569.595 711.549 567.883 711.549 567.883C711.549 567.883 714.049 573.432 720.403 571.438C719.016 573.432 714.957 573.146 715.012 575.237C716.688 574.271 724.391 573.94 722.983 575.153Z" fill="#9AB7D3"/>
<path d="M732.345 575.56C728.967 573.037 725.345 567.82 724.693 562.964C721.163 563.623 717.856 563.98 714.759 564.089C716.033 564.752 716.873 565.659 716.625 566.834C716.045 569.591 711.553 567.879 711.553 567.879C711.553 567.879 714.054 573.428 720.407 571.434C719.361 572.941 716.793 573.146 715.617 574.057C716.625 574.204 717.651 574.338 718.693 574.46C720.937 574.267 723.26 574.368 723.151 574.922C726.034 575.174 729.084 575.379 732.345 575.56Z" fill="#95AEC7"/>
<path d="M677.168 535.43C677.168 535.43 679.079 519.409 669.251 519.337C668.276 520.194 665.528 536.072 669.91 544.441C677.89 537.575 677.168 535.43 677.168 535.43Z" fill="#B6D1ED"/>
<path d="M747.057 539.417C745.561 538.023 743.754 536.781 741.703 535.686C740.594 535.866 739.396 536.156 738.098 536.588C731.769 538.699 726.567 544.936 724.588 552.81C722.193 562.351 725.403 571.736 731.937 576.273C734.803 575.984 737.766 575.518 740.829 574.846C747.204 551.224 747.057 539.417 747.057 539.417Z" fill="#B6D1ED"/>
<path d="M755.137 560.378C752.696 570.099 745.015 576.551 737.98 574.788C730.946 573.025 727.223 563.715 729.664 553.994C732.106 544.273 739.787 537.822 746.821 539.585C753.856 541.348 757.579 550.658 755.137 560.378Z" fill="#536B86"/>
<path d="M746.821 539.585C745.876 539.35 744.922 539.266 743.968 539.312C749.103 542.565 751.519 550.565 749.435 558.872C747.322 567.287 741.279 573.247 735.135 573.554C736.009 574.108 736.959 574.532 737.984 574.788C745.019 576.551 752.7 570.1 755.142 560.379C757.579 550.658 753.856 541.348 746.821 539.585Z" fill="#415770"/>
<path d="M677.508 546.821C680.605 545.331 686.538 545.511 694.005 547.245C701.477 548.978 714.663 552.487 710.192 559.564C705.721 566.645 665.893 588.575 649.833 581.071C633.781 573.566 653.022 558.603 677.508 546.821Z" fill="#A6C1DC"/>
<path d="M650.123 578.477C665.931 585.864 705.137 564.273 709.537 557.306C709.902 556.731 709.608 553.562 705.465 551.866C696.527 559.971 664.028 576.597 650.182 570.124C649.056 569.596 648.119 569.029 647.345 568.429C643.194 573.591 647.274 577.146 650.123 578.477Z" fill="#95AEC7"/>
<path d="M683.315 531.812C682.147 532.941 683.882 534.691 685.958 535.69C691.291 538.254 711.175 539.232 719.613 535.933C723.769 534.309 724.054 531.786 723.798 530.288C710.746 528.307 695.463 529.004 683.315 531.812Z" fill="#95AEC7"/>
<path d="M687.038 531.035C683.538 531.702 685.412 533.65 687.799 534.636C692.556 536.601 710.318 537.293 717.869 534.716C722.017 533.301 721.869 531.043 721.538 529.977C710.331 528.563 697.762 529.029 687.038 531.035Z" fill="#536B86"/>
<path d="M669.809 536.718C666.965 537.285 655.363 544.148 661.191 547.002C666.969 549.827 679.525 543.778 680.248 540.886C680.941 538.112 673.579 535.967 669.809 536.718Z" fill="#A6C1DC"/>
<path d="M679.571 540.399C679.605 540.269 679.319 539.149 678.037 538.821C675.247 541.818 665.519 545.696 660.662 543.489C659.821 544.718 660.75 545.999 661.263 546.25C666.805 548.954 678.874 543.174 679.571 540.399Z" fill="#95AEC7"/>
<path d="M672.949 529.499L671.184 528.307L669.343 529.373L669.772 526.989L668.377 525.247L670.402 524.97L671.381 522.825L672.205 525.033L674.205 525.453L672.688 527.094L672.949 529.499Z" fill="#9AB7D3"/>
<path opacity="0.7" d="M762.163 562.003C759.281 573.47 750.221 581.083 741.922 579.002C733.623 576.92 729.227 565.94 732.11 554.473C734.988 543.006 744.052 535.392 752.351 537.47C760.65 539.551 765.042 550.531 762.163 562.003Z" fill="#CDEAFC"/>
<path d="M753.124 537.697C752.872 537.613 752.612 537.538 752.351 537.475C744.052 535.397 734.988 543.007 732.11 554.478C730.231 561.949 731.446 569.219 734.816 573.949C731.803 569.219 730.786 562.293 732.576 555.174C735.459 543.708 744.519 536.094 752.818 538.176C754.608 538.625 756.217 539.489 757.608 540.681C756.322 539.347 754.818 538.331 753.124 537.697Z" fill="white"/>
<path opacity="0.7" d="M758.116 543.933C758.902 544.252 759.734 544.265 760.469 544.152C759.663 542.687 758.684 541.407 757.549 540.345L753.124 537.696C753.124 537.696 746.888 539.526 747.069 541.352C747.245 543.174 757.978 548.508 752.082 548.013C746.187 547.514 747.363 552.446 748.338 554.771C749.313 557.096 749.666 555.518 749.666 555.518C749.666 555.518 748.128 551.77 751.12 551.039C754.107 550.305 757.881 554.649 759.251 552.001C760.612 549.352 756.003 543.073 758.116 543.933Z" fill="white"/>
<path opacity="0.7" d="M746.775 569.956C743.056 567.702 746.057 567.492 747.607 566.93C749.162 566.368 749.154 561.142 747.431 560.143L747.443 560.668C747.443 560.668 747.057 565.772 743.75 564.29C740.443 562.808 735.69 561.104 738.031 565.612C740.371 570.124 745.477 575.341 741.266 574.279C738.804 573.658 736.27 573.57 734.589 573.608C736.409 576.311 738.909 578.246 741.922 579.001C744.59 579.669 747.334 579.333 749.931 578.191C751.133 577.008 752.25 575.812 752.919 574.884C754.936 572.093 750.494 572.206 746.775 569.956Z" fill="white"/>
<path d="M753.007 559.858C752.418 562.078 749.397 562.456 748.052 562.12C746.712 561.784 746.002 560.009 746.464 558.154C746.93 556.298 748.397 555.069 749.737 555.404C751.082 555.74 753.603 557.604 753.007 559.858Z" fill="#536B86"/>
<path d="M752.423 559.576C752.183 560.487 750.943 560.643 750.393 560.504C749.842 560.366 749.552 559.639 749.742 558.88C749.931 558.12 750.532 557.616 751.082 557.751C751.633 557.889 752.666 558.653 752.423 559.576Z" fill="#6F89A7"/>
<path opacity="0.6" d="M765.407 553.318C765.264 553.323 765.143 553.209 765.138 553.067C764.928 546.834 762.739 541.318 759.138 537.94C759.033 537.843 759.028 537.675 759.125 537.57C759.226 537.465 759.39 537.461 759.495 537.558C763.197 541.033 765.441 546.678 765.655 553.05C765.668 553.193 765.554 553.314 765.407 553.318Z" fill="white"/>
<path opacity="0.6" d="M767.634 547.95C767.508 547.954 767.395 547.866 767.369 547.736C766.21 541.608 763.209 536.492 759.129 533.7C759.012 533.616 758.982 533.457 759.062 533.339C759.142 533.222 759.306 533.188 759.423 533.272C763.613 536.143 766.697 541.381 767.882 547.644C767.907 547.786 767.815 547.925 767.676 547.95C767.664 547.946 767.647 547.95 767.634 547.95Z" fill="white"/>
<path opacity="0.6" d="M746.864 582.275C742.88 582.38 738.506 581.209 734.379 578.876C734.253 578.804 734.207 578.645 734.278 578.519C734.35 578.393 734.509 578.347 734.635 578.422C740.069 581.495 745.918 582.51 750.683 581.205C750.822 581.167 750.965 581.247 751.007 581.39C751.045 581.528 750.961 581.671 750.822 581.713C749.565 582.053 748.238 582.242 746.864 582.275Z" fill="white"/>
<path opacity="0.6" d="M746.666 585.209C743.779 585.285 740.695 584.806 737.623 583.774C737.484 583.728 737.413 583.581 737.459 583.442C737.505 583.308 737.652 583.232 737.791 583.279C743.708 585.268 749.645 585.155 754.078 582.976C754.209 582.913 754.364 582.968 754.427 583.098C754.49 583.224 754.44 583.384 754.309 583.446C752.066 584.546 749.456 585.134 746.666 585.209Z" fill="white"/>
<path d="M682.702 533.201C682.71 533.579 682.412 533.894 682.034 533.906C681.655 533.915 681.34 533.617 681.332 533.239C681.323 532.861 681.622 532.546 682 532.538C682.378 532.525 682.693 532.823 682.702 533.201Z" fill="#809DBB"/>
<path d="M686.534 536.844C686.542 537.222 686.244 537.537 685.866 537.545C685.488 537.554 685.172 537.256 685.164 536.878C685.156 536.5 685.454 536.185 685.832 536.173C686.21 536.169 686.526 536.467 686.534 536.844Z" fill="#809DBB"/>
<path d="M693.989 538.565C693.997 538.943 693.699 539.258 693.32 539.266C692.942 539.275 692.627 538.977 692.614 538.599C692.606 538.221 692.904 537.907 693.283 537.898C693.665 537.89 693.98 538.188 693.989 538.565Z" fill="#809DBB"/>
<path d="M703.149 538.847C703.157 539.224 702.859 539.539 702.481 539.552C702.103 539.56 701.787 539.262 701.779 538.885C701.771 538.507 702.069 538.192 702.447 538.179C702.825 538.171 703.14 538.469 703.149 538.847Z" fill="#809DBB"/>
<path d="M713.167 538.67C713.175 539.048 712.877 539.363 712.499 539.376C712.12 539.384 711.805 539.086 711.793 538.708C711.784 538.33 712.083 538.016 712.461 538.007C712.843 537.995 713.158 538.293 713.167 538.67Z" fill="#809DBB"/>
<path d="M722.428 536.164C722.436 536.542 722.138 536.857 721.76 536.869C721.382 536.878 721.067 536.58 721.054 536.202C721.046 535.824 721.344 535.51 721.722 535.501C722.1 535.484 722.42 535.782 722.428 536.164Z" fill="#809DBB"/>
<path d="M725.525 531.291C725.533 531.669 725.235 531.984 724.857 531.997C724.474 532.005 724.164 531.707 724.151 531.329C724.143 530.952 724.441 530.637 724.819 530.628C725.201 530.616 725.512 530.914 725.525 531.291Z" fill="#809DBB"/>
<path d="M718.957 534.28L719.067 529.868C719.083 529.289 718.621 528.806 718.041 528.794C717.457 528.777 716.978 529.239 716.965 529.818L716.856 534.242C716.848 534.515 716.949 534.762 717.113 534.951C717.373 534.876 717.625 534.796 717.869 534.716C718.272 534.578 718.634 534.431 718.957 534.28Z" fill="#394E66"/>
<path d="M712.797 535.736L711.662 531.455C711.515 530.892 710.94 530.561 710.377 530.708C709.818 530.855 709.482 531.43 709.629 531.992L710.704 536.055C711.427 535.988 712.129 535.904 712.805 535.812C712.801 535.791 712.801 535.765 712.797 535.736Z" fill="#394E66"/>
<path opacity="0.7" d="M718.31 534.553C718.399 534.519 718.487 534.486 718.571 534.448C718.592 534.439 718.613 534.431 718.638 534.423C718.735 534.381 718.827 534.343 718.92 534.297C718.924 534.297 718.928 534.292 718.932 534.292C721.987 532.882 721.84 530.939 721.537 529.973C720.647 527.589 717.054 521.852 713.461 521.159C703.216 523.006 700.8 536.345 700.8 536.345C700.834 536.353 702.473 536.383 704.347 536.379C706.868 536.349 709.372 536.215 711.658 535.959C713.322 535.766 714.852 535.518 716.18 535.195C716.201 535.191 716.218 535.186 716.234 535.182C716.419 535.136 716.604 535.09 716.785 535.044C716.802 535.04 716.814 535.035 716.831 535.031C716.982 534.989 717.134 534.947 717.281 534.905C717.323 534.893 717.365 534.88 717.407 534.867C717.567 534.817 717.722 534.767 717.873 534.716C717.995 534.674 718.117 534.632 718.23 534.59C718.256 534.578 718.281 534.565 718.31 534.553Z" fill="white"/>
<path opacity="0.7" d="M713.776 521.633C712.301 521.847 710.246 523.337 710.246 523.337C710.246 523.337 715.97 523.929 719.596 527.577C718.121 524.479 716.201 522.746 713.776 521.633Z" fill="white"/>
<path d="M504.004 630.959C504.004 640.298 465.055 647.868 417.004 647.868C368.953 647.868 330.004 640.298 330.004 630.959C330.004 621.619 368.953 614.049 417.004 614.049C465.05 614.044 504.004 621.619 504.004 630.959Z" fill="#DBE7F3"/>
<path d="M420.221 520.975C420.221 520.975 430.102 518.281 435.111 523.629C434.395 517.562 413.611 501.017 399.228 517.353C412.73 520.931 420.221 520.975 420.221 520.975Z" fill="#99B4D0"/>
<path d="M464.578 547.549C467.352 549.411 472.035 561.318 465.897 569.724C459.754 578.14 453.3 582.841 455.427 587.781C457.554 592.72 463.361 601.248 458.43 606.494C453.504 611.75 447.771 608.91 447.771 608.91L449.119 624.371C449.119 624.371 462.947 622.976 465.585 610.758C468.223 598.56 459.034 592.375 462.027 587.547C465.025 582.72 473.972 573.395 475.13 566.724C476.303 560.044 464.578 547.549 464.578 547.549Z" fill="#6F8AA7"/>
<path d="M475.135 566.719C476.06 561.454 468.973 552.601 465.94 549.081C466.49 549.907 467.026 550.996 467.508 552.28C470.618 556.441 473.976 561.974 473.339 565.698C472.161 572.383 463.224 581.708 460.231 586.531C457.223 591.344 466.417 597.543 463.774 609.741C461.701 619.324 452.764 622.246 449.011 623.058L449.123 624.366C449.123 624.366 462.952 622.97 465.59 610.753C468.228 598.554 459.038 592.37 462.032 587.542C465.03 582.715 473.976 573.39 475.135 566.719Z" fill="#B6D1ED"/>
<path d="M464.577 547.549C464.577 547.549 465.108 548.142 465.935 549.081C465.468 548.376 464.991 547.841 464.577 547.549Z" fill="#FCC353"/>
<path d="M423.628 522.171C429.479 522.993 444.495 521.763 460.09 531.569C475.67 541.38 479.754 556.145 473.709 570.847C475.276 557.409 465.814 543.577 443.482 543.85C432.307 532.857 423.628 522.171 423.628 522.171Z" fill="#B6D1ED"/>
<path d="M445.61 628.552C449.864 625.173 450.01 622.82 450.029 615.989C450.024 609.134 453.174 548.22 443.77 535.094C434.366 521.981 411.08 511.514 387.834 518.612C364.582 525.691 356.604 535.871 358.512 567.833C360.415 599.785 412.867 639.705 424.466 639.652C430.798 639.642 441.711 631.654 445.61 628.552Z" fill="#95AEC7"/>
<path d="M421.818 552.339C428.661 577.649 435.252 611.181 439.175 608.337C445.556 603.718 443.833 553.982 443.838 547.331C443.838 546.217 442.899 541.263 442.996 537.719C450.253 554.648 447.552 607.306 447.547 613.568C447.537 620.214 447.401 622.499 443.254 625.796C439.457 628.81 428.846 636.569 422.699 636.594C411.402 636.642 360.401 597.826 358.561 566.744C357.388 547.209 360.021 536.061 367.746 528.734C384.193 550.024 414.132 552.373 421.818 552.339Z" fill="#88A2BC"/>
<path d="M390.16 523.819C401.185 525.793 421.122 535.478 423.901 551.862C426.695 568.256 431.752 633.215 426.632 638.679C421.502 644.134 364.952 632.51 359.51 617.876C354.073 603.242 354.346 569.943 356.454 553.87C358.566 537.797 362.494 518.874 390.16 523.819Z" fill="#A6C1DC"/>
<path d="M394.375 574.255C402.723 575.354 418.357 562.869 420.494 553.787C423.151 569.389 427.965 631.197 423.093 636.38C418.206 641.587 364.397 630.511 359.238 616.602C354.068 602.668 354.317 570.978 356.322 555.698C358.546 569.851 370.102 571.051 394.375 574.255Z" fill="#B6D1ED"/>
<path d="M438.877 585.793C438.877 585.793 438.902 585.802 438.916 585.798C439.204 585.798 439.427 585.574 439.423 585.292C439.418 583.906 439.053 551.22 436.346 543.354C433.859 536.158 418.064 516.706 389.099 517.727C388.826 517.747 388.602 517.97 388.617 518.257C388.612 518.539 388.86 518.743 389.128 518.738C417.193 517.742 433.076 536.951 435.392 543.68C438.06 551.39 438.42 584.952 438.415 585.292C438.42 585.564 438.629 585.783 438.877 585.793Z" fill="#B6D1ED"/>
<path d="M406.179 584.411C412.327 588.15 414.556 596.235 415.106 604.637C415.675 613.043 415.87 636.55 409.903 639.481C399.623 644.542 357.247 628.469 354.511 620.817C351.786 613.164 347.999 574.1 357.208 571.567C364.193 569.661 389.323 574.153 406.179 584.411Z" fill="#99B4D0"/>
<path d="M400.294 587.144C405.21 589.614 407.717 594.889 408.437 604.301C409.148 613.714 408.257 638.543 399.009 640.25C390.155 641.874 355.713 630.093 352.404 622.242C348.261 612.372 347.58 582.112 353.28 576.492C358.264 571.586 389.819 581.874 400.294 587.144Z" fill="#B6D1ED"/>
<path d="M441.603 589.089C442.406 586.352 440.367 581.898 438.863 581.971C436.989 582.063 436.059 588.044 437.062 589.546C437.768 590.615 441.306 590.129 441.603 589.089Z" fill="#E0ECF9"/>
<path d="M411.455 616.291C412.267 613.549 410.228 609.1 408.734 609.178C406.855 609.275 405.92 615.24 406.918 616.748C407.619 617.812 411.158 617.321 411.455 616.291Z" fill="#E0ECF9"/>
<path d="M375.081 548.284C374.677 554.356 378.357 559.563 383.302 559.884C388.232 560.21 392.569 555.542 392.968 549.46C393.377 543.383 389.698 538.19 384.757 537.865C379.822 537.534 375.49 542.201 375.081 548.284Z" fill="#E0ECF9"/>
<path d="M376.658 548.381C376.37 552.737 378.994 556.461 382.537 556.689C386.071 556.923 389.172 553.588 389.459 549.231C389.751 544.88 387.118 541.151 383.584 540.918C380.045 540.684 376.935 544.034 376.658 548.381Z" fill="#B6D1ED"/>
<path d="M163.707 576.921C163.707 583.677 135.534 589.153 100.777 589.153C66.0191 589.153 37.8456 583.677 37.8456 576.921C37.8456 570.166 66.0191 564.69 100.777 564.69C135.534 564.69 163.707 570.166 163.707 576.921Z" fill="#DBE7F3"/>
<path d="M103.406 566.448C103.406 567.06 103.033 567.553 102.568 567.553C102.107 567.553 101.734 567.06 101.734 566.448V554.741C101.734 554.133 102.107 553.637 102.568 553.637C103.03 553.637 103.406 554.129 103.406 554.741V566.448Z" fill="#6F8AA7"/>
<path d="M94.5621 565.639H91.6891V570.587H94.5621V565.639Z" fill="#6F8AA7"/>
<path d="M112.11 572.634C112.11 574.125 110.899 575.335 109.406 575.335H95.7346C94.2418 575.335 93.0306 574.125 93.0306 572.634V565.172C93.0306 563.68 94.2418 562.471 95.7346 562.471H109.406C110.899 562.471 112.11 563.68 112.11 565.172V572.634V572.634Z" fill="#A6C1DC"/>
<path d="M106.332 568.903C106.332 570.978 104.646 572.662 102.569 572.662C100.488 572.662 98.8048 570.978 98.8048 568.903C98.8048 566.828 100.488 565.144 102.569 565.144C104.649 565.144 106.332 566.828 106.332 568.903Z" fill="#C8DBEE"/>
<path d="M104.949 567.717C104.949 568.372 104.417 568.906 103.759 568.906C103.104 568.906 102.568 568.375 102.568 567.717C102.568 567.063 103.1 566.529 103.759 566.529C104.413 566.529 104.949 567.063 104.949 567.717Z" fill="white"/>
<path d="M103.406 537.157C103.406 537.769 103.033 538.262 102.568 538.262C102.107 538.262 101.734 537.769 101.734 537.157V525.45C101.734 524.842 102.107 524.346 102.568 524.346C103.03 524.346 103.406 524.842 103.406 525.45V537.157Z" fill="#A6C1DC"/>
<path d="M108.909 533.084C108.909 533.96 108.198 534.667 107.325 534.667H97.8153C96.9386 534.667 96.231 533.957 96.231 533.084C96.231 532.212 96.9422 531.502 97.8153 531.502H107.325C108.202 531.502 108.909 532.212 108.909 533.084Z" fill="#95AEC7"/>
<path d="M105.543 525.302C105.543 526.941 104.212 528.27 102.572 528.27C100.928 528.27 99.6002 526.941 99.6002 525.302C99.6002 523.663 100.931 522.334 102.572 522.334C104.212 522.334 105.543 523.663 105.543 525.302Z" fill="#C0DAF5"/>
<path d="M74.3917 549.409C74.3917 549.409 60.7767 550.422 58.0868 574.132C57.8615 576.084 58.0868 576.692 58.0868 576.692C58.0868 576.692 58.3861 577.47 59.1889 577.533C59.9951 577.6 60.5725 577.129 60.6852 576.372C60.7979 575.616 62.7237 558.775 80.451 554.53C81.1974 552.778 78.8068 549.191 74.3917 549.409Z" fill="#C0DAF5"/>
<path d="M63.3362 576.228C63.3362 577.322 62.449 578.208 61.354 578.208H57.3931C56.2981 578.208 55.4109 577.322 55.4109 576.228C55.4109 575.135 56.2981 574.252 57.3931 574.252H61.354C62.449 574.248 63.3362 575.135 63.3362 576.228Z" fill="#A6C1DC"/>
<path d="M130.749 549.409C130.749 549.409 144.36 550.422 147.054 574.132C147.279 576.084 147.054 576.692 147.054 576.692C147.054 576.692 146.755 577.47 145.952 577.533C145.149 577.6 144.568 577.129 144.456 576.372C144.343 575.616 142.417 558.775 124.69 554.53C123.943 552.778 126.334 549.191 130.749 549.409Z" fill="#C0DAF5"/>
<path d="M141.804 576.228C141.804 577.322 142.692 578.208 143.787 578.208H147.747C148.842 578.208 149.73 577.322 149.73 576.228C149.73 575.135 148.842 574.252 147.747 574.252H143.787C142.692 574.248 141.804 575.135 141.804 576.228Z" fill="#A6C1DC"/>
<path d="M150.41 542.598C150.494 542.471 150.575 542.341 150.653 542.207C150.66 542.197 150.663 542.19 150.667 542.179C150.741 542.046 150.811 541.912 150.878 541.778C150.881 541.771 150.881 541.764 150.889 541.757C151.473 540.537 151.681 539.324 151.681 539.324C151.681 539.324 112.297 534.407 108.452 533.785C102.773 533.785 99.1467 533.785 96.6892 533.785C90.1088 534.801 53.4642 539.324 53.4642 539.324C53.4642 539.324 53.679 540.597 54.3022 541.845C54.3022 541.849 54.3057 541.849 54.3057 541.852C54.3726 541.982 54.4395 542.112 54.5134 542.239C54.517 542.239 54.517 542.242 54.517 542.246C54.5909 542.373 54.6683 542.496 54.7493 542.615C54.7564 542.622 54.7599 542.633 54.7669 542.64C54.8479 542.759 54.9359 542.879 55.0275 542.992C67.4383 543.125 74.2405 550.51 75.6418 552.093C82.6588 561.261 96.485 560.519 102.565 560.512C102.587 560.512 102.632 560.509 102.657 560.509C102.657 560.509 102.696 560.505 102.77 560.502C108.818 560.104 122.528 561.205 129.5 552.093C130.904 550.51 137.703 543.125 150.114 542.992C150.213 542.872 150.308 542.742 150.396 542.612C150.399 542.608 150.406 542.601 150.41 542.598Z" fill="#C0DAF5"/>
<path d="M54.4601 541.835C65.2303 541.29 112.24 539.756 150.73 541.849C150.673 541.961 150.617 542.07 150.557 542.179C150.55 542.19 150.547 542.197 150.543 542.207C150.466 542.341 150.388 542.471 150.3 542.598C150.297 542.605 150.29 542.612 150.286 542.619C150.198 542.749 150.103 542.876 150.004 542.999C137.59 543.132 130.791 550.518 129.386 552.1C122.415 561.212 108.705 560.111 102.656 560.509C102.586 560.512 102.544 560.516 102.544 560.516C102.519 560.516 102.477 560.519 102.452 560.519C96.3718 560.526 82.5421 561.265 75.5287 552.1C74.1239 550.518 67.2759 543.15 54.865 543.02L54.4038 542.253C54.4073 542.25 54.4672 541.849 54.4601 541.835Z" fill="#A6C1DC"/>
<path d="M95.3228 549.206C95.3228 549.027 95.4671 548.882 95.6467 548.882H109.49C109.67 548.882 109.814 549.027 109.814 549.206C109.814 549.386 109.67 549.53 109.49 549.53H95.6467C95.4671 549.53 95.3228 549.386 95.3228 549.206Z" fill="#6F8AA7"/>
<path d="M95.3228 551.974C95.3228 551.794 95.4671 551.65 95.6467 551.65H109.49C109.67 551.65 109.814 551.794 109.814 551.974C109.814 552.157 109.67 552.301 109.49 552.301H95.6467C95.4671 552.301 95.3228 552.157 95.3228 551.974Z" fill="#6F8AA7"/>
<path d="M95.3228 554.745C95.3228 554.566 95.4671 554.418 95.6467 554.418H109.49C109.67 554.418 109.814 554.562 109.814 554.745C109.814 554.925 109.67 555.069 109.49 555.069H95.6467C95.4671 555.073 95.3228 554.925 95.3228 554.745Z" fill="#6F8AA7"/>
<path opacity="0.5" d="M27.0016 528.752C27.0016 529.962 38.4759 530.943 52.626 530.943C66.7797 530.943 78.2505 529.962 78.2505 528.752C78.2505 527.543 66.7762 526.562 52.626 526.562C38.4759 526.562 27.0016 527.543 27.0016 528.752Z" fill="#D7EDFC"/>
<path d="M54.1648 537.78C54.1648 538.392 53.7916 538.884 53.3269 538.884C52.8656 538.884 52.4924 538.388 52.4924 537.78V526.073C52.4924 525.464 52.8656 524.968 53.3269 524.968C53.7881 524.968 54.1648 525.464 54.1648 526.073V537.78Z" fill="#C0DAF5"/>
<path d="M55.5482 524.508C55.5482 525.144 54.587 525.661 53.4005 525.661C52.214 525.661 51.2563 525.144 51.2563 524.508C51.2563 523.871 52.2175 523.354 53.4005 523.354C54.587 523.354 55.5482 523.871 55.5482 524.508Z" fill="#A6C1DC"/>
<path d="M57.4317 547.359C57.4317 549.512 55.6853 551.252 53.5341 551.252C51.3829 551.252 49.6366 549.508 49.6366 547.359V537.572C49.6366 535.424 51.3829 533.679 53.5341 533.679C55.6853 533.679 57.4317 535.424 57.4317 537.572V547.359Z" fill="#95AEC7"/>
<path opacity="0.5" d="M125.742 528.752C125.742 529.962 137.213 530.943 151.367 530.943C165.521 530.943 176.991 529.962 176.991 528.752C176.991 527.543 165.517 526.562 151.367 526.562C137.217 526.562 125.742 527.543 125.742 528.752Z" fill="#D7EDFC"/>
<path d="M152.434 537.78C152.434 538.392 152.057 538.884 151.596 538.884C151.134 538.884 150.761 538.388 150.761 537.78V526.073C150.761 525.464 151.134 524.968 151.596 524.968C152.057 524.968 152.434 525.464 152.434 526.073V537.78Z" fill="#C0DAF5"/>
<path d="M153.817 524.508C153.817 525.144 152.856 525.661 151.67 525.661C150.483 525.661 149.522 525.144 149.522 524.508C149.522 523.871 150.483 523.354 151.67 523.354C152.856 523.354 153.817 523.871 153.817 524.508Z" fill="#A6C1DC"/>
<path d="M155.701 547.359C155.701 549.512 153.955 551.252 151.804 551.252C149.652 551.252 147.906 549.508 147.906 547.359V537.572C147.906 535.424 149.652 533.679 151.804 533.679C153.955 533.679 155.701 535.424 155.701 537.572V547.359Z" fill="#95AEC7"/>
</svg>
