<svg width="126" height="126" viewBox="0 0 126 126" fill="none" xmlns="http://www.w3.org/2000/svg">
<g filter="url(#filter0_d_128_3398)">
<circle cx="62.999" cy="58.3193" r="44.5" fill="white"/>
</g>
<path d="M62.9574 63.7417C60.0931 63.7417 57.7588 61.4402 57.7588 58.6163C57.7588 55.7924 60.0931 53.491 62.9574 53.491C65.8216 53.491 68.156 55.789 68.156 58.6163C68.156 61.4436 65.8251 63.7417 62.9574 63.7417Z" fill="#DE3226"/>
<path d="M50.7837 86.2646C49.8347 86.2646 48.9723 86.0529 48.2104 85.6261C46.7246 84.7963 45.7514 83.2358 45.3184 80.989C44.9201 78.9368 44.9859 76.3758 45.5089 73.3744C46.5722 67.2929 49.4122 60.0232 53.506 52.9002C57.5997 45.7773 62.4693 39.6378 67.2142 35.6154C69.5554 33.6281 71.7512 32.2588 73.7427 31.5383C75.9212 30.753 77.7776 30.7769 79.2634 31.6066C80.7492 32.4364 81.719 33.9934 82.1554 36.2403C82.5536 38.2925 82.4878 40.8534 81.9649 43.8549C80.9016 49.9363 78.0616 57.2095 73.9678 64.3324C69.8741 71.4553 65.0045 77.5914 60.2596 81.6173C57.9149 83.6012 55.7191 84.9739 53.7311 85.6909C52.6713 86.0734 51.6888 86.2646 50.7837 86.2646ZM76.6831 32.3339C75.9454 32.3339 75.1211 32.4978 74.2172 32.8222C72.385 33.4847 70.3312 34.772 68.1181 36.65C65.905 38.5281 63.5845 40.9593 61.3194 43.8003C58.9678 46.7471 56.7443 50.0354 54.7112 53.5729C52.6782 57.1105 50.9603 60.6788 49.6027 64.1856C48.2935 67.5593 47.3757 70.7314 46.8735 73.6066C46.3713 76.4817 46.3124 78.8446 46.6796 80.7329C47.0328 82.5665 47.7775 83.8129 48.8927 84.4378C50.0079 85.0626 51.4764 85.049 53.2531 84.407C55.0887 83.748 57.1391 82.4573 59.3557 80.5792C61.5723 78.7012 63.8858 76.2734 66.1509 73.4324C68.506 70.4822 70.7295 67.1939 72.7626 63.6563C74.7956 60.1188 76.5134 56.5505 77.8711 53.0471C79.1768 49.67 80.0946 46.5012 80.5968 43.6227C81.099 40.7442 81.1614 38.3881 80.7942 36.4964C80.441 34.6627 79.6929 33.4164 78.5776 32.7949C78.0304 32.4876 77.3966 32.3339 76.6831 32.3339Z" fill="#323150"/>
<path d="M50.7837 86.2646C49.8347 86.2646 48.9723 86.0529 48.2104 85.6261C46.7246 84.7963 45.7514 83.2358 45.3184 80.989C44.9201 78.9368 44.9859 76.3758 45.5089 73.3744C46.5722 67.2929 49.4122 60.0232 53.506 52.9002C57.5997 45.7773 62.4693 39.6378 67.2142 35.6154C69.5554 33.6281 71.7512 32.2588 73.7427 31.5383C75.9212 30.753 77.7776 30.7769 79.2634 31.6066C80.7492 32.4364 81.719 33.9934 82.1554 36.2403C82.5536 38.2925 82.4878 40.8534 81.9649 43.8549C80.9016 49.9363 78.0616 57.2095 73.9678 64.3324C69.8741 71.4553 65.0045 77.5914 60.2596 81.6173C57.9149 83.6012 55.7191 84.9739 53.7311 85.6909C52.6713 86.0734 51.6888 86.2646 50.7837 86.2646ZM76.6831 32.3339C75.9454 32.3339 75.1211 32.4978 74.2172 32.8222C72.385 33.4847 70.3312 34.772 68.1181 36.65C65.905 38.5281 63.5845 40.9593 61.3194 43.8003C58.9678 46.7471 56.7443 50.0354 54.7112 53.5729C52.6782 57.1105 50.9603 60.6788 49.6027 64.1856C48.2935 67.5593 47.3757 70.7314 46.8735 73.6066C46.3713 76.4817 46.3124 78.8446 46.6796 80.7329C47.0328 82.5665 47.7775 83.8129 48.8927 84.4378C50.0079 85.0626 51.4764 85.049 53.2531 84.407C55.0887 83.748 57.1391 82.4573 59.3557 80.5792C61.5723 78.7012 63.8858 76.2734 66.1509 73.4324C68.506 70.4822 70.7295 67.1939 72.7626 63.6563C74.7956 60.1188 76.5134 56.5505 77.8711 53.0471C79.1768 49.67 80.0946 46.5012 80.5968 43.6227C81.099 40.7442 81.1614 38.3881 80.7942 36.4964C80.441 34.6627 79.6929 33.4164 78.5776 32.7949C78.0304 32.4876 77.3966 32.3339 76.6831 32.3339Z" fill="#323150"/>
<path d="M77.0332 86.0564C76.1604 86.0564 75.2091 85.8812 74.1793 85.5306C72.181 84.8408 69.9609 83.5057 67.5885 81.5594C62.7778 77.6086 57.8113 71.5477 53.5998 64.493C49.3883 57.4384 46.434 50.2096 45.2703 44.1453C44.6988 41.154 44.5915 38.5931 44.9551 36.534C45.3534 34.2804 46.3024 32.7062 47.7743 31.8526C49.2463 30.9989 51.1027 30.9511 53.2915 31.7023C55.2934 32.3887 57.5134 33.7238 59.8859 35.6736C64.6965 39.6209 69.6631 45.6818 73.8711 52.7399C78.0791 59.7979 81.0403 67.0233 82.2006 73.0843C82.7755 76.0789 82.8794 78.6399 82.5158 80.6955C82.1175 82.9491 81.172 84.5233 79.7 85.3769C78.9173 85.8322 78.0283 86.0587 77.0332 86.0564ZM50.4446 32.5423C49.7 32.5423 49.0385 32.7028 48.4774 33.0306C47.3726 33.6726 46.6453 34.9292 46.3197 36.7697C45.9872 38.6648 46.0911 41.0618 46.6349 43.8926C47.1786 46.7233 48.1518 49.916 49.513 53.2692C50.9295 56.7521 52.7062 60.2965 54.7947 63.7999C56.8831 67.3033 59.162 70.5574 61.5621 73.4667C63.8722 76.2735 66.1997 78.6399 68.4751 80.5077C70.7506 82.3755 72.794 83.6082 74.6365 84.2399C76.479 84.8716 77.8921 84.8408 78.9969 84.1989C80.1018 83.5569 80.8256 82.3003 81.1512 80.4599C81.4871 78.5647 81.3832 76.1677 80.8395 73.3369C80.2957 70.5062 79.3225 67.3135 77.9579 63.9604C76.5448 60.4774 74.7681 56.9365 72.6797 53.4296C70.5913 49.9228 68.3123 46.6755 65.9122 43.7628C63.5986 40.9594 61.2747 38.5897 58.9992 36.7218C56.7238 34.854 54.6804 33.6248 52.8378 32.9931C51.9616 32.6926 51.1615 32.5423 50.4446 32.5423Z" fill="#323150"/>
<path d="M63.1201 70.2091C55.0815 70.2091 47.5313 69.1267 41.7924 67.1462C38.8797 66.1389 36.5765 64.9506 34.9487 63.6086C33.172 62.1437 32.2611 60.5457 32.2472 58.8657C32.2334 57.1857 33.1165 55.5706 34.8725 54.075C36.4761 52.7091 38.7585 51.4833 41.6573 50.4315C47.5313 48.2974 55.3378 47.0886 63.6431 47.0237C71.9484 46.9589 79.7722 48.0447 85.6774 50.0833C88.5936 51.0906 90.8967 52.2823 92.5211 53.6208C94.3013 55.0891 95.2121 56.6837 95.226 58.3672C95.2398 60.0506 94.3567 61.6589 92.6007 63.1545C90.9937 64.5203 88.7113 65.7462 85.8159 66.7979C79.9419 68.932 72.1354 70.1408 63.8301 70.2091H63.1201ZM63.6466 47.7067L63.6535 48.3896C59.5286 48.4203 55.5352 48.7379 51.7774 49.332C48.1582 49.9023 44.9164 50.7047 42.1353 51.7155C39.3542 52.7262 37.2553 53.853 35.7799 55.1096C34.3045 56.3662 33.6222 57.5886 33.6326 58.852C33.643 60.1155 34.3842 61.3652 35.8388 62.5603C37.2934 63.7554 39.4927 64.9062 42.253 65.8554C45.0134 66.8047 48.3002 67.573 51.9298 68.0852C55.6946 68.6213 59.6983 68.874 63.8197 68.8433C67.9412 68.8125 71.938 68.4915 75.6958 67.8974C79.3151 67.3272 82.5568 66.5247 85.3345 65.5174C88.1121 64.5101 90.2179 63.3798 91.6933 62.1198C93.1687 60.8598 93.851 59.6408 93.8406 58.3774C93.8302 57.114 93.0856 55.8676 91.6344 54.6691C90.1833 53.4706 87.9771 52.3267 85.2202 51.374C82.4633 50.4213 79.1696 49.6598 75.5434 49.1442C71.7752 48.6115 67.775 48.3555 63.6535 48.3896L63.6466 47.7067Z" fill="#323150"/>
<path d="M62.9581 56.0042C62.4341 56.0042 61.9218 56.1574 61.4861 56.4444C61.0504 56.7314 60.7108 57.1394 60.5103 57.6167C60.3097 58.094 60.2573 58.6192 60.3595 59.126C60.4617 59.6327 60.7141 60.0981 61.0846 60.4635C61.4552 60.8288 61.9273 61.0776 62.4412 61.1784C62.9552 61.2791 63.4879 61.2274 63.972 61.0297C64.4562 60.832 64.87 60.4972 65.1611 60.0676C65.4522 59.638 65.6076 59.133 65.6076 58.6163C65.6076 57.9235 65.3285 57.2591 64.8316 56.7692C64.3347 56.2794 63.6608 56.0042 62.9581 56.0042V56.0042Z" fill="#B11A31"/>
<path d="M79.038 34.854C80.6371 34.854 81.9334 33.576 81.9334 31.9994C81.9334 30.4228 80.6371 29.1448 79.038 29.1448C77.4389 29.1448 76.1426 30.4228 76.1426 31.9994C76.1426 33.576 77.4389 34.854 79.038 34.854Z" fill="#84B320"/>
<path d="M79.2597 87.4939C80.8588 87.4939 82.1551 86.2159 82.1551 84.6393C82.1551 83.0627 80.8588 81.7847 79.2597 81.7847C77.6606 81.7847 76.3643 83.0627 76.3643 84.6393C76.3643 86.2159 77.6606 87.4939 79.2597 87.4939Z" fill="#F4C23F"/>
<path d="M33.6669 60.9861C35.266 60.9861 36.5623 59.7081 36.5623 58.1315C36.5623 56.5549 35.266 55.2769 33.6669 55.2769C32.0678 55.2769 30.7715 56.5549 30.7715 58.1315C30.7715 59.7081 32.0678 60.9861 33.6669 60.9861Z" fill="#67BAEB"/>
<path d="M79.8895 34.0072C79.3691 34.0066 78.8585 33.8677 78.4114 33.6052C77.9643 33.3427 77.5972 32.9663 77.3488 32.5155C77.1003 32.0648 76.9796 31.5563 76.9995 31.0436C77.0193 30.531 77.179 30.0331 77.4616 29.6023C77.099 29.8335 76.7935 30.1417 76.5674 30.5044C76.3413 30.867 76.2003 31.2749 76.1548 31.6982C76.1093 32.1216 76.1604 32.5495 76.3043 32.9509C76.4483 33.3522 76.6814 33.7167 76.9867 34.0177C77.2921 34.3187 77.6618 34.5486 78.0689 34.6905C78.4759 34.8324 78.91 34.8828 79.3394 34.8379C79.7688 34.793 80.1825 34.6541 80.5504 34.4312C80.9182 34.2082 81.2308 33.907 81.4653 33.5496C80.9962 33.8497 80.4487 34.0086 79.8895 34.0072V34.0072Z" fill="#4B7D27"/>
<path d="M80.115 86.6505C79.5942 86.651 79.0829 86.5129 78.6351 86.2506C78.1873 85.9884 77.8197 85.6118 77.571 85.1606C77.3224 84.7095 77.2019 84.2005 77.2223 83.6874C77.2428 83.1743 77.4034 82.6762 77.6872 82.2456C77.3237 82.4762 77.0171 82.7841 76.7901 83.1467C76.563 83.5094 76.4212 83.9175 76.375 84.3413C76.3288 84.765 76.3794 85.1935 76.5231 85.5955C76.6669 85.9974 76.9 86.3625 77.2055 86.6639C77.5111 86.9654 77.8812 87.1956 78.2887 87.3377C78.6962 87.4797 79.1309 87.53 79.5607 87.4848C79.9905 87.4397 80.4046 87.3002 80.7726 87.0766C81.1406 86.8531 81.4532 86.5511 81.6874 86.1929C81.2193 86.4925 80.673 86.6515 80.115 86.6505V86.6505Z" fill="#F4A93F"/>
<path d="M34.5227 60.1427C34.002 60.1427 33.491 60.0043 33.0434 59.742C32.5958 59.4798 32.2282 59.1034 31.9794 58.6525C31.7305 58.2016 31.6095 57.6929 31.6293 57.18C31.649 56.667 31.8086 56.1688 32.0913 55.7378C31.728 55.9687 31.4218 56.2769 31.195 56.6397C30.9683 57.0025 30.8268 57.4108 30.781 57.8346C30.7351 58.2583 30.7861 58.6868 30.9302 59.0886C31.0743 59.4904 31.3078 59.8553 31.6136 60.1565C31.9194 60.4578 32.2897 60.6876 32.6973 60.8294C33.105 60.9711 33.5397 61.021 33.9695 60.9754C34.3992 60.9299 34.8132 60.7901 35.181 60.5662C35.5489 60.3423 35.8612 60.0401 36.095 59.6817C35.6273 59.9823 35.081 60.1425 34.5227 60.1427V60.1427Z" fill="#46A1F8"/>
<path d="M80.4512 32.6004C81.2105 32.6004 81.8261 31.9935 81.8261 31.2448C81.8261 30.4961 81.2105 29.8892 80.4512 29.8892C79.6918 29.8892 79.0762 30.4961 79.0762 31.2448C79.0762 31.9935 79.6918 32.6004 80.4512 32.6004Z" fill="#BDDD2A"/>
<path d="M80.5101 85.0356C81.3058 85.0356 81.9509 84.3996 81.9509 83.6151C81.9509 82.8306 81.3058 82.1946 80.5101 82.1946C79.7144 82.1946 79.0693 82.8306 79.0693 83.6151C79.0693 84.3996 79.7144 85.0356 80.5101 85.0356Z" fill="#FAD564"/>
<path d="M34.6893 57.838C35.3607 57.838 35.9049 57.3014 35.9049 56.6395C35.9049 55.9775 35.3607 55.4409 34.6893 55.4409C34.0179 55.4409 33.4736 55.9775 33.4736 56.6395C33.4736 57.3014 34.0179 57.838 34.6893 57.838Z" fill="#83D0FB"/>
<defs>
<filter id="filter0_d_128_3398" x="0.432259" y="0.269262" width="125.134" height="125.134" filterUnits="userSpaceOnUse" color-interpolation-filters="sRGB">
<feFlood flood-opacity="0" result="BackgroundImageFix"/>
<feColorMatrix in="SourceAlpha" type="matrix" values="0 0 0 0 0 0 0 0 0 0 0 0 0 0 0 0 0 0 127 0" result="hardAlpha"/>
<feOffset dy="4.51669"/>
<feGaussianBlur stdDeviation="9.03338"/>
<feColorMatrix type="matrix" values="0 0 0 0 0.215686 0 0 0 0 0.564706 0 0 0 0 0.92549 0 0 0 0.4 0"/>
<feBlend mode="normal" in2="BackgroundImageFix" result="effect1_dropShadow_128_3398"/>
<feBlend mode="normal" in="SourceGraphic" in2="effect1_dropShadow_128_3398" result="shape"/>
</filter>
</defs>
</svg>
