<svg width="104" height="104" viewBox="0 0 104 104" fill="none" xmlns="http://www.w3.org/2000/svg">
<rect x="26.6" y="20.6" width="50.8" height="82.8" rx="3.4" fill="white" stroke="#2B3C67" stroke-width="1.2"/>
<path d="M29.6 27C29.6 25.1222 31.1222 23.6 33 23.6H71C72.8778 23.6 74.4 25.1222 74.4 27V83C74.4 84.8778 72.8778 86.4 71 86.4H33C31.1222 86.4 29.6 84.8778 29.6 83V27Z" fill="#CBD8F0" stroke="#2B3C67" stroke-width="1.2"/>
<path d="M34.7722 67.902C34.4408 67.902 34.1722 68.1706 34.1722 68.502C34.1722 68.8333 34.4408 69.102 34.7722 69.102V67.902ZM68.1667 69.102C68.4981 69.102 68.7667 68.8333 68.7667 68.502C68.7667 68.1706 68.4981 67.902 68.1667 67.902V69.102ZM34.7722 69.102H68.1667V67.902H34.7722V69.102Z" fill="#2B3C67"/>
<path d="M34.7139 71.5411C34.3825 71.5411 34.1139 71.8098 34.1139 72.1411C34.1139 72.4725 34.3825 72.7411 34.7139 72.7411V71.5411ZM57.0352 72.7411C57.3666 72.7411 57.6352 72.4725 57.6352 72.1411C57.6352 71.8098 57.3666 71.5411 57.0352 71.5411V72.7411ZM61.6864 71.5411C61.355 71.5411 61.0864 71.8098 61.0864 72.1411C61.0864 72.4725 61.355 72.7411 61.6864 72.7411L61.6864 71.5411ZM68.3808 72.7411C68.7121 72.7411 68.9808 72.4725 68.9808 72.1411C68.9808 71.8097 68.7121 71.5411 68.3808 71.5411L68.3808 72.7411ZM34.7139 72.7411H57.0352V71.5411H34.7139V72.7411ZM61.6864 72.7411L68.3808 72.7411L68.3808 71.5411L61.6864 71.5411L61.6864 72.7411Z" fill="#2B3C67"/>
<circle cx="52.5" cy="94.5" r="3.9" fill="#CBD8F0" stroke="#2B3C67" stroke-width="1.2"/>
<g clip-path="url(#clip0_27_5743)">
<path d="M40.4111 29.9558L62.4111 51.9558" stroke="#2B3C67" stroke-width="1.2" stroke-miterlimit="10" stroke-linecap="round"/>
<path d="M56.1311 40.0158C56.9502 40.4156 57.7161 40.9161 58.4111 41.5058" stroke="#2B3C67" stroke-width="1.2" stroke-miterlimit="10" stroke-linecap="round"/>
<path d="M44.4111 41.5058C45.8932 40.2666 47.677 39.442 49.5811 39.1158" stroke="#2B3C67" stroke-width="1.2" stroke-miterlimit="10" stroke-linecap="round"/>
<path d="M50.1212 34.0058C52.2636 33.8332 54.4188 34.094 56.4582 34.7726C58.4976 35.4513 60.3794 36.5339 61.9912 37.9558" stroke="#2B3C67" stroke-width="1.2" stroke-miterlimit="10" stroke-linecap="round"/>
<path d="M40.8311 37.9558C42.2183 36.7297 43.8088 35.755 45.5311 35.0758" stroke="#2B3C67" stroke-width="1.2" stroke-miterlimit="10" stroke-linecap="round"/>
<path d="M47.9412 45.0658C48.9564 44.3446 50.1708 43.9571 51.4162 43.9571C52.6615 43.9571 53.876 44.3446 54.8912 45.0658" stroke="#2B3C67" stroke-width="1.2" stroke-miterlimit="10" stroke-linecap="round"/>
<circle cx="51.5419" cy="48.8527" r="1.42083" fill="#2B3C67"/>
</g>
<path d="M73.51 5.09998V2.30998C73.51 1.57998 74.11 0.97998 74.84 0.97998H82.37C83.1 0.97998 83.7 1.57998 83.7 2.30998V5.09998C83.7 5.82998 83.1 6.42998 82.37 6.42998H74.84C74.11 6.42998 73.51 5.82998 73.51 5.09998Z" fill="white"/>
<path d="M78.6 52.99C66.13 52.99 55.98 42.84 55.98 30.37C55.98 17.9 66.13 7.75 78.6 7.75C91.07 7.75 101.22 17.9 101.22 30.37C101.21 42.84 91.06 52.99 78.6 52.99Z" fill="white"/>
<path d="M78.6 32.95C77.18 32.95 76.02 31.79 76.02 30.37C76.02 28.95 77.18 27.79 78.6 27.79C80.02 27.79 81.18 28.95 81.18 30.37C81.18 31.79 80.02 32.95 78.6 32.95Z" fill="white"/>
<path d="M94.2998 38.38L94.1098 38.76L93.7498 38.55L92.5998 37.88C92.5298 37.84 92.4398 37.82 92.3598 37.82C92.1798 37.82 92.0198 37.91 91.9398 38.06C91.8698 38.17 91.8498 38.3 91.8898 38.43C91.9198 38.56 91.9998 38.66 92.1098 38.73L93.2598 39.4L93.6198 39.61L93.3898 39.96C92.0398 42.01 90.2498 43.81 88.1998 45.15L87.8498 45.38L87.6398 45.02L86.9698 43.87C86.8898 43.72 86.7398 43.66 86.6598 43.63C86.6298 43.62 86.5898 43.62 86.5398 43.62C86.4498 43.62 86.3698 43.64 86.2898 43.68C86.1898 43.74 86.1098 43.85 86.0698 43.97C86.0398 44.09 86.0498 44.22 86.1198 44.33L86.7898 45.48L86.9998 45.84L86.6198 46.03C84.3898 47.17 81.9998 47.81 79.5198 47.93L79.0998 47.95V47.53V46.22C79.0998 45.95 78.8798 45.73 78.6098 45.73C78.3398 45.73 78.1198 45.95 78.1198 46.22V47.55V47.97L77.6998 47.95C75.2098 47.83 72.8198 47.19 70.5998 46.05L70.2198 45.86L70.4298 45.5L71.0998 44.35C71.1698 44.24 71.1798 44.1 71.1498 43.98C71.1198 43.86 71.0398 43.75 70.9298 43.69C70.8498 43.65 70.7798 43.63 70.6998 43.63C70.6598 43.63 70.6098 43.64 70.5598 43.65C70.4198 43.69 70.3298 43.76 70.2598 43.88L69.5898 45.03L69.3798 45.39L69.0298 45.16C66.9798 43.81 65.1798 42.02 63.8398 39.97L63.6098 39.62L63.9698 39.41L65.1198 38.74C65.2398 38.67 65.3198 38.57 65.3598 38.43C65.3898 38.31 65.3698 38.18 65.3098 38.05C65.2298 37.91 65.0698 37.82 64.8998 37.82C64.8198 37.82 64.7298 37.84 64.6598 37.89L63.5098 38.56L63.1398 38.77L62.9498 38.39C61.8098 36.16 61.1698 33.77 61.0498 31.29L61.0298 30.87H61.4498H62.7798C63.0498 30.87 63.2698 30.65 63.2698 30.38C63.2698 30.11 63.0498 29.89 62.7798 29.89H61.4498H61.0298L61.0498 29.47C61.1698 26.98 61.8098 24.59 62.9498 22.37L63.1398 21.99L63.4998 22.2L64.6498 22.87C64.7198 22.91 64.7898 22.93 64.8698 22.93C65.0498 22.93 65.2298 22.83 65.3198 22.69C65.3798 22.58 65.3998 22.46 65.3598 22.33C65.3198 22.19 65.2498 22.1 65.1298 22.03L63.9798 21.36L63.6198 21.15L63.8498 20.8C65.1998 18.75 66.9898 16.95 69.0398 15.61L69.3898 15.38L69.5998 15.74L70.2698 16.89C70.3498 17.03 70.5298 17.12 70.6998 17.12C70.7798 17.12 70.8598 17.1 70.9298 17.06C71.1598 16.92 71.2398 16.63 71.0998 16.4L70.4298 15.25L70.2198 14.88L70.5998 14.69C72.8298 13.55 75.2198 12.91 77.6998 12.79L78.1198 12.77V13.19V14.52C78.1198 14.79 78.3398 15.01 78.6098 15.01C78.8798 15.01 79.0998 14.79 79.0998 14.52V13.19V12.77L79.5198 12.79C82.0098 12.91 84.3998 13.55 86.6198 14.69L86.9998 14.88L86.7898 15.24L86.1198 16.39C86.0498 16.5 86.0398 16.63 86.0698 16.76C86.0998 16.89 86.1798 16.99 86.2898 17.06C86.3598 17.1 86.4398 17.12 86.5198 17.12C86.6998 17.12 86.8698 17.03 86.9598 16.88L87.6298 15.73L87.8398 15.37L88.1898 15.6C90.2398 16.95 92.0398 18.74 93.3798 20.79L93.6098 21.14L93.2498 21.35L92.0998 22.02C91.9898 22.09 91.9098 22.19 91.8698 22.32C91.8398 22.44 91.8498 22.57 91.9198 22.68C92.0098 22.82 92.1898 22.92 92.3698 22.92C92.4498 22.92 92.5198 22.9 92.5798 22.86L93.7398 22.18L94.1098 21.97L94.2998 22.35C95.4398 24.58 96.0798 26.97 96.1998 29.45L96.2198 29.87H95.7998H94.4698C94.2098 29.87 93.9898 30.1 93.9898 30.36C93.9898 30.63 94.2098 30.85 94.4798 30.85H95.8098H96.2298L96.2098 31.27C96.0798 33.77 95.4398 36.16 94.2998 38.38Z" fill="white"/>
<path d="M73.51 5.09998V2.30998C73.51 1.57998 74.11 0.97998 74.84 0.97998H82.37C83.1 0.97998 83.7 1.57998 83.7 2.30998V5.09998C83.7 5.82998 83.1 6.42998 82.37 6.42998H74.84C74.11 6.42998 73.51 5.82998 73.51 5.09998Z" fill="white"/>
<path d="M79.58 53.96C67.11 53.96 56.96 43.81 56.96 31.34C56.96 18.87 67.11 8.71997 79.58 8.71997C92.05 8.71997 102.2 18.87 102.2 31.34C102.19 43.81 92.04 53.96 79.58 53.96Z" fill="#3790EC"/>
<path d="M94.2998 38.38L94.1098 38.76L93.7498 38.55L92.5998 37.88C92.5298 37.84 92.4398 37.82 92.3598 37.82C92.1798 37.82 92.0198 37.91 91.9398 38.06C91.8698 38.17 91.8498 38.3 91.8898 38.43C91.9198 38.56 91.9998 38.66 92.1098 38.73L93.2598 39.4L93.6198 39.61L93.3898 39.96C92.0398 42.01 90.2498 43.81 88.1998 45.15L87.8498 45.38L87.6398 45.02L86.9698 43.87C86.8898 43.72 86.7398 43.66 86.6598 43.63C86.6298 43.62 86.5898 43.62 86.5398 43.62C86.4498 43.62 86.3698 43.64 86.2898 43.68C86.1898 43.74 86.1098 43.85 86.0698 43.97C86.0398 44.09 86.0498 44.22 86.1198 44.33L86.7898 45.48L86.9998 45.84L86.6198 46.03C84.3898 47.17 81.9998 47.81 79.5198 47.93L79.0998 47.95V47.53V46.22C79.0998 45.95 78.8798 45.73 78.6098 45.73C78.3398 45.73 78.1198 45.95 78.1198 46.22V47.55V47.97L77.6998 47.95C75.2098 47.83 72.8198 47.19 70.5998 46.05L70.2198 45.86L70.4298 45.5L71.0998 44.35C71.1698 44.24 71.1798 44.1 71.1498 43.98C71.1198 43.86 71.0398 43.75 70.9298 43.69C70.8498 43.65 70.7798 43.63 70.6998 43.63C70.6598 43.63 70.6098 43.64 70.5598 43.65C70.4198 43.69 70.3298 43.76 70.2598 43.88L69.5898 45.03L69.3798 45.39L69.0298 45.16C66.9798 43.81 65.1798 42.02 63.8398 39.97L63.6098 39.62L63.9698 39.41L65.1198 38.74C65.2398 38.67 65.3198 38.57 65.3598 38.43C65.3898 38.31 65.3698 38.18 65.3098 38.05C65.2298 37.91 65.0698 37.82 64.8998 37.82C64.8198 37.82 64.7298 37.84 64.6598 37.89L63.5098 38.56L63.1398 38.77L62.9498 38.39C61.8098 36.16 61.1698 33.77 61.0498 31.29L61.0298 30.87H61.4498H62.7798C63.0498 30.87 63.2698 30.65 63.2698 30.38C63.2698 30.11 63.0498 29.89 62.7798 29.89H61.4498H61.0298L61.0498 29.47C61.1698 26.98 61.8098 24.59 62.9498 22.37L63.1398 21.99L63.4998 22.2L64.6498 22.87C64.7198 22.91 64.7898 22.93 64.8698 22.93C65.0498 22.93 65.2298 22.83 65.3198 22.69C65.3798 22.58 65.3998 22.46 65.3598 22.33C65.3198 22.19 65.2498 22.1 65.1298 22.03L63.9798 21.36L63.6198 21.15L63.8498 20.8C65.1998 18.75 66.9898 16.95 69.0398 15.61L69.3898 15.38L69.5998 15.74L70.2698 16.89C70.3498 17.03 70.5298 17.12 70.6998 17.12C70.7798 17.12 70.8598 17.1 70.9298 17.06C71.1598 16.92 71.2398 16.63 71.0998 16.4L70.4298 15.25L70.2198 14.88L70.5998 14.69C72.8298 13.55 75.2198 12.91 77.6998 12.79L78.1198 12.77V13.19V14.52C78.1198 14.79 78.3398 15.01 78.6098 15.01C78.8798 15.01 79.0998 14.79 79.0998 14.52V13.19V12.77L79.5198 12.79C82.0098 12.91 84.3998 13.55 86.6198 14.69L86.9998 14.88L86.7898 15.24L86.1198 16.39C86.0498 16.5 86.0398 16.63 86.0698 16.76C86.0998 16.89 86.1798 16.99 86.2898 17.06C86.3598 17.1 86.4398 17.12 86.5198 17.12C86.6998 17.12 86.8698 17.03 86.9598 16.88L87.6298 15.73L87.8398 15.37L88.1898 15.6C90.2398 16.95 92.0398 18.74 93.3798 20.79L93.6098 21.14L93.2498 21.35L92.0998 22.02C91.9898 22.09 91.9098 22.19 91.8698 22.32C91.8398 22.44 91.8498 22.57 91.9198 22.68C92.0098 22.82 92.1898 22.92 92.3698 22.92C92.4498 22.92 92.5198 22.9 92.5798 22.86L93.7398 22.18L94.1098 21.97L94.2998 22.35C95.4398 24.58 96.0798 26.97 96.1998 29.45L96.2198 29.87H95.7998H94.4698C94.2098 29.87 93.9898 30.1 93.9898 30.36C93.9898 30.63 94.2098 30.85 94.4798 30.85H95.8098H96.2298L96.2098 31.27C96.0798 33.77 95.4398 36.16 94.2998 38.38Z" fill="white"/>
<path d="M79.58 33.92C78.16 33.92 77 32.76 77 31.34C77 29.92 78.16 28.76 79.58 28.76C81 28.76 82.16 29.92 82.16 31.34C82.16 32.76 81 33.92 79.58 33.92Z" fill="#3790EC"/>
<path d="M84.14 7.45L83.43 7.28L83.96 6.77C84.41 6.34 84.67 5.74 84.67 5.12V2.31C84.67 1.04 83.63 0 82.36 0H74.83C73.56 0 72.52 1.04 72.52 2.31V5.1C72.52 5.72 72.78 6.32 73.23 6.75L73.76 7.25L73.05 7.42C62.58 9.97 55 19.61 55 30.36C55 43.37 65.59 53.96 78.6 53.96C91.61 53.96 102.2 43.37 102.2 30.36C102.19 19.61 94.59 9.98 84.14 7.45ZM73.51 5.1V2.31C73.51 1.58 74.11 0.98 74.84 0.98H82.37C83.1 0.98 83.7 1.58 83.7 2.31V5.1C83.7 5.83 83.1 6.43 82.37 6.43H74.84C74.11 6.43 73.51 5.83 73.51 5.1ZM78.6 52.99C66.13 52.99 55.98 42.84 55.98 30.37C55.98 17.9 66.13 7.75 78.6 7.75C91.07 7.75 101.22 17.9 101.22 30.37C101.21 42.84 91.06 52.99 78.6 52.99Z" fill="#2B3C67"/>
<path d="M79.3898 26.92L79.0798 26.85V26.53V20.5C79.0798 20.23 78.8598 20.01 78.5898 20.01C78.3198 20.01 78.0998 20.23 78.0998 20.5V26.53V26.85L77.7898 26.92C76.1598 27.3 75.0298 28.72 75.0298 30.38C75.0298 32.33 76.6198 33.92 78.5698 33.92C80.5198 33.92 82.1098 32.33 82.1098 30.38C82.1498 28.74 80.9998 27.29 79.3898 26.92ZM78.5998 32.95C77.1798 32.95 76.0198 31.79 76.0198 30.37C76.0198 28.95 77.1798 27.79 78.5998 27.79C80.0198 27.79 81.1798 28.95 81.1798 30.37C81.1798 31.79 80.0198 32.95 78.5998 32.95Z" fill="#2B3C67"/>
<path d="M92.42 23.32C92.44 23.32 92.46 23.31 92.49 23.31C92.47 23.31 92.44 23.32 92.42 23.32Z" fill="#2B3C67"/>
<path d="M87.08 17.31C87.06 17.33 87.04 17.34 87.02 17.36C87.04 17.34 87.06 17.32 87.08 17.31Z" fill="#2B3C67"/>
<path d="M86.75 17.48C86.76 17.48 86.77 17.47 86.78 17.47C86.76 17.47 86.76 17.48 86.75 17.48Z" fill="#2B3C67"/>
<path d="M70.75 17.5C70.77 17.5 70.8 17.49 70.82 17.49C70.8 17.5 70.78 17.5 70.75 17.5Z" fill="#2B3C67"/>
<path d="M70.77 43.23C70.79 43.23 70.82 43.24 70.84 43.24C70.81 43.24 70.79 43.23 70.77 43.23Z" fill="#2B3C67"/>
<path d="M86.45 17.5C86.43 17.5 86.4 17.49 86.38 17.49C86.4 17.5 86.42 17.5 86.45 17.5Z" fill="#2B3C67"/>
<path d="M91.79 37.62C91.81 37.6 91.83 37.59 91.85 37.57C91.83 37.59 91.81 37.6 91.79 37.62Z" fill="#2B3C67"/>
<path d="M91.78 23.12C91.8 23.14 91.82 23.15 91.84 23.17C91.82 23.15 91.8 23.13 91.78 23.12Z" fill="#2B3C67"/>
<path d="M92.42 37.42C92.44 37.42 92.47 37.43 92.49 37.43C92.47 37.43 92.45 37.42 92.42 37.42Z" fill="#2B3C67"/>
<path d="M92.1201 23.29C92.1101 23.29 92.1001 23.28 92.1001 23.28C92.1001 23.29 92.1101 23.29 92.1201 23.29Z" fill="#2B3C67"/>
<path d="M64.81 37.43C64.78 37.43 64.76 37.44 64.74 37.44C64.76 37.43 64.79 37.43 64.81 37.43Z" fill="#2B3C67"/>
<path d="M65.44 23.13C65.42 23.15 65.4 23.16 65.38 23.18C65.4 23.16 65.42 23.14 65.44 23.13Z" fill="#2B3C67"/>
<path d="M86.0901 43.32C86.2101 43.25 86.3501 43.23 86.4801 43.22C86.3501 43.23 86.2101 43.25 86.0901 43.32Z" fill="#2B3C67"/>
<path d="M94.73 21.14L94.68 21.05V21.04L94.67 21.03C93.02 18.22 90.7 15.89 87.95 14.3L87.9 14.27L87.86 14.23C85.02 12.6 81.81 11.75 78.57 11.75C75.32 11.75 72.13 12.6 69.34 14.21L69.25 14.26H69.24L69.23 14.27C66.43 15.89 64.11 18.21 62.51 20.98L62.42 21.12C60.83 23.89 59.98 27.09 59.98 30.34C59.98 33.59 60.83 36.78 62.44 39.57L62.46 39.6L62.47 39.63L62.48 39.67C62.49 39.69 62.51 39.71 62.52 39.73C64.14 42.5 66.46 44.82 69.21 46.41L69.24 46.43L69.27 46.45L69.34 46.49C72.15 48.11 75.34 48.97 78.58 48.97C81.82 48.97 85.01 48.12 87.81 46.51L87.84 46.49L87.85 46.48L87.91 46.44C90.68 44.83 93.01 42.51 94.63 39.72L94.64 39.71L94.65 39.66L94.69 39.6C96.31 36.78 97.17 33.58 97.17 30.34C97.19 27.11 96.34 23.92 94.73 21.14ZM94.3 38.38L94.11 38.76L93.75 38.55L92.6 37.88C92.53 37.84 92.44 37.82 92.36 37.82C92.18 37.82 92.02 37.91 91.94 38.06C91.87 38.17 91.85 38.3 91.89 38.43C91.92 38.56 92 38.66 92.11 38.73L93.26 39.4L93.62 39.61L93.39 39.96C92.04 42.01 90.25 43.81 88.2 45.15L87.85 45.38L87.64 45.02L86.97 43.87C86.89 43.72 86.74 43.66 86.66 43.63C86.63 43.62 86.59 43.62 86.54 43.62C86.45 43.62 86.37 43.64 86.29 43.68C86.19 43.74 86.11 43.85 86.07 43.97C86.04 44.09 86.05 44.22 86.12 44.33L86.79 45.48L87 45.84L86.62 46.03C84.39 47.17 82 47.81 79.52 47.93L79.1 47.95V47.53V46.22C79.1 45.95 78.88 45.73 78.61 45.73C78.34 45.73 78.12 45.95 78.12 46.22V47.55V47.97L77.7 47.95C75.21 47.83 72.82 47.19 70.6 46.05L70.22 45.86L70.43 45.5L71.1 44.35C71.17 44.24 71.18 44.1 71.15 43.98C71.12 43.86 71.04 43.75 70.93 43.69C70.85 43.65 70.78 43.63 70.7 43.63C70.66 43.63 70.61 43.64 70.56 43.65C70.42 43.69 70.33 43.76 70.26 43.88L69.59 45.03L69.38 45.39L69.03 45.16C66.98 43.81 65.18 42.02 63.84 39.97L63.61 39.62L63.97 39.41L65.12 38.74C65.24 38.67 65.32 38.57 65.36 38.43C65.39 38.31 65.37 38.18 65.31 38.05C65.23 37.91 65.07 37.82 64.9 37.82C64.82 37.82 64.73 37.84 64.66 37.89L63.51 38.56L63.14 38.77L62.95 38.39C61.81 36.16 61.17 33.77 61.05 31.29L61.03 30.87H61.45H62.78C63.05 30.87 63.27 30.65 63.27 30.38C63.27 30.11 63.05 29.89 62.78 29.89H61.45H61.03L61.05 29.47C61.17 26.98 61.81 24.59 62.95 22.37L63.14 21.99L63.5 22.2L64.65 22.87C64.72 22.91 64.79 22.93 64.87 22.93C65.05 22.93 65.23 22.83 65.32 22.69C65.38 22.58 65.4 22.46 65.36 22.33C65.32 22.19 65.25 22.1 65.13 22.03L63.98 21.36L63.62 21.15L63.85 20.8C65.2 18.75 66.99 16.95 69.04 15.61L69.39 15.38L69.6 15.74L70.27 16.89C70.35 17.03 70.53 17.12 70.7 17.12C70.78 17.12 70.86 17.1 70.93 17.06C71.16 16.92 71.24 16.63 71.1 16.4L70.43 15.25L70.22 14.88L70.6 14.69C72.83 13.55 75.22 12.91 77.7 12.79L78.12 12.77V13.19V14.52C78.12 14.79 78.34 15.01 78.61 15.01C78.88 15.01 79.1 14.79 79.1 14.52V13.19V12.77L79.52 12.79C82.01 12.91 84.4 13.55 86.62 14.69L87 14.88L86.79 15.24L86.12 16.39C86.05 16.5 86.04 16.63 86.07 16.76C86.1 16.89 86.18 16.99 86.29 17.06C86.36 17.1 86.44 17.12 86.52 17.12C86.7 17.12 86.87 17.03 86.96 16.88L87.63 15.73L87.84 15.37L88.19 15.6C90.24 16.95 92.04 18.74 93.38 20.79L93.61 21.14L93.25 21.35L92.1 22.02C91.99 22.09 91.91 22.19 91.87 22.32C91.84 22.44 91.85 22.57 91.92 22.68C92.01 22.82 92.19 22.92 92.37 22.92C92.45 22.92 92.52 22.9 92.58 22.86L93.74 22.18L94.11 21.97L94.3 22.35C95.44 24.58 96.08 26.97 96.2 29.45L96.22 29.87H95.8H94.47C94.21 29.87 93.99 30.1 93.99 30.36C93.99 30.63 94.21 30.85 94.48 30.85H95.81H96.23L96.21 31.27C96.08 33.77 95.44 36.16 94.3 38.38Z" fill="#2B3C67"/>
<path d="M65.1201 23.29C65.1101 23.29 65.1001 23.3 65.0901 23.3C65.1101 23.3 65.1201 23.29 65.1201 23.29Z" fill="#2B3C67"/>
<path d="M64.73 23.32C64.75 23.32 64.77 23.33 64.8 23.33C64.77 23.32 64.75 23.32 64.73 23.32Z" fill="#2B3C67"/>
<path d="M70.1799 17.35C70.1599 17.34 70.1399 17.32 70.1199 17.3C70.1399 17.32 70.1599 17.34 70.1799 17.35Z" fill="#2B3C67"/>
<path d="M70.43 17.47C70.44 17.47 70.45 17.48 70.46 17.48C70.44 17.48 70.44 17.47 70.43 17.47Z" fill="#2B3C67"/>
<path d="M65.38 37.58C65.4 37.59 65.42 37.61 65.44 37.63C65.42 37.61 65.4 37.59 65.38 37.58Z" fill="#2B3C67"/>
<defs>
<clipPath id="clip0_27_5743">
<rect width="25" height="25" fill="white" transform="translate(39.3826 28.7358)"/>
</clipPath>
</defs>
</svg>
