<svg width="120" height="104" viewBox="0 0 120 104" fill="none" xmlns="http://www.w3.org/2000/svg">
<path d="M95.6354 87.0326C95.6354 89.6614 93.5038 91.8005 90.884 91.8005H5.9467C3.32696 91.8005 1.19531 89.6614 1.19531 87.0326V21.9006C1.19531 19.2717 3.32696 17.1326 5.9467 17.1326H90.884C93.5038 17.1326 95.6354 19.2717 95.6354 21.9006V87.0326Z" fill="white"/>
<path d="M95.6255 87.3011C95.6255 89.8702 93.5345 91.9606 90.9648 91.9606H7.64896C5.07924 91.9606 2.98828 89.8702 2.98828 87.3011V23.6514C2.98828 21.0823 5.07924 18.9919 7.64896 18.9919H90.9648C93.5345 18.9919 95.6255 21.0823 95.6255 23.6514V87.3011Z" fill="#CBD8F0"/>
<path d="M19.4836 40.5926V49.1089V49.3088H19.2844H10.7976H10.5984V49.1089V40.5926V40.3926H10.7976H19.2844H19.4836V40.5926Z" fill="white"/>
<path d="M19.4836 56.3159H10.5984V65.232H19.4836V56.3159Z" fill="white"/>
<path d="M19.4836 72.439H10.5984V81.3551H19.4836V72.439Z" fill="white"/>
<path d="M90.884 15.9332H5.94671C2.66954 15.9332 0 18.6121 0 21.9007V87.0326C0 90.3212 2.66954 93.0001 5.94671 93.0001H90.884C94.1612 93.0001 96.8307 90.3212 96.8307 87.0326V21.9007C96.8307 18.6121 94.1612 15.9332 90.884 15.9332ZM95.6354 87.0326C95.6354 89.6615 93.5038 91.8006 90.884 91.8006H5.94671C3.32697 91.8006 1.19532 89.6615 1.19532 87.0326V21.9007C1.19532 19.2718 3.32697 17.1327 5.94671 17.1327H90.884C93.5038 17.1327 95.6354 19.2718 95.6354 21.9007V87.0326Z" fill="#2B3C67"/>
<path d="M33.5885 24.2896H9.2837C8.73584 24.2896 8.2876 24.5596 8.2876 24.8896C8.2876 25.2196 8.73584 25.4896 9.2837 25.4896H33.5885C34.1364 25.4896 34.5846 25.2196 34.5846 24.8896C34.5846 24.5596 34.1364 24.2896 33.5885 24.2896Z" fill="#2B3C67"/>
<path d="M33.5885 24.5296C33.9172 24.5296 34.1862 24.6896 34.1862 24.8896C34.1862 25.0896 33.9172 25.2496 33.5885 25.2496H9.2837C8.95498 25.2496 8.68604 25.0896 8.68604 24.8896C8.68604 24.6896 8.95498 24.5296 9.2837 24.5296H33.5885ZM33.5885 24.2896H9.2837C8.73584 24.2896 8.2876 24.5596 8.2876 24.8896C8.2876 25.2196 8.73584 25.4896 9.2837 25.4896H33.5885C34.1364 25.4896 34.5846 25.2196 34.5846 24.8896C34.5846 24.5596 34.1364 24.2896 33.5885 24.2896Z" fill="#2B3C67"/>
<path d="M56.7677 24.2896H38.5988C38.051 24.2896 37.6027 24.5596 37.6027 24.8896C37.6027 25.2196 38.051 25.4896 38.5988 25.4896H56.7677C57.3155 25.4896 57.7638 25.2196 57.7638 24.8896C57.7638 24.5596 57.3255 24.2896 56.7677 24.2896Z" fill="#2B3C67"/>
<path d="M56.7677 24.5296C57.1063 24.5296 57.3653 24.6896 57.3653 24.8896C57.3653 25.0896 57.0964 25.2496 56.7677 25.2496H38.5988C38.2701 25.2496 38.0012 25.0896 38.0012 24.8896C38.0012 24.6896 38.2701 24.5296 38.5988 24.5296H56.7677ZM56.7677 24.2896H38.5988C38.051 24.2896 37.6027 24.5596 37.6027 24.8896C37.6027 25.2196 38.051 25.4896 38.5988 25.4896H56.7677C57.3155 25.4896 57.7638 25.2196 57.7638 24.8896C57.7638 24.5596 57.3255 24.2896 56.7677 24.2896Z" fill="#2B3C67"/>
<path d="M87.8258 24.2896H61.758C61.23 24.2896 60.8017 24.5496 60.8017 24.8696V24.9196C60.8017 25.2396 61.23 25.4996 61.758 25.4996H87.8258C88.3538 25.4996 88.7821 25.2396 88.7821 24.9196V24.8696C88.7721 24.5496 88.3438 24.2896 87.8258 24.2896Z" fill="#2B3C67"/>
<path d="M87.8258 24.5296C88.1247 24.5296 88.3737 24.6796 88.3837 24.8696V24.9196C88.3837 25.1096 88.1346 25.2596 87.8258 25.2596H61.758C61.4492 25.2596 61.2001 25.1096 61.2001 24.9196V24.8696C61.2001 24.6796 61.4492 24.5296 61.758 24.5296H87.8258ZM87.8258 24.2896H61.758C61.23 24.2896 60.8017 24.5496 60.8017 24.8696V24.9196C60.8017 25.2396 61.23 25.4996 61.758 25.4996H87.8258C88.3538 25.4996 88.7821 25.2396 88.7821 24.9196V24.8696C88.7721 24.5496 88.3438 24.2896 87.8258 24.2896Z" fill="#2B3C67"/>
<path d="M66.0812 30.0872H9.27369C8.72583 30.0872 8.27759 30.3572 8.27759 30.6872C8.27759 31.0172 8.72583 31.2872 9.27369 31.2872H66.0812C66.629 31.2872 67.0773 31.0172 67.0773 30.6872C67.0773 30.3572 66.629 30.0872 66.0812 30.0872Z" fill="#2B3C67"/>
<path d="M66.0812 30.3272C66.4099 30.3272 66.6788 30.4872 66.6788 30.6872C66.6788 30.8872 66.4099 31.0472 66.0812 31.0472H9.27369C8.94497 31.0472 8.67603 30.8872 8.67603 30.6872C8.67603 30.4872 8.94497 30.3272 9.27369 30.3272H66.0812ZM66.0812 30.0872H9.27369C8.72583 30.0872 8.27759 30.3572 8.27759 30.6872C8.27759 31.0172 8.72583 31.2872 9.27369 31.2872H66.0812C66.629 31.2872 67.0773 31.0172 67.0773 30.6872C67.0773 30.3572 66.629 30.0872 66.0812 30.0872Z" fill="#2B3C67"/>
<path d="M87.7764 30.0872H71.271C70.7231 30.0872 70.2749 30.3572 70.2749 30.6872C70.2749 31.0172 70.7231 31.2872 71.271 31.2872H87.7764C88.3242 31.2872 88.7725 31.0172 88.7725 30.6872C88.7725 30.3572 88.3342 30.0872 87.7764 30.0872Z" fill="#2B3C67"/>
<path d="M87.7764 30.3272C88.115 30.3272 88.374 30.4872 88.374 30.6872C88.374 30.8872 88.1051 31.0472 87.7764 31.0472H71.271C70.9423 31.0472 70.6733 30.8872 70.6733 30.6872C70.6733 30.4872 70.9423 30.3272 71.271 30.3272H87.7764ZM87.7764 30.0872H71.271C70.7231 30.0872 70.2749 30.3572 70.2749 30.6872C70.2749 31.0172 70.7231 31.2872 71.271 31.2872H87.7764C88.3242 31.2872 88.7725 31.0172 88.7725 30.6872C88.7725 30.3572 88.3342 30.0872 87.7764 30.0872Z" fill="#2B3C67"/>
<path d="M50.9703 41.3524H26.6655C26.1177 41.3524 25.6694 41.6224 25.6694 41.9524C25.6694 42.2824 26.1177 42.5524 26.6655 42.5524H50.9703C51.5182 42.5524 51.9664 42.2824 51.9664 41.9524C51.9664 41.6224 51.5282 41.3524 50.9703 41.3524Z" fill="#2B3C67"/>
<path d="M50.9703 41.5924C51.309 41.5924 51.568 41.7524 51.568 41.9524C51.568 42.1524 51.299 42.3124 50.9703 42.3124H26.6655C26.3368 42.3124 26.0679 42.1524 26.0679 41.9524C26.0679 41.7524 26.3368 41.5924 26.6655 41.5924H50.9703ZM50.9703 41.3524H26.6655C26.1177 41.3524 25.6694 41.6224 25.6694 41.9524C25.6694 42.2824 26.1177 42.5524 26.6655 42.5524H50.9703C51.5182 42.5524 51.9664 42.2824 51.9664 41.9524C51.9664 41.6224 51.5282 41.3524 50.9703 41.3524Z" fill="#2B3C67"/>
<path d="M87.7762 41.3524H55.9907C55.4429 41.3524 54.9946 41.6224 54.9946 41.9524C54.9946 42.2824 55.4429 42.5524 55.9907 42.5524H87.7762C88.3241 42.5524 88.7723 42.2824 88.7723 41.9524C88.7723 41.6224 88.3341 41.3524 87.7762 41.3524Z" fill="#2B3C67"/>
<path d="M87.7762 41.5924C88.1149 41.5924 88.3739 41.7524 88.3739 41.9524C88.3739 42.1524 88.1049 42.3124 87.7762 42.3124H55.9907C55.662 42.3124 55.3931 42.1524 55.3931 41.9524C55.3931 41.7524 55.662 41.5924 55.9907 41.5924H87.7762ZM87.7762 41.3524H55.9907C55.4429 41.3524 54.9946 41.6224 54.9946 41.9524C54.9946 42.2824 55.4429 42.5524 55.9907 42.5524H87.7762C88.3241 42.5524 88.7723 42.2824 88.7723 41.9524C88.7723 41.6224 88.3341 41.3524 87.7762 41.3524Z" fill="#2B3C67"/>
<path d="M61.3696 47.1498H26.6655C26.1177 47.1498 25.6694 47.4198 25.6694 47.7498C25.6694 48.0798 26.1177 48.3498 26.6655 48.3498H61.3696C61.9175 48.3498 62.3657 48.0798 62.3657 47.7498C62.3657 47.4198 61.9175 47.1498 61.3696 47.1498Z" fill="#2B3C67"/>
<path d="M61.3696 47.3898C61.6983 47.3898 61.9673 47.5498 61.9673 47.7498C61.9673 47.9498 61.6983 48.1098 61.3696 48.1098H26.6655C26.3368 48.1098 26.0679 47.9498 26.0679 47.7498C26.0679 47.5498 26.3368 47.3898 26.6655 47.3898H61.3696ZM61.3696 47.1498H26.6655C26.1177 47.1498 25.6694 47.4198 25.6694 47.7498C25.6694 48.0798 26.1177 48.3498 26.6655 48.3498H61.3696C61.9175 48.3498 62.3657 48.0798 62.3657 47.7498C62.3657 47.4198 61.9175 47.1498 61.3696 47.1498Z" fill="#2B3C67"/>
<path d="M87.7762 47.1498H65.7524C65.2046 47.1498 64.7563 47.4198 64.7563 47.7498C64.7563 48.0798 65.2046 48.3498 65.7524 48.3498H87.7762C88.324 48.3498 88.7723 48.0798 88.7723 47.7498C88.7723 47.4198 88.334 47.1498 87.7762 47.1498Z" fill="#2B3C67"/>
<path d="M87.7762 47.3898C88.1149 47.3898 88.3738 47.5498 88.3738 47.7498C88.3738 47.9498 88.1049 48.1098 87.7762 48.1098H65.7524C65.4237 48.1098 65.1548 47.9498 65.1548 47.7498C65.1548 47.5498 65.4237 47.3898 65.7524 47.3898H87.7762ZM87.7762 47.1498H65.7524C65.2046 47.1498 64.7563 47.4198 64.7563 47.7498C64.7563 48.0798 65.2046 48.3498 65.7524 48.3498H87.7762C88.324 48.3498 88.7723 48.0798 88.7723 47.7498C88.7723 47.4198 88.334 47.1498 87.7762 47.1498Z" fill="#2B3C67"/>
<path d="M17.3122 42.9815C17.1348 42.9815 16.9702 43.0532 16.843 43.1809L14.5929 45.4388L14.345 45.19L13.4983 44.3404C13.38 44.2217 13.2151 44.151 13.039 44.151C12.8615 44.151 12.697 44.2227 12.5697 44.3504C12.3204 44.6005 12.3228 45.0035 12.5797 45.2612L14.1336 46.8206C14.2518 46.9392 14.4167 47.0099 14.5929 47.0099C14.7704 47.0099 14.9349 46.9383 15.0622 46.8106L17.7715 44.0917C18.019 43.8434 18.0196 43.4317 17.7732 43.1826C17.6541 43.0521 17.4881 42.9815 17.3122 42.9815Z" fill="#2B3C67" stroke="#2B3C67" stroke-width="0.2"/>
<path d="M19.5135 39.1932H10.5586C9.92105 39.1932 9.40308 39.713 9.40308 40.3527V49.3389C9.40308 49.9786 9.92105 50.4984 10.5586 50.4984H19.5135C20.151 50.4984 20.669 49.9786 20.669 49.3389V40.3527C20.669 40.0429 20.5594 39.753 20.3402 39.5431C20.1211 39.3232 19.8322 39.1932 19.5135 39.1932ZM19.4836 40.5926V49.109V49.3089H19.2844H10.7976H10.5984V49.109V40.5926V40.3927H10.7976H19.2844H19.4836V40.5926Z" fill="#2B3C67"/>
<path d="M50.9703 57.2754H26.6655C26.1177 57.2754 25.6694 57.5454 25.6694 57.8754C25.6694 58.2054 26.1177 58.4754 26.6655 58.4754H50.9703C51.5182 58.4754 51.9664 58.2054 51.9664 57.8754C51.9664 57.5454 51.5282 57.2754 50.9703 57.2754Z" fill="#2B3C67"/>
<path d="M50.9703 57.5154C51.309 57.5154 51.568 57.6754 51.568 57.8754C51.568 58.0754 51.299 58.2354 50.9703 58.2354H26.6655C26.3368 58.2354 26.0679 58.0754 26.0679 57.8754C26.0679 57.6754 26.3368 57.5154 26.6655 57.5154H50.9703ZM50.9703 57.2754H26.6655C26.1177 57.2754 25.6694 57.5454 25.6694 57.8754C25.6694 58.2054 26.1177 58.4754 26.6655 58.4754H50.9703C51.5182 58.4754 51.9664 58.2054 51.9664 57.8754C51.9664 57.5454 51.5282 57.2754 50.9703 57.2754Z" fill="#2B3C67"/>
<path d="M87.7762 57.2754H55.9907C55.4429 57.2754 54.9946 57.5454 54.9946 57.8754C54.9946 58.2054 55.4429 58.4754 55.9907 58.4754H87.7762C88.3241 58.4754 88.7723 58.2054 88.7723 57.8754C88.7723 57.5454 88.3341 57.2754 87.7762 57.2754Z" fill="#2B3C67"/>
<path d="M87.7762 57.5154C88.1149 57.5154 88.3739 57.6754 88.3739 57.8754C88.3739 58.0754 88.1049 58.2354 87.7762 58.2354H55.9907C55.662 58.2354 55.3931 58.0754 55.3931 57.8754C55.3931 57.6754 55.662 57.5154 55.9907 57.5154H87.7762ZM87.7762 57.2754H55.9907C55.4429 57.2754 54.9946 57.5454 54.9946 57.8754C54.9946 58.2054 55.4429 58.4754 55.9907 58.4754H87.7762C88.3241 58.4754 88.7723 58.2054 88.7723 57.8754C88.7723 57.5454 88.3341 57.2754 87.7762 57.2754Z" fill="#2B3C67"/>
<path d="M61.3696 63.0729H26.6655C26.1177 63.0729 25.6694 63.3429 25.6694 63.6729C25.6694 64.0029 26.1177 64.2729 26.6655 64.2729H61.3696C61.9175 64.2729 62.3657 64.0029 62.3657 63.6729C62.3657 63.3429 61.9175 63.0729 61.3696 63.0729Z" fill="#2B3C67"/>
<path d="M61.3696 63.3129C61.6983 63.3129 61.9673 63.4729 61.9673 63.6729C61.9673 63.8729 61.6983 64.0329 61.3696 64.0329H26.6655C26.3368 64.0329 26.0679 63.8729 26.0679 63.6729C26.0679 63.4729 26.3368 63.3129 26.6655 63.3129H61.3696ZM61.3696 63.0729H26.6655C26.1177 63.0729 25.6694 63.3429 25.6694 63.6729C25.6694 64.0029 26.1177 64.2729 26.6655 64.2729H61.3696C61.9175 64.2729 62.3657 64.0029 62.3657 63.6729C62.3657 63.3429 61.9175 63.0729 61.3696 63.0729Z" fill="#2B3C67"/>
<path d="M87.7762 63.0729H65.7524C65.2046 63.0729 64.7563 63.3429 64.7563 63.6729C64.7563 64.0029 65.2046 64.2729 65.7524 64.2729H87.7762C88.324 64.2729 88.7723 64.0029 88.7723 63.6729C88.7723 63.3429 88.334 63.0729 87.7762 63.0729Z" fill="#2B3C67"/>
<path d="M87.7762 63.3129C88.1149 63.3129 88.3738 63.4729 88.3738 63.6729C88.3738 63.8729 88.1049 64.0329 87.7762 64.0329H65.7524C65.4237 64.0329 65.1548 63.8729 65.1548 63.6729C65.1548 63.4729 65.4237 63.3129 65.7524 63.3129H87.7762ZM87.7762 63.0729H65.7524C65.2046 63.0729 64.7563 63.3429 64.7563 63.6729C64.7563 64.0029 65.2046 64.2729 65.7524 64.2729H87.7762C88.324 64.2729 88.7723 64.0029 88.7723 63.6729C88.7723 63.3429 88.334 63.0729 87.7762 63.0729Z" fill="#2B3C67"/>
<path d="M19.5135 55.1163H10.5586C9.92105 55.1163 9.40308 55.6361 9.40308 56.2758V65.262C9.40308 65.9017 9.92105 66.4215 10.5586 66.4215H19.5135C20.151 66.4215 20.669 65.9017 20.669 65.262V56.2758C20.669 55.966 20.5594 55.6761 20.3402 55.4662C20.1211 55.2463 19.8322 55.1163 19.5135 55.1163ZM19.4836 56.5157V65.0321V65.232H19.2844H10.7976H10.5984V65.0321V56.5157V56.3158H10.7976H19.2844H19.4836V56.5157Z" fill="#2B3C67"/>
<path d="M50.9703 73.3985H26.6655C26.1177 73.3985 25.6694 73.6685 25.6694 73.9985C25.6694 74.3285 26.1177 74.5985 26.6655 74.5985H50.9703C51.5182 74.5985 51.9664 74.3285 51.9664 73.9985C51.9664 73.6685 51.5282 73.3985 50.9703 73.3985Z" fill="#2B3C67"/>
<path d="M50.9703 73.6385C51.309 73.6385 51.568 73.7985 51.568 73.9985C51.568 74.1985 51.299 74.3585 50.9703 74.3585H26.6655C26.3368 74.3585 26.0679 74.1985 26.0679 73.9985C26.0679 73.7985 26.3368 73.6385 26.6655 73.6385H50.9703ZM50.9703 73.3985H26.6655C26.1177 73.3985 25.6694 73.6685 25.6694 73.9985C25.6694 74.3285 26.1177 74.5985 26.6655 74.5985H50.9703C51.5182 74.5985 51.9664 74.3285 51.9664 73.9985C51.9664 73.6685 51.5282 73.3985 50.9703 73.3985Z" fill="#2B3C67"/>
<path d="M87.7762 73.3985H55.9907C55.4429 73.3985 54.9946 73.6685 54.9946 73.9985C54.9946 74.3285 55.4429 74.5985 55.9907 74.5985H87.7762C88.3241 74.5985 88.7723 74.3285 88.7723 73.9985C88.7723 73.6685 88.3341 73.3985 87.7762 73.3985Z" fill="#2B3C67"/>
<path d="M87.7762 73.6385C88.1149 73.6385 88.3739 73.7985 88.3739 73.9985C88.3739 74.1985 88.1049 74.3585 87.7762 74.3585H55.9907C55.662 74.3585 55.3931 74.1985 55.3931 73.9985C55.3931 73.7985 55.662 73.6385 55.9907 73.6385H87.7762ZM87.7762 73.3985H55.9907C55.4429 73.3985 54.9946 73.6685 54.9946 73.9985C54.9946 74.3285 55.4429 74.5985 55.9907 74.5985H87.7762C88.3241 74.5985 88.7723 74.3285 88.7723 73.9985C88.7723 73.6685 88.3341 73.3985 87.7762 73.3985Z" fill="#2B3C67"/>
<path d="M61.3696 79.1959H26.6655C26.1177 79.1959 25.6694 79.4659 25.6694 79.7959C25.6694 80.1259 26.1177 80.3959 26.6655 80.3959H61.3696C61.9175 80.3959 62.3657 80.1259 62.3657 79.7959C62.3657 79.4659 61.9175 79.1959 61.3696 79.1959Z" fill="#2B3C67"/>
<path d="M61.3696 79.4359C61.6983 79.4359 61.9673 79.5959 61.9673 79.7959C61.9673 79.9959 61.6983 80.1559 61.3696 80.1559H26.6655C26.3368 80.1559 26.0679 79.9959 26.0679 79.7959C26.0679 79.5959 26.3368 79.4359 26.6655 79.4359H61.3696ZM61.3696 79.1959H26.6655C26.1177 79.1959 25.6694 79.4659 25.6694 79.7959C25.6694 80.1259 26.1177 80.3959 26.6655 80.3959H61.3696C61.9175 80.3959 62.3657 80.1259 62.3657 79.7959C62.3657 79.4659 61.9175 79.1959 61.3696 79.1959Z" fill="#2B3C67"/>
<path d="M87.7762 79.1959H65.7524C65.2046 79.1959 64.7563 79.4659 64.7563 79.7959C64.7563 80.1259 65.2046 80.3959 65.7524 80.3959H87.7762C88.324 80.3959 88.7723 80.1259 88.7723 79.7959C88.7723 79.4659 88.334 79.1959 87.7762 79.1959Z" fill="#2B3C67"/>
<path d="M87.7762 79.4359C88.1149 79.4359 88.3738 79.5959 88.3738 79.7959C88.3738 79.9959 88.1049 80.1559 87.7762 80.1559H65.7524C65.4237 80.1559 65.1548 79.9959 65.1548 79.7959C65.1548 79.5959 65.4237 79.4359 65.7524 79.4359H87.7762ZM87.7762 79.1959H65.7524C65.2046 79.1959 64.7563 79.4659 64.7563 79.7959C64.7563 80.1259 65.2046 80.3959 65.7524 80.3959H87.7762C88.324 80.3959 88.7723 80.1259 88.7723 79.7959C88.7723 79.4659 88.334 79.1959 87.7762 79.1959Z" fill="#2B3C67"/>
<path d="M19.5135 71.2394H10.5586C9.92105 71.2394 9.40308 71.7592 9.40308 72.3989V81.385C9.40308 82.0247 9.92105 82.5445 10.5586 82.5445H19.5135C20.151 82.5445 20.669 82.0247 20.669 81.385V72.3989C20.669 72.089 20.5594 71.7991 20.3402 71.5892C20.1211 71.3693 19.8322 71.2394 19.5135 71.2394ZM19.4836 72.6388V81.1551V81.355H19.2844H10.7976H10.5984V81.1551V72.6388V72.4389H10.7976H19.2844H19.4836V72.6388Z" fill="#2B3C67"/>
<path d="M104.849 60.2342L104.929 60.704H104.461H101.233H100.765L100.845 60.2342L101.96 53.4971L102.03 53.0873L102.439 53.1772C102.578 53.2072 102.717 53.2172 102.857 53.2172C102.996 53.2172 103.136 53.2072 103.275 53.1772L103.684 53.0873L103.753 53.4971L104.849 60.2342Z" fill="white"/>
<path d="M102.847 52.1685C103.43 52.1685 103.903 51.6939 103.903 51.1085C103.903 50.5231 103.43 50.0485 102.847 50.0485C102.264 50.0485 101.791 50.5231 101.791 51.1085C101.791 51.6939 102.264 52.1685 102.847 52.1685Z" fill="white"/>
<path d="M107.061 21.3009V34.5552C107.061 36.7143 105.875 38.6934 103.963 39.703L103.375 40.0128V39.3531V22.6403V22.3904L103.604 22.2805L106.493 20.941L107.061 20.6812V21.3009Z" fill="white"/>
<path d="M117.002 14.9237L103.206 21.3209L103.026 21.4009L102.857 21.3109L89.0213 14.084C88.9516 14.054 88.8719 14.034 88.7922 14.034C88.593 14.034 88.4137 14.144 88.3241 14.3339C88.1946 14.5838 88.2942 14.8837 88.5432 15.0236L101.104 21.5908L101.821 21.9706L101.084 22.3105L88.9516 27.9381L88.7823 28.018L88.6129 27.9381L60.5628 14.9237L59.7759 14.5638L60.5628 14.204L88.6129 1.17957L88.7823 1.09961L88.9516 1.17957L117.002 14.194L117.789 14.5538L117.002 14.9237Z" fill="white"/>
<path d="M102.06 40.4228L99.7193 41.2524C96.1931 42.4819 92.5076 43.1116 88.7722 43.1116C85.0368 43.1116 81.3513 42.4819 77.8251 41.2524L74.3587 40.0429C72.0378 39.2233 70.4739 37.0242 70.4739 34.5553V21.301V20.6713L71.0417 20.9312L88.5431 29.0477C88.6128 29.0776 88.6826 29.0976 88.7622 29.0976C88.8419 29.0976 88.9216 29.0776 88.9913 29.0477L101.751 23.1202L102.319 22.8603V23.4901V40.0429V40.3228L102.06 40.4228Z" fill="white"/>
<path d="M105.905 60.2342L105.985 60.704H105.517H102.289H101.821L101.901 60.2342L103.017 53.4971L103.086 53.0873L103.495 53.1772C103.634 53.2072 103.774 53.2172 103.913 53.2172C104.053 53.2172 104.192 53.2072 104.331 53.1772L104.74 53.0873L104.81 53.4971L105.905 60.2342Z" fill="#3790EC"/>
<path d="M119.203 14.9237L105.407 21.3209L105.228 21.4009L105.059 21.3109L91.2228 14.084C91.1531 14.054 91.0734 14.034 90.9937 14.034C90.7945 14.034 90.6152 14.144 90.5255 14.3339C90.396 14.5838 90.4956 14.8837 90.7447 15.0236L103.305 21.5908L104.023 21.9706L103.286 22.3105L91.1431 27.9481L90.9738 28.028L90.8044 27.9481L62.7742 14.9237L61.9873 14.5638L62.7742 14.204L90.8244 1.17957L90.9937 1.09961L91.163 1.17957L119.213 14.194L120 14.5538L119.203 14.9237Z" fill="#3790EC"/>
<path d="M119.512 14.334C119.452 14.224 119.363 14.124 119.233 14.0641L88.9915 0.0501006C88.9317 0.0201135 88.8521 0.00012207 88.7724 0.00012207C88.6927 0.00012207 88.613 0.0201135 88.5433 0.0501006L58.3117 14.0741C58.1822 14.134 58.0925 14.234 58.0427 14.3639C57.9929 14.4939 58.0029 14.6338 58.0626 14.7638C58.1124 14.8837 58.2021 14.9637 58.3117 15.0137L69.2189 20.0715L69.4481 20.1814V20.4413V34.5453C69.4481 37.464 71.2908 40.0629 74.0301 41.0225L77.4866 42.232C81.1223 43.5014 84.9175 44.1511 88.7724 44.1511C92.6273 44.1511 96.4224 43.5014 100.068 42.232L101.801 41.6222L102.329 41.4323V41.9921V48.7591V49.029L102.08 49.129C101.273 49.4489 100.755 50.2185 100.755 51.0882C100.755 51.448 100.855 51.8078 101.044 52.1277L101.114 52.2477L101.094 52.3876L99.6498 61.1138C99.6099 61.3937 99.7992 61.6736 100.078 61.7136C100.098 61.7136 100.118 61.7236 100.138 61.7236C100.148 61.7236 100.158 61.7236 100.168 61.7236H105.567C105.855 61.7236 106.085 61.4937 106.085 61.2038C106.085 61.1838 106.085 61.1538 106.085 61.1338L104.64 52.3976L104.62 52.2576L104.69 52.1377C104.879 51.8078 104.979 51.458 104.979 51.0981C104.979 50.2285 104.461 49.4589 103.654 49.139L103.405 49.039V48.7691V41.3523V41.0725L103.664 40.9725C106.334 39.9829 108.137 37.404 108.137 34.5453V20.4513V20.1914L108.366 20.0815L119.273 15.0237C119.402 14.9637 119.492 14.8637 119.542 14.7338C119.572 14.6038 119.572 14.4639 119.512 14.334ZM102.06 40.4227L99.7195 41.2524C96.1933 42.4818 92.5077 43.1116 88.7724 43.1116C85.037 43.1116 81.3514 42.4818 77.8252 41.2524L74.3588 40.0429C72.0379 39.2233 70.474 37.0242 70.474 34.5553V21.301V20.6712L71.0418 20.9311L88.5433 29.0476C88.613 29.0776 88.6827 29.0976 88.7624 29.0976C88.8421 29.0976 88.9218 29.0776 88.9915 29.0476L101.752 23.1202L102.319 22.8603V23.49V40.0429V40.3228L102.06 40.4227ZM104.849 60.2342L104.929 60.704H104.461H101.234H100.765L100.845 60.2342L101.961 53.4971L102.03 53.0873L102.439 53.1772C102.578 53.2072 102.718 53.2172 102.857 53.2172C102.997 53.2172 103.136 53.2072 103.276 53.1772L103.684 53.0873L103.754 53.4971L104.849 60.2342ZM103.903 51.1081C103.903 51.6879 103.425 52.1677 102.847 52.1677C102.27 52.1677 101.791 51.6879 101.791 51.1081C101.791 50.5284 102.27 50.0486 102.847 50.0486C103.425 50.0486 103.903 50.5284 103.903 51.1081ZM107.061 21.301V34.5553C107.061 36.7143 105.875 38.6935 103.963 39.703L103.375 40.0129V39.3532V22.6404V22.3905L103.604 22.2805L106.493 20.9411L107.061 20.6812V21.301ZM117.002 14.9237L103.206 21.321L103.027 21.4009L102.857 21.311L89.0214 14.0841C88.9517 14.0541 88.872 14.0341 88.7923 14.0341C88.5931 14.0341 88.4138 14.144 88.3241 14.334C88.1946 14.5838 88.2942 14.8837 88.5433 15.0237L101.104 21.5908L101.821 21.9707L101.084 22.3105L88.9517 27.9381L88.7823 28.0181L88.613 27.9381L60.5629 14.9237L59.7759 14.5639L60.5629 14.204L88.613 1.17961L88.7823 1.09965L88.9517 1.17961L117.002 14.194L117.789 14.5539L117.002 14.9237Z" fill="#2B3C67"/>
</svg>
