<svg width="104" height="104" viewBox="0 0 104 104" fill="none" xmlns="http://www.w3.org/2000/svg">
<rect x="20.161" y="19.3999" width="50.8" height="82.8" rx="3.4" fill="white" stroke="#2B3C67" stroke-width="1.2"/>
<path d="M23.161 25.7999C23.161 23.9222 24.6833 22.3999 26.561 22.3999H64.561C66.4388 22.3999 67.961 23.9222 67.961 25.7999V81.7999C67.961 83.6777 66.4388 85.1999 64.561 85.1999H26.561C24.6833 85.1999 23.161 83.6777 23.161 81.7999V25.7999Z" fill="#CBD8F0" stroke="#2B3C67" stroke-width="1.2"/>
<path d="M38.3946 28.9299V37.4499V37.6499H38.1946H29.6746H29.4746V37.4499V28.9299V28.7299H29.6746H38.1946H38.3946V28.9299Z" fill="white"/>
<path d="M38.3946 48.0501V56.5701V56.7701H38.1946H29.6746H29.4746V56.5701V48.0501V47.8501H29.6746H38.1946H38.3946V48.0501Z" fill="white"/>
<path d="M36.2149 31.3199C36.037 31.3199 35.8719 31.3915 35.7442 31.5192L33.4849 33.7785L33.2356 33.5292L32.3856 32.6792C32.267 32.5605 32.1016 32.4899 31.9249 32.4899C31.747 32.4899 31.5819 32.5615 31.4542 32.6892C31.204 32.9395 31.2064 33.3428 31.4642 33.6006L33.0242 35.1606C33.1429 35.2793 33.3083 35.3499 33.4849 35.3499C33.6629 35.3499 33.8279 35.2784 33.9556 35.1506L36.6756 32.4306C36.9241 32.1821 36.9247 31.7701 36.6773 31.5209C36.5578 31.3904 36.3913 31.3199 36.2149 31.3199Z" fill="#2B3C67" stroke="#2B3C67" stroke-width="0.2"/>
<path d="M38.4249 27.5299H29.4349C28.7949 27.5299 28.2749 28.0499 28.2749 28.6899V37.6799C28.2749 38.3199 28.7949 38.8399 29.4349 38.8399H38.4249C39.0649 38.8399 39.5849 38.3199 39.5849 37.6799V28.6899C39.5849 28.3799 39.4749 28.0899 39.2549 27.8799C39.0349 27.6599 38.7449 27.5299 38.4249 27.5299ZM38.3949 28.9299V37.4499V37.6499H38.1949H29.6749H29.4749V37.4499V28.9299V28.7299H29.6749H38.1949H38.3949V28.9299Z" fill="#2B3C67"/>
<path d="M38.4249 46.6501H29.4349C28.7949 46.6501 28.2749 47.1701 28.2749 47.8101V56.8001C28.2749 57.4401 28.7949 57.9601 29.4349 57.9601H38.4249C39.0649 57.9601 39.5849 57.4401 39.5849 56.8001V47.8101C39.5849 47.5001 39.4749 47.2101 39.2549 47.0001C39.0349 46.7801 38.7449 46.6501 38.4249 46.6501ZM38.3949 48.0501V56.5701V56.7701H38.1949H29.6749H29.4749V56.5701V48.0501V47.8501H29.6749H38.1949H38.3949V48.0501Z" fill="#2B3C67"/>
<path d="M28.4111 71.7019C28.0798 71.7019 27.8111 71.9705 27.8111 72.3019C27.8111 72.6333 28.0798 72.9019 28.4111 72.9019V71.7019ZM61.8057 72.9019C62.137 72.9019 62.4057 72.6333 62.4057 72.3019C62.4057 71.9705 62.137 71.7019 61.8057 71.7019V72.9019ZM28.4111 72.9019H61.8057V71.7019H28.4111V72.9019Z" fill="#2B3C67"/>
<path d="M41.6187 29.0694C41.2873 29.0694 41.0187 29.3381 41.0187 29.6694C41.0187 30.0008 41.2873 30.2694 41.6187 30.2694V29.0694ZM66.6187 30.2694C66.95 30.2694 67.2187 30.0008 67.2187 29.6694C67.2187 29.3381 66.95 29.0694 66.6187 29.0694V30.2694ZM41.6187 30.2694H66.6187V29.0694H41.6187V30.2694Z" fill="#2B3C67"/>
<path d="M41.6187 48.1897C41.2873 48.1897 41.0187 48.4583 41.0187 48.7897C41.0187 49.121 41.2873 49.3897 41.6187 49.3897V48.1897ZM61.9419 49.3897C62.2733 49.3897 62.5419 49.121 62.5419 48.7897C62.5419 48.4583 62.2733 48.1897 61.9419 48.1897V49.3897ZM41.6187 49.3897H61.9419V48.1897H41.6187V49.3897Z" fill="#2B3C67"/>
<path d="M28.2749 75.3411C27.9435 75.3411 27.6749 75.6097 27.6749 75.9411C27.6749 76.2724 27.9435 76.5411 28.2749 76.5411V75.3411ZM50.5962 76.5411C50.9276 76.5411 51.1962 76.2724 51.1962 75.9411C51.1962 75.6097 50.9276 75.3411 50.5962 75.3411V76.5411ZM55.2474 75.3411C54.916 75.3411 54.6474 75.6097 54.6474 75.9411C54.6474 76.2724 54.916 76.5411 55.2474 76.5411L55.2474 75.3411ZM61.9418 76.541C62.2732 76.541 62.5418 76.2724 62.5418 75.941C62.5418 75.6097 62.2732 75.341 61.9418 75.341L61.9418 76.541ZM28.2749 76.5411H50.5962V75.3411H28.2749V76.5411ZM55.2474 76.5411L61.9418 76.541L61.9418 75.341L55.2474 75.3411L55.2474 76.5411Z" fill="#2B3C67"/>
<path d="M66.6187 35.585C66.95 35.585 67.2187 35.8536 67.2187 36.185C67.2187 36.5163 66.95 36.785 66.6187 36.785V35.585ZM50.0435 36.785C49.7122 36.785 49.4435 36.5163 49.4435 36.185C49.4435 35.8536 49.7122 35.585 50.0435 35.585V36.785ZM46.5897 35.585C46.9211 35.585 47.1897 35.8536 47.1897 36.185C47.1897 36.5163 46.9211 36.785 46.5897 36.785L46.5897 35.585ZM41.6186 36.7849C41.2873 36.7849 41.0187 36.5163 41.0187 36.1849C41.0187 35.8536 41.2873 35.5849 41.6187 35.5849L41.6186 36.7849ZM66.6187 36.785H50.0435V35.585H66.6187V36.785ZM46.5897 36.785L41.6186 36.7849L41.6187 35.5849L46.5897 35.585L46.5897 36.785Z" fill="#2B3C67"/>
<path d="M61.9419 55.9052C62.2733 55.9052 62.5419 55.6365 62.5419 55.3052C62.5419 54.9738 62.2733 54.7052 61.9419 54.7052V55.9052ZM48.4675 54.7052C48.1361 54.7052 47.8675 54.9738 47.8675 55.3052C47.8675 55.6365 48.1361 55.9052 48.4675 55.9052V54.7052ZM45.6598 55.9052C45.9911 55.9052 46.2598 55.6365 46.2598 55.3052C46.2598 54.9738 45.9911 54.7052 45.6598 54.7052L45.6598 55.9052ZM41.6187 54.7052C41.2873 54.7052 41.0187 54.9738 41.0187 55.3052C41.0187 55.6365 41.2873 55.9052 41.6187 55.9052L41.6187 54.7052ZM61.9419 54.7052H48.4675V55.9052H61.9419V54.7052ZM45.6598 54.7052L41.6187 54.7052L41.6187 55.9052L45.6598 55.9052L45.6598 54.7052Z" fill="#2B3C67"/>
<circle cx="46.061" cy="93.2999" r="3.9" fill="#CBD8F0" stroke="#2B3C67" stroke-width="1.2"/>
<path d="M76.3422 43.5299C87.2388 43.5299 96.0723 34.6965 96.0723 23.7999C96.0723 12.9033 87.2388 4.06989 76.3422 4.06989C65.4457 4.06989 56.6122 12.9033 56.6122 23.7999C56.6122 34.6965 65.4457 43.5299 76.3422 43.5299Z" fill="white"/>
<path d="M77.5322 44.5899C88.4288 44.5899 97.2622 35.7565 97.2622 24.8599C97.2622 13.9633 88.4288 5.12988 77.5322 5.12988C66.6357 5.12988 57.8022 13.9633 57.8022 24.8599C57.8022 35.7565 66.6357 44.5899 77.5322 44.5899Z" fill="#3790EC"/>
<path d="M76.3422 3.00989C64.8822 3.00989 55.5522 12.3399 55.5522 23.7999C55.5522 35.2599 64.8822 44.5899 76.3422 44.5899C87.8022 44.5899 97.1322 35.2599 97.1322 23.7999C97.1322 12.3399 87.8022 3.00989 76.3422 3.00989ZM76.3422 43.5299C65.4622 43.5299 56.6122 34.6799 56.6122 23.7999C56.6122 12.9199 65.4622 4.06989 76.3422 4.06989C87.2222 4.06989 96.0723 12.9199 96.0723 23.7999C96.0723 34.6799 87.2222 43.5299 76.3422 43.5299Z" fill="#2B3C67"/>
<path d="M74.8823 35.0899C74.0823 34.2899 74.0823 32.9799 74.8823 32.1699C75.6823 31.3699 76.9923 31.3699 77.8023 32.1699C78.6023 32.9699 78.6023 34.2799 77.8023 35.0899C76.9923 35.8899 75.6823 35.8899 74.8823 35.0899Z" fill="white"/>
<path d="M76.3421 31.5699C76.8721 31.5699 77.4021 31.7699 77.8021 32.1699C78.6021 32.9699 78.6021 34.2799 77.8021 35.0899C77.4021 35.4899 76.8721 35.6899 76.3421 35.6899C75.8121 35.6899 75.2821 35.4899 74.8821 35.0899C74.0821 34.2899 74.0821 32.9799 74.8821 32.1699C75.2821 31.7699 75.8121 31.5699 76.3421 31.5699ZM76.3421 30.5699C75.5221 30.5699 74.7521 30.8899 74.1821 31.4599C72.9921 32.6599 72.9921 34.6099 74.1821 35.7899C74.7621 36.3699 75.5221 36.6799 76.3421 36.6799C77.1621 36.6799 77.9321 36.3599 78.5121 35.7899C79.7021 34.5799 79.7021 32.6399 78.5121 31.4499C77.9221 30.8899 77.1521 30.5699 76.3421 30.5699Z" fill="#2B3C67"/>
<path d="M80.8622 29.6199C80.5222 29.6199 80.1722 29.4899 79.9122 29.2299C77.9422 27.2599 74.7322 27.2599 72.7622 29.2299C72.2422 29.7499 71.3922 29.7499 70.8622 29.2299C70.3422 28.7099 70.3422 27.8599 70.8622 27.3299C73.8822 24.3099 78.7922 24.3099 81.8122 27.3299C82.3322 27.8499 82.3322 28.6999 81.8122 29.2299C81.5522 29.4899 81.2022 29.6199 80.8622 29.6199Z" fill="white"/>
<path d="M76.342 25.0599C78.322 25.0599 80.302 25.8199 81.822 27.3199C82.342 27.8399 82.342 28.6899 81.822 29.2199C81.562 29.4799 81.212 29.6099 80.872 29.6099C80.532 29.6099 80.182 29.4799 79.922 29.2199C78.932 28.2299 77.642 27.7399 76.352 27.7399C75.052 27.7399 73.762 28.2299 72.772 29.2199C72.512 29.4799 72.172 29.6099 71.822 29.6099C71.482 29.6099 71.132 29.4799 70.872 29.2199C70.352 28.6999 70.352 27.8499 70.872 27.3199C72.372 25.8199 74.352 25.0599 76.342 25.0599ZM76.342 24.0599C74.002 24.0599 71.812 24.9699 70.162 26.6199C69.252 27.5499 69.252 29.0299 70.162 29.9299C70.612 30.3699 71.202 30.6099 71.822 30.6099C72.452 30.6099 73.032 30.3699 73.472 29.9299C74.232 29.1699 75.252 28.7499 76.342 28.7499C77.432 28.7499 78.442 29.1699 79.212 29.9299C79.642 30.3599 80.252 30.6099 80.872 30.6099C81.492 30.6099 82.092 30.3599 82.532 29.9299C83.442 28.9999 83.442 27.5199 82.532 26.6199C80.872 24.9699 78.672 24.0599 76.342 24.0599Z" fill="#2B3C67"/>
<path d="M84.3822 25.2699C84.0422 25.2699 83.6922 25.1399 83.4322 24.8799C79.5222 20.9699 73.1522 20.9699 69.2422 24.8799C68.7222 25.3999 67.8722 25.3999 67.3422 24.8799C66.8222 24.3599 66.8222 23.5099 67.3422 22.9799C72.3022 18.0199 80.3722 18.0199 85.3322 22.9799C85.8522 23.4999 85.8522 24.3499 85.3322 24.8799C85.0722 25.1399 84.7222 25.2699 84.3822 25.2699Z" fill="white"/>
<path d="M76.3422 19.2599C79.6022 19.2599 82.8622 20.4999 85.3322 22.9799C85.8522 23.4999 85.8522 24.3499 85.3322 24.8799C85.0722 25.1399 84.7222 25.2699 84.3822 25.2699C84.0422 25.2699 83.6922 25.1399 83.4322 24.8799C81.4822 22.9299 78.9122 21.9499 76.3322 21.9499C73.7522 21.9499 71.1922 22.9299 69.2322 24.8799C68.9722 25.1399 68.6322 25.2699 68.2822 25.2699C67.9322 25.2699 67.5922 25.1399 67.3322 24.8799C66.8122 24.3599 66.8122 23.5099 67.3322 22.9799C69.8222 20.4999 73.0822 19.2599 76.3422 19.2599ZM76.3422 18.2599C72.6722 18.2599 69.2322 19.6899 66.6422 22.2699C65.7322 23.1999 65.7422 24.6799 66.6422 25.5799C67.0922 26.0199 67.6822 26.2599 68.3022 26.2599C68.9322 26.2599 69.5122 26.0199 69.9522 25.5799C71.6522 23.8799 73.9222 22.9399 76.3422 22.9399C78.7622 22.9399 81.0322 23.8799 82.7322 25.5799C83.1622 26.0099 83.7722 26.2599 84.3922 26.2599C85.0122 26.2599 85.6122 26.0099 86.0522 25.5799C86.9622 24.6499 86.9522 23.1699 86.0522 22.2699C83.4522 19.6899 80.0022 18.2599 76.3422 18.2599Z" fill="#2B3C67"/>
<path d="M64.7722 20.9199C64.4322 20.9199 64.0823 20.7899 63.8223 20.5299C63.3023 20.0099 63.3023 19.1599 63.8223 18.6299C67.1623 15.2899 71.6022 13.4599 76.3322 13.4599C81.0622 13.4599 85.5022 15.2999 88.8422 18.6299C89.3622 19.1499 89.3622 19.9999 88.8422 20.5299C88.3222 21.0499 87.4722 21.0499 86.9422 20.5299C84.1122 17.6999 80.3422 16.1399 76.3322 16.1399C72.3222 16.1399 68.5522 17.6999 65.7222 20.5299C65.4622 20.7899 65.1222 20.9199 64.7722 20.9199Z" fill="white"/>
<path d="M76.3322 13.4599C81.0622 13.4599 85.5022 15.2999 88.8422 18.6299C89.3622 19.1499 89.3622 19.9999 88.8422 20.5299C88.5822 20.7899 88.2422 20.9199 87.8922 20.9199C87.5422 20.9199 87.2022 20.7899 86.9422 20.5299C84.1122 17.6999 80.3422 16.1399 76.3322 16.1399C72.3222 16.1399 68.5522 17.6999 65.7222 20.5299C65.4622 20.7899 65.1222 20.9199 64.7722 20.9199C64.4322 20.9199 64.0822 20.7899 63.8222 20.5299C63.3022 20.0099 63.3022 19.1599 63.8222 18.6299C67.1622 15.2899 71.6022 13.4599 76.3322 13.4599ZM76.3322 12.4599C71.3322 12.4599 66.6422 14.3999 63.1122 17.9199C62.2022 18.8499 62.2022 20.3299 63.1122 21.2299C63.5422 21.6599 64.1522 21.9099 64.7722 21.9099C65.4022 21.9099 65.9922 21.6699 66.4322 21.2299C69.0722 18.5899 72.5922 17.1299 76.3322 17.1299C80.0722 17.1299 83.5922 18.5899 86.2322 21.2299C86.6822 21.6699 87.2722 21.9099 87.8922 21.9099C88.5222 21.9099 89.1022 21.6699 89.5422 21.2299C90.4522 20.2999 90.4522 18.8199 89.5422 17.9199C86.0122 14.3999 81.3222 12.4599 76.3322 12.4599Z" fill="#2B3C67"/>
</svg>
