<svg width="226" height="153" viewBox="0 0 226 153" fill="none" xmlns="http://www.w3.org/2000/svg">
<g clip-path="url(#clip0_128_4134)">
<rect x="82" y="9" width="144" height="144" rx="72" fill="white"/>
<rect x="82" y="9" width="144" height="144" rx="72" fill="#FFA32C" fill-opacity="0.15"/>
<rect x="82" y="9" width="144" height="144" rx="72" stroke="#F4B461" stroke-linecap="round" stroke-dasharray="4 4"/>
<ellipse cx="153.5" cy="122" rx="34.5" ry="14" fill="#EADFD0"/>
<path d="M170.276 24C166.578 24 139.389 24 135.724 24C129.811 24 125 28.835 125 34.7777V112.222C125 118.165 129.811 123 135.724 123C141.126 123 164.857 123 170.276 123C176.189 123 181 118.165 181 112.222V34.7777C181 28.835 176.189 24 170.276 24Z" fill="#647892"/>
<path d="M136.363 112.222V34.7777C136.363 28.8347 141.135 24 147 24C141.582 24 136.99 24 135.637 24C129.771 24 125 28.835 125 34.7777V112.222C125 118.165 129.772 123 135.637 123C137.592 123 141.969 123 147 123C141.135 123 136.363 118.165 136.363 112.222Z" fill="#4D6682"/>
<path d="M175 112.197C175 114.85 172.865 117 170.23 117C166.582 117 139.457 117 135.77 117C133.135 117 131 114.85 131 112.197C131 109.752 131 37.2945 131 34.8032C131 32.1504 133.135 30 135.77 30H138.398C139.383 30 140.182 30.8047 140.182 31.7973V32.937C140.182 34.4664 141.425 35.7176 142.943 35.7176C147.08 35.7176 158.921 35.7176 163.056 35.7176C164.575 35.7176 165.817 34.4664 165.817 32.937V31.7973C165.817 30.8047 166.616 30 167.602 30H170.23C172.864 30 175 32.1504 175 34.8032C175 51.462 175 96.6684 175 112.197Z" fill="white"/>
<path d="M153 94C160.732 94 167 92.8807 167 91.5C167 90.1193 160.732 89 153 89C145.268 89 139 90.1193 139 91.5C139 92.8807 145.268 94 153 94Z" fill="#EAEDF4"/>
<g clip-path="url(#clip1_128_4134)">
<path d="M162.019 71.9421L162.01 64.4406C162.005 59.7905 158.186 56.0024 153.502 56.0015C148.817 56.0007 145.006 59.7874 145.011 64.4375L145.019 72L148.797 72.0007L148.789 64.4382C148.786 61.8507 150.899 59.7511 153.506 59.7515C156.112 59.752 158.23 61.8524 158.233 64.4399L158.241 71.9414L162.019 71.9421Z" fill="#565A7A"/>
<path fill-rule="evenodd" clip-rule="evenodd" d="M145.02 73L145.736 73.0001C146.09 64.5805 144.922 59.3532 153.502 56.0015C148.818 56.0007 145.006 60.0241 145.012 64.9648L145.02 73Z" fill="#374558"/>
<path d="M143.023 73.5284C143.021 71.5797 144.599 70.0003 146.548 70.0006L160.491 70.0032C162.44 70.0035 164.021 71.5835 164.023 73.5322L164.034 83.4754C164.036 85.4241 162.458 87.0035 160.509 87.0032L146.566 87.0006C144.618 87.0003 143.036 85.4203 143.034 83.4715L143.023 73.5284Z" fill="#F4B461"/>
<path fill-rule="evenodd" clip-rule="evenodd" d="M150.931 70.0014L146.548 70.0006C144.599 70.0003 143.021 71.5797 143.023 73.5284L143.034 83.4715C143.036 85.4203 144.618 87.0003 146.566 87.0006L149.412 87.0011C145.649 87.0005 144.395 70.0002 150.931 70.0014Z" fill="#E5A551"/>
<path d="M154.034 82C155.139 82 156.033 81.1046 156.032 80C156.03 78.8954 155.134 78 154.029 78C152.925 78 152.03 78.8954 152.032 80C152.033 81.1046 152.93 82 154.034 82Z" fill="#565A7A"/>
</g>
<path d="M136.81 34.8032C136.81 33.0779 137.24 31.4471 138 30H136.038C133.256 30 131 32.1504 131 34.8032C131 37.2942 131 109.752 131 112.197C131 114.85 133.256 117 136.038 117C136.442 117 137.117 117 138 117C137.24 115.553 136.81 113.922 136.81 112.197V34.8032Z" fill="#F3F5F9"/>
<path d="M158.34 31H152.66C151.743 31 151 30.3284 151 29.5C151 28.6716 151.743 28 152.66 28H158.34C159.257 28 160 28.6716 160 29.5C160 30.3284 159.257 31 158.34 31Z" fill="#4D6682"/>
<path d="M146.5 31C145.66 31 145 30.3107 145 29.5001C145 28.5291 145.898 27.8453 146.794 28.0303C147.464 28.1555 148 28.7656 148 29.5001C148 30.3143 147.342 31 146.5 31Z" fill="#4D6682"/>
<path d="M155.34 111H149.66C148.743 111 148 110.328 148 109.5C148 108.672 148.743 108 149.66 108H155.34C156.257 108 157 108.672 157 109.5C157 110.328 156.257 111 155.34 111Z" fill="#F3F5F9"/>
</g>
<ellipse rx="33.2657" ry="20.9478" transform="matrix(0.900761 -0.434314 0.431084 0.902312 92.9947 33.3492)" fill="#F4B461"/>
<path fill-rule="evenodd" clip-rule="evenodd" d="M123.88 21.472C123.662 20.5906 123.356 19.7318 122.959 18.9015C118.546 9.66416 104.368 7.03947 89.6952 12.0863C95.3494 18.0559 102.914 18.0353 109.759 18.0167C115.48 18.0012 120.698 17.987 123.88 21.472Z" fill="#F6C27F"/>
<path d="M70.5234 23.8625C62.8892 31.5181 59.638 40.6966 63.0303 47.797C66.8699 55.8339 78.1017 58.8652 90.6194 56.1934C59.0413 46.0405 63.7971 30.7572 70.5234 23.8625Z" fill="#E5A551"/>
<path d="M105.036 58.5522C121.585 50.5729 129.984 33.6047 123.796 20.6526C123.641 20.328 123.478 20.0091 123.308 19.6957C127.473 30.0856 118.16 44.4724 102.026 52.2517C85.8917 60.031 68.8931 58.3306 63.4295 48.5669C63.5664 48.8964 63.7122 49.2235 63.8673 49.5481C70.0552 62.5002 88.487 66.5315 105.036 58.5522Z" fill="#E5A551"/>
<path fill-rule="evenodd" clip-rule="evenodd" d="M123.706 29.4366C124.107 31.7423 125.067 35.5277 125.701 32.2232C126.121 28.2416 125.533 24.2889 123.796 20.6526C123.641 20.328 123.478 20.0091 123.308 19.6957C124.51 22.6946 124.589 26.0266 123.706 29.4366Z" fill="#F6C27F"/>
<path fill-rule="evenodd" clip-rule="evenodd" d="M94.1447 62.0809C94.3737 59.2143 91.8687 56.9668 90.5876 56.2013C78.4905 58.7742 67.5998 56.0194 63.4295 48.5669C63.5664 48.8964 63.7122 49.2235 63.8673 49.5481C68.7129 59.6905 81.0665 64.3627 94.1447 62.0809Z" fill="#DC9B45"/>
<path d="M70.9827 36.241C69.0927 37.1547 67.6647 38.5377 68.8111 40.0384C69.4661 40.8959 70.8586 40.8216 72.4619 40.481C70.818 39.8197 70.286 38.1747 70.9827 36.241Z" fill="#893B2B"/>
<path d="M70.8245 36.2911C70.1277 38.2248 70.7943 39.9104 72.3036 40.5311C73.1579 40.2942 74.1175 39.9243 75.048 39.3806C76.3236 38.6113 77.4356 37.6276 77.5294 36.6664C77.9278 34.4777 73.645 34.8337 70.8245 36.2911Z" fill="#A34633"/>
<path d="M85.5371 44.2325C85.0118 44.5346 84.4864 44.8368 83.9611 45.139C81.1672 47.1724 79.007 51.5418 82.8381 51.3282C83.7215 51.2464 84.7191 50.9569 85.8918 50.5667C85.5337 50.3463 85.1756 50.1258 84.8174 49.9054C84.2525 48.0983 83.5736 46.4989 85.5371 44.2325Z" fill="#893B2B"/>
<path d="M91.5621 45.031C91.4886 44.5047 91.0131 44.0676 90.428 43.8356C88.9653 43.2555 86.8939 43.5941 85.1276 44.4679C83.2892 46.8045 83.9728 48.4012 84.6563 49.998C85.0099 50.221 85.1929 50.5422 85.717 50.6671C87.5443 49.9004 89.3592 48.7144 90.4794 47.5015C91.149 46.6899 91.7576 45.7713 91.5621 45.031Z" fill="#A34633"/>
<path d="M113.181 21.5417C112.808 21.9748 112.435 22.4078 112.31 22.9039C114.205 24.7938 117.01 26.2114 119.901 26.2432C120.273 25.8102 120.646 25.3772 120.523 24.8181C119.741 23.7393 118.918 22.8258 117.888 21.6839C116.238 20.9121 114.215 20.5733 113.181 21.5417Z" fill="#A34633"/>
<path d="M86.4268 37.956C85.6699 37.1143 81.3732 38.7796 83.65 39.359C84.409 39.5522 85.6253 39.2126 86.0443 38.8324C86.4632 38.4521 86.6919 38.1858 86.4268 37.956Z" fill="#893B2B"/>
<path d="M105.589 38.1375C103.874 35.3287 101.114 39.8707 104.25 42.1671C105.345 42.9455 106.067 42.0053 106.241 40.6759C106.266 39.9332 106.048 38.8787 105.589 38.1375Z" fill="#A34633"/>
<path d="M81.8575 19.661C79.3093 20.0947 76.8806 23.1688 80.0708 24.8834C82.167 25.9241 85.7175 25.8572 87.2176 24.9031C87.9906 24.5028 88.7177 23.949 88.6931 23.12C88.8061 22.7514 88.4639 22.3528 88.3263 21.8925C85.3261 23.8007 81.4366 24.9734 78.6313 22.3064C81.2778 25.1886 85.3719 23.9541 88.3263 21.8925C88.2804 21.739 88.0299 21.6473 87.984 21.4938C86.6608 20.0528 83.9963 19.3507 81.8575 19.661Z" fill="#893B2B"/>
<path d="M78.6364 22.3065C81.4417 24.9735 85.3311 23.8008 88.3314 21.8925C88.2855 21.7391 88.0349 21.6474 87.9891 21.4939C86.6658 20.0529 84.0014 19.3508 81.8626 19.6611C79.6879 19.9325 78.8057 21.5378 78.6364 22.3065Z" fill="#A34633"/>
<path d="M98.3181 26.2058C97.5207 26.1652 96.6849 26.277 96.189 26.9622C94.5497 28.9792 100.463 32.4316 100.931 28.6558C101.087 27.3973 99.5709 26.3624 98.3181 26.2058Z" fill="#893B2B"/>
<path d="M106.018 14.0967C104.685 12.9416 98.0545 16.6931 101.744 17.0883C103.081 17.1564 104.929 16.2671 105.695 15.3744C106.333 14.9927 106.462 14.4817 106.018 14.0967Z" fill="#A34633"/>
<path d="M89.6302 63.4356C85.7129 61.5744 83.0039 57.5749 83.0039 52.9412C83.0039 46.5306 88.1891 41.3338 94.5854 41.3338C100.982 41.3338 106.167 46.5306 106.167 52.9412C106.167 57.5749 103.458 61.5744 99.5407 63.4356" stroke="#5468FF" stroke-width="2" stroke-miterlimit="10" stroke-linecap="round" stroke-linejoin="round"/>
<path d="M89.6223 79.4726C89.6223 76.7249 87.4003 74.498 84.6588 74.498C81.9173 74.498 79.6953 76.7249 79.6953 79.4726V91.08C79.6953 104.817 90.807 115.953 104.513 115.953C118.219 115.953 129.33 104.817 129.33 91.08V79.4726C129.33 76.7249 127.108 74.498 124.367 74.498C121.625 74.498 119.403 76.7249 119.403 79.4726V76.1562C119.403 73.4085 117.181 71.1815 114.44 71.1815C111.698 71.1815 109.476 73.4085 109.476 76.1562V72.8398C109.476 70.0921 107.254 67.8651 104.513 67.8651C101.771 67.8651 99.5493 70.0921 99.5493 72.8398V52.9413C99.5493 50.1936 97.3273 47.9667 94.5858 47.9667C91.8443 47.9667 89.6223 50.1936 89.6223 52.9413V89.4218V79.4726Z" fill="white" stroke="#D5D6E1" stroke-width="3" stroke-miterlimit="10" stroke-linecap="round" stroke-linejoin="round"/>
<ellipse rx="16.7688" ry="10.5391" transform="matrix(-0.901286 -0.433224 -0.43217 0.901792 21.1864 127.412)" fill="#F4B461"/>
<path fill-rule="evenodd" clip-rule="evenodd" d="M5.6083 121.439C5.71856 120.996 5.87282 120.564 6.07291 120.147C8.29882 115.502 15.4501 114.182 22.8506 116.72C19.9987 119.722 16.1835 119.711 12.7309 119.702C9.8454 119.694 7.2132 119.687 5.6083 121.439Z" fill="#F6C27F"/>
<path d="M32.5204 122.641C36.3709 126.491 38.0108 131.106 36.2998 134.676C34.3632 138.717 28.6981 140.242 22.3844 138.898C38.3118 133.793 35.9131 126.108 32.5204 122.641Z" fill="#E5A551"/>
<path d="M15.1132 140.084C6.76623 136.072 2.52986 127.54 5.65091 121.027C5.72912 120.864 5.81125 120.703 5.89713 120.546C3.79646 125.77 8.49367 133.004 16.6314 136.916C24.7691 140.827 33.3429 139.972 36.0986 135.063C36.0296 135.229 35.956 135.393 35.8778 135.556C32.7568 142.069 23.4601 144.096 15.1132 140.084Z" fill="#E5A551"/>
<path fill-rule="evenodd" clip-rule="evenodd" d="M5.69645 125.444C5.49418 126.603 5.00974 128.506 4.6901 126.845C4.47837 124.843 4.77469 122.855 5.65091 121.027C5.72912 120.864 5.81125 120.703 5.89713 120.546C5.29079 122.054 5.2508 123.729 5.69645 125.444Z" fill="#F6C27F"/>
<path fill-rule="evenodd" clip-rule="evenodd" d="M20.6065 141.858C20.491 140.417 21.7545 139.286 22.4006 138.902C28.5021 140.195 33.9952 138.81 36.0986 135.063C36.0296 135.229 35.956 135.393 35.8778 135.556C33.4338 140.656 27.2029 143.005 20.6065 141.858Z" fill="#DC9B45"/>
<path d="M32.2883 128.864C33.2421 129.324 33.9627 130.019 33.3841 130.775C33.0535 131.206 32.3508 131.169 31.5417 130.997C32.3714 130.665 32.6399 129.837 32.2883 128.864Z" fill="#893B2B"/>
<path d="M32.3671 128.891C32.7185 129.863 32.3821 130.711 31.6207 131.023C31.1898 130.904 30.7058 130.718 30.2364 130.445C29.593 130.058 29.0321 129.563 28.9848 129.08C28.784 127.979 30.9444 128.158 32.3671 128.891Z" fill="#A34633"/>
<path d="M24.9492 132.884C25.2142 133.036 25.4792 133.188 25.7442 133.34C27.1535 134.363 28.2429 136.56 26.3104 136.453C25.8647 136.412 25.3615 136.266 24.77 136.07C24.9506 135.959 25.1313 135.848 25.312 135.737C25.597 134.828 25.9396 134.024 24.9492 132.884Z" fill="#893B2B"/>
<path d="M21.9092 133.286C21.9463 133.021 22.1862 132.801 22.4813 132.685C23.2192 132.393 24.2641 132.563 25.1551 133.003C26.0823 134.178 25.7374 134.981 25.3925 135.784C25.2142 135.896 25.1218 136.058 24.8574 136.12C23.9357 135.735 23.0203 135.138 22.4552 134.529C22.1175 134.12 21.8105 133.658 21.9092 133.286Z" fill="#A34633"/>
<path d="M11.0068 121.474C11.1949 121.692 11.3829 121.91 11.446 122.159C10.49 123.11 9.07518 123.823 7.61697 123.839C7.42895 123.621 7.24093 123.403 7.30274 123.122C7.69723 122.579 8.11275 122.12 8.63215 121.546C9.46449 121.157 10.4849 120.987 11.0068 121.474Z" fill="#A34633"/>
<path d="M24.4964 129.728C24.8785 129.304 27.0474 130.142 25.8981 130.434C25.515 130.531 24.901 130.36 24.6895 130.169C24.478 129.978 24.3626 129.844 24.4964 129.728Z" fill="#893B2B"/>
<path d="M14.8349 129.819C15.7004 128.405 17.094 130.691 15.511 131.847C14.9578 132.239 14.5935 131.766 14.5058 131.097C14.4928 130.723 14.6032 130.192 14.8349 129.819Z" fill="#A34633"/>
<path d="M26.8028 120.528C28.0881 120.746 29.3131 122.292 27.704 123.154C26.6467 123.677 24.8559 123.643 24.0993 123.164C23.7094 122.962 23.3427 122.684 23.3551 122.267C23.2981 122.082 23.4707 121.881 23.5401 121.65C25.0533 122.609 27.0151 123.199 28.4301 121.858C27.0952 123.307 25.0302 122.687 23.5401 121.65C23.5632 121.573 23.6896 121.527 23.7127 121.449C24.3802 120.725 25.7241 120.372 26.8028 120.528Z" fill="#893B2B"/>
<path d="M28.4292 121.858C27.014 123.2 25.0521 122.61 23.5388 121.65C23.5619 121.573 23.6883 121.527 23.7114 121.45C24.3789 120.725 25.723 120.372 26.8019 120.528C27.8988 120.664 28.3438 121.472 28.4292 121.858Z" fill="#A34633"/>
<path d="M18.5024 123.819C18.9046 123.799 19.3262 123.855 19.5763 124.2C20.4031 125.214 17.4203 126.95 17.1845 125.051C17.1059 124.418 17.8705 123.898 18.5024 123.819Z" fill="#893B2B"/>
<path d="M14.6191 117.731C15.2916 117.151 18.6371 119.037 16.7752 119.236C16.101 119.27 15.1684 118.823 14.7817 118.374C14.46 118.182 14.3949 117.925 14.6191 117.731Z" fill="#A34633"/>
<path d="M51.2064 130.24C45.6935 127.834 41.4945 125.263 41.8278 124.497L40.9049 126.618C40.5144 127.515 42.242 130.211 50.2509 133.706C52.4036 134.646 54.1288 135.237 55.5053 135.597C59.2499 136.574 60.4128 135.83 60.5755 135.688C60.7536 135.533 61.4607 133.972 61.792 133.21C61.5834 133.69 59.6496 133.348 56.8805 132.436C55.2244 131.891 53.2696 131.141 51.2064 130.24Z" fill="#E5A551"/>
<path fill-rule="evenodd" clip-rule="evenodd" d="M60.5755 135.688C60.4128 135.83 59.2499 136.574 55.5053 135.597C53.835 134.103 55.7262 132.867 56.8805 132.436C59.6496 133.348 61.5834 133.69 61.792 133.21C61.4607 133.972 60.7536 135.533 60.5755 135.688Z" fill="#DC9B45"/>
<ellipse rx="10.8914" ry="2.15515" transform="matrix(-0.916514 -0.400004 -0.398997 0.916952 51.8601 128.737)" fill="#F4B461"/>
<path fill-rule="evenodd" clip-rule="evenodd" d="M44.4931 127.258C42.6531 126.025 41.6266 124.959 41.878 124.381C42.2769 123.464 45.765 124.069 50.1381 125.712C51.0989 127.306 48.6901 126.536 46.4054 125.806C43.7316 124.951 41.2277 124.151 44.4931 127.258Z" fill="#F6C27F"/>
<path fill-rule="evenodd" clip-rule="evenodd" d="M61.8422 133.094C61.5451 133.777 59.5331 133.615 56.7179 132.809C61.1277 133.086 59.5068 130.738 58.1452 129.529C60.6514 131.045 62.1394 132.411 61.8422 133.094Z" fill="#E5A551"/>
<path d="M51.4932 127.304C52.0381 127.724 52.4343 128.223 52.0579 128.504C51.8428 128.665 51.428 128.511 50.9561 128.268C51.4626 128.254 51.6584 127.876 51.4932 127.304Z" fill="#893B2B"/>
<path d="M51.5395 127.333C51.7045 127.904 51.4676 128.28 51.0027 128.297C50.7527 128.153 50.4743 127.964 50.2084 127.733C49.8444 127.409 49.5341 127.046 49.5276 126.786C49.4575 126.177 50.7293 126.681 51.5395 127.333Z" fill="#A34633"/>
<path d="M54.9746 130.335C55.1116 130.407 55.2486 130.479 55.3856 130.551C56.1182 131.043 56.7105 132.136 55.7299 132.117C55.5034 132.105 55.2459 132.04 54.9427 131.952C55.0321 131.892 55.1216 131.833 55.211 131.773C55.3386 131.308 55.4972 130.894 54.9746 130.335Z" fill="#893B2B"/>
<path d="M53.4439 130.595C53.4578 130.46 53.5753 130.344 53.7226 130.28C54.0909 130.118 54.6232 130.185 55.0825 130.391C55.5738 130.969 55.414 131.382 55.2541 131.795C55.1659 131.855 55.1221 131.939 54.9894 131.976C54.5155 131.797 54.0408 131.512 53.7434 131.214C53.5648 131.014 53.4008 130.785 53.4439 130.595Z" fill="#A34633"/>
<path d="M47.0737 125.571C47.1139 125.753 47.1542 125.936 47.1134 126.098C46.2741 126.346 45.2459 126.316 44.4078 125.874C44.3675 125.691 44.3272 125.509 44.4492 125.367C44.8419 125.179 45.221 125.045 45.6948 124.877C46.29 124.913 46.9256 125.131 47.0737 125.571Z" fill="#A34633"/>
<path d="M58.5638 129.335C59.309 129.698 60.0088 130.686 59.0669 130.777C58.4484 130.817 57.4079 130.441 56.972 130.059C56.747 129.884 56.536 129.676 56.5465 129.478C56.5148 129.378 56.6167 129.316 56.6589 129.219C57.5308 129.984 58.6662 130.661 59.499 130.301C58.7119 130.729 57.5167 130.016 56.6589 129.219C56.6729 129.187 56.7467 129.19 56.7608 129.157C57.1543 128.943 57.9381 129.043 58.5638 129.335Z" fill="#893B2B"/>
<path d="M59.4984 130.301C58.6655 130.661 57.5301 129.984 56.6582 129.219C56.6722 129.187 56.746 129.19 56.7601 129.157C57.1536 128.943 57.9374 129.043 58.5631 129.335C59.1995 129.621 59.4518 130.098 59.4984 130.301Z" fill="#A34633"/>
<path d="M49.0574 128.448C49.2845 128.57 49.5021 128.715 49.5491 128.868C49.7375 129.348 47.6355 128.782 48.0061 128.298C48.1296 128.137 48.6883 128.265 49.0574 128.448Z" fill="#893B2B"/>
<path fill-rule="evenodd" clip-rule="evenodd" d="M22.7469 109.877C22.8203 109.938 22.8953 109.996 22.9718 110.052C22.8971 109.995 22.8221 109.937 22.7469 109.877Z" fill="#E5A551"/>
<path d="M34.3599 106.381C37.9126 102.079 38.4734 96.6713 35.6124 94.301C36.2262 94.5121 37.7404 95.7961 38.8879 99.2436C40.3222 103.553 36.3779 109.179 33.7483 110.615C31.1613 112.029 27.523 113.519 22.9718 110.052C25.8738 112.165 30.8984 110.571 34.3599 106.381Z" fill="#E5A551"/>
<path fill-rule="evenodd" clip-rule="evenodd" d="M22.7469 109.877C22.8203 109.938 22.8953 109.996 22.9718 110.052C22.8971 109.995 22.8221 109.937 22.7469 109.877Z" fill="#F6C27F"/>
<path d="M36.856 101.993C37.9169 98.8945 37.5467 95.9035 35.6124 94.301C36.1815 94.4967 37.525 95.615 38.6322 98.5253C38.6189 99.7702 37.4425 101.356 36.856 101.993Z" fill="#F6C27F"/>
<path fill-rule="evenodd" clip-rule="evenodd" d="M22.7469 109.877C22.8203 109.938 22.8953 109.996 22.9718 110.052C22.8971 109.995 22.8221 109.937 22.7469 109.877Z" fill="#DC9B45"/>
<path fill-rule="evenodd" clip-rule="evenodd" d="M29.2064 110.306C30.8797 109.661 33.9396 108.918 32.7921 111.109C30.2928 112.311 26.9877 113.111 22.9718 110.052C24.5992 111.237 26.894 111.256 29.2064 110.306Z" fill="#DC9B45"/>
<ellipse rx="10.1011" ry="6.72707" transform="matrix(-0.636838 0.770998 0.77006 0.637972 29.1791 102.089)" fill="#F4B461"/>
<path fill-rule="evenodd" clip-rule="evenodd" d="M35.6119 94.301C37.5966 95.9452 37.9346 99.0516 36.7694 102.236C37.0135 97.7328 36.7817 97.7355 32.5323 97.7851C32.0376 97.7908 31.4884 97.7972 30.8792 97.7972C26.3068 97.7972 27.4442 95.8306 28.3119 94.3304C28.3311 94.2971 28.3502 94.2641 28.3691 94.2313C31.0463 92.8774 33.7987 92.7988 35.6119 94.301Z" fill="#F6C27F"/>
<path fill-rule="evenodd" clip-rule="evenodd" d="M29.2058 110.305C26.7848 111.301 24.3829 111.233 22.7463 109.877C20.0962 107.681 20.3821 102.879 23.2622 98.7647C21.9366 102.754 21.2694 110.648 29.2058 110.305Z" fill="#E5A551"/>
<path d="M27.7809 106.464C28.4082 105.821 29.8076 106.042 29.7022 107.554C29.6071 108.521 28.8949 109.585 28.3151 109.744C28.0438 109.855 27.7353 109.904 27.4904 109.636C27.3573 109.555 27.304 109.326 27.1921 109.14C28.3517 108.821 29.4631 107.999 29.2066 106.307C29.5588 108.018 28.389 108.883 27.1921 109.14C27.1549 109.078 27.1761 108.972 27.1388 108.91C26.9626 108.054 27.2705 107.02 27.7809 106.464Z" fill="#893B2B"/>
<path d="M29.2064 106.307C29.4629 108 28.3515 108.821 27.1919 109.14C27.1546 109.078 27.1758 108.972 27.1385 108.91C26.9623 108.054 27.2702 107.02 27.7806 106.464C28.2862 105.884 28.9418 106.118 29.2064 106.307Z" fill="#A34633"/>
<path d="M27.6221 96.8433C27.8089 96.8568 27.9957 96.8704 28.1825 96.884C29.2312 97.0976 30.4039 98.19 29.2991 98.7504C29.0401 98.8689 28.7222 98.9373 28.3419 99.0012C28.4141 98.8692 28.4863 98.7371 28.5585 98.605C28.4835 97.9129 28.4674 97.2709 27.6221 96.8433Z" fill="#893B2B"/>
<path d="M26.0312 98.1003C25.9838 97.9139 26.0609 97.6907 26.1953 97.5174C26.5314 97.0843 27.1573 96.8553 27.7668 96.8539C28.5856 97.3252 28.6 97.9669 28.6144 98.6085C28.5439 98.7407 28.534 98.8772 28.4029 99.005C27.7902 99.0519 27.1267 98.9579 26.655 98.7406C26.3619 98.582 26.072 98.3779 26.0312 98.1003Z" fill="#A34633"/>
<path d="M35.7844 98.0561C36.1907 98.5636 36.4054 99.14 35.8853 99.4045C35.5881 99.5556 35.209 99.3484 34.8065 99.0389C35.3538 99.0749 35.7215 98.6879 35.7844 98.0561Z" fill="#893B2B"/>
<path d="M35.8214 98.0918C35.7585 98.7237 35.3478 99.1039 34.8435 99.0747C34.6364 98.8943 34.4176 98.6628 34.2301 98.3868C33.9762 98.0017 33.7966 97.5788 33.8984 97.2986C34.0786 96.6356 35.2276 97.3083 35.8214 98.0918Z" fill="#A34633"/>
<path d="M34.3173 102.736C34.479 102.807 34.6406 102.877 34.7416 102.998C34.4649 103.778 33.8717 104.548 33.0698 104.944C32.9082 104.874 32.7466 104.803 32.7063 104.631C32.7806 104.227 32.8886 103.862 33.0236 103.407C33.3808 102.971 33.8997 102.606 34.3173 102.736Z" fill="#A34633"/>
<path d="M22.8668 104.656C22.9709 103.644 24.3475 104.538 23.7782 105.598C23.576 105.962 23.2491 105.797 23.0233 105.451C22.9171 105.247 22.8374 104.924 22.8668 104.656Z" fill="#A34633"/>
<path d="M27.8463 101.802C28.0634 101.683 28.3115 101.602 28.5412 101.726C29.2675 102.068 28.0775 103.821 27.4438 102.833C27.2325 102.504 27.5176 102.013 27.8463 101.802Z" fill="#893B2B"/>
<path fill-rule="evenodd" clip-rule="evenodd" d="M53.4784 81.4603C54.2298 81.2456 54.941 80.9012 55.586 80.4205C54.8686 80.8548 54.1653 81.1984 53.4784 81.4603Z" fill="#E5A551"/>
<path d="M43.9113 64.7096C40.4132 67.3169 40.1908 72.9475 43.4147 77.2859C46.0442 80.8245 50.1542 82.4105 53.4784 81.4603C45.6698 84.4376 39.9881 76.8584 40.0958 71.9991C40.1895 67.7696 42.6785 65.3772 43.9113 64.7096Z" fill="#E5A551"/>
<path fill-rule="evenodd" clip-rule="evenodd" d="M53.4784 81.4603C54.2298 81.2456 54.941 80.9012 55.586 80.4205C54.8686 80.8548 54.1653 81.1984 53.4784 81.4603Z" fill="#DC9B45"/>
<path fill-rule="evenodd" clip-rule="evenodd" d="M42.2747 77.9814C41.4209 76.8431 42.6017 76.2701 43.3243 77.1627C43.3541 77.2039 43.3843 77.2449 43.4147 77.2859C46.0442 80.8245 50.1542 82.4105 53.4784 81.4603C48.6334 83.3076 44.6072 81.0909 42.2747 77.9814Z" fill="#DC9B45"/>
<ellipse rx="9.78685" ry="7.8997" transform="matrix(-0.596447 -0.802652 -0.801795 0.597599 49.7486 72.5651)" fill="#F4B461"/>
<path fill-rule="evenodd" clip-rule="evenodd" d="M55.586 80.4205C52.0878 83.0278 46.6386 81.6243 43.4147 77.2859C50.4737 82.7353 55.9087 79.7855 57.7438 77.6295C57.2814 78.7324 56.5609 79.6939 55.586 80.4205Z" fill="#E5A551"/>
<path d="M43.9113 64.7096C46.022 63.1365 48.843 63.0234 51.4569 64.1342C56.4932 67.8442 56.0482 72.3744 52.3939 71.5299C51.0558 71.2206 49.6453 70.6497 48.2876 70.1001C45.0105 68.7735 42.0408 67.5713 41.1381 70.4742C41.1982 68.1486 42.1301 66.0372 43.9113 64.7096Z" fill="#F6C27F"/>
<path d="M56.1435 75.2808C56.6056 75.8538 56.7155 76.6158 55.7254 77.2447C55.1597 77.6041 54.6124 77.4665 54.0703 77.187C54.9752 76.9935 55.7623 76.2508 56.1435 75.2808Z" fill="#893B2B"/>
<path d="M56.1921 75.3158C55.8109 76.2859 54.9544 77.0379 54.1189 77.222C53.8492 77.0467 53.5821 76.8005 53.387 76.4738C53.1278 76.0145 53.0101 75.4654 53.3035 75.0018C53.8955 73.9324 55.5349 74.4162 56.1921 75.3158Z" fill="#A34633"/>
<path d="M47.3486 75.743C47.4484 75.8864 47.5482 76.0298 47.648 76.1731C48.0786 77.0797 47.7547 78.7261 46.5597 78.3532C46.2918 78.2562 46.0356 78.08 45.746 77.8561C45.9142 77.8097 46.0823 77.7633 46.2505 77.7169C46.8584 77.1505 47.4546 76.6632 47.3486 75.743Z" fill="#893B2B"/>
<path d="M45.2029 75.5401C45.3503 75.368 45.6076 75.2576 45.8522 75.2251C46.4638 75.1439 47.0575 75.4209 47.4264 75.8549C47.4752 76.789 46.8782 77.275 46.2811 77.761C46.1138 77.8086 45.9789 77.9028 45.7792 77.9039C45.3654 77.5013 45.054 76.958 44.9747 76.4601C44.9476 76.1333 44.9655 75.775 45.2029 75.5401Z" fill="#A34633"/>
<path d="M46.4338 67.1876C46.48 67.3543 46.5262 67.521 46.4965 67.6728C45.7334 67.943 44.7822 67.966 43.9863 67.5993C43.9401 67.4326 43.8939 67.2659 43.9996 67.1291C44.353 66.9359 44.6966 66.7934 45.126 66.6151C45.6776 66.6185 46.2754 66.7887 46.4338 67.1876Z" fill="#A34633"/>
<path d="M51.3464 77.4332C51.6626 77.3016 52.6257 78.3148 51.9266 78.1773C51.6935 78.1315 51.4038 77.8807 51.3381 77.7224C51.2723 77.564 51.244 77.4615 51.3464 77.4332Z" fill="#893B2B"/>
<path d="M43.5619 69.6606C45.1521 68.6201 45.477 71.6755 43.2691 72.096C42.5035 72.2303 42.3577 71.5606 42.5946 70.8237C42.7642 70.4297 43.1388 69.9335 43.5619 69.6606Z" fill="#A34633"/>
<path d="M54.3416 67.6622C55.073 67.6056 55.8957 68.3807 55.0868 69.1548C54.5511 69.6367 53.5575 69.883 53.094 69.6986C52.8594 69.632 52.6304 69.5142 52.5981 69.2541C52.5492 69.1477 52.6258 68.9978 52.6424 68.844C53.5695 69.2128 54.71 69.2856 55.3666 68.2437C54.7645 69.3407 53.564 69.2641 52.6424 68.844C52.648 68.7928 52.7135 68.7453 52.7191 68.6941C53.0202 68.1456 53.7303 67.7264 54.3416 67.6622Z" fill="#893B2B"/>
<path d="M55.3671 68.2439C54.7105 69.2858 53.5701 69.213 52.643 68.8442C52.6485 68.793 52.7141 68.7455 52.7196 68.6943C53.0207 68.1458 53.7308 67.7266 54.3421 67.6624C54.9616 67.5834 55.2836 68.0171 55.3671 68.2439Z" fill="#A34633"/>
<path d="M51.9137 71.9562C52.1374 72.0486 52.352 72.1878 52.3994 72.4394C52.5882 73.2034 50.5222 73.3786 50.8815 72.2862C51.0013 71.9221 51.5502 71.8362 51.9137 71.9562Z" fill="#893B2B"/>
<path d="M47.609 70.6384C48.1233 70.496 49.4557 72.3822 48.3937 72.0109C48.0188 71.8559 47.6271 71.3728 47.5323 71.0294C47.4069 70.8423 47.4376 70.6859 47.609 70.6384Z" fill="#A34633"/>
<path d="M48.5059 65.6142C48.4747 64.4627 50.1182 65.6918 49.6445 66.8317C49.4744 67.2218 49.091 66.9845 48.7925 66.5522C48.6463 66.3026 48.5122 65.9189 48.5059 65.6142Z" fill="#A34633"/>
<defs>
<clipPath id="clip0_128_4134">
<rect width="144" height="144" fill="white" transform="translate(82 9)"/>
</clipPath>
<clipPath id="clip1_128_4134">
<rect width="37" height="33" fill="white" transform="matrix(1 0 0.00125517 0.999999 135 55)"/>
</clipPath>
</defs>
</svg>
