<svg width="248" height="184" viewBox="0 0 248 184" fill="none" xmlns="http://www.w3.org/2000/svg">
<path d="M117.274 89.6598C117.274 89.6598 116.814 84.2165 115.334 83.6315C114.834 83.4332 113.434 84.6726 113.434 84.6726L114.814 91.8311L117.274 89.6598Z" fill="#961222"/>
<path d="M114.333 100.031L50.5029 113.515L77.7729 181.69L144.253 163.129L207.723 148.396L163.293 91.9402L114.333 100.031Z" fill="#5161BF"/>
<path d="M52.8535 104.165V117.828L78.0635 180.569V163.674L52.8535 104.165Z" fill="#FFDF70"/>
<path d="M50.5029 118.542V113.515L77.7729 181.69L144.253 163.129L142.983 165.648L77.3429 184L50.5029 118.542Z" fill="#15228C"/>
<path d="M77.3428 184L77.7728 181.69L144.253 163.129L142.983 165.648L77.3428 184Z" fill="#111D63"/>
<path d="M207.723 148.396L145.443 162.861L147.693 164.567L207.723 151.449V148.396Z" fill="#111D63"/>
<path d="M204.093 136.26C204.093 136.26 154.133 137.876 149.143 142.823C144.153 147.771 144.243 153.075 144.243 153.075C144.243 153.075 140.793 140.305 118.853 145.342C96.9128 150.379 102.243 159.223 78.0527 163.684V180.589L145.433 162.871L206.443 148.703C206.453 148.683 200.103 140.206 204.093 136.26Z" fill="#F29A61"/>
<path d="M78.0625 167.105V180.569L145.443 162.852C145.443 162.852 124.452 168.374 100.062 169.455C90.8725 169.871 83.5625 168.731 78.0625 167.105Z" fill="#F2A261"/>
<path d="M203.932 144.321C184.962 153.462 145.442 162.851 145.442 162.851L206.452 148.683C206.452 148.683 205.012 146.76 203.932 144.321Z" fill="#F2A261"/>
<path d="M113.782 95.3509L144.422 154.503L204.092 136.25L167.462 88.698C167.462 88.698 111.612 80.7859 113.782 95.3509Z" fill="#F2B085"/>
<path d="M133.914 154.721C115.304 157.706 78.0635 163.674 78.0635 163.674L52.8535 104.165L113.784 95.3608L144.423 154.513C144.423 154.503 140.114 153.73 133.914 154.721Z" fill="#BA9E6C"/>
<path d="M133.914 154.721C122.984 156.476 109.404 152.897 96.9435 154.9C88.1835 156.308 78.0635 163.674 78.0635 163.674L52.8535 104.165L61.0035 98.9699L113.784 95.3608L144.423 154.513C144.423 154.503 140.114 153.73 133.914 154.721Z" fill="#DEC183"/>
<path d="M160.113 77.3653C160.113 77.3653 159.843 77.9106 158.953 78.1089C155.523 78.8724 142.683 81.5097 129.113 82.5905C113.243 83.8497 113.793 95.3608 113.793 95.3608L144.433 154.513C144.433 154.513 143.173 146.561 151.153 141.733C159.123 136.894 180.073 134.852 186.783 130.965C193.763 126.92 193.403 125.036 193.403 125.036L160.113 77.3653Z" fill="#FDF8F0"/>
<path d="M145.443 162.861C145.443 162.861 146.463 156.109 145.443 155.306C144.423 154.513 144.423 154.513 144.423 154.513C144.423 154.513 144.033 155.039 144.033 156.486C144.033 157.934 144.253 163.139 144.253 163.139L145.443 162.861Z" fill="#F4783B"/>
<path d="M119.473 93.9331L118.943 93.7943C118.963 93.7348 120.733 87.4983 129.063 86.2887C134.843 85.4459 141.203 85.7831 146.323 86.0607C148.543 86.1797 150.643 86.2887 152.393 86.2887C158.013 86.2887 160.543 84.3256 160.563 84.3057L160.903 84.7222C160.793 84.8114 158.223 86.8241 152.393 86.8241C150.633 86.8241 148.523 86.715 146.293 86.5961C141.203 86.3284 134.873 85.9913 129.143 86.8241C121.173 87.9842 119.493 93.8736 119.473 93.9331Z" fill="#8D92AD"/>
<path d="M121.253 96.749L120.723 96.6101C120.743 96.5507 122.513 90.3241 130.843 89.1046C136.623 88.2618 142.983 88.5989 148.103 88.8765C150.323 88.9955 152.423 89.1046 154.173 89.1046C159.793 89.1046 162.323 87.1414 162.343 87.1216L162.683 87.538C162.573 87.6273 160.003 89.64 154.173 89.64C152.413 89.64 150.303 89.5309 148.073 89.4119C142.983 89.1442 136.653 88.8071 130.923 89.64C122.943 90.8 121.263 96.6895 121.253 96.749Z" fill="#8D92AD"/>
<path d="M123.102 99.6144L122.572 99.4756C122.592 99.4161 124.362 93.1796 132.692 91.97C138.472 91.1272 144.832 91.4643 149.952 91.7419C152.172 91.8609 154.272 91.97 156.022 91.97C161.642 91.97 164.172 90.0068 164.192 89.987L164.532 90.4034C164.422 90.4926 161.852 92.5054 156.022 92.5054C154.262 92.5054 152.152 92.3963 149.922 92.2773C144.832 92.0096 138.502 91.6725 132.772 92.5054C124.802 93.6654 123.122 99.5549 123.102 99.6144Z" fill="#8D92AD"/>
<path d="M124.953 102.311L124.423 102.172C124.443 102.113 126.213 95.8863 134.543 94.6767C140.323 93.8339 146.683 94.171 151.803 94.4487C154.023 94.5676 156.123 94.6767 157.873 94.6767C163.493 94.6767 166.023 92.7136 166.043 92.6937L166.383 93.1101C166.273 93.1994 163.703 95.2121 157.873 95.2121C156.113 95.2121 154.003 95.103 151.773 94.9841C146.683 94.7164 140.353 94.3792 134.623 95.2121C126.643 96.3622 124.963 102.252 124.953 102.311Z" fill="#8D92AD"/>
<path d="M126.852 106.376L126.322 106.237C126.342 106.178 128.112 99.9416 136.442 98.7319C142.222 97.8892 148.582 98.2263 153.702 98.5039C155.922 98.6229 158.022 98.7319 159.772 98.7319C165.392 98.7319 167.922 96.7688 167.942 96.749L168.282 97.1654C168.172 97.2546 165.602 99.2673 159.772 99.2673C158.012 99.2673 155.902 99.1583 153.672 99.0393C148.582 98.7716 142.252 98.4345 136.522 99.2673C128.552 100.427 126.872 106.317 126.852 106.376Z" fill="#8D92AD"/>
<path opacity="0.13" d="M141.922 85.5848C141.342 85.5848 123.562 83.9687 122.612 88.6881C121.662 93.4076 143.202 134.693 151.992 135.615C161.152 136.577 163.092 136.537 169.672 128.873C175.962 121.536 158.242 85.5848 141.922 85.5848Z" fill="#DBD9D5"/>
<path d="M78.0625 165.687L115.812 160.432L78.0625 166.5V165.687Z" fill="#F4783B"/>
<path d="M78.0625 168.384L133.763 159.748L78.0625 169.465V168.384Z" fill="#F4783B"/>
<path d="M78.0625 172.568L139.932 161.642L78.0625 173.778V172.568Z" fill="#F4783B"/>
<path d="M202.773 139.819C193.763 142.357 157.723 152.947 157.723 152.947L202.873 140.9C202.823 140.533 202.783 140.166 202.773 139.819Z" fill="#F4783B"/>
<path d="M203.084 141.901L165.184 153.284L203.264 142.546C203.194 142.328 203.134 142.119 203.084 141.901Z" fill="#F4783B"/>
<path d="M204.463 145.441C197.403 147.166 168.293 154.9 168.293 154.9L204.843 146.145C204.713 145.917 204.593 145.679 204.463 145.441Z" fill="#F4783B"/>
<path d="M58.9023 96.6498L80.9724 161.156C80.9724 161.156 97.8324 141.554 109.442 141.554C121.052 141.554 144.432 154.503 144.432 154.503L113.732 94.2702C113.722 94.2702 96.1923 68.3824 58.9023 96.6498Z" fill="#F3F3EB"/>
<path opacity="0.13" d="M85.4831 89.63C83.0331 89.63 71.8832 90.9784 70.2532 98.8013C68.6232 106.624 81.6731 144.162 86.8431 144.162C92.0131 144.162 98.2032 140.246 101.663 136.815C105.123 133.375 94.7331 89.63 85.4831 89.63Z" fill="white"/>
<path d="M66.1826 99.8424L65.8926 99.3863C81.8226 89.4119 91.2326 87.3496 110.523 95.4204L110.313 95.9161C91.2526 87.9445 82.0226 89.9176 66.1826 99.8424Z" fill="#8D92AD"/>
<path d="M67.5634 102.162L67.2734 101.706C83.2534 91.7022 92.6634 89.6994 111.903 97.7404L111.693 98.2362C92.5935 90.2547 83.3634 92.2674 67.5634 102.162Z" fill="#8D92AD"/>
<path d="M69.1924 104.988L68.9023 104.532C84.8423 94.5478 94.2623 92.5053 113.532 100.566L113.322 101.062C94.2624 93.0903 85.0324 95.0733 69.1924 104.988Z" fill="#8D92AD"/>
<path d="M71.123 108.359L70.833 107.903C86.733 97.9486 96.143 95.8566 115.463 103.937L115.253 104.433C96.183 96.4614 86.963 98.4345 71.123 108.359Z" fill="#8D92AD"/>
<path d="M110.412 88.2023C110.892 104.165 136.922 139.799 136.922 139.799L135.812 133.593L141.702 135.258C133.442 128.824 109.842 86.5366 115.182 83.6117C115.182 83.6117 110.292 84.1669 110.412 88.2023Z" fill="#ED1B3E"/>
<path d="M72.0723 153.185L78.0623 165.687V166.5L72.0723 153.185Z" fill="#F4783B"/>
<path d="M78.0627 168.384L74.4727 161.354L78.0627 169.465V168.384Z" fill="#F4783B"/>
<path d="M78.0634 172.568L65.0234 142.903L78.0634 173.778V172.568Z" fill="#F4783B"/>
<path d="M53.8465 59.8891C57.1801 60.7877 59.5203 58.1626 60.3469 55.1483C61.1734 52.134 60.491 48.713 57.1573 47.8144C53.8061 46.9111 51.4882 49.5234 50.6617 52.5377C49.8352 55.552 50.4953 58.9858 53.8465 59.8891ZM54.4519 57.6809C52.7676 57.2269 52.5972 55.3743 53.1883 53.2187C53.7793 51.0632 54.8675 49.5686 56.5518 50.0226C58.2187 50.4719 58.3938 52.307 57.8028 54.4625C57.2117 56.6181 56.1188 58.1302 54.4519 57.6809Z" fill="#686C90"/>
<path d="M78.2354 66.2372L85.3161 57.456L85.7918 55.721L77.0015 53.3516L76.4009 55.5422L82.2962 57.1313L75.4983 65.4994L78.2354 66.2372Z" fill="#686C90"/>
<path d="M96.5048 63.8029L96.8862 62.412L89.0654 60.3039L88.6841 61.6948L96.5048 63.8029ZM95.6133 67.054L95.9852 65.6979L88.1644 63.5899L87.7926 64.946L95.6133 67.054Z" fill="#686C90"/>
<path d="M101.787 68.8222L104.369 68.7656C104.204 68.5093 104.131 68.0896 104.227 67.7391C104.731 65.899 108.46 66.6453 109.337 63.447C109.896 61.4097 108.553 59.5188 105.724 58.7562C103.838 58.2478 101.873 58.5415 100.339 59.5864L101.568 62.0587C102.471 61.4314 103.542 61.1321 104.638 61.4277C105.845 61.7528 106.193 62.4583 106.007 63.1374C105.592 64.6489 102.306 64.0925 101.591 66.6993C101.381 67.4661 101.464 68.1942 101.787 68.8222ZM101.548 73.8157C102.513 74.0759 103.547 73.4841 103.811 72.5202C104.075 71.5563 103.486 70.5271 102.521 70.267C101.556 70.0068 100.522 70.5986 100.258 71.5625C99.9936 72.5264 100.583 73.5556 101.548 73.8157Z" fill="#3790EC"/>
<path d="M69.5856 62.0545L67.9869 57.9267L64.5004 60.6838L62.9924 60.2773L67.4187 56.84L65.4703 51.9271L66.9958 52.3383L68.4684 56.1707L71.6953 53.605L73.2209 54.0163L69.0319 57.2748L71.1112 62.4657L69.5856 62.0545Z" fill="#686C90"/>
<ellipse cx="244" cy="110.58" rx="3.5" ry="3.47021" fill="#34C759"/>
<path d="M47.4759 136.186L43.0614 157.202L26.9125 142.904L47.4759 136.186Z" fill="#F4B461"/>
<path d="M226.368 118.156L230.388 125.198L226.247 132.17L218.086 132.101L214.067 125.059L218.208 118.087L226.368 118.156Z" fill="#F4B461"/>
<path d="M214.5 95.2121L216.152 100.135H221.5L217.174 103.178L218.826 108.101L214.5 105.059L210.174 108.101L211.826 103.178L207.5 100.135H212.848L214.5 95.2121Z" fill="#3790EC"/>
<path d="M162.884 8.57251C174.482 0.125222 201.213 -5.49928 199.937 8.57251C199.579 12.5112 196.518 14.0691 196.178 18.0092C195.28 28.3999 211.901 24.9804 213.362 35.3099C214.931 46.4055 202.684 51.1724 199.937 62.0473C197.677 70.9923 203.626 77.1591 199.937 85.6391C195.507 95.8221 188.264 100.376 177.383 103.464C160.625 108.22 148.362 99.7721 135.497 88.2604C127.128 80.7725 114.554 55.0802 123.683 44.7466C132.383 34.8982 141.149 43.7164 150.533 35.3099C159.177 27.5655 153.48 15.4217 162.884 8.57251Z" fill="white"/>
<path d="M147.163 83.9839V75.4568H149.319V83.9839H147.163ZM143.977 80.7983V78.6424H152.504V80.7983H143.977ZM159.508 86.0314C158.657 86.0314 157.898 85.8748 157.231 85.5617C156.569 85.2485 156.043 84.817 155.654 84.267C155.264 83.717 155.062 83.0867 155.045 82.3761H157.575C157.603 82.8538 157.804 83.2412 158.177 83.5383C158.55 83.8354 158.994 83.9839 159.508 83.9839C159.917 83.9839 160.279 83.8936 160.592 83.7129C160.909 83.5283 161.156 83.2733 161.332 82.9481C161.513 82.6189 161.603 82.2416 161.603 81.816C161.603 81.3824 161.511 81.001 161.326 80.6718C161.146 80.3426 160.895 80.0857 160.574 79.901C160.252 79.7163 159.885 79.622 159.472 79.618C159.11 79.618 158.759 79.6923 158.418 79.8408C158.081 79.9893 157.818 80.1921 157.629 80.449L155.31 80.0335L155.895 73.5297H163.434V75.6615H158.044L157.725 78.7508H157.798C158.014 78.4457 158.341 78.1928 158.779 77.992C159.217 77.7913 159.706 77.6909 160.248 77.6909C160.991 77.6909 161.654 77.8656 162.236 78.2149C162.818 78.5641 163.278 79.0439 163.615 79.6541C163.952 80.2603 164.119 80.9589 164.115 81.7498C164.119 82.5808 163.926 83.3195 163.536 83.9659C163.151 84.6082 162.611 85.1141 161.917 85.4834C161.226 85.8487 160.423 86.0314 159.508 86.0314ZM170.769 86.1338C169.733 86.1298 168.842 85.8748 168.095 85.369C167.352 84.8631 166.78 84.1305 166.379 83.171C165.981 82.2115 165.785 81.0572 165.789 79.7083C165.789 78.3634 165.987 77.2172 166.385 76.2697C166.786 75.3223 167.358 74.6017 168.101 74.1079C168.848 73.61 169.737 73.3611 170.769 73.3611C171.801 73.3611 172.688 73.61 173.431 74.1079C174.177 74.6057 174.751 75.3283 175.153 76.2758C175.554 77.2192 175.753 78.3634 175.749 79.7083C175.749 81.0613 175.548 82.2175 175.147 83.177C174.749 84.1365 174.179 84.8692 173.437 85.375C172.694 85.8809 171.805 86.1338 170.769 86.1338ZM170.769 83.9719C171.475 83.9719 172.04 83.6166 172.461 82.906C172.883 82.1954 173.091 81.1295 173.087 79.7083C173.087 78.7729 172.991 77.994 172.798 77.3718C172.61 76.7495 172.341 76.2818 171.991 75.9686C171.646 75.6555 171.239 75.4989 170.769 75.4989C170.066 75.4989 169.504 75.8502 169.083 76.5528C168.661 77.2554 168.448 78.3072 168.444 79.7083C168.444 80.6558 168.539 81.4467 168.727 82.081C168.92 82.7113 169.191 83.185 169.54 83.5022C169.89 83.8153 170.299 83.9719 170.769 83.9719Z" fill="#3790EC"/>
<ellipse rx="11.2351" ry="6.94944" transform="matrix(-0.905522 -0.4243 -0.441183 0.897417 162.109 55.7504)" fill="#F4B461"/>
<path fill-rule="evenodd" clip-rule="evenodd" d="M151.623 51.8315C151.697 51.5407 151.801 51.2573 151.935 50.9834C153.434 47.9355 158.248 47.0695 163.229 48.7347C161.31 50.7043 158.741 50.6976 156.417 50.6914C154.475 50.6863 152.703 50.6816 151.623 51.8315Z" fill="#F6C27F"/>
<path d="M169.739 52.6202C172.331 55.1462 173.434 58.1747 172.283 60.5174C170.979 63.1692 167.166 64.1694 162.916 63.2878C173.637 59.9379 172.022 54.8951 169.739 52.6202Z" fill="#E5A551"/>
<path d="M158.02 64.0659C152.402 61.4331 149.55 55.8344 151.651 51.5609C151.704 51.4538 151.759 51.3486 151.817 51.2451C150.403 54.6733 153.565 59.4202 159.042 61.987C164.52 64.5538 170.292 63.9927 172.147 60.7712C172.1 60.8799 172.051 60.9879 171.998 61.095C169.897 65.3685 163.639 66.6986 158.02 64.0659Z" fill="#E5A551"/>
<path fill-rule="evenodd" clip-rule="evenodd" d="M151.682 54.4591C151.545 55.2199 151.219 56.4689 151.004 55.3786C150.862 54.0649 151.061 52.7607 151.651 51.5609C151.704 51.4538 151.759 51.3486 151.817 51.2451C151.408 52.2346 151.382 53.334 151.682 54.4591Z" fill="#F6C27F"/>
<path fill-rule="evenodd" clip-rule="evenodd" d="M161.718 65.2302C161.64 64.2843 162.491 63.5427 162.926 63.2902C167.033 64.1391 170.731 63.2302 172.147 60.7712C172.1 60.8799 172.051 60.9879 171.998 61.095C170.353 64.4414 166.159 65.983 161.718 65.2302Z" fill="#DC9B45"/>
<path d="M169.583 56.7039C170.224 57.0053 170.709 57.4617 170.32 57.9568C170.098 58.2398 169.625 58.2152 169.081 58.1029C169.639 57.8847 169.819 57.3419 169.583 56.7039Z" fill="#893B2B"/>
<path d="M169.636 56.721C169.873 57.3591 169.647 57.9152 169.134 58.12C168.844 58.0419 168.518 57.9198 168.202 57.7404C167.769 57.4866 167.392 57.162 167.36 56.8449C167.225 56.1227 168.679 56.2402 169.636 56.721Z" fill="#A34633"/>
<path d="M164.642 59.3416C164.82 59.4413 164.998 59.541 165.177 59.6406C166.125 60.3116 166.859 61.7533 165.558 61.6828C165.258 61.6558 164.919 61.5603 164.521 61.4315C164.643 61.3588 164.764 61.2861 164.886 61.2133C165.078 60.6171 165.308 60.0894 164.642 59.3416Z" fill="#893B2B"/>
<path d="M162.596 59.6048C162.621 59.4312 162.782 59.2869 162.981 59.2104C163.477 59.019 164.181 59.1307 164.78 59.419C165.405 60.19 165.172 60.7168 164.94 61.2437C164.82 61.3173 164.758 61.4232 164.58 61.4645C163.96 61.2115 163.344 60.8202 162.963 60.42C162.736 60.1522 162.529 59.8491 162.596 59.6048Z" fill="#A34633"/>
<path d="M155.256 51.8541C155.382 51.997 155.509 52.1399 155.551 52.3036C154.908 52.9272 153.956 53.3949 152.974 53.4054C152.848 53.2625 152.721 53.1196 152.763 52.9352C153.028 52.5792 153.308 52.2778 153.658 51.901C154.218 51.6464 154.905 51.5346 155.256 51.8541Z" fill="#A34633"/>
<path d="M164.338 57.2705C164.595 56.9925 166.055 57.5425 165.281 57.7338C165.023 57.7975 164.61 57.6854 164.468 57.5598C164.325 57.4343 164.248 57.3463 164.338 57.2705Z" fill="#893B2B"/>
<path d="M157.834 57.3299C158.416 56.4031 159.354 57.9017 158.289 58.6594C157.917 58.9163 157.672 58.606 157.613 58.1674C157.604 57.9224 157.678 57.5744 157.834 57.3299Z" fill="#A34633"/>
<path d="M165.889 51.2333C166.754 51.3764 167.579 52.3908 166.496 52.9564C165.784 53.2998 164.579 53.2777 164.069 52.9629C163.807 52.8308 163.56 52.6481 163.568 52.3745C163.53 52.2529 163.646 52.1214 163.693 51.9695C164.711 52.5992 166.032 52.9861 166.984 52.1062C166.086 53.0571 164.696 52.6498 163.693 51.9695C163.708 51.9189 163.793 51.8886 163.809 51.838C164.258 51.3625 165.163 51.1309 165.889 51.2333Z" fill="#893B2B"/>
<path d="M166.984 52.1063C166.032 52.9862 164.712 52.5992 163.693 51.9696C163.708 51.919 163.794 51.8887 163.809 51.8381C164.258 51.3626 165.163 51.1309 165.889 51.2334C166.627 51.3229 166.927 51.8526 166.984 52.1063Z" fill="#A34633"/>
<path d="M160.303 53.3931C160.574 53.3797 160.857 53.4166 161.026 53.6426C161.582 54.308 159.575 55.4469 159.416 54.2013C159.363 53.7861 159.878 53.4447 160.303 53.3931Z" fill="#893B2B"/>
<path d="M157.689 49.3981C158.142 49.0171 160.392 50.2546 159.14 50.385C158.686 50.4074 158.059 50.1141 157.799 49.8196C157.582 49.6937 157.538 49.5251 157.689 49.3981Z" fill="#A34633"/>
<path d="M183.127 49.9752C179.416 48.3963 176.59 46.709 176.814 46.2064L176.193 47.5981C175.93 48.187 177.093 49.9556 182.484 52.2493C183.933 52.8658 185.095 53.2541 186.021 53.4898C188.542 54.131 189.325 53.6432 189.434 53.5501C189.554 53.4483 190.03 52.4236 190.253 51.924C190.113 52.2384 188.811 52.0145 186.947 51.416C185.832 51.058 184.516 50.566 183.127 49.9752Z" fill="#E5A551"/>
<path fill-rule="evenodd" clip-rule="evenodd" d="M189.434 53.5501C189.325 53.6432 188.542 54.131 186.021 53.4898C184.897 52.5095 186.17 51.6988 186.947 51.416C188.811 52.0145 190.113 52.2384 190.253 51.924C190.03 52.4236 189.554 53.4483 189.434 53.5501Z" fill="#DC9B45"/>
<ellipse rx="7.30229" ry="1.42008" transform="matrix(-0.920182 -0.391492 -0.40761 0.913156 183.568 48.9888)" fill="#F4B461"/>
<path fill-rule="evenodd" clip-rule="evenodd" d="M178.609 48.0183C177.37 47.2092 176.679 46.5092 176.848 46.13C177.117 45.5285 179.465 45.9255 182.409 47.0036C183.055 48.0499 181.434 47.5446 179.896 47.0654C178.096 46.5045 176.411 45.9793 178.609 48.0183Z" fill="#F6C27F"/>
<path fill-rule="evenodd" clip-rule="evenodd" d="M190.287 51.8476C190.087 52.2958 188.733 52.1896 186.838 51.6606C189.806 51.8421 188.715 50.3013 187.799 49.5083C189.486 50.5032 190.487 51.3994 190.287 51.8476Z" fill="#E5A551"/>
<path d="M183.321 48.0486C183.687 48.3242 183.954 48.6511 183.701 48.8356C183.556 48.941 183.277 48.8404 182.96 48.681C183.3 48.6715 183.432 48.4235 183.321 48.0486Z" fill="#893B2B"/>
<path d="M183.352 48.0671C183.463 48.4421 183.304 48.6885 182.991 48.6995C182.823 48.6051 182.635 48.4812 182.456 48.3294C182.211 48.1173 182.002 47.8788 181.998 47.7083C181.951 47.3086 182.807 47.6397 183.352 48.0671Z" fill="#A34633"/>
<path d="M185.665 50.0374C185.757 50.0846 185.849 50.1319 185.942 50.1791C186.434 50.5016 186.833 51.2182 186.173 51.206C186.021 51.1977 185.848 51.1555 185.644 51.0975C185.704 51.0585 185.764 51.0195 185.824 50.9805C185.91 50.6752 186.017 50.4039 185.665 50.0374Z" fill="#893B2B"/>
<path d="M184.634 50.2074C184.644 50.119 184.723 50.0431 184.822 50.0007C185.069 49.8949 185.428 49.9388 185.737 50.0739C186.067 50.4529 185.96 50.7238 185.852 50.9947C185.793 51.0341 185.763 51.0888 185.674 51.1129C185.355 50.9961 185.036 50.8091 184.836 50.6134C184.716 50.4819 184.605 50.3322 184.634 50.2074Z" fill="#A34633"/>
<path d="M180.346 46.9109C180.373 47.0307 180.4 47.1505 180.373 47.2568C179.808 47.4192 179.116 47.3995 178.552 47.1096C178.524 46.9898 178.497 46.87 178.579 46.7771C178.844 46.6538 179.099 46.5658 179.418 46.4559C179.819 46.4793 180.246 46.6224 180.346 46.9109Z" fill="#A34633"/>
<path d="M188.08 49.3811C188.581 49.6191 189.052 50.2677 188.418 50.3274C188.002 50.3531 187.302 50.1065 187.008 49.8556C186.857 49.7408 186.715 49.6047 186.722 49.475C186.701 49.4091 186.769 49.3686 186.798 49.3048C187.384 49.8066 188.149 50.2509 188.709 50.0147C188.179 50.2956 187.375 49.8279 186.798 49.3048C186.807 49.2836 186.857 49.2857 186.866 49.2644C187.131 49.124 187.659 49.1897 188.08 49.3811Z" fill="#893B2B"/>
<path d="M188.709 50.0149C188.148 50.2517 187.384 49.8072 186.797 49.3051C186.806 49.2838 186.856 49.2859 186.865 49.2646C187.13 49.1239 187.658 49.1895 188.079 49.3809C188.508 49.5684 188.678 49.8817 188.709 50.0149Z" fill="#A34633"/>
<path d="M181.681 48.7989C181.834 48.8792 181.98 48.9743 182.011 49.0749C182.138 49.3897 180.724 49.0192 180.974 48.7011C181.057 48.5951 181.433 48.6794 181.681 48.7989Z" fill="#893B2B"/>
<path fill-rule="evenodd" clip-rule="evenodd" d="M164.224 40.0088C164.273 40.0487 164.324 40.087 164.375 40.1235C164.325 40.0862 164.274 40.0479 164.224 40.0088Z" fill="#E5A551"/>
<path d="M172.041 37.7146C174.433 34.8921 174.81 31.3433 172.884 29.7879C173.297 29.9264 174.317 30.769 175.089 33.0312C176.055 35.859 173.399 39.5508 171.629 40.4934C169.888 41.4208 167.439 42.3984 164.375 40.1235C166.329 41.5102 169.711 40.4645 172.041 37.7146Z" fill="#E5A551"/>
<path fill-rule="evenodd" clip-rule="evenodd" d="M164.224 40.0088C164.273 40.0487 164.324 40.087 164.375 40.1235C164.325 40.0862 164.274 40.0479 164.224 40.0088Z" fill="#F6C27F"/>
<path d="M173.721 34.8355C174.435 32.8021 174.186 30.8394 172.884 29.7879C173.267 29.9164 174.172 30.6502 174.917 32.5599C174.908 33.3768 174.116 34.4174 173.721 34.8355Z" fill="#F6C27F"/>
<path fill-rule="evenodd" clip-rule="evenodd" d="M164.224 40.0088C164.273 40.0487 164.324 40.087 164.375 40.1235C164.325 40.0862 164.274 40.0479 164.224 40.0088Z" fill="#DC9B45"/>
<path fill-rule="evenodd" clip-rule="evenodd" d="M168.572 40.2901C169.698 39.8668 171.758 39.3798 170.986 40.8173C169.303 41.6057 167.078 42.1309 164.375 40.1235C165.471 40.9011 167.015 40.9139 168.572 40.2901Z" fill="#DC9B45"/>
<ellipse rx="6.69831" ry="4.48225" transform="matrix(-0.646464 0.762945 0.777973 0.628298 168.553 34.8983)" fill="#F4B461"/>
<path fill-rule="evenodd" clip-rule="evenodd" d="M172.884 29.7879C174.22 30.8668 174.447 32.9052 173.663 34.9949C173.827 32.0399 173.671 32.0416 170.811 32.0741C170.478 32.0779 170.108 32.0821 169.698 32.0821C166.62 32.0821 167.386 30.7916 167.97 29.8072C167.983 29.7853 167.995 29.7637 168.008 29.7421C169.81 28.8537 171.663 28.8022 172.884 29.7879Z" fill="#F6C27F"/>
<path fill-rule="evenodd" clip-rule="evenodd" d="M168.571 40.29C166.942 40.9431 165.325 40.8985 164.223 40.0087C162.439 38.568 162.632 35.4169 164.57 32.717C163.678 35.3351 163.229 40.515 168.571 40.29Z" fill="#E5A551"/>
<path d="M167.612 37.769C168.034 37.3472 168.976 37.492 168.905 38.484C168.841 39.1181 168.361 39.8162 167.971 39.9209C167.788 39.9936 167.581 40.0256 167.416 39.8503C167.326 39.7972 167.29 39.6467 167.215 39.5245C167.996 39.3151 168.744 38.7763 168.571 37.6658C168.808 38.7887 168.021 39.3559 167.215 39.5245C167.19 39.4838 167.204 39.4147 167.179 39.374C167.061 38.8125 167.268 38.134 167.612 37.769Z" fill="#893B2B"/>
<path d="M168.572 37.666C168.744 38.7765 167.996 39.3153 167.216 39.5247C167.191 39.4839 167.205 39.4148 167.18 39.3741C167.061 38.8127 167.268 38.1342 167.612 37.7691C167.952 37.3889 168.394 37.5419 168.572 37.666Z" fill="#A34633"/>
<path d="M167.505 31.4562C167.631 31.4651 167.756 31.474 167.882 31.4829C168.588 31.623 169.377 32.3393 168.633 32.7068C168.459 32.7844 168.245 32.8293 167.989 32.8712C168.038 32.7846 168.086 32.698 168.135 32.6114C168.084 32.1576 168.074 31.7366 167.505 31.4562Z" fill="#893B2B"/>
<path d="M166.434 32.2806C166.402 32.1583 166.454 32.0119 166.544 31.8983C166.77 31.6142 167.192 31.464 167.602 31.463C168.153 31.7723 168.163 32.1931 168.173 32.614C168.125 32.7007 168.119 32.7903 168.03 32.8741C167.618 32.9049 167.171 32.8432 166.854 32.7006C166.656 32.5966 166.461 32.4627 166.434 32.2806Z" fill="#A34633"/>
<path d="M172.998 32.2521C173.271 32.5851 173.416 32.9631 173.066 33.1365C172.866 33.2355 172.611 33.0996 172.34 32.8965C172.709 32.9202 172.956 32.6665 172.998 32.2521Z" fill="#893B2B"/>
<path d="M173.024 32.2756C172.982 32.6896 172.706 32.9387 172.367 32.9195C172.228 32.8013 172.081 32.6496 171.955 32.4687C171.784 32.2164 171.663 31.9393 171.732 31.7557C171.853 31.3213 172.625 31.7621 173.024 32.2756Z" fill="#A34633"/>
<path d="M172.011 35.3231C172.12 35.3694 172.229 35.4156 172.297 35.495C172.111 36.0064 171.711 36.5116 171.172 36.7716C171.063 36.7254 170.954 36.6792 170.927 36.5665C170.977 36.3009 171.05 36.0619 171.141 35.7631C171.381 35.4772 171.73 35.2375 172.011 35.3231Z" fill="#A34633"/>
<path d="M164.303 36.5824C164.373 35.9194 165.298 36.5051 164.916 37.1997C164.78 37.438 164.56 37.33 164.409 37.1028C164.337 36.9696 164.284 36.758 164.303 36.5824Z" fill="#A34633"/>
<path d="M167.656 34.7097C167.802 34.6321 167.969 34.579 168.123 34.6604C168.612 34.8843 167.812 36.0348 167.385 35.3867C167.243 35.1707 167.434 34.8484 167.656 34.7097Z" fill="#893B2B"/>
<path fill-rule="evenodd" clip-rule="evenodd" d="M186.136 28.4509C186.642 28.31 187.121 28.084 187.555 27.7686C187.072 28.0536 186.598 28.2791 186.136 28.4509Z" fill="#E5A551"/>
<path d="M179.696 17.4591C177.341 19.17 177.191 22.8648 179.362 25.7117C181.132 28.0337 183.898 29.0744 186.136 28.4509C180.88 30.4046 177.055 25.4312 177.127 22.2425C177.191 19.4671 178.866 17.8972 179.696 17.4591Z" fill="#E5A551"/>
<path fill-rule="evenodd" clip-rule="evenodd" d="M186.136 28.4509C186.642 28.31 187.121 28.084 187.555 27.7686C187.072 28.0536 186.598 28.2791 186.136 28.4509Z" fill="#DC9B45"/>
<path fill-rule="evenodd" clip-rule="evenodd" d="M178.594 26.1681C178.019 25.4211 178.814 25.0451 179.301 25.6308C179.321 25.6579 179.341 25.6848 179.362 25.7117C181.132 28.0337 183.898 29.0744 186.136 28.4509C182.875 29.6631 180.164 28.2085 178.594 26.1681Z" fill="#DC9B45"/>
<ellipse rx="6.48161" ry="5.27024" transform="matrix(-0.606237 -0.795284 -0.809011 0.587794 183.625 22.6139)" fill="#F4B461"/>
<path fill-rule="evenodd" clip-rule="evenodd" d="M187.555 27.7686C185.2 29.4795 181.532 28.5586 179.362 25.7117C184.113 29.2876 187.772 27.3519 189.007 25.9371C188.696 26.6608 188.211 27.2918 187.555 27.7686Z" fill="#E5A551"/>
<path d="M179.696 17.4591C181.117 16.4269 183.016 16.3527 184.775 17.0816C188.165 19.5161 187.866 22.4888 185.406 21.9346C184.505 21.7317 183.556 21.357 182.642 20.9963C180.436 20.1258 178.437 19.337 177.829 21.2418C177.87 19.7158 178.497 18.3303 179.696 17.4591Z" fill="#F6C27F"/>
<path d="M187.93 24.3961C188.241 24.772 188.315 25.272 187.649 25.6846C187.268 25.9204 186.9 25.8302 186.535 25.6468C187.144 25.5198 187.673 25.0326 187.93 24.3961Z" fill="#893B2B"/>
<path d="M187.962 24.419C187.706 25.0554 187.129 25.5489 186.567 25.6697C186.385 25.5547 186.206 25.3931 186.074 25.1788C185.9 24.8775 185.821 24.5172 186.018 24.213C186.417 23.5115 187.52 23.8288 187.962 24.419Z" fill="#A34633"/>
<path d="M182.008 24.6989C182.075 24.793 182.142 24.887 182.209 24.9811C182.499 25.5758 182.281 26.656 181.477 26.4113C181.296 26.3477 181.124 26.2322 180.929 26.0852C181.042 26.0548 181.155 26.0244 181.269 25.9939C181.678 25.6223 182.079 25.3026 182.008 24.6989Z" fill="#893B2B"/>
<path d="M180.564 24.5657C180.663 24.4528 180.836 24.3803 181.001 24.359C181.412 24.3057 181.812 24.4874 182.06 24.7722C182.093 25.3849 181.691 25.7038 181.289 26.0227C181.177 26.0539 181.086 26.1157 180.951 26.1165C180.673 25.8523 180.463 25.4959 180.41 25.1693C180.392 24.9548 180.404 24.7198 180.564 24.5657Z" fill="#A34633"/>
<path d="M181.395 19.0852C181.426 19.1945 181.457 19.3039 181.437 19.4034C180.923 19.5806 180.283 19.5957 179.747 19.3551C179.716 19.2458 179.685 19.1364 179.756 19.0467C179.994 18.92 180.225 18.8265 180.514 18.7096C180.886 18.7119 181.288 18.8235 181.395 19.0852Z" fill="#A34633"/>
<path d="M184.701 25.8085C184.914 25.7219 185.561 26.3872 185.091 26.297C184.934 26.267 184.74 26.1023 184.695 25.9984C184.651 25.8944 184.632 25.8271 184.701 25.8085Z" fill="#893B2B"/>
<path d="M179.462 20.708C180.532 20.0252 180.751 22.0302 179.264 22.3061C178.749 22.3942 178.651 21.9547 178.81 21.4712C178.925 21.2126 179.177 20.8871 179.462 20.708Z" fill="#A34633"/>
<path d="M186.717 19.3966C187.209 19.3595 187.763 19.8679 187.219 20.3757C186.858 20.6918 186.189 20.8534 185.877 20.7324C185.719 20.6887 185.565 20.6114 185.543 20.4408C185.51 20.371 185.562 20.2727 185.573 20.1718C186.197 20.4138 186.965 20.4615 187.407 19.7781C187.002 20.4976 186.194 20.4474 185.573 20.1718C185.577 20.1382 185.621 20.1071 185.625 20.0735C185.827 19.7137 186.305 19.4387 186.717 19.3966Z" fill="#893B2B"/>
<path d="M187.407 19.7782C186.966 20.4616 186.198 20.4139 185.574 20.1719C185.578 20.1383 185.622 20.1072 185.625 20.0736C185.828 19.7138 186.306 19.4388 186.718 19.3967C187.134 19.3449 187.351 19.6294 187.407 19.7782Z" fill="#A34633"/>
<path d="M185.083 22.2143C185.233 22.275 185.378 22.3662 185.409 22.5312C185.537 23.0322 184.146 23.147 184.388 22.4307C184.469 22.192 184.838 22.1357 185.083 22.2143Z" fill="#893B2B"/>
<path d="M182.186 21.3497C182.532 21.2563 183.429 22.4932 182.714 22.2497C182.462 22.1481 182.198 21.8313 182.135 21.6061C182.05 21.4834 182.071 21.3809 182.186 21.3497Z" fill="#A34633"/>
<path d="M182.789 18.0521C182.768 17.2976 183.873 18.1031 183.555 18.85C183.441 19.1056 183.183 18.9501 182.982 18.6668C182.884 18.5032 182.794 18.2518 182.789 18.0521Z" fill="#A34633"/>
<path d="M22.3312 114.686C26.8363 116.769 30.5748 115.485 33.2388 113.629L30.3477 110.097C28.6992 111.381 26.2567 111.814 24.142 110.836C20.4337 109.121 19.0733 105.033 20.8841 101.183C22.695 97.3332 26.7286 95.7388 30.4369 97.4535C32.5516 98.4314 33.7724 100.595 33.8545 102.642L38.4558 102.538C38.2082 99.3358 36.7529 95.6869 32.2478 93.6037C26.1183 90.7694 19.3559 92.8504 16.4096 99.114C13.4634 105.378 16.2017 111.852 22.3312 114.686Z" fill="#3790EC"/>
<path d="M237.133 168.197L238.652 146.855L233.806 144.613L218.263 159.472L222.674 161.511L225.261 158.973L233.049 162.574L232.722 166.158L237.133 168.197ZM233.583 158.689L227.919 156.07L234.416 149.589L233.583 158.689Z" fill="#ED1B3E"/>
<path d="M18.049 143.226C19.5897 140.637 18.7645 138.313 16.7169 137.115C14.997 136.108 12.8926 136.444 11.806 137.759C12.3041 136.319 11.7884 134.589 10.0684 133.582C8.24605 132.516 5.79894 132.871 4.25818 135.46L-0.000126912 142.615L13.6572 150.605L18.049 143.226ZM9.34912 139.29L7.18964 142.919L4.22065 141.182L6.38014 137.553C6.96247 136.575 7.96118 136.335 8.82116 136.838C9.68114 137.341 9.93145 138.312 9.34912 139.29ZM15.0816 142.506L12.8614 146.237L9.68768 144.38L11.9078 140.65C12.5872 139.508 13.6883 139.328 14.5483 139.831C15.5311 140.406 15.7367 141.406 15.0816 142.506Z" fill="#34C759"/>
</svg>
