<svg width="127" height="126" viewBox="0 0 127 126" fill="none" xmlns="http://www.w3.org/2000/svg">
<g filter="url(#filter0_d_128_4098)">
<circle cx="63.5" cy="58.5" r="44.5" fill="white"/>
</g>
<g clip-path="url(#clip0_128_4098)">
<path d="M69.5616 58.1347L48.8401 79.7303C47.8497 78.754 47.3145 77.4148 47.3145 75.9636V42.0918C47.3145 40.6132 47.8766 39.2736 48.894 38.2697L69.5616 58.1347Z" fill="#2299F8"/>
<path d="M87.7638 58.4395C87.7638 60.4125 86.7293 62.1595 85.0151 63.1464L79.0302 66.5843L71.602 59.4822L69.5615 57.5378L77.4245 49.3932L85.0151 53.7333C86.7293 54.7203 87.7638 56.4672 87.7638 58.4395Z" fill="#FFC107"/>
<path d="M69.9391 57.4831L49.3369 37.8029C49.6036 37.526 49.9509 37.2774 50.2978 37.0563C51.9788 36.0061 54.0072 35.978 55.7415 36.9736L77.6515 49.4946L69.9391 57.4831Z" fill="#5ACF5F"/>
<path d="M79.674 66.457L55.8802 80.0149C55.0422 80.5184 54.0954 80.7416 53.1763 80.7416C52.2032 80.7416 51.23 80.4901 50.3648 79.9313C49.9857 79.7076 49.6344 79.4281 49.3369 79.1204L70.2645 57.4832L72.2922 59.4119L79.674 66.457Z" fill="#F84437"/>
</g>
<defs>
<filter id="filter0_d_128_4098" x="0.933235" y="0.449926" width="125.134" height="125.134" filterUnits="userSpaceOnUse" color-interpolation-filters="sRGB">
<feFlood flood-opacity="0" result="BackgroundImageFix"/>
<feColorMatrix in="SourceAlpha" type="matrix" values="0 0 0 0 0 0 0 0 0 0 0 0 0 0 0 0 0 0 127 0" result="hardAlpha"/>
<feOffset dy="4.51669"/>
<feGaussianBlur stdDeviation="9.03338"/>
<feColorMatrix type="matrix" values="0 0 0 0 0.215686 0 0 0 0 0.564706 0 0 0 0 0.92549 0 0 0 0.4 0"/>
<feBlend mode="normal" in2="BackgroundImageFix" result="effect1_dropShadow_128_4098"/>
<feBlend mode="normal" in="SourceGraphic" in2="effect1_dropShadow_128_4098" result="shape"/>
</filter>
<clipPath id="clip0_128_4098">
<rect width="41.4607" height="44.4944" fill="white" transform="translate(47.3145 36.2472)"/>
</clipPath>
</defs>
</svg>
