<svg width="250" height="118" viewBox="0 0 250 118" fill="none" xmlns="http://www.w3.org/2000/svg">
<g filter="url(#filter0_d_27_6061)">
<path d="M211.111 78H38.8889C35.1017 78 32 74.9608 32 71.25V30.75C32 27.0392 35.1017 24 38.8889 24H211.111C214.898 24 218 27.0392 218 30.75V71.25C218 74.9608 214.898 78 211.111 78Z" fill="#3790EC"/>
</g>
<path d="M45.3438 34.1772C44.9391 34.5923 44.7048 35.2387 44.7048 36.0757V65.9309C44.7048 66.7679 44.9391 67.4142 45.3438 67.8293L45.4437 67.9205L62.5178 51.1973V50.8025L45.4437 34.0793L45.3438 34.1772Z" fill="white"/>
<path d="M70.2695 56.7745L64.5844 51.1973V50.8024L70.2764 45.2252L70.4038 45.2978L77.1446 49.0558C79.0683 50.1223 79.0683 51.8773 77.1446 52.9506L70.4038 56.7019L70.2695 56.7745Z" fill="white"/>
<path d="M69.3706 57.7404L63.5512 52.0384L46.3772 68.8678C47.0161 69.5259 48.0581 69.6052 49.243 68.9471L69.3706 57.7404Z" fill="white"/>
<path d="M69.3706 44.2594L49.243 33.0527C48.0581 32.4013 47.0161 32.4806 46.3772 33.1387L63.5512 49.9614L69.3706 44.2594Z" fill="white"/>
<path d="M97.3308 37.8289C97.3308 38.9561 96.9864 39.859 96.3078 40.5323C95.5277 41.3305 94.5115 41.7321 93.2664 41.7321C92.0763 41.7321 91.0602 41.3237 90.2267 40.5188C89.3914 39.702 88.9746 38.6996 88.9746 37.4998C88.9746 36.3 89.3914 35.2976 90.2267 34.4876C91.0602 33.676 92.0763 33.2676 93.2664 33.2676C93.8588 33.2676 94.4237 33.3874 94.9628 33.6101C95.5001 33.8346 95.9375 34.1383 96.2544 34.513L95.5345 35.2251C94.9817 34.5855 94.2291 34.27 93.2664 34.27C92.3984 34.27 91.6458 34.567 91.0068 35.166C90.3748 35.7668 90.0579 36.5447 90.0579 37.4998C90.0579 38.455 90.3748 39.2396 91.0068 39.8404C91.6458 40.4327 92.3984 40.7364 93.2664 40.7364C94.1878 40.7364 94.9628 40.4327 95.5742 39.8336C95.9772 39.4371 96.2062 38.8903 96.2665 38.1917H93.2664V37.2163H97.2688C97.317 37.4273 97.3308 37.6315 97.3308 37.8289Z" fill="white" stroke="white" stroke-width="0.16" stroke-miterlimit="10"/>
<path d="M103.681 34.4473H99.921V37.0123H103.31V37.9877H99.921V40.5527H103.681V41.5466H98.8567V33.4534H103.681V34.4473Z" fill="white" stroke="white" stroke-width="0.16" stroke-miterlimit="10"/>
<path d="M108.162 41.5466H107.098V34.4473H104.792V33.4534H110.47V34.4473H108.162V41.5466Z" fill="white" stroke="white" stroke-width="0.16" stroke-miterlimit="10"/>
<path d="M114.579 41.5466V33.4534H115.641V41.5466H114.579Z" fill="white" stroke="white" stroke-width="0.16" stroke-miterlimit="10"/>
<path d="M120.352 41.5466H119.296V34.4473H116.981V33.4534H122.666V34.4473H120.352V41.5466Z" fill="white" stroke="white" stroke-width="0.16" stroke-miterlimit="10"/>
<path d="M133.417 40.5053C132.602 41.3237 131.593 41.7321 130.389 41.7321C129.178 41.7321 128.169 41.3237 127.354 40.5053C126.541 39.6885 126.137 38.6861 126.137 37.4998C126.137 36.3135 126.541 35.3111 127.354 34.4944C128.169 33.676 129.178 33.2676 130.389 33.2676C131.586 33.2676 132.595 33.676 133.41 34.5011C134.229 35.3246 134.634 36.3203 134.634 37.4998C134.634 38.6861 134.229 39.6885 133.417 40.5053ZM128.141 39.8269C128.755 40.4327 129.5 40.7364 130.389 40.7364C131.271 40.7364 132.023 40.4327 132.63 39.8269C133.241 39.2211 133.551 38.4431 133.551 37.4998C133.551 36.5565 133.241 35.7786 132.63 35.1728C132.023 34.567 131.271 34.2632 130.389 34.2632C129.5 34.2632 128.755 34.567 128.141 35.1728C127.53 35.7786 127.22 36.5565 127.22 37.4998C127.22 38.4431 127.53 39.2211 128.141 39.8269Z" fill="white" stroke="white" stroke-width="0.16" stroke-miterlimit="10"/>
<path d="M136.127 41.5464V33.4531H137.419L141.435 39.7475H141.482L141.435 38.1916V33.4531H142.498V41.5464H141.389L137.183 34.9415H137.136L137.183 36.5041V41.5464H136.127Z" fill="white" stroke="white" stroke-width="0.16" stroke-miterlimit="10"/>
<path d="M125.875 53.3659C122.639 53.3659 119.995 55.779 119.995 59.1085C119.995 62.4109 122.639 64.8493 125.875 64.8493C129.118 64.8493 131.761 62.4109 131.761 59.1085C131.761 55.779 129.118 53.3659 125.875 53.3659ZM125.875 62.5881C124.099 62.5881 122.572 61.152 122.572 59.1085C122.572 57.0379 124.099 55.6271 125.875 55.6271C127.65 55.6271 129.185 57.0379 129.185 59.1085C129.185 61.152 127.65 62.5881 125.875 62.5881ZM113.046 53.3659C109.803 53.3659 107.166 55.779 107.166 59.1085C107.166 62.4109 109.803 64.8493 113.046 64.8493C116.287 64.8493 118.926 62.4109 118.926 59.1085C118.926 55.779 116.287 53.3659 113.046 53.3659ZM113.046 62.5881C111.269 62.5881 109.736 61.152 109.736 59.1085C109.736 57.0379 111.269 55.6271 113.046 55.6271C114.822 55.6271 116.349 57.0379 116.349 59.1085C116.349 61.152 114.822 62.5881 113.046 62.5881ZM97.7803 55.126V57.5661H103.727C103.553 58.9296 103.088 59.932 102.375 60.6306C101.507 61.4743 100.155 62.4109 97.7803 62.4109C94.1206 62.4109 91.2548 59.5168 91.2548 55.9309C91.2548 52.345 94.1206 49.4509 97.7803 49.4509C99.7591 49.4509 101.199 50.2086 102.262 51.1907L104.016 49.4711C102.53 48.0806 100.553 47.0125 97.7803 47.0125C92.7617 47.0125 88.544 51.0135 88.544 55.9309C88.544 60.8483 92.7617 64.8493 97.7803 64.8493C100.493 64.8493 102.53 63.9786 104.132 62.3451C105.773 60.7369 106.285 58.4756 106.285 56.6498C106.285 56.0828 106.236 55.5613 106.15 55.126H97.7803ZM160.204 57.0176C159.72 55.7335 158.227 53.3659 155.185 53.3659C152.171 53.3659 149.662 55.693 149.662 59.1085C149.662 62.3248 152.146 64.8493 155.475 64.8493C158.167 64.8493 159.72 63.2411 160.359 62.3046L158.361 61.0001C157.695 61.9553 156.787 62.5881 155.475 62.5881C154.171 62.5881 153.236 62.0025 152.636 60.8483L160.474 57.6707L160.204 57.0176ZM152.213 58.9296C152.146 56.7156 153.968 55.5816 155.273 55.5816C156.296 55.5816 157.164 56.0828 157.454 56.8L152.213 58.9296ZM145.842 64.5H148.419V47.625H145.842V64.5ZM141.623 54.645H141.537C140.958 53.9734 139.854 53.3659 138.456 53.3659C135.521 53.3659 132.838 55.8904 132.838 59.127C132.838 62.3451 135.521 64.8493 138.456 64.8493C139.854 64.8493 140.958 64.2368 141.537 63.5449H141.623V64.3684C141.623 66.5638 140.426 67.7434 138.495 67.7434C136.921 67.7434 135.945 66.6296 135.542 65.6931L133.301 66.6094C133.947 68.1315 135.657 70.0046 138.495 70.0046C141.516 70.0046 144.065 68.2631 144.065 64.0258V53.7152H141.623V54.645ZM138.676 62.5881C136.901 62.5881 135.414 61.1318 135.414 59.127C135.414 57.1037 136.901 55.6271 138.676 55.6271C140.426 55.6271 141.805 57.1037 141.805 59.127C141.805 61.1318 140.426 62.5881 138.676 62.5881ZM172.266 47.625H166.104V64.5H168.674V58.1061H172.266C175.12 58.1061 177.919 56.0828 177.919 52.8647C177.919 49.6483 175.113 47.625 172.266 47.625ZM172.334 55.7588H168.674V49.9723H172.334C174.252 49.9723 175.347 51.5333 175.347 52.8647C175.347 54.1708 174.252 55.7588 172.334 55.7588ZM188.218 53.3338C186.361 53.3338 184.43 54.1371 183.636 55.9174L185.917 56.854C186.408 55.9174 187.31 55.6136 188.264 55.6136C189.597 55.6136 190.949 56.3983 190.97 57.7838V57.961C190.505 57.6977 189.509 57.3079 188.285 57.3079C185.829 57.3079 183.326 58.6326 183.326 61.1048C183.326 63.366 185.338 64.8223 187.599 64.8223C189.328 64.8223 190.283 64.0579 190.882 63.1686H190.97V64.473H193.451V57.9998C193.451 55.0078 191.171 53.3338 188.218 53.3338ZM187.908 62.5813C187.067 62.5813 185.896 62.173 185.896 61.152C185.896 59.8459 187.356 59.3447 188.621 59.3447C189.752 59.3447 190.283 59.5894 190.97 59.9117C190.768 61.4743 189.396 62.5813 187.908 62.5813ZM202.493 53.7034L199.539 61.0187H199.452L196.398 53.7034H193.627L198.215 63.9263L195.597 69.6148H198.282L205.352 53.7034H202.493ZM179.331 64.5H181.907V47.625H179.331V64.5Z" fill="white"/>
<defs>
<filter id="filter0_d_27_6061" x="0" y="0" width="250" height="118" filterUnits="userSpaceOnUse" color-interpolation-filters="sRGB">
<feFlood flood-opacity="0" result="BackgroundImageFix"/>
<feColorMatrix in="SourceAlpha" type="matrix" values="0 0 0 0 0 0 0 0 0 0 0 0 0 0 0 0 0 0 127 0" result="hardAlpha"/>
<feOffset dy="8"/>
<feGaussianBlur stdDeviation="16"/>
<feColorMatrix type="matrix" values="0 0 0 0 0.215686 0 0 0 0 0.564706 0 0 0 0 0.92549 0 0 0 0.4 0"/>
<feBlend mode="normal" in2="BackgroundImageFix" result="effect1_dropShadow_27_6061"/>
<feBlend mode="normal" in="SourceGraphic" in2="effect1_dropShadow_27_6061" result="shape"/>
</filter>
</defs>
</svg>
