<svg width="36" height="36" viewBox="0 0 36 36" fill="none" xmlns="http://www.w3.org/2000/svg">
<path d="M34.0904 10.2884C31.5198 10.147 28.9697 10.8151 26.7987 12.1988C26.2737 11.6009 25.7341 11.003 25.1654 10.4342L24.7425 10.0405L24.9466 9.86547C25.6598 9.25327 26.168 8.43705 26.4027 7.52694C26.6374 6.61682 26.5873 5.65662 26.2591 4.77588C25.785 3.78156 25.0324 2.94631 24.0927 2.37158C23.1529 1.79686 22.0665 1.50741 20.9654 1.53838V4.45505C21.4842 4.44783 21.9956 4.57917 22.4468 4.83552C22.898 5.09187 23.2726 5.46395 23.532 5.91338C23.78 6.49672 23.532 7.13838 22.8466 7.8238L22.5112 8.13005C20.9901 6.86255 19.3201 5.78516 17.5383 4.92172C13.8487 3.25922 11.9529 4.03213 11.0195 4.92172C10.7351 5.2068 10.5075 5.54332 10.3487 5.91338L10.0862 6.6863L7.98621 13.0155C9.64871 17.1571 13.6737 24.5217 22.4237 27.7009L29.7154 25.2801C29.9613 25.1885 30.1779 25.0323 30.3425 24.828L30.6487 24.5655C32.7341 22.4655 31.3925 18.4259 28.5925 14.503C30.255 13.5327 32.1694 13.0807 34.0904 13.205V10.2884ZM28.5633 22.4946H28.4758C27.4695 23.0342 23.2987 21.6634 18.5737 16.9384C18.0779 16.4425 17.6112 15.9613 17.1883 15.48C17.0425 15.3196 16.9112 15.1446 16.7654 14.9696L15.9925 14.0363L15.5841 13.4675C15.38 13.1905 15.1758 12.9134 15.0008 12.6509C14.8258 12.3884 14.7675 12.2717 14.6508 12.0821C14.5341 11.8925 14.33 11.5863 14.1987 11.3384C14.0675 11.0905 14.0091 10.9884 13.9216 10.7988C13.8341 10.6092 13.6737 10.3905 13.5862 10.1863C13.4987 9.98213 13.455 9.85088 13.382 9.69047C13.3091 9.53005 13.2216 9.29672 13.1633 9.10713C13.105 8.91755 13.0904 8.83005 13.0612 8.68422C13.032 8.53838 12.9737 8.33422 12.9445 8.18838C12.9375 8.07182 12.9375 7.95494 12.9445 7.83838C12.9302 7.7124 12.9302 7.5852 12.9445 7.45922L13.105 7.00713C13.3529 6.74463 14.432 6.67172 16.357 7.54672C17.6435 8.16474 18.8607 8.91757 19.9883 9.79255C19.3736 10.0638 18.7182 10.2314 18.0487 10.2884V13.205C19.598 13.1171 21.1013 12.6461 22.4237 11.8342L23.1383 12.505C23.78 13.1321 24.3487 13.7592 24.8737 14.3571C23.9944 15.8565 23.6451 17.6081 23.882 19.33L26.7987 18.7613C26.7001 18.2115 26.7001 17.6486 26.7987 17.0988C28.68 19.9717 29.03 22.0425 28.5633 22.4946Z" fill="#B6D1ED"/>
<path d="M6.96538 16.1218L3.71329 25.8927C3.47857 26.61 3.41694 27.3727 3.53344 28.1185C3.64995 28.8642 3.94127 29.5718 4.38361 30.1834C4.82594 30.795 5.40673 31.2932 6.07849 31.6374C6.75026 31.9815 7.49393 32.1618 8.24871 32.1635C8.74489 32.1587 9.23714 32.075 9.70704 31.9156L19.2154 28.751C13.8489 26.0103 9.54128 21.5693 6.96538 16.1218Z" fill="#B6D1ED"/>
</svg>
