<svg width="1000" height="474" viewBox="0 0 1000 474" fill="none" xmlns="http://www.w3.org/2000/svg">
<g id="illustration">
<g id="flower">
<path id="Vector" d="M805.39 396.877C797.134 397.269 781.367 403.055 794.408 406.828C807.449 410.602 843.652 411.46 849.486 404.769C855.319 398.078 841.592 395.16 805.39 396.877Z" fill="#DBE7F3"/>
<g id="Group">
<path id="Vector_2" d="M845.985 351.905C847.488 350.961 846.841 347.279 845.034 346.36C843.224 345.438 841.063 345.364 839.681 344.44C838.302 343.519 836.589 341.819 834.08 342.808C831.587 343.798 829.174 345.005 827.628 343.944C826.078 342.885 823.929 340.818 821.077 340.423C819.322 340.184 815.999 343.798 814.019 343.165C812.034 342.521 809.308 340.744 807.759 341.097C806.199 341.448 805.925 344.723 804.203 344.374C802.478 344.018 800.068 343.165 796.97 344.158C793.871 345.145 791.625 346.922 790.161 346.708C788.702 346.494 787.008 347.536 787.606 348.877C788.212 350.227 784.866 352.741 800.874 354.365C808.93 355.261 834.343 356.438 845.985 351.905Z" fill="#809DBB"/>
<path id="Vector_3" d="M841.195 345.71C844.315 346.371 843.215 347.838 840.953 348.233C838.686 348.641 833.597 345.968 830.103 347.023C826.613 348.082 822.198 351.76 817.18 349.848C812.154 347.934 806.456 349.692 802.105 349.492C797.753 349.297 791.713 348.005 792.971 347.325C794.202 346.67 794.633 345.211 798.184 345.06C801.735 344.909 802.84 346.925 804.548 345.965C806.273 345 805.595 343.642 808.354 343.744C811.115 343.845 811.729 346.365 815.774 345.611C819.815 344.852 821.288 341.418 822.999 342.331C824.713 343.239 826.824 345.863 829.983 344.852C836.777 342.685 834.894 344.396 841.195 345.71Z" fill="#65819D"/>
<path id="Vector_4" d="M834.625 344.396C836.821 344.322 843.128 346.694 840.441 346.752C837.756 346.807 834.345 345.183 832.439 345.8C830.536 346.417 831.485 344.512 834.625 344.396Z" fill="#6A8BAC"/>
<path id="Vector_5" d="M821.971 344.794C820.849 345.142 819.286 346.807 816.657 346.977C814.022 347.144 815.198 348.768 817.943 348.877C820.685 348.99 824.888 343.9 821.971 344.794Z" fill="#6A8BAC"/>
<path id="Vector_6" d="M795.108 350.054C792.752 348.877 790.073 347.479 789.454 348.543C788.837 349.607 794.324 352.568 800.364 352.632C806.413 352.686 806.75 351.345 802.999 351.063C799.254 350.786 798.807 351.905 795.108 350.054Z" fill="#65819D"/>
<path id="Vector_7" d="M842.461 348.877C844.534 347.731 846.654 348.151 844.529 349.829C842.403 351.513 837.026 354.143 831.093 353.471C825.165 352.799 826.952 350.333 832.491 350.172C838.035 349.999 838.312 351.173 842.461 348.877Z" fill="#65819D"/>
<g id="Group_2">
<path id="Vector_8" d="M848.428 354.181C848.428 354.181 844.17 382.331 840.773 399.748C817.792 408.712 796.547 399.748 796.547 399.748L788.283 354.886L848.428 354.181Z" fill="#A6C1DC"/>
<path id="Vector_9" d="M847.021 352.368L846.009 358.385C846.009 358.385 791.781 354.899 798.685 379.921C803.52 397.452 839.804 395.322 839.804 395.322L839.366 397.932C839.366 397.932 818.952 405.956 798.359 397.932C789.596 390.635 790.098 353.073 790.098 353.073L847.021 352.368Z" fill="#95AEC7"/>
<path id="Vector_10" d="M831.444 363.886C833.852 362.232 840.846 359.002 842.119 363.36C843.399 367.717 842.579 386.036 833.904 386.346C825.233 386.642 820.399 371.477 831.444 363.886Z" fill="#B6D1ED"/>
<path id="Vector_11" d="M838.916 367.421C839.423 367.067 840.901 366.387 841.167 367.309C841.436 368.225 841.268 372.099 839.434 372.163C837.597 372.231 836.577 369.02 838.916 367.421Z" fill="#C7E0FA"/>
<path id="Vector_12" d="M782.264 353.591C782.264 354.864 783.325 355.612 784.565 355.892C821.56 364.21 853.306 355.892 853.306 355.892C854.576 355.892 855.607 354.864 855.607 353.591V349.675C855.607 348.406 854.576 347.377 853.306 347.377C853.306 347.377 819.097 353.342 784.565 347.377C783.295 347.377 782.264 348.408 782.264 349.675V353.591Z" fill="#B9D1EA"/>
</g>
</g>
<g id="Group_3">
<path id="Vector_13" d="M801.896 298.481C810.75 294.173 815.282 272.092 806.779 264.292C799.436 257.554 791.518 270.954 792.625 280.324C793.736 289.695 796.524 296.551 801.896 298.481Z" fill="#95AEC7"/>
<path id="Vector_14" d="M821.109 248.124C830.928 248.834 845.916 231.999 842.469 220.988C839.489 211.478 825.922 219.099 822.187 227.765C818.452 236.43 817.427 243.761 821.109 248.124Z" fill="#809DBB"/>
<path id="Vector_15" d="M812.903 252.607C815.955 243.245 803.221 224.646 791.705 225.346C781.76 225.949 785.892 240.952 793.405 246.665C800.912 252.374 807.781 255.133 812.903 252.607Z" fill="#B6D1ED"/>
<path id="Vector_16" d="M794.221 286.884C800.328 279.159 794.825 257.299 783.78 253.968C774.241 251.088 772.922 266.596 777.989 274.554C783.056 282.513 788.543 287.479 794.221 286.884Z" fill="#65809D"/>
<path id="Vector_17" d="M817.375 232.695C825.088 226.574 824.742 204.038 814.756 198.259C806.13 193.271 801.293 208.063 804.4 216.97C807.509 225.883 811.71 231.974 817.375 232.695Z" fill="#809DBB"/>
<path id="Vector_18" d="M785.25 267.945C788.137 280.672 797.49 296.616 815.423 315.152C814.367 286.659 816.923 231.963 817.178 230.52C817.753 227.309 818.453 226.478 818.401 230.279C818.299 237.59 818.066 259.367 818.044 281.021C821.093 280.415 830.334 276.474 846.234 252.251C847.159 250.172 848.774 250.402 847.619 252.712C846.492 254.963 832.431 278.92 818.041 284.205C818.041 300.623 818.173 316.556 818.587 325.608C820.079 358.152 820.251 341.045 820.295 342.438C819.936 344.972 816.983 342.863 816.446 342.438C816.44 331.444 815.044 330.15 815.168 319.117C789.02 292.001 784.726 272.539 784.019 267.564C783.764 265.773 784.726 265.845 785.25 267.945Z" fill="#A6C1DC"/>
<g id="Group_4">
<path id="Vector_19" d="M806.547 343.664L806.78 343.626C807.682 343.48 808.532 343.346 808.822 342.926L808.899 342.814C809.39 342.098 810.215 340.903 811.995 340.579C813.495 340.31 814.816 339.817 815.252 338.854C815.516 337.955 817.065 337.486 817.158 337.549C817.528 337.796 818.022 337.968 819.404 337.691C819.508 337.636 819.7 337.516 819.82 337.497C821.548 337.225 823.199 339.915 823.752 340.502C824.35 341.144 825.102 341.522 826.048 341.657C826.648 341.742 827.007 342.134 827.27 342.422C827.561 342.74 827.687 342.852 827.953 342.852C828.027 342.852 828.112 342.841 828.208 342.822C828.474 342.767 828.699 342.74 828.891 342.74C829.574 342.74 829.884 343.069 830.158 343.36C830.344 343.557 830.555 343.782 830.991 344.026C831.416 344.265 832.327 344.476 832.647 345.216C832.776 345.512 831.071 345.63 829.675 345.63C829.039 345.63 828.384 345.532 827.827 345.351C827.517 345.252 827.139 345.2 826.7 345.2C825.538 345.2 824.227 345.576 823.736 345.924C823.336 346.209 822.647 346.346 821.627 346.346C820.366 346.346 818.663 346.124 817.49 345.806C816.357 345.501 814.718 345.699 812.735 346.376C811.915 346.653 810.843 346.826 809.938 346.826C808.968 346.826 808.236 346.642 807.767 346.275C807.301 345.91 806.19 345.809 805.524 345.748C805.186 345.718 804.921 345.693 804.729 345.644C804.265 345.529 803.511 345.471 803.522 345.208C803.53 345.005 804.158 344.054 806.547 343.664Z" fill="#65809D"/>
<path id="Vector_20" d="M820.638 338.19C821.194 338.19 820.934 339.104 822.809 340.436C824.109 341.358 822.765 341.986 821.23 340.755C819.629 339.471 819.623 338.19 820.638 338.19Z" fill="#809DBB"/>
<path id="Vector_21" d="M824.658 341.838C825.51 341.813 826.755 342.405 826.089 342.603C825.423 342.8 823.081 341.89 824.658 341.838Z" fill="#6A8AAC"/>
<path id="Vector_22" d="M822.061 344.092C822.845 344.421 823.731 345.48 823.043 345.384C822.355 345.285 820.608 343.478 822.061 344.092Z" fill="#809DBB"/>
<path id="Vector_23" d="M829.295 343.766C830.241 344.007 831.836 344.923 830.232 344.703C828.631 344.479 828.039 343.442 829.295 343.766Z" fill="#809DBB"/>
<path id="Vector_24" d="M825.718 343.319C826.774 343.478 828.43 344.034 827.446 344.232C826.459 344.429 824.117 344.355 823.179 343.047C822.304 341.827 824.586 343.146 825.718 343.319Z" fill="#809DBB"/>
<path id="Vector_25" d="M819.316 344.662C820.191 344.794 821.57 345.255 820.75 345.419C819.927 345.584 817.983 345.521 817.205 344.435C816.475 343.423 818.373 344.52 819.316 344.662Z" fill="#809DBB"/>
<path id="Vector_26" d="M820.051 340.752C820.703 341.273 822.861 342.479 822.148 342.8C821.433 343.121 819.365 342.068 819.091 341.352C818.82 340.639 819.557 340.357 820.051 340.752Z" fill="#809DBB"/>
<path id="Vector_27" d="M817.802 341.352C817.246 341.352 816.79 342.043 816.053 342.504C814.701 343.349 815.554 344.539 817.089 343.308C818.693 342.03 818.82 341.352 817.802 341.352Z" fill="#809DBB"/>
<path id="Vector_28" d="M813.273 340.872C812.423 340.845 811.175 341.437 811.841 341.638C812.511 341.835 814.852 340.922 813.273 340.872Z" fill="#6A8AAC"/>
<path id="Vector_29" d="M813.591 344.394C812.807 344.725 811.921 345.784 812.609 345.685C813.297 345.586 815.047 343.777 813.591 344.394Z" fill="#6A8AAC"/>
<path id="Vector_30" d="M807.923 343.766C806.977 344.007 805.384 344.923 806.985 344.703C808.59 344.479 809.182 343.442 807.923 343.766Z" fill="#809DBB"/>
<path id="Vector_31" d="M811.869 343.044C810.813 343.203 809.154 343.76 810.141 343.955C811.129 344.152 813.47 344.078 814.408 342.77C815.283 341.552 813.004 342.872 811.869 343.044Z" fill="#809DBB"/>
<path id="Vector_32" d="M815.913 338.382C815.263 339.019 815 340.807 815.716 341.199C816.431 341.591 818.205 340.206 818.477 339.334C818.748 338.462 816.407 337.9 815.913 338.382Z" fill="#809DBB"/>
</g>
<path id="Vector_33" d="M813.989 315.862C814.935 306.061 798.466 290.671 787.375 293.855C777.797 296.603 785.091 310.353 793.662 314.296C802.237 318.24 809.538 319.438 813.989 315.862Z" fill="#7EA0C4"/>
<path id="Vector_34" d="M816.58 275.448C825.433 271.14 829.966 249.059 821.463 241.26C814.12 234.524 806.201 247.921 807.309 257.291C808.417 266.662 811.205 273.518 816.58 275.448Z" fill="#65809D"/>
<path id="Vector_35" d="M817.542 322.762C827.317 323.944 843.098 307.852 840.183 296.688C837.666 287.046 823.747 294.006 819.599 302.48C815.45 310.953 814.074 318.226 817.542 322.762Z" fill="#65809D"/>
<path id="Vector_36" d="M839.972 266.05C849.799 265.43 862.385 246.73 857.485 236.285C853.251 227.262 840.835 236.644 838.299 245.732C835.763 254.82 835.735 262.222 839.972 266.05Z" fill="#6E8EAF"/>
<path id="Vector_37" d="M833.569 270.101C842.752 266.549 849.121 244.926 841.304 236.441C834.553 229.114 825.535 241.8 825.855 251.228C826.174 260.659 828.378 267.726 833.569 270.101Z" fill="#B6D1ED"/>
<path id="Vector_38" d="M820.21 281.948C824.364 290.877 846.36 295.788 854.304 287.421C861.164 280.192 847.907 272.042 838.521 272.991C829.135 273.94 822.234 276.608 820.21 281.948Z" fill="#95AEC7"/>
<path id="Vector_39" d="M816.155 299.436C821.727 291.318 814.767 269.879 803.523 267.295C793.81 265.063 793.539 280.626 799.127 288.225C804.721 295.827 810.528 300.412 816.155 299.436Z" fill="#B6D1ED"/>
</g>
</g>
<g id="comode">
<path id="Vector_40" d="M961.618 393.634C932.813 394.166 877.803 402.013 923.304 407.131C968.805 412.252 1095.12 413.417 1115.48 404.338C1135.83 395.263 1087.94 391.306 961.618 393.634Z" fill="#DBE7F3"/>
<g id="Group_5">
<g id="Group_6">
<path id="Vector_41" d="M941.499 404.629H1086.84V155.41L941.499 155.41V404.629Z" fill="#8FAAC5"/>
<path id="Vector_42" d="M951.991 404.627H1076.35V164.206L951.991 164.206V404.627Z" fill="#657A9D"/>
<path id="Vector_43" d="M954.648 393.228H1073.76V234.816L954.648 234.816V393.228Z" fill="#A6C1DC"/>
<path id="Vector_44" d="M951.991 232.733L1076.35 232.733V223.691L951.991 223.691V232.733Z" fill="#A6C1DC"/>
<path id="Vector_45" d="M951.991 404.442H1076.35V395.403H951.991V404.442Z" fill="#8FAAC5"/>
</g>
<g id="Group_7">
<path id="Vector_46" d="M1011.87 171.66L996.76 218.964L1006.18 221.959L1021.28 174.661L1011.87 171.66Z" fill="#809DBB"/>
<path id="Vector_47" d="M981.259 171.375L973.394 220.402L983.157 221.959L991.016 172.934L981.259 171.375Z" fill="#6E8EAF"/>
<path id="Vector_48" d="M993.334 171.375L985.471 220.402L995.231 221.959L1003.1 172.934L993.334 171.375Z" fill="#95AEC7"/>
</g>
</g>
<g id="Group_8">
<g id="Group_9">
<path id="Vector_49" d="M960.9 129.834C960.9 129.834 963.426 129.879 966.395 131.965C973.278 136.808 975.349 135.938 980.974 131.772C986.016 135.355 958.961 145.042 956.343 138.648C955.953 133.997 954.112 130.705 960.9 129.834Z" fill="#65809D"/>
<g id="Group_10">
<g id="Group_11">
<g id="Group_12">
<path id="Vector_50" d="M959.348 130.643C959.348 130.643 962.004 130.299 964.973 132.384C969.84 135.81 972.237 136.568 975.212 135.249C972.823 135.757 970.333 134.883 966.234 132.093C962.581 129.609 959.705 130.058 959.705 130.058C958.399 130.224 958.509 130.581 957.771 130.923C958.238 130.813 958.759 130.717 959.348 130.643Z" fill="#536B86"/>
</g>
<g id="Group_13">
<path id="Vector_51" d="M959.445 130.319C959.445 130.319 962.102 129.975 965.071 132.063C969.937 135.486 972.335 136.25 975.31 134.928C972.921 135.436 970.431 134.562 966.332 131.772C962.679 129.288 959.802 129.737 959.802 129.737C958.496 129.906 958.609 130.26 957.869 130.599C958.333 130.489 958.856 130.394 959.445 130.319Z" fill="#C8D9EA"/>
</g>
<g id="Group_14">
<path id="Vector_52" d="M980.974 131.769C980.59 132.055 980.222 132.322 979.871 132.572C981.313 134.292 976.854 137.07 971.303 139.022C977.86 136.96 983.524 133.585 980.974 131.769Z" fill="#FDC300"/>
</g>
</g>
</g>
<path id="Vector_53" d="M957.084 139.646C959.324 141.518 965.184 140.853 970.613 139.233C969.765 138.737 968.831 138.125 967.784 137.388C964.815 135.299 962.159 135.644 962.159 135.644C958.057 136.173 957.108 137.584 957.084 139.646Z" fill="#536B86"/>
</g>
<g id="Group_15">
<g id="Group_16">
<path id="Vector_54" d="M967.433 90.5804C967.433 90.5804 967.136 92.7435 968.769 94.3837C966.975 94.247 966.931 94.4788 967.27 95.0315C967.609 95.5841 967.573 95.911 966.597 95.8664C965.622 95.8218 963.962 95.7386 964.081 96.3745C964.2 97.0104 964.096 97.3135 963.114 97.1708C962.129 97.0282 961.017 96.5439 961.127 97.049C961.237 97.5601 961.317 98.1335 960.416 97.8245C959.515 97.5155 958.851 96.9569 958.113 97.4412C958.066 97.2511 958.268 96.6182 959.077 96.5825C959.883 96.5468 960.568 96.5825 960.27 96.1546C959.973 95.7238 959.494 95.0552 960.419 94.9096C961.347 94.764 962.704 94.7135 962.234 94.1698C961.766 93.626 961.213 92.8653 962.091 92.5325C962.968 92.1968 964.92 92.6425 964.679 92.1136C964.438 91.5847 964.233 91.0825 964.985 90.7943C965.741 90.5001 966.904 90.4645 967.433 90.5804Z" fill="#607A97"/>
<g id="Group_17">
<path id="Vector_55" d="M967.115 94.7136C966.597 94.6512 965.66 93.0347 965.009 92.179C964.533 91.555 964.735 91.0707 964.926 90.8181C964.25 91.1123 964.447 91.5996 964.679 92.1107C964.92 92.6396 962.968 92.1939 962.091 92.5296C962.049 92.5445 962.01 92.5623 961.975 92.5801C962.117 92.5564 962.287 92.5296 962.486 92.4999C963.447 92.3632 964.417 92.904 964.836 93.2427C965.544 93.8103 966.583 94.5888 966.428 95.2306C966.359 95.5129 965.628 95.7624 965.271 95.8308C965.378 95.8338 966.493 95.8575 966.591 95.8635C967.567 95.908 967.603 95.5812 967.264 95.0285C967.195 94.9097 967.139 94.8057 967.115 94.7136Z" fill="#536B86"/>
<path id="Vector_56" d="M964.081 96.3745C964.069 96.3181 964.075 96.2675 964.09 96.22C963.855 96.1249 963.569 95.6168 963.191 95.1473C962.602 94.4104 962.269 93.8875 961.865 93.4774C961.778 93.3913 961.728 93.3734 961.704 93.3972C961.817 93.6617 962.034 93.935 962.236 94.1727C962.626 94.6244 961.749 94.7373 960.91 94.8443C961.546 94.7729 962.346 94.8145 962.924 95.6703C963.417 96.4012 962.816 96.9123 962.584 97.0698C962.76 97.1084 962.938 97.1441 963.114 97.1708C964.096 97.3105 964.2 97.0104 964.081 96.3745Z" fill="#536B86"/>
<path id="Vector_57" d="M959.883 95.2841C959.848 95.5515 960.092 95.8962 960.27 96.1517C960.508 96.4964 960.112 96.538 959.529 96.5617C959.529 96.5617 959.532 96.5617 959.532 96.5647C960.276 96.6331 960.621 96.9956 960.844 97.4502C961.017 97.8008 960.33 97.7206 960.014 97.6701C960.142 97.7235 960.276 97.777 960.416 97.8246C961.317 98.1336 961.234 97.5601 961.127 97.049C961.112 96.9718 961.124 96.9153 961.159 96.8797C960.591 96.4102 960.074 95.602 959.883 95.2841Z" fill="#536B86"/>
</g>
<path id="Vector_58" d="M963.314 93.9558C963.459 94.0182 963.706 94.1044 963.769 94.2083C963.894 94.5233 964.138 94.6095 964.414 94.5619C964.691 94.5174 964.756 94.2529 964.673 94.0657C964.593 93.8785 964.736 93.721 964.753 93.617C964.87 92.9485 964.367 92.6751 963.935 92.6514C963.543 92.6306 963.198 92.7464 963.028 93.1505C962.856 93.5547 963.168 93.8934 963.314 93.9558ZM964.046 93.4685C963.989 93.2991 964.06 93.1238 964.2 93.0792C964.343 93.0317 964.501 93.1327 964.557 93.3021C964.611 93.4715 964.542 93.6468 964.402 93.6943C964.26 93.7389 964.102 93.6378 964.046 93.4685ZM964.233 93.8458C964.405 93.8399 964.346 94.1608 964.346 94.1608C964.322 94.2589 964.206 94.1846 964.111 94.0628C964.013 93.938 964.06 93.8488 964.233 93.8458ZM963.397 93.2278C963.531 93.1595 963.703 93.2337 963.784 93.3912C963.867 93.5487 963.822 93.7329 963.692 93.8013C963.558 93.8696 963.385 93.7953 963.305 93.6378C963.224 93.4804 963.266 93.2961 963.397 93.2278Z" fill="#37495C"/>
<path id="Vector_59" d="M965.554 93.5724C965.554 93.5724 965.527 93.2515 965.325 93.302C965.122 93.3525 965.14 93.6853 965.223 93.8606C964.962 94.0775 964.09 95.2542 964.09 95.2542C964.09 95.2542 963.694 95.1918 963.668 95.3879C963.641 95.584 963.968 95.6078 963.968 95.6078C963.968 95.6078 964.066 95.8604 964.233 95.8128C964.379 95.7712 964.358 95.5216 964.26 95.379C964.408 95.2364 965.438 93.9914 965.438 93.9914C965.438 93.9914 965.833 94.0657 965.881 93.8666C965.928 93.6705 965.667 93.5189 965.554 93.5724Z" fill="#37495C"/>
<path id="Vector_60" d="M965.232 94.972C965.232 94.972 965.541 94.6659 965.64 94.8056C965.738 94.9482 965.637 95.1503 965.538 95.1592C965.643 95.3553 965.506 95.5395 965.351 95.4979C965.196 95.4563 965.134 95.2364 965.134 95.2364L962.998 94.5233C962.998 94.5233 962.763 94.8026 962.59 94.6897C962.457 94.6006 962.513 94.4163 962.692 94.348C962.555 94.1549 962.677 94.036 962.793 94.036C962.912 94.036 963.063 94.2826 963.063 94.2826L965.232 94.972Z" fill="#37495C"/>
</g>
<g id="Group_18">
<g id="Group_19">
<path id="Vector_61" d="M970.958 100.344C970.836 100.356 970.723 100.273 970.697 100.151C970.012 96.8559 966.922 89.481 966.892 89.4067C966.838 89.2819 966.898 89.1393 967.023 89.0858C967.148 89.0353 967.29 89.0918 967.344 89.2166C967.472 89.5196 970.482 96.7073 971.178 100.05C971.205 100.184 971.122 100.312 970.988 100.338C970.979 100.341 970.97 100.344 970.958 100.344Z" fill="#A6C1DC"/>
<path id="Vector_62" d="M967.564 88.6342C967.596 89.0175 967.314 89.3533 966.93 89.3889C966.546 89.4216 966.21 89.1393 966.177 88.756C966.145 88.3727 966.427 88.0369 966.811 88.0043C967.192 87.9686 967.531 88.2509 967.564 88.6342Z" fill="#95AEC7"/>
<path id="Vector_63" d="M967.429 88.5213C967.453 88.8036 967.245 89.0502 966.965 89.074C966.683 89.0978 966.436 88.8898 966.412 88.6105C966.388 88.3282 966.596 88.0816 966.876 88.0578C967.159 88.034 967.406 88.239 967.429 88.5213Z" fill="#A6C1DC"/>
</g>
</g>
<g id="Group_20">
<path id="Vector_64" d="M964.441 98.6387C964.441 98.6387 966.871 103.631 967.347 104.023C969.513 103.975 976.548 102.706 976.548 102.706L976.81 97.2808C976.81 97.2808 975.299 95.7208 970.057 96.2973C964.86 96.8707 964.441 98.6387 964.441 98.6387Z" fill="#95AEC7"/>
<path id="Vector_65" d="M965.756 100.318C966.166 100.751 967.553 102.112 973.925 101.503C976.974 101.619 976.545 102.704 976.545 102.704L976.807 97.2778C976.807 97.2778 975.353 96.0328 970.111 96.6122C964.914 97.1857 965.104 99.6311 965.756 100.318Z" fill="#A6C1DC"/>
<path id="Vector_66" d="M976.534 102.525C976.733 103.244 974.761 104.142 972.202 104.489C969.644 104.837 967.413 104.537 967.214 103.821C967.017 103.102 968.927 102.24 971.485 101.892C974.041 101.539 976.334 101.806 976.534 102.525Z" fill="#58738F"/>
<path id="Vector_67" d="M975.965 102.698C976.12 103.259 974.427 103.96 972.184 104.263C969.941 104.566 967.998 104.361 967.844 103.8C967.689 103.238 969.382 102.537 971.625 102.231C973.868 101.928 975.81 102.136 975.965 102.698Z" fill="#65809D"/>
<path id="Vector_68" d="M968.585 102.617L965.56 97.5453L965.682 97.5007L968.71 102.573L968.585 102.617Z" fill="#58738F"/>
<path id="Vector_69" d="M970.7 102.047L968.644 96.5409L968.778 96.5112L970.83 102.017L970.7 102.047Z" fill="#58738F"/>
<path id="Vector_70" d="M972.806 101.782L972.226 96.2141L972.365 96.2081L972.943 101.776L972.806 101.782Z" fill="#58738F"/>
<path id="Vector_71" d="M975.106 101.86L974.966 101.851L975.641 96.74L975.781 96.7489L975.106 101.86Z" fill="#58738F"/>
</g>
<g id="Group_21">
<path id="Vector_72" d="M974.766 144.121C974.742 144.121 974.721 144.121 974.698 144.118C974.403 144.083 974.198 143.812 974.234 143.518C975.638 132.545 974.344 122.392 973.011 113.472C972.452 109.722 971.886 106.513 971.345 103.782C971.241 103.509 971.211 103.078 971.657 102.968C972.19 102.873 972.401 103.408 972.377 103.657C972.922 106.388 973.508 109.567 974.067 113.302C975.412 122.294 976.715 132.557 975.296 143.655C975.26 143.925 975.031 144.121 974.766 144.121Z" fill="#58738F"/>
</g>
<g id="Group_22">
<path id="Vector_73" d="M954.945 110.117C954.945 110.117 960.002 112.319 961.335 107.927C964.539 109.722 967.662 108.914 968.019 106.453C970.31 108.997 974.576 108.156 974.793 105.503C977.274 107.841 980.778 107.823 981.159 105.586C982.45 107.909 986.472 108.132 986.879 106.141C989.456 108.655 992.392 121.854 986.93 129.933C986.74 127.033 983.711 127.36 982.417 129.594C981.647 127.051 978.309 127.541 977.069 129.823C976.022 127.027 973.002 128.296 972.205 130.56C971.253 128.421 968.326 129.535 966.975 131.974C966.282 129.692 963.908 130.61 962.403 133.359C962.287 124.507 961.079 116.131 954.945 110.117Z" fill="#A4C2E1"/>
<path id="Vector_74" d="M963.26 130.741C965.61 123.31 961.987 114.512 957.777 112.262C958.952 112.262 961.008 111.187 961.401 109.621C960.083 110.619 958.937 110.741 958.161 110.643C956.531 110.806 954.948 110.114 954.948 110.114C961.079 116.128 962.287 124.504 962.403 133.356C963.742 130.911 965.762 129.918 966.684 131.327C966.687 131.327 966.687 131.327 966.69 131.327C966.196 130.055 964.631 129.273 963.26 130.741Z" fill="#82A6CB"/>
<path id="Vector_75" d="M964.923 110.111C964.923 110.111 967.859 110.013 968.445 107.96C970.501 109.425 974.124 109.523 975.299 106.982C976.962 108.643 980.487 108.839 981.367 106.982C983.423 108.254 985.184 108.741 985.966 108.254C985.282 108.839 982.932 109.036 981.561 108.45C980.386 109.33 976.471 109.624 975.394 108.058C974.415 109.428 971.676 110.795 968.835 108.937C968.055 110.209 966.491 110.307 964.923 110.111Z" fill="#82A6CB"/>
<path id="Vector_76" d="M968.448 110.794C968.448 110.794 966.687 111.478 964.729 111.383C962.772 111.285 961.695 112.066 963.947 114.806C966.199 117.542 967.862 124.29 966.785 129.374C966.883 130.643 967.567 129.96 968.448 128.691C969.328 127.419 971.19 128.007 972.169 129.374C973.93 126.147 975.694 128.299 977.063 127.615C978.434 126.929 981.076 125.853 981.76 127.125C982.444 128.397 983.619 127.517 984.401 126.831C985.184 126.147 986.653 126.442 987.436 128.103C989.197 124.189 991.056 117.444 987.436 108.352C987.239 107.865 987.632 111.775 985.282 113.142C985.576 111.968 983.714 108.839 981.465 109.526C979.213 110.209 977.158 110.307 975.983 109.918C974.808 109.526 974.32 110.016 972.264 110.699C970.209 111.383 970.307 110.209 968.448 110.794Z" fill="#B6D1ED"/>
<path id="Vector_77" d="M957.941 111.499C958.485 111.499 959.172 111.323 959.972 110.753C960.002 110.732 960.008 110.688 959.987 110.658C959.966 110.625 959.925 110.619 959.892 110.643C957.911 112.057 956.7 110.988 956.65 110.94C956.623 110.913 956.578 110.916 956.551 110.946C956.525 110.976 956.528 111.017 956.554 111.041C956.566 111.05 957.069 111.499 957.941 111.499Z" fill="#5F86AE"/>
<path id="Vector_78" d="M985.675 110.964C985.695 110.964 985.716 110.955 985.728 110.934C987.296 108.783 986.93 107.413 986.915 107.357C986.903 107.321 986.868 107.297 986.829 107.309C986.793 107.321 986.772 107.36 986.781 107.392C986.784 107.407 987.141 108.759 985.618 110.854C985.594 110.884 985.603 110.928 985.633 110.949C985.648 110.958 985.66 110.964 985.675 110.964Z" fill="#5F86AE"/>
<path id="Vector_79" d="M962.771 128.56C962.807 128.56 962.837 128.534 962.84 128.498C963.616 120.448 959.925 115.688 959.889 115.641C959.865 115.611 959.82 115.605 959.791 115.629C959.761 115.653 959.755 115.694 959.779 115.727C959.815 115.775 963.474 120.493 962.7 128.486C962.697 128.525 962.724 128.557 962.763 128.56C962.766 128.56 962.768 128.56 962.771 128.56Z" fill="#5F86AE"/>
</g>
<g id="Group_23">
<path id="Vector_80" d="M962.225 133.876C962.088 133.882 961.972 133.778 961.966 133.641C961.963 133.514 962.052 133.407 962.174 133.386C962.225 133.371 962.412 133.297 962.605 133.216C970.896 129.883 979.297 128.685 986.9 129.752C987.037 129.773 987.129 129.897 987.112 130.031C987.094 130.168 986.966 130.26 986.832 130.242C979.315 129.187 971 130.373 962.79 133.674C962.356 133.852 962.299 133.873 962.225 133.876Z" fill="#A6C1DC"/>
</g>
<g id="Group_24">
<path id="Vector_81" d="M954.547 110.277C954.431 110.283 954.321 110.218 954.273 110.105C954.211 109.963 954.276 109.793 954.422 109.728C954.461 109.713 958.456 107.987 964.432 106.623C969.95 105.363 978.339 104.159 986.975 105.574C987.129 105.601 987.237 105.746 987.21 105.904C987.183 106.058 987.037 106.165 986.88 106.138C978.333 104.739 970.022 105.933 964.557 107.181C958.631 108.533 954.687 110.239 954.648 110.254C954.615 110.269 954.58 110.277 954.547 110.277Z" fill="#A6C1DC"/>
</g>
</g>
<g id="Group_25">
<path id="Vector_82" d="M957.081 130.236C957.119 132.465 956.382 136.253 962.432 137.739C968.48 139.224 974.685 136.96 977.479 133.918C980.269 130.875 987.251 125.354 991.281 125.85C995.315 126.347 1000.8 129.761 1002.14 135.546C1003.93 143.266 998.781 151.431 992.912 153.805C988.212 155.707 971.261 156.334 962.977 153.24C952.407 149.294 952.119 136.021 957.081 130.236Z" fill="#A6C1DC"/>
<g id="Group_26">
<g id="Group_27">
<g id="Group_28">
<path id="Vector_83" d="M995.029 152.292C990.329 154.191 973.376 154.818 965.097 151.728C954.545 147.785 952.341 141.408 971.534 139.082C971.481 138.791 971.409 138.217 971.356 137.471C968.658 138.274 965.528 138.496 962.435 137.736C956.387 136.25 957.711 132.851 957.672 130.622C952.704 136.411 953.138 149.422 963.705 153.368C971.987 156.461 988.211 155.706 992.908 153.805C994.146 153.306 995.353 152.545 996.469 151.585C995.996 151.856 995.514 152.096 995.029 152.292Z" fill="#95AEC7"/>
</g>
</g>
</g>
<path id="Vector_84" d="M990.19 126.65C990.199 127.289 990.687 128.459 991.13 129.579C992.058 131.921 995.173 144.282 990.285 150.935C991.526 152.349 993.444 152.272 994.53 150.997C995.616 149.722 996.779 142.502 996.157 137.055C995.539 131.606 993.677 128.349 993.754 127.36C993.831 126.37 994.444 124.917 993.04 124.46C991.392 123.922 990.175 125.631 990.19 126.65Z" fill="#65809D"/>
<path id="Vector_85" d="M999.747 131.627C999.777 131.665 999.822 131.686 999.869 131.686C999.869 131.686 999.869 131.686 999.872 131.686C999.956 131.686 1000.02 131.618 1000.02 131.535C1000.02 131.499 1000.01 131.466 999.991 131.44C999.53 130.655 998.92 129.853 998.192 129.107C996.05 127.229 993.456 126.115 991.284 125.847C987.253 125.351 980.272 130.872 977.481 133.915C974.691 136.957 968.486 139.222 962.435 137.736C956.658 136.316 957.071 132.8 957.086 130.542C956.908 130.625 956.747 130.723 956.607 130.836C956.402 131.116 956.206 131.41 956.021 131.716C955.721 132.503 955.7 133.508 955.983 134.473C956.494 136.226 957.898 137.691 959.939 138.606C961.736 139.412 963.884 139.837 966.156 139.837C970.514 139.837 974.816 138.345 977.663 135.852C980.596 133.282 987.462 127.265 992.352 127.265C993.096 127.265 993.777 127.407 994.375 127.684C994.381 127.687 994.384 127.687 994.39 127.69C995.791 128.174 998.647 130.171 999.747 131.627Z" fill="#65809D"/>
<path id="Vector_86" d="M961.248 129.811C961.248 129.811 957.342 129.351 956.414 130.762C955.367 132.355 955.769 136.075 959.996 137.971C965.392 140.389 973.195 139.061 977.559 135.24C981.474 131.808 989.607 124.816 994.435 127.048C995.83 127.523 998.71 129.493 999.873 131.035C998.418 128.539 994.869 125.143 990.568 125.301C986.263 125.461 982.333 128.192 977.018 133.317C972.889 137.299 965.559 138.467 961.138 136.663C956.718 134.857 957.589 131.196 958.348 130.717C959.103 130.242 960.442 130.186 960.442 130.186L961.248 129.811Z" fill="#B6D1ED"/>
<g id="Group_29">
<g id="Group_30">
<g id="Group_31">
<path id="Vector_87" d="M958.341 130.715C958.002 130.931 957.639 131.79 957.743 132.836C957.517 131.65 957.919 130.634 958.294 130.397C959.049 129.918 960.388 129.868 960.388 129.868L960.611 129.764C960.998 129.787 961.248 129.814 961.248 129.814L960.432 130.186C960.432 130.183 959.097 130.236 958.341 130.715Z" fill="#DBECFD"/>
</g>
<g id="Group_32">
<path id="Vector_88" d="M959.948 137.65C965.344 140.068 973.147 138.74 977.508 134.919C981.426 131.487 989.556 124.495 994.384 126.727C995.55 127.125 997.754 128.569 999.125 129.93C999.411 130.307 999.661 130.679 999.866 131.032C998.703 129.493 995.826 127.523 994.428 127.045C989.6 124.816 981.47 131.808 977.552 135.237C973.191 139.058 965.386 140.386 959.989 137.968C957.268 136.746 956.134 134.767 955.95 133.089C956.241 134.696 957.395 136.506 959.948 137.65Z" fill="#DBECFD"/>
</g>
</g>
</g>
<path id="Vector_89" d="M956.635 130.507C957.53 129.692 959.633 129.701 960.662 129.764L960.344 129.909C960.344 129.909 959.005 129.963 958.25 130.441C957.813 130.718 957.337 132.067 957.875 133.505C958.199 134.625 959.112 135.837 961.132 136.66C965.553 138.464 972.88 137.296 977.012 133.314C982.328 128.189 986.26 125.458 990.562 125.298C993.893 125.176 996.77 127.182 998.576 129.253C997.252 127.916 995.458 126.745 994.435 126.394C988.985 123.976 981.057 131.03 977.14 134.461C972.776 138.283 965.645 139.703 960.249 137.284C956.09 135.421 955.65 132.129 956.635 130.507Z" fill="#DBECFD"/>
<path id="Vector_90" d="M990.66 125.779C990.669 126.418 991.157 127.586 991.603 128.709C992.531 131.05 996.011 143.898 991.127 150.551C992.367 151.966 993.92 151.401 995.006 150.126C996.092 148.852 997.255 141.634 996.633 136.185C996.014 130.735 994.152 127.479 994.23 126.486C994.307 125.494 994.92 124.044 993.513 123.589C991.862 123.048 990.645 124.757 990.66 125.779Z" fill="#DBECFD"/>
<path id="Vector_91" d="M992.013 128.572C991.57 127.449 991.079 126.278 991.07 125.642C991.061 124.947 991.627 123.931 992.507 123.527C992.817 123.461 993.153 123.473 993.513 123.589C993.62 123.625 993.718 123.666 993.801 123.714C992.796 124.041 992.138 125.161 992.147 125.913C992.156 126.552 992.644 127.719 993.087 128.843C994.015 131.184 997.496 144.032 992.611 150.682C992.823 150.926 993.046 151.107 993.272 151.241C992.677 151.27 992.076 151.033 991.534 150.415C996.422 143.759 992.942 130.911 992.013 128.572Z" fill="#B6D1ED"/>
</g>
</g>
</g>
<g id="plane">
<path id="Vector_92" d="M313.726 427.45C313.726 434.102 290.97 439.496 262.895 439.496C234.824 439.496 212.068 434.105 212.068 427.45C212.068 420.797 234.824 415.403 262.898 415.403C290.97 415.403 313.726 420.797 313.726 427.45Z" fill="#DBE7F3"/>
<path id="Vector_93" d="M244.581 397.244C244.581 397.244 247.336 395.261 250.646 394.34C254.828 393.18 257.072 395.177 253.201 398.075C249.442 398.551 242.832 398.484 242.832 398.484L244.581 397.244Z" fill="#809DBB"/>
<g id="Group_33">
<path id="Vector_94" d="M268.484 398.027C268.744 397.844 276.292 394.09 282.654 393.098C293.023 391.482 301.744 395.05 291.525 403.469C281.261 403.475 268.484 398.027 268.484 398.027Z" fill="#809DBB"/>
<path id="Vector_95" d="M291.621 393.741C293.496 395.416 292.32 396.935 285.101 399.405C280.31 399.408 273.636 399.382 267.449 397.588C267.026 397.794 266.77 397.929 266.727 397.96C266.727 397.96 279.504 403.407 289.768 403.401C297.427 397.706 295.721 395.152 291.621 393.741Z" fill="#6F8AA7"/>
</g>
<path id="Vector_96" d="M292.63 401.092C283.308 392.408 256.288 392.535 242.931 398.154C238.69 398.377 239.358 402.489 242.401 407.767C245.446 413.046 261.226 430.827 288.448 424.867C292.729 409.015 292.63 401.092 292.63 401.092Z" fill="#B6D1ED"/>
<path id="Vector_97" d="M277.62 416.893C255.736 420.974 246.633 407.919 241.543 403.382C241.543 403.382 242.212 410.967 255.995 419.127C263.719 423.701 271.335 424.712 282.758 425.348C280.491 423.653 278.057 420.152 277.62 416.893Z" fill="#A6BED6"/>
<path id="Vector_98" d="M276.475 425.072C275.971 425.506 275.215 425.796 274.617 425.976C277.959 426.199 281.551 426.058 285.383 425.45C287.701 419.29 289.207 398.799 289.207 398.799C289.207 398.799 285.899 396.433 281.87 396.715C283.463 397.199 284.455 398.312 282.183 398.546C279.907 398.779 278.353 396.456 278.353 396.456C278.353 396.456 277.158 397.715 278.508 398.994C279.859 400.272 278.768 402.14 276.377 401.328C273.988 400.514 268.337 402.503 268.337 402.503C268.337 402.503 275.421 401.616 274.344 404.097C273.269 406.579 270.012 406.227 270.012 406.227C270.012 406.227 270.494 407.967 272.33 407.657C274.166 407.345 275.206 410.212 273.123 411.054C271.039 411.899 269.124 409.145 269.124 409.145C269.124 409.145 268.03 410.925 270.258 412.184C272.482 413.44 274.208 415.673 273.269 416.662C272.33 417.651 269.451 414.921 266.956 416.738C268.975 416.775 272.595 417.642 272.206 419.493C271.817 421.343 268.803 420.194 268.803 420.194C268.803 420.194 270.48 423.918 274.744 422.58C273.813 423.918 271.089 423.726 271.126 425.129C272.251 424.481 277.42 424.258 276.475 425.072Z" fill="#9AB7D3"/>
<path id="Vector_99" d="M282.758 425.346C280.491 423.653 278.06 420.152 277.623 416.893C275.254 417.335 273.035 417.575 270.957 417.648C271.811 418.093 272.375 418.701 272.209 419.49C271.82 421.34 268.805 420.191 268.805 420.191C268.805 420.191 270.483 423.915 274.747 422.577C274.045 423.588 272.322 423.726 271.532 424.337C272.209 424.436 272.897 424.526 273.596 424.608C275.102 424.478 276.661 424.546 276.588 424.917C278.523 425.086 280.57 425.224 282.758 425.346Z" fill="#95AEC7"/>
<path id="Vector_100" d="M245.731 398.416C245.731 398.416 247.014 387.665 240.418 387.617C239.764 388.192 237.92 398.847 240.861 404.463C246.216 399.855 245.731 398.416 245.731 398.416Z" fill="#B6D1ED"/>
<path id="Vector_101" d="M292.63 401.092C291.626 400.157 290.414 399.323 289.038 398.588C288.293 398.709 287.49 398.903 286.618 399.193C282.372 400.61 278.881 404.796 277.553 410.08C275.945 416.482 278.1 422.78 282.484 425.824C284.408 425.63 286.396 425.317 288.451 424.867C292.729 409.015 292.63 401.092 292.63 401.092Z" fill="#B6D1ED"/>
<path id="Vector_102" d="M298.053 415.158C296.414 421.681 291.26 426.01 286.539 424.827C281.819 423.644 279.321 417.397 280.959 410.874C282.597 404.351 287.752 400.022 292.472 401.205C297.193 402.388 299.691 408.635 298.053 415.158Z" fill="#536B86"/>
<path id="Vector_103" d="M292.472 401.204C291.838 401.047 291.198 400.99 290.558 401.021C294.003 403.204 295.625 408.573 294.226 414.147C292.808 419.794 288.753 423.794 284.63 423.999C285.217 424.371 285.854 424.655 286.542 424.827C291.263 426.01 296.417 421.681 298.056 415.158C299.691 408.635 297.193 402.387 292.472 401.204Z" fill="#415770"/>
<g id="Group_34">
<path id="Vector_104" d="M245.959 406.06C248.038 405.06 252.019 405.182 257.03 406.345C262.044 407.508 270.892 409.863 267.892 414.612C264.892 419.363 238.165 434.08 227.388 429.044C216.616 424.008 229.528 413.967 245.959 406.06Z" fill="#A6C1DC"/>
<path id="Vector_105" d="M227.583 427.303C238.191 432.26 264.5 417.772 267.452 413.096C267.698 412.71 267.5 410.584 264.72 409.446C258.722 414.885 236.913 426.041 227.622 421.698C226.866 421.343 226.238 420.963 225.719 420.56C222.933 424.025 225.671 426.41 227.583 427.303Z" fill="#95AEC7"/>
</g>
<path id="Vector_106" d="M249.856 395.988C249.072 396.746 250.237 397.92 251.63 398.591C255.208 400.312 268.552 400.968 274.214 398.754C277.003 397.664 277.194 395.971 277.022 394.966C268.264 393.636 258.008 394.104 249.856 395.988Z" fill="#95AEC7"/>
<path id="Vector_107" d="M252.355 395.467C250.006 395.915 251.263 397.222 252.865 397.884C256.057 399.202 267.977 399.667 273.044 397.937C275.827 396.988 275.728 395.473 275.506 394.757C267.985 393.808 259.551 394.121 252.355 395.467Z" fill="#536B86"/>
<g id="Group_35">
<path id="Vector_108" d="M240.793 399.281C238.884 399.661 231.099 404.266 235.01 406.181C238.887 408.077 247.313 404.018 247.798 402.078C248.263 400.216 243.323 398.777 240.793 399.281Z" fill="#A6C1DC"/>
<path id="Vector_109" d="M247.344 401.751C247.366 401.664 247.175 400.912 246.315 400.692C244.442 402.703 237.914 405.305 234.655 403.824C234.091 404.649 234.714 405.508 235.058 405.677C238.777 407.491 246.876 403.613 247.344 401.751Z" fill="#95AEC7"/>
</g>
<path id="Vector_110" d="M242.9 394.436L241.715 393.636L240.48 394.352L240.768 392.752L239.832 391.583L241.191 391.397L241.848 389.958L242.401 391.439L243.743 391.721L242.725 392.822L242.9 394.436Z" fill="#9AB7D3"/>
<g id="Group_36">
<g id="Group_37">
<path id="Vector_111" opacity="0.7" d="M302.767 416.248C300.833 423.943 294.753 429.052 289.184 427.655C283.615 426.258 280.665 418.89 282.6 411.195C284.531 403.5 290.614 398.391 296.183 399.785C301.752 401.182 304.699 408.55 302.767 416.248Z" fill="#CDEAFC"/>
<path id="Vector_112" d="M296.702 399.938C296.533 399.881 296.358 399.831 296.183 399.788C290.614 398.394 284.532 403.501 282.6 411.198C281.339 416.212 282.154 421.09 284.416 424.265C282.394 421.09 281.712 416.443 282.913 411.666C284.847 403.971 290.927 398.862 296.496 400.259C297.697 400.56 298.777 401.14 299.711 401.94C298.848 401.045 297.838 400.363 296.702 399.938Z" fill="white"/>
<path id="Vector_113" opacity="0.7" d="M300.052 404.123C300.579 404.337 301.137 404.345 301.631 404.269C301.089 403.286 300.432 402.427 299.671 401.714L296.702 399.937C296.702 399.937 292.517 401.165 292.638 402.39C292.757 403.613 299.959 407.193 296.002 406.86C292.046 406.525 292.836 409.835 293.49 411.395C294.144 412.955 294.381 411.896 294.381 411.896C294.381 411.896 293.349 409.381 295.357 408.891C297.362 408.398 299.894 411.313 300.813 409.536C301.727 407.759 298.633 403.545 300.052 404.123Z" fill="white"/>
<path id="Vector_114" opacity="0.7" d="M292.441 421.585C289.946 420.073 291.959 419.932 293 419.555C294.043 419.177 294.037 415.671 292.881 415L292.89 415.352C292.89 415.352 292.63 418.777 290.411 417.783C288.192 416.789 285.002 415.645 286.573 418.67C288.144 421.698 291.57 425.199 288.744 424.486C287.092 424.07 285.392 424.01 284.264 424.036C285.485 425.85 287.162 427.148 289.184 427.655C290.975 428.103 292.816 427.878 294.559 427.112C295.365 426.317 296.115 425.515 296.564 424.892C297.917 423.019 294.937 423.095 292.441 421.585Z" fill="white"/>
<path id="Vector_115" d="M296.623 414.809C296.228 416.299 294.201 416.552 293.298 416.327C292.399 416.102 291.922 414.91 292.232 413.665C292.545 412.42 293.53 411.595 294.429 411.82C295.331 412.046 297.023 413.296 296.623 414.809Z" fill="#536B86"/>
<path id="Vector_116" d="M296.231 414.62C296.07 415.231 295.238 415.335 294.869 415.242C294.5 415.15 294.305 414.662 294.432 414.152C294.559 413.643 294.962 413.305 295.331 413.395C295.701 413.488 296.394 414 296.231 414.62Z" fill="#6F89A7"/>
</g>
<g id="Group_38">
<path id="Vector_117" opacity="0.6" d="M304.944 410.42C304.849 410.423 304.767 410.347 304.764 410.251C304.623 406.069 303.154 402.368 300.737 400.1C300.667 400.036 300.664 399.923 300.729 399.853C300.796 399.782 300.906 399.779 300.977 399.844C303.461 402.176 304.967 405.965 305.111 410.24C305.119 410.336 305.043 410.418 304.944 410.42Z" fill="white"/>
<path id="Vector_118" opacity="0.6" d="M306.439 406.818C306.354 406.821 306.278 406.762 306.261 406.674C305.483 402.562 303.47 399.129 300.731 397.256C300.653 397.199 300.633 397.092 300.686 397.013C300.74 396.935 300.85 396.912 300.929 396.968C303.74 398.895 305.81 402.41 306.605 406.612C306.622 406.708 306.56 406.801 306.467 406.818C306.459 406.815 306.447 406.818 306.439 406.818Z" fill="white"/>
</g>
<g id="Group_39">
<path id="Vector_119" opacity="0.6" d="M292.501 429.852C289.828 429.923 286.892 429.137 284.123 427.571C284.038 427.523 284.007 427.416 284.055 427.331C284.103 427.247 284.21 427.216 284.295 427.267C287.941 429.328 291.866 430.01 295.064 429.134C295.157 429.109 295.253 429.162 295.281 429.258C295.306 429.351 295.25 429.447 295.157 429.475C294.314 429.703 293.423 429.83 292.501 429.852Z" fill="white"/>
<path id="Vector_120" opacity="0.6" d="M292.368 431.821C290.431 431.872 288.361 431.551 286.3 430.858C286.207 430.827 286.159 430.728 286.19 430.635C286.221 430.545 286.319 430.494 286.412 430.525C290.383 431.86 294.367 431.784 297.342 430.323C297.429 430.28 297.534 430.317 297.576 430.404C297.618 430.489 297.585 430.596 297.497 430.638C295.991 431.376 294.24 431.77 292.368 431.821Z" fill="white"/>
</g>
</g>
<g id="Group_40">
<path id="Vector_121" d="M249.445 396.92C249.45 397.174 249.25 397.385 248.996 397.394C248.742 397.399 248.531 397.199 248.525 396.946C248.52 396.692 248.72 396.481 248.974 396.475C249.227 396.467 249.439 396.667 249.445 396.92Z" fill="#809DBB"/>
<path id="Vector_122" d="M252.016 399.365C252.022 399.619 251.821 399.83 251.568 399.836C251.314 399.841 251.102 399.641 251.097 399.388C251.091 399.134 251.291 398.923 251.545 398.915C251.799 398.912 252.01 399.112 252.016 399.365Z" fill="#809DBB"/>
<path id="Vector_123" d="M257.018 400.52C257.024 400.774 256.824 400.985 256.57 400.99C256.316 400.996 256.105 400.796 256.096 400.543C256.091 400.289 256.291 400.078 256.545 400.072C256.801 400.067 257.013 400.267 257.018 400.52Z" fill="#809DBB"/>
<path id="Vector_124" d="M263.165 400.709C263.171 400.962 262.971 401.174 262.717 401.182C262.463 401.188 262.252 400.988 262.246 400.734C262.241 400.481 262.441 400.269 262.695 400.261C262.948 400.255 263.16 400.455 263.165 400.709Z" fill="#809DBB"/>
<path id="Vector_125" d="M269.888 400.59C269.894 400.844 269.694 401.055 269.44 401.064C269.186 401.069 268.975 400.869 268.966 400.616C268.961 400.362 269.161 400.151 269.415 400.145C269.671 400.137 269.883 400.337 269.888 400.59Z" fill="#809DBB"/>
<path id="Vector_126" d="M276.103 398.909C276.109 399.162 275.908 399.374 275.655 399.382C275.401 399.388 275.189 399.188 275.181 398.934C275.175 398.681 275.375 398.47 275.629 398.464C275.883 398.453 276.097 398.653 276.103 398.909Z" fill="#809DBB"/>
<path id="Vector_127" d="M278.181 395.639C278.187 395.892 277.987 396.104 277.733 396.112C277.476 396.118 277.268 395.918 277.259 395.664C277.254 395.411 277.454 395.2 277.708 395.194C277.964 395.185 278.173 395.385 278.181 395.639Z" fill="#809DBB"/>
</g>
<g id="Group_41">
<g id="Group_42">
<path id="Vector_128" d="M273.774 397.644L273.847 394.684C273.859 394.295 273.548 393.972 273.159 393.963C272.767 393.952 272.446 394.262 272.437 394.65L272.364 397.619C272.358 397.802 272.426 397.968 272.536 398.095C272.711 398.044 272.88 397.991 273.044 397.937C273.314 397.844 273.557 397.746 273.774 397.644Z" fill="#394E66"/>
<path id="Vector_129" d="M269.64 398.622L268.879 395.749C268.78 395.371 268.394 395.149 268.016 395.247C267.641 395.346 267.415 395.732 267.514 396.109L268.236 398.836C268.721 398.791 269.192 398.734 269.646 398.672C269.643 398.658 269.643 398.641 269.64 398.622Z" fill="#394E66"/>
</g>
</g>
<g id="Group_43">
<path id="Vector_130" opacity="0.7" d="M273.34 397.827C273.399 397.805 273.458 397.782 273.515 397.757C273.529 397.751 273.543 397.746 273.56 397.74C273.625 397.712 273.687 397.687 273.749 397.656C273.752 397.656 273.754 397.653 273.757 397.653C275.807 396.706 275.708 395.402 275.505 394.755C274.908 393.155 272.497 389.304 270.086 388.84C263.211 390.079 261.59 399.03 261.59 399.03C261.612 399.036 262.712 399.055 263.97 399.053C265.661 399.033 267.342 398.943 268.876 398.771C269.993 398.641 271.019 398.475 271.91 398.258C271.924 398.256 271.936 398.253 271.947 398.25C272.071 398.219 272.195 398.188 272.316 398.157C272.328 398.154 272.336 398.151 272.347 398.149C272.449 398.12 272.55 398.092 272.649 398.064C272.677 398.056 272.705 398.047 272.734 398.039C272.841 398.005 272.945 397.971 273.047 397.937C273.128 397.909 273.21 397.881 273.286 397.853C273.303 397.844 273.32 397.836 273.34 397.827Z" fill="white"/>
<path id="Vector_131" opacity="0.7" d="M270.297 389.158C269.307 389.302 267.928 390.302 267.928 390.302C267.928 390.302 271.769 390.699 274.203 393.146C273.213 391.068 271.924 389.904 270.297 389.158Z" fill="white"/>
</g>
</g>
<g id="backpack">
<path id="Vector_132" d="M129.529 462.521C129.529 468.788 103.392 473.868 71.1472 473.868C38.9024 473.868 12.7656 468.788 12.7656 462.521C12.7656 456.254 38.9024 451.174 71.1472 451.174C103.389 451.171 129.529 456.254 129.529 462.521Z" fill="#DBE7F3"/>
<g id="Group_44">
<path id="Vector_133" d="M73.306 388.716C73.306 388.716 79.9366 386.909 83.2976 390.497C82.8174 386.426 68.8704 375.323 59.2185 386.285C68.2792 388.687 73.306 388.716 73.306 388.716Z" fill="#99B4D0"/>
<path id="Vector_134" d="M103.072 406.549C104.933 407.799 108.076 415.789 103.957 421.429C99.8348 427.077 95.5037 430.232 96.9311 433.547C98.3584 436.861 102.255 442.584 98.9464 446.104C95.6409 449.631 91.7932 447.726 91.7932 447.726L92.698 458.1C92.698 458.1 101.977 457.164 103.748 448.965C105.518 440.78 99.3514 436.63 101.36 433.39C103.372 430.15 109.376 423.893 110.153 419.417C110.94 414.934 103.072 406.549 103.072 406.549Z" fill="#6F8AA7"/>
<g id="Group_45">
<path id="Vector_135" d="M110.156 419.413C110.777 415.88 106.021 409.939 103.986 407.577C104.355 408.131 104.714 408.862 105.038 409.724C107.125 412.516 109.379 416.229 108.951 418.728C108.16 423.214 102.164 429.472 100.155 432.708C98.1362 435.938 104.306 440.098 102.533 448.283C101.141 454.714 95.1443 456.675 92.626 457.22L92.7011 458.097C92.7011 458.097 101.981 457.161 103.751 448.962C105.521 440.776 99.3545 436.626 101.363 433.387C103.375 430.147 109.379 423.889 110.156 419.413Z" fill="#B6D1ED"/>
<path id="Vector_136" d="M103.071 406.549C103.071 406.549 103.427 406.947 103.983 407.577C103.669 407.104 103.349 406.745 103.071 406.549Z" fill="#FCC353"/>
</g>
<path id="Vector_137" d="M75.5923 389.519C79.5184 390.07 89.5948 389.245 100.06 395.825C110.515 402.409 113.256 412.317 109.199 422.183C110.251 413.165 103.901 403.884 88.9155 404.066C81.4161 396.69 75.5923 389.519 75.5923 389.519Z" fill="#B6D1ED"/>
<path id="Vector_138" d="M90.343 460.906C93.1977 458.639 93.2957 457.06 93.3088 452.476C93.3055 447.876 95.4188 406.999 89.1083 398.19C82.7979 389.391 67.172 382.367 51.5722 387.13C35.9691 391.881 30.6157 398.712 31.8961 420.16C33.1732 441.602 68.3707 468.39 76.1542 468.355C80.4037 468.348 87.7267 462.988 90.343 460.906Z" fill="#95AEC7"/>
<path id="Vector_139" d="M74.3775 409.763C78.9699 426.747 83.3925 449.249 86.0251 447.341C90.3072 444.241 89.151 410.865 89.1542 406.402C89.1542 405.655 88.5238 402.331 88.5891 399.952C93.4592 411.312 91.6464 446.649 91.6431 450.851C91.6366 455.311 91.5451 456.844 88.7623 459.056C86.2146 461.079 79.0941 466.286 74.9687 466.302C67.3877 466.335 33.1636 440.287 31.9289 419.43C31.1417 406.321 32.9088 398.84 38.0924 393.923C49.1292 408.21 69.2201 409.785 74.3775 409.763Z" fill="#88A2BC"/>
<path id="Vector_140" d="M53.1337 390.625C60.5319 391.949 73.9106 398.448 75.7756 409.443C77.6505 420.444 81.0441 464.035 77.608 467.702C74.1653 471.363 36.2176 463.562 32.5659 453.742C28.9175 443.921 29.1004 421.576 30.5147 410.79C31.9323 400.004 34.5682 387.307 53.1337 390.625Z" fill="#A6C1DC"/>
<path id="Vector_141" d="M55.9622 424.47C61.5639 425.207 72.0552 416.829 73.4891 410.735C75.2725 421.204 78.5028 462.681 75.2333 466.159C71.9539 469.653 35.8451 462.221 32.3829 452.887C28.9141 443.536 29.0807 422.271 30.4264 412.017C31.9191 421.514 39.6732 422.32 55.9622 424.47Z" fill="#B6D1ED"/>
<path id="Vector_142" d="M85.8255 432.212C85.8255 432.212 85.8419 432.219 85.8517 432.215C86.0444 432.215 86.1946 432.065 86.1913 431.876C86.1881 430.946 85.9431 409.012 84.1271 403.733C82.458 398.905 71.8589 385.852 52.4212 386.537C52.2383 386.55 52.0881 386.7 52.0979 386.892C52.0946 387.082 52.2612 387.219 52.4408 387.215C71.2742 386.546 81.9321 399.437 83.4869 403.952C85.2768 409.126 85.5185 431.648 85.5152 431.876C85.5185 432.059 85.6589 432.206 85.8255 432.212Z" fill="#B6D1ED"/>
<path id="Vector_143" d="M63.8831 431.286C68.0084 433.794 69.5043 439.22 69.8734 444.858C70.2556 450.499 70.3862 466.273 66.3818 468.24C59.4834 471.637 31.0471 460.851 29.2114 455.715C27.3823 450.58 24.8411 424.366 31.021 422.666C35.7081 421.387 52.5719 424.402 63.8831 431.286Z" fill="#99B4D0"/>
<path id="Vector_144" d="M59.9339 433.119C63.2329 434.777 64.915 438.316 65.3984 444.633C65.8753 450.949 65.2776 467.611 59.0716 468.756C53.1303 469.846 30.018 461.94 27.797 456.671C25.0173 450.048 24.5601 429.742 28.3849 425.971C31.7296 422.679 52.9049 429.583 59.9339 433.119Z" fill="#B6D1ED"/>
<path id="Vector_145" d="M87.6545 434.424C88.1934 432.587 86.8248 429.599 85.8156 429.648C84.558 429.71 83.9342 433.723 84.607 434.731C85.0807 435.449 87.4552 435.122 87.6545 434.424Z" fill="#E0ECF9"/>
<path id="Vector_146" d="M67.4231 452.678C67.9686 450.838 66.6 447.853 65.5973 447.905C64.3365 447.97 63.7094 451.973 64.379 452.985C64.8493 453.699 67.2239 453.37 67.4231 452.678Z" fill="#E0ECF9"/>
<path id="Vector_147" d="M43.0145 407.042C42.7434 411.117 45.2127 414.611 48.5312 414.826C51.84 415.045 54.7503 411.913 55.0181 407.831C55.2925 403.753 52.8231 400.269 49.5079 400.05C46.1959 399.828 43.2889 402.96 43.0145 407.042Z" fill="#E0ECF9"/>
<path id="Vector_148" d="M44.0725 407.107C43.8798 410.03 45.6403 412.529 48.0182 412.683C50.3895 412.839 52.4702 410.601 52.6629 407.678C52.8588 404.758 51.0918 402.255 48.7205 402.099C46.3459 401.942 44.2587 404.19 44.0725 407.107Z" fill="#B6D1ED"/>
</g>
</g>
</g>
</svg>
