<svg width="386" height="575" viewBox="0 0 386 575" fill="none" xmlns="http://www.w3.org/2000/svg">
<path d="M145.84 456.333C226.385 456.333 283.062 451.768 283.062 446.137C283.062 440.506 226.385 435.941 145.84 435.941C65.2946 435.941 0 440.506 0 446.137C0 451.768 65.2946 456.333 145.84 456.333Z" fill="#DBE7F3"/>
<path fill-rule="evenodd" clip-rule="evenodd" d="M28.2279 0C12.6381 0 0 12.6381 0 28.2279V410.772C0 426.362 12.6381 439 28.2279 439H183.772C199.362 439 212 426.362 212 410.772V28.2279C212 12.6381 199.362 0 183.772 0H28.2279ZM9 38C7.89543 38 7 38.8954 7 40V385C7 386.105 7.89543 387 9 387H201C202.105 387 203 386.105 203 385V40C203 38.8954 202.105 38 201 38H9Z" fill="#A6C1DC"/>
<rect x="68" y="18" width="79" height="7" rx="3.5" fill="#96B3CF"/>
<rect x="66" y="410" width="79" height="7" rx="3.5" fill="#96B3CF"/>
<circle cx="38" cy="21" r="2" fill="#96B3CF"/>
<path d="M212 109H213.371C214.271 109 215 109.729 215 110.629V137.371C215 138.271 214.271 139 213.371 139H212V109Z" fill="#B6CADC"/>
<path d="M212 169H213.371C214.271 169 215 169.729 215 170.629V232.371C215 233.271 214.271 234 213.371 234H212V169Z" fill="#B6CADC"/>
<rect x="166.146" y="354.786" width="217.542" height="163.542" rx="3.71468" fill="white" stroke="#A6C1DC" stroke-width="4.45761"/>
<rect x="250.917" y="485.557" width="54" height="14" rx="5.94349" fill="#6F8AA7"/>
<rect x="166.917" y="355.557" width="215" height="24" fill="#A6C1DC"/>
<circle cx="174.417" cy="367.057" r="3.5" fill="#C7E0FA"/>
<circle cx="186.617" cy="367.057" r="3.5" fill="#C7E0FA"/>
<circle cx="198.818" cy="367.057" r="3.5" fill="#C7E0FA"/>
<rect x="222.917" y="363.557" width="156" height="7" rx="3.5" fill="#C7E0FA"/>
<rect x="227.917" y="404.557" width="96" height="7" rx="3.5" fill="#A6C1DC"/>
<rect x="202.917" y="428.557" width="149" height="5" rx="2.5" fill="#A6C1DC"/>
<rect x="203.917" y="443.557" width="149" height="5" rx="2.5" fill="#A6C1DC"/>
<rect x="203.917" y="459.557" width="69" height="5" rx="2.5" fill="#A6C1DC"/>
<path d="M86.5865 529.247C86.5865 529.247 82.8229 529.313 78.3988 532.422C68.1409 539.639 65.0555 538.342 56.6727 532.134C49.1588 537.474 89.4768 551.909 93.3779 542.38C93.9586 535.451 96.7026 530.544 86.5865 529.247Z" fill="#65809D"/>
<path d="M88.9005 530.452C88.9005 530.452 84.9419 529.939 80.5177 533.047C73.2654 538.152 69.6924 539.282 65.2594 537.316C68.8191 538.073 72.5295 536.771 78.6382 532.613C84.0819 528.911 88.3686 529.58 88.3686 529.58C90.3146 529.828 90.1506 530.359 91.25 530.869C90.554 530.705 89.7782 530.563 88.9005 530.452Z" fill="#536B86"/>
<path d="M88.755 529.97C88.755 529.97 84.7964 529.456 80.3722 532.569C73.1199 537.67 69.5469 538.808 65.1139 536.837C68.6736 537.594 72.384 536.293 78.4926 532.135C83.9363 528.433 88.2231 529.102 88.2231 529.102C90.1691 529.354 90.0007 529.881 91.1045 530.386C90.4129 530.222 89.6327 530.08 88.755 529.97Z" fill="#C8D9EA"/>
<path d="M56.6723 532.13C57.2442 532.556 57.7939 532.954 58.317 533.326C56.167 535.89 62.812 540.03 71.084 542.939C61.3137 539.866 52.8733 534.836 56.6723 532.13Z" fill="#FDC300"/>
<path d="M92.2734 543.869C88.9354 546.658 80.2024 545.667 72.1122 543.253C73.3756 542.514 74.7676 541.602 76.328 540.504C80.7521 537.391 84.7108 537.904 84.7108 537.904C90.8239 538.693 92.238 540.796 92.2734 543.869Z" fill="#536B86"/>
<path d="M50.1327 574.206C20.7063 574.206 -0.000358582 571.175 -0.000358582 567.436C-0.000358582 563.697 20.7063 560.666 50.1327 560.666C79.5592 560.666 103.414 563.697 103.414 567.436C103.414 571.175 79.5592 574.206 50.1327 574.206Z" fill="#DBE7F3"/>
<path d="M76.8517 470.751C76.8517 470.751 77.295 473.974 74.8613 476.419C77.5344 476.215 77.6009 476.56 77.0956 477.384C76.5902 478.208 76.6434 478.695 78.0974 478.628C79.5514 478.562 82.025 478.438 81.8477 479.385C81.6704 480.333 81.8256 480.785 83.2884 480.572C84.7558 480.359 86.4137 479.638 86.2497 480.39C86.0857 481.152 85.966 482.007 87.3092 481.546C88.6523 481.086 89.6409 480.253 90.7403 480.975C90.8112 480.692 90.5098 479.748 89.304 479.695C88.1027 479.642 87.0831 479.695 87.5264 479.058C87.9697 478.416 88.6834 477.419 87.3047 477.202C85.9216 476.985 83.9002 476.91 84.6006 476.1C85.2966 475.29 86.1211 474.156 84.8134 473.66C83.5056 473.16 80.5976 473.824 80.9567 473.036C81.3158 472.248 81.6216 471.499 80.5001 471.07C79.3741 470.631 77.6408 470.578 76.8517 470.751Z" fill="#607A97"/>
<path d="M77.3261 476.91C78.0975 476.817 79.4939 474.408 80.4647 473.133C81.174 472.203 80.8725 471.482 80.5888 471.105C81.5951 471.544 81.3025 472.27 80.9567 473.031C80.5977 473.82 83.5057 473.155 84.8134 473.656C84.8755 473.678 84.9331 473.704 84.9863 473.731C84.7735 473.696 84.5209 473.656 84.2239 473.611C82.792 473.408 81.3468 474.214 80.7218 474.718C79.6667 475.564 78.1196 476.724 78.3501 477.681C78.4521 478.101 79.5426 478.473 80.0746 478.575C79.915 478.58 78.2526 478.615 78.1063 478.624C76.6523 478.69 76.5991 478.203 77.1045 477.38C77.2064 477.202 77.2907 477.047 77.3261 476.91Z" fill="#536B86"/>
<path d="M81.8487 479.385C81.8664 479.301 81.8575 479.226 81.8354 479.155C82.1856 479.013 82.6111 478.256 83.1741 477.557C84.0519 476.459 84.5483 475.679 85.1512 475.068C85.2798 474.94 85.3551 474.913 85.3906 474.949C85.2222 475.343 84.8986 475.75 84.5971 476.104C84.0164 476.777 85.3241 476.946 86.5742 477.105C85.6256 476.999 84.4331 477.061 83.5731 478.336C82.8372 479.425 83.7327 480.187 84.0784 480.422C83.8169 480.479 83.5509 480.532 83.2894 480.572C81.8265 480.78 81.6713 480.333 81.8487 479.385Z" fill="#536B86"/>
<path d="M88.1033 477.76C88.1565 478.159 87.793 478.672 87.527 479.053C87.1724 479.567 87.762 479.629 88.6309 479.664C88.6309 479.664 88.6264 479.664 88.6264 479.669C87.5182 479.771 87.004 480.311 86.6715 480.988C86.4144 481.511 87.4384 481.391 87.9083 481.316C87.7177 481.396 87.5182 481.475 87.3098 481.546C85.9666 482.007 86.0908 481.152 86.2503 480.39C86.2725 480.275 86.2548 480.191 86.2016 480.138C87.0483 479.438 87.8196 478.234 88.1033 477.76Z" fill="#536B86"/>
<path d="M82.9912 475.781C82.774 475.874 82.4061 476.002 82.313 476.157C82.1268 476.627 81.7633 476.755 81.351 476.684C80.9388 476.618 80.8412 476.224 80.9653 475.945C81.085 475.666 80.8723 475.431 80.8457 475.276C80.6728 474.28 81.4219 473.873 82.0647 473.837C82.6499 473.806 83.1641 473.979 83.4168 474.581C83.6739 475.183 83.2084 475.688 82.9912 475.781ZM81.9007 475.055C81.9849 474.802 81.8785 474.541 81.6702 474.475C81.4574 474.404 81.2225 474.555 81.1382 474.807C81.0584 475.059 81.1604 475.321 81.3688 475.391C81.5815 475.458 81.8165 475.307 81.9007 475.055ZM81.6214 475.617C81.3643 475.608 81.453 476.087 81.453 476.087C81.4884 476.233 81.6613 476.122 81.8032 475.94C81.9495 475.754 81.8785 475.622 81.6214 475.617ZM82.8671 474.696C82.6676 474.594 82.4105 474.705 82.2908 474.94C82.1667 475.174 82.2332 475.449 82.4282 475.551C82.6277 475.653 82.8848 475.542 83.0045 475.307C83.1242 475.073 83.0622 474.798 82.8671 474.696Z" fill="#37495C"/>
<path d="M79.654 475.21C79.654 475.21 79.6939 474.732 79.9953 474.807C80.2967 474.882 80.2701 475.378 80.146 475.639C80.5361 475.963 81.835 477.716 81.835 477.716C81.835 477.716 82.4246 477.623 82.4645 477.915C82.5044 478.207 82.0167 478.243 82.0167 478.243C82.0167 478.243 81.8705 478.619 81.6222 478.548C81.405 478.486 81.436 478.115 81.5823 477.902C81.3607 477.689 79.8268 475.834 79.8268 475.834C79.8268 475.834 79.2373 475.945 79.1663 475.648C79.0954 475.356 79.4855 475.13 79.654 475.21Z" fill="#37495C"/>
<path d="M80.1321 477.295C80.1321 477.295 79.6711 476.839 79.5248 477.047C79.3785 477.26 79.5292 477.561 79.6755 477.574C79.5204 477.867 79.7243 478.141 79.9548 478.079C80.1853 478.017 80.2784 477.689 80.2784 477.689L83.4613 476.627C83.4613 476.627 83.8115 477.043 84.0686 476.875C84.2681 476.742 84.1839 476.467 83.9179 476.366C84.1218 476.078 83.94 475.901 83.7672 475.901C83.5898 475.901 83.3638 476.268 83.3638 476.268L80.1321 477.295Z" fill="#37495C"/>
<path d="M71.5982 485.301C71.78 485.319 71.9484 485.195 71.9883 485.013C73.0079 480.103 77.6138 469.113 77.6581 469.002C77.7379 468.816 77.6493 468.603 77.4631 468.524C77.2769 468.448 77.0641 468.533 76.9843 468.719C76.7937 469.17 72.3075 479.881 71.2702 484.863C71.2303 485.062 71.3544 485.252 71.5539 485.292C71.5672 485.297 71.5805 485.301 71.5982 485.301Z" fill="#A6C1DC"/>
<path d="M76.657 467.851C76.6082 468.422 77.0293 468.922 77.6012 468.975C78.173 469.024 78.674 468.603 78.7227 468.032C78.7715 467.461 78.3504 466.961 77.7785 466.912C77.2111 466.859 76.7057 467.28 76.657 467.851Z" fill="#95AEC7"/>
<path d="M76.8562 467.682C76.8207 468.103 77.131 468.471 77.5477 468.506C77.9688 468.541 78.3368 468.231 78.3722 467.815C78.4077 467.395 78.0974 467.027 77.6807 466.992C77.2596 466.956 76.8916 467.262 76.8562 467.682Z" fill="#A6C1DC"/>
<path d="M81.3105 482.759C81.3105 482.759 77.6888 490.198 76.9795 490.783C73.7523 490.712 63.2683 488.821 63.2683 488.821L62.8782 480.736C62.8782 480.736 65.1301 478.411 72.9411 479.27C80.6855 480.125 81.3105 482.759 81.3105 482.759Z" fill="#95AEC7"/>
<path d="M79.351 485.261C78.7392 485.908 76.6735 487.936 67.178 487.028C62.6342 487.201 63.2725 488.817 63.2725 488.817L62.8824 480.731C62.8824 480.731 65.0502 478.876 72.8611 479.74C80.6055 480.594 80.3218 484.238 79.351 485.261Z" fill="#A6C1DC"/>
<path d="M63.29 488.551C62.993 489.623 65.932 490.96 69.7444 491.478C73.5568 491.996 76.8815 491.549 77.1785 490.482C77.4711 489.41 74.6251 488.126 70.8128 487.608C67.0048 487.081 63.587 487.48 63.29 488.551Z" fill="#58738F"/>
<path d="M64.1372 488.808C63.9067 489.645 66.4291 490.69 69.7716 491.141C73.114 491.593 76.0088 491.288 76.2393 490.451C76.4698 489.614 73.9474 488.569 70.605 488.113C67.2625 487.661 64.3677 487.971 64.1372 488.808Z" fill="#65809D"/>
<path d="M75.1352 488.688L79.6436 481.13L79.4618 481.064L74.949 488.622L75.1352 488.688Z" fill="#58738F"/>
<path d="M71.9837 487.838L75.0469 479.633L74.8474 479.589L71.7886 487.794L71.9837 487.838Z" fill="#58738F"/>
<path d="M68.8446 487.444L69.709 479.146L69.5006 479.137L68.6406 487.435L68.8446 487.444Z" fill="#58738F"/>
<path d="M65.4186 487.559L65.627 487.546L64.6207 479.93L64.4123 479.943L65.4186 487.559Z" fill="#58738F"/>
<path d="M65.9246 550.537C65.9601 550.537 65.9911 550.537 66.0266 550.533C66.4655 550.48 66.7713 550.077 66.7181 549.638C64.6258 533.286 66.5541 518.156 68.5401 504.863C69.3735 499.275 70.2158 494.493 71.0226 490.424C71.1777 490.017 71.2221 489.375 70.5571 489.211C69.7636 489.069 69.4489 489.866 69.4843 490.238C68.6731 494.307 67.7998 499.045 66.9664 504.611C64.9627 518.01 63.021 533.304 65.1356 549.842C65.1888 550.245 65.5301 550.537 65.9246 550.537Z" fill="#58738F"/>
<path d="M95.4609 499.864C95.4609 499.864 87.9249 503.146 85.9389 496.601C81.1646 499.276 76.5099 498.071 75.978 494.405C72.5646 498.195 66.2077 496.942 65.884 492.988C62.1869 496.473 56.9649 496.446 56.3975 493.112C54.4735 496.575 48.4801 496.907 47.8728 493.94C44.0339 497.686 39.6585 517.355 47.7975 529.394C48.0812 525.072 52.594 525.56 54.5223 528.889C55.6704 525.099 60.6443 525.83 62.4928 529.23C64.0532 525.064 68.5527 526.954 69.7407 530.328C71.1593 527.14 75.5214 528.801 77.5339 532.436C78.5668 529.035 82.1043 530.404 84.3474 534.499C84.5203 521.309 86.3201 508.827 95.4609 499.864Z" fill="#A4C2E1"/>
<path d="M83.0713 530.598C79.5692 519.524 84.9686 506.413 91.2413 503.061C89.4902 503.061 86.427 501.458 85.8419 499.125C87.8057 500.613 89.5124 500.794 90.6694 500.648C93.0987 500.892 95.457 499.86 95.457 499.86C86.3206 508.822 84.5209 521.304 84.348 534.495C82.3531 530.851 79.3431 529.372 77.9689 531.471C77.9645 531.471 77.9645 531.471 77.96 531.471C78.6959 529.576 81.0277 528.411 83.0713 530.598Z" fill="#82A6CB"/>
<path d="M80.5928 499.856C80.5928 499.856 76.2174 499.709 75.3441 496.65C72.2809 498.833 66.8815 498.979 65.1305 495.193C62.6525 497.668 57.3994 497.96 56.0872 495.193C53.024 497.088 50.3997 497.814 49.2338 497.088C50.2534 497.96 53.7555 498.253 55.7991 497.38C57.5501 498.691 63.3839 499.129 64.9887 496.796C66.4471 498.837 70.5299 500.874 74.7634 498.107C75.9248 500.002 78.2566 500.148 80.5928 499.856Z" fill="#82A6CB"/>
<path d="M75.3391 500.874C75.3391 500.874 77.9634 501.892 80.8804 501.751C83.7973 501.605 85.402 502.769 82.0462 506.852C78.6905 510.93 76.2124 520.985 77.8172 528.562C77.6709 530.452 76.6513 529.434 75.3391 527.543C74.027 525.648 71.2519 526.525 69.7935 528.562C67.1691 523.753 64.5404 526.959 62.5012 525.94C60.4576 524.917 56.5211 523.315 55.5015 525.21C54.4819 527.105 52.7309 525.794 51.565 524.771C50.3991 523.753 48.2092 524.191 47.0434 526.666C44.419 520.835 41.6484 510.784 47.0434 497.234C47.3359 496.508 46.7508 502.335 50.2528 504.372C49.814 502.623 52.589 497.96 55.9404 498.983C59.2961 500.002 62.3593 500.148 64.1104 499.568C65.8614 498.983 66.5884 499.714 69.6516 500.732C72.7148 501.751 72.5685 500.002 75.3391 500.874Z" fill="#B6D1ED"/>
<path d="M90.9967 501.923C90.1855 501.923 89.1615 501.662 87.969 500.812C87.9247 500.781 87.9158 500.715 87.9468 500.67C87.9779 500.622 88.0399 500.613 88.0887 500.648C91.0411 502.756 92.8453 501.162 92.9206 501.091C92.9605 501.051 93.027 501.056 93.0669 501.1C93.1068 501.144 93.1024 501.206 93.0625 501.242C93.0448 501.255 92.2956 501.923 90.9967 501.923Z" fill="#5F86AE"/>
<path d="M49.6679 501.126C49.6369 501.126 49.6059 501.113 49.5881 501.082C47.252 497.876 47.7972 495.835 47.8194 495.751C47.8371 495.698 47.8903 495.662 47.9479 495.68C48.0011 495.698 48.0322 495.755 48.0189 495.804C48.0144 495.826 47.4825 497.841 49.7522 500.963C49.7876 501.007 49.7743 501.073 49.73 501.104C49.7078 501.117 49.6901 501.126 49.6679 501.126Z" fill="#5F86AE"/>
<path d="M83.7978 527.348C83.7446 527.348 83.7003 527.309 83.6959 527.255C82.5389 515.26 88.0402 508.167 88.0934 508.096C88.1289 508.052 88.1954 508.043 88.2397 508.078C88.284 508.114 88.2929 508.176 88.2574 508.224C88.2042 508.295 82.7516 515.327 83.9042 527.238C83.9087 527.295 83.8688 527.344 83.8111 527.348C83.8067 527.348 83.8023 527.348 83.7978 527.348Z" fill="#5F86AE"/>
<path d="M84.6132 535.27C84.8172 535.279 84.99 535.124 84.9989 534.92C85.0033 534.73 84.8704 534.57 84.6886 534.539C84.6132 534.517 84.334 534.406 84.0458 534.287C71.6911 529.319 59.1723 527.534 47.8416 529.124C47.6377 529.155 47.5003 529.341 47.5269 529.54C47.5535 529.744 47.7441 529.881 47.9436 529.855C59.1457 528.283 71.5359 530.049 83.771 534.969C84.4182 535.234 84.5024 535.265 84.6132 535.27Z" fill="#A6C1DC"/>
<path d="M96.055 500.103C96.2279 500.112 96.3919 500.015 96.4628 499.847C96.5559 499.634 96.4584 499.382 96.2412 499.284C96.1836 499.262 90.2301 496.69 81.3242 494.657C73.101 492.78 60.6 490.986 47.731 493.094C47.5005 493.134 47.3409 493.351 47.3808 493.586C47.4207 493.816 47.6379 493.975 47.8729 493.935C60.6088 491.85 72.9946 493.63 81.138 495.49C89.9685 497.504 95.8467 500.046 95.9043 500.068C95.953 500.09 96.0062 500.103 96.055 500.103Z" fill="#A6C1DC"/>
<path d="M92.279 529.846C92.2214 533.167 93.3208 538.812 84.3041 541.026C75.2918 543.24 66.0446 539.866 61.882 535.332C57.7239 530.798 47.3197 522.571 41.313 523.31C35.3018 524.05 27.1318 529.137 25.1326 537.758C22.4683 549.262 30.1374 561.43 38.8837 564.968C45.8878 567.802 71.147 568.736 83.4928 564.127C99.2432 558.246 99.6732 538.467 92.279 529.846Z" fill="#A6C1DC"/>
<path d="M35.727 562.714C42.7311 565.543 67.9947 566.478 80.3317 561.873C96.0555 555.997 99.3404 546.495 70.7387 543.028C70.8185 542.594 70.9249 541.739 71.0047 540.628C75.0254 541.823 79.6889 542.155 84.2992 541.022C93.3115 538.808 91.3388 533.742 91.3965 530.421C98.7995 539.047 98.1523 558.437 82.4064 564.317C70.0649 568.926 45.8874 567.802 38.8877 564.968C37.0436 564.224 35.2438 563.09 33.5814 561.66C34.2863 562.063 35.0044 562.422 35.727 562.714Z" fill="#95AEC7"/>
<path d="M42.9393 524.501C42.926 525.453 42.1989 527.198 41.5384 528.867C40.1553 532.356 35.514 550.776 42.7974 560.69C40.9488 562.798 38.0896 562.683 36.4715 560.783C34.8535 558.884 33.1202 548.124 34.0467 540.008C34.9687 531.887 37.7438 527.034 37.6285 525.56C37.5133 524.085 36.6001 521.92 38.6925 521.238C41.1483 520.436 42.9614 522.983 42.9393 524.501Z" fill="#65809D"/>
<path d="M28.6969 531.918C28.6526 531.976 28.5861 532.007 28.5152 532.007C28.5152 532.007 28.5152 532.007 28.5107 532.007C28.3866 532.007 28.2847 531.905 28.2847 531.781C28.2847 531.728 28.3024 531.679 28.3334 531.639C29.0205 530.47 29.9293 529.275 31.0154 528.163C34.2071 525.365 38.0727 523.704 41.3088 523.306C47.3155 522.566 57.7197 530.793 61.8778 535.328C66.036 539.862 75.2832 543.236 84.2999 541.022C92.9087 538.905 92.2926 533.667 92.2704 530.302C92.5364 530.426 92.7758 530.572 92.9841 530.74C93.29 531.156 93.5826 531.595 93.8574 532.051C94.3051 533.224 94.3362 534.721 93.915 536.16C93.1526 538.772 91.0602 540.955 88.0192 542.319C85.3416 543.519 82.141 544.152 78.7542 544.152C72.2599 544.152 65.8498 541.93 61.6074 538.214C57.2365 534.384 47.0052 525.418 39.7173 525.418C38.6091 525.418 37.5939 525.63 36.7029 526.042C36.694 526.047 36.6896 526.047 36.6807 526.051C34.5928 526.773 30.3371 529.748 28.6969 531.918Z" fill="#65809D"/>
<path d="M86.0679 529.213C86.0679 529.213 91.8884 528.526 93.2715 530.629C94.8319 533.003 94.2335 538.547 87.9342 541.372C79.8928 544.976 68.2651 542.997 61.7619 537.302C55.928 532.188 43.8083 521.769 36.6135 525.095C34.5345 525.803 30.2433 528.739 28.51 531.037C30.6778 527.317 35.9663 522.256 42.3764 522.491C48.7909 522.73 54.6469 526.799 62.5687 534.437C68.7216 540.371 79.6445 542.111 86.2319 539.423C92.8194 536.731 91.5205 531.276 90.3901 530.563C89.2641 529.855 87.2693 529.77 87.2693 529.77L86.0679 529.213Z" fill="#B6D1ED"/>
<path d="M90.399 530.559C90.9043 530.882 91.4451 532.162 91.29 533.72C91.6269 531.953 91.0284 530.439 90.4699 530.085C89.3439 529.372 87.3491 529.297 87.3491 529.297L87.0166 529.142C86.4403 529.177 86.0679 529.217 86.0679 529.217L87.2826 529.77C87.2826 529.766 89.273 529.846 90.399 530.559Z" fill="#DBECFD"/>
<path d="M88.005 540.893C79.9635 544.498 68.3358 542.518 61.837 536.824C55.9988 531.71 43.8834 521.291 36.6887 524.616C34.951 525.21 31.6661 527.362 29.6225 529.39C29.197 529.952 28.8246 530.505 28.5187 531.032C30.252 528.739 34.5387 525.803 36.6222 525.09C43.8169 521.769 55.9323 532.188 61.7705 537.298C68.2693 542.992 79.9015 544.971 87.9429 541.367C91.9991 539.547 93.688 536.598 93.9629 534.096C93.5285 536.492 91.8085 539.189 88.005 540.893Z" fill="#DBECFD"/>
<path d="M92.9434 530.249C91.6091 529.035 88.475 529.049 86.9412 529.142L87.4155 529.359C87.4155 529.359 89.4104 529.438 90.5363 530.151C91.188 530.563 91.8973 532.573 91.0949 534.716C90.6117 536.386 89.2508 538.192 86.2408 539.419C79.6533 542.107 68.7349 540.366 62.5775 534.433C54.6557 526.795 48.7953 522.726 42.3852 522.487C37.4203 522.305 33.1336 525.294 30.4428 528.38C32.4154 526.387 35.0885 524.643 36.6135 524.12C44.7347 520.516 56.5486 531.028 62.3869 536.142C68.8901 541.836 79.5159 543.953 87.5574 540.349C93.7547 537.572 94.4108 532.666 92.9434 530.249Z" fill="#DBECFD"/>
<path d="M42.24 523.204C42.2267 524.156 41.4997 525.896 40.8348 527.57C39.4517 531.059 34.2651 550.205 41.5441 560.119C39.6955 562.227 37.3815 561.386 35.7634 559.486C34.1454 557.586 32.4121 546.831 33.3386 538.71C34.2607 530.59 37.0357 525.737 36.9204 524.258C36.8052 522.779 35.892 520.618 37.9888 519.94C40.4491 519.135 42.2622 521.681 42.24 523.204Z" fill="#DBECFD"/>
<path d="M40.2225 527.366C40.883 525.692 41.6145 523.948 41.6278 523C41.6411 521.964 40.7988 520.45 39.4866 519.847C39.0256 519.75 38.5247 519.768 37.9883 519.94C37.8287 519.994 37.6824 520.056 37.5583 520.126C39.0566 520.614 40.0363 522.283 40.023 523.403C40.0097 524.355 39.2827 526.095 38.6222 527.769C37.2391 531.258 32.0525 550.404 39.3315 560.314C39.0167 560.677 38.6843 560.947 38.3474 561.146C39.234 561.191 40.1294 560.837 40.9362 559.916C33.6528 549.997 38.8394 530.851 40.2225 527.366Z" fill="#B6D1ED"/>
</svg>
