<svg width="430" height="595" viewBox="0 0 430 595" fill="none" xmlns="http://www.w3.org/2000/svg">
<path d="M161.119 451.732C241.664 451.732 298.341 447.167 298.341 441.536C298.341 435.905 241.664 431.34 161.119 431.34C80.5739 431.34 15.2793 435.905 15.2793 441.536C15.2793 447.167 80.5739 451.732 161.119 451.732Z" fill="#DBE7F3"/>
<path fill-rule="evenodd" clip-rule="evenodd" d="M64.2279 0C48.6381 0 36 12.6381 36 28.2279V410.772C36 426.362 48.6381 439 64.2279 439H219.772C235.362 439 248 426.362 248 410.772V28.2279C248 12.6381 235.362 0 219.772 0H64.2279ZM45 38C43.8954 38 43 38.8954 43 40V385C43 386.105 43.8954 387 45 387H237C238.105 387 239 386.105 239 385V40C239 38.8954 238.105 38 237 38H45Z" fill="#A6C1DC"/>
<rect x="104" y="18" width="79" height="7" rx="3.5" fill="#96B3CF"/>
<rect x="102" y="410" width="79" height="7" rx="3.5" fill="#96B3CF"/>
<circle cx="74" cy="21" r="2" fill="#96B3CF"/>
<path d="M248 109H249.371C250.271 109 251 109.729 251 110.629V137.371C251 138.271 250.271 139 249.371 139H248V109Z" fill="#B6CADC"/>
<path d="M248 169H249.371C250.271 169 251 169.729 251 170.629V232.371C251 233.271 250.271 234 249.371 234H248V169Z" fill="#B6CADC"/>
<path d="M159.558 522.691C177.818 522.691 190.666 521.383 190.666 519.769C190.666 518.155 177.818 516.846 159.558 516.846C141.299 516.846 126.497 518.155 126.497 519.769C126.497 521.383 141.299 522.691 159.558 522.691Z" fill="#DBE7F3"/>
<path d="M131.735 512.326C131.735 512.326 123.566 515.628 123.699 516.088C123.831 516.555 131.563 518.253 132.918 518.619L132.979 518.578C135.449 517.098 135.028 513.398 132.287 512.508L131.735 512.326Z" fill="#EAF6FE"/>
<path d="M129.048 516.378C127.514 516.504 126.025 516.563 124.553 516.487C126.624 517.173 131.823 518.326 132.918 518.619L132.979 518.578C134.142 517.877 134.65 516.694 134.596 515.541C132.799 516.051 130.86 516.229 129.048 516.378Z" fill="#EAF6FE"/>
<path d="M126.586 515.778C126.578 515.54 126.168 514.692 126.092 514.731C124.715 515.359 123.075 516.083 123.075 516.083C123.075 516.083 125.716 516.9 126.338 516.996C126.336 517.003 126.614 516.507 126.586 515.778Z" fill="#B3B3B3"/>
<path d="M126.584 515.747C126.216 515.959 125.818 516.127 125.387 516.227C124.941 516.333 124.47 516.364 124.011 516.368C124.833 516.617 125.968 516.94 126.345 516.997C126.345 516.997 126.614 516.508 126.593 515.78C126.587 515.771 126.583 515.755 126.584 515.747Z" fill="#6F8AA7"/>
<path d="M179.942 511.883L131.735 512.326C131.735 512.326 134.679 514.947 132.918 518.619L180.548 517.806C180.548 517.806 181.837 516.406 181.738 514.688C181.69 513.787 181.308 513.073 179.942 511.883Z" fill="#CCDDEE"/>
<path d="M132.983 514.089L181.349 513.416C181.076 512.968 180.642 512.489 179.942 511.882L131.735 512.326C131.735 512.326 132.464 512.976 132.983 514.089Z" fill="#A6C1DC"/>
<path d="M181.684 515.493L133.463 516.803C133.455 516.809 133.447 516.807 133.438 516.813C133.411 517.075 133.353 517.338 133.285 517.615C133.275 517.666 133.258 517.716 133.242 517.759C133.215 517.861 133.182 517.953 133.148 518.053C133.082 518.239 133.009 518.423 132.918 518.619L180.549 517.806C180.549 517.806 180.854 517.445 181.192 516.87C181.401 516.498 181.59 516.023 181.684 515.493Z" fill="#A6C1DC"/>
<path d="M181.683 515.493C181.707 515.368 181.724 515.241 181.733 515.113C178.783 515.716 175.803 516.35 172.831 516.667C168.536 517.126 134.409 517.555 132.666 517.702C131.341 517.815 127.34 517.256 127.34 517.256C128.793 517.625 130.384 517.998 131.528 518.27C131.652 518.301 131.768 518.331 131.879 518.352C131.915 518.359 131.945 518.365 131.973 518.378C132.082 518.406 132.192 518.427 132.286 518.453C132.301 518.456 132.323 518.46 132.338 518.463C132.446 518.491 132.549 518.511 132.636 518.535C132.651 518.538 132.666 518.541 132.688 518.545C132.775 518.569 132.855 518.584 132.913 518.603L180.543 517.79C180.543 517.79 180.977 517.316 181.324 516.575C181.334 516.561 181.337 516.547 181.347 516.533C181.495 516.241 181.616 515.884 181.683 515.493Z" fill="#6A8AAC"/>
<path d="M399.523 462.661C399.523 462.661 405.798 461.444 405.538 453.854C405.297 446.824 388.864 444.724 388.864 444.724" stroke="#DBE7F3" stroke-width="5.49201"/>
<path d="M366.681 450.933C349.059 450.933 336.659 448.068 336.659 444.533C336.659 440.998 349.059 438.132 366.681 438.132C384.303 438.132 398.589 440.998 398.589 444.533C398.589 448.068 384.303 450.933 366.681 450.933Z" fill="#DBE7F3"/>
<path d="M363.759 475.372C338.869 475.372 321.354 470.437 321.354 464.349C321.354 458.261 338.869 453.326 363.759 453.326C388.65 453.326 408.828 458.261 408.828 464.349C408.828 470.436 388.65 475.372 363.759 475.372Z" fill="#DBE7F3"/>
<path d="M339.376 436.064C339.376 436.064 350.755 428.703 364.569 428.885C378.383 429.066 390.434 435.446 390.434 435.446C390.434 435.446 382.745 443.389 365.823 443.153C348.919 442.917 339.376 436.064 339.376 436.064Z" fill="#82A6CB"/>
<path d="M339.377 436.064L337.668 440.208C337.668 440.208 362.606 455.24 391.488 440.208L390.434 435.446C390.434 435.446 373.276 443.626 362.988 442.535C352.718 441.444 339.377 436.064 339.377 436.064Z" fill="#6F8AA7"/>
<path d="M369.005 415.925C369.005 415.925 364.824 417.325 359.88 414.889L361.534 421.996C362.061 424.304 361.807 426.704 360.753 428.867L357.117 436.464C357.117 436.464 366.115 440.3 372.367 436.464L368.459 428.921C367.296 426.686 366.969 424.195 367.514 421.778C368.023 419.524 368.641 416.87 369.005 415.925Z" fill="#6F8AA7"/>
<path d="M361.662 422.923C363.625 422.759 365.57 422.487 367.478 422.014C367.497 421.942 367.497 421.869 367.515 421.814C368.024 419.524 368.66 416.87 369.023 415.925C369.023 415.925 364.843 417.325 359.899 414.889L361.553 421.996C361.608 422.305 361.626 422.614 361.662 422.923Z" fill="#6F8AA7"/>
<path d="M384.145 312.029L378.256 310.084L373.766 323.771L380.801 326.261L382.945 317.173C390.761 320.118 431.294 334.859 419.08 379.954C410.41 411.981 378.983 413.744 349.446 410.49L351.609 401.22L345.72 398.821L340.704 414.689C368.332 421.723 417.88 423.45 428.041 379.954C439.91 329.242 384.145 312.029 384.145 312.029Z" fill="#82A6CB"/>
<path d="M381.764 411.163C389.017 410.854 386.272 413.017 381.692 414.889C380.692 415.307 366.842 418.379 365.915 418.724C356.917 418.215 348.175 416.598 340.722 414.689L345.739 398.821L351.628 401.22L349.465 410.49C360.807 411.745 371.895 412.508 381.764 411.163Z" fill="#82A6CB"/>
<path d="M346.12 411.381C347.32 411.417 348.52 411.108 349.628 410.527C379.092 413.762 410.428 411.945 419.08 379.972C430.004 339.621 397.977 323.917 386.272 318.573C395.269 321.954 433.112 338.076 422.297 380.754C412.482 419.506 371.076 417.634 345.975 411.399C346.011 411.381 346.066 411.381 346.12 411.381Z" fill="#6F8AA7"/>
<path d="M317.165 364.341C319.364 395.64 339.522 409.6 367.15 409.6C394.778 409.6 417.226 388.261 417.226 364.341C417.226 340.403 402.176 319.009 365.06 319.009C337.432 319.009 315.402 339.185 317.165 364.341Z" fill="#A6C1DC"/>
<path d="M410.191 352.09C410.864 354.962 410.828 357.161 412.318 359.96C413.681 362.523 414.317 363.759 414.281 366.867C414.227 370.848 415.481 382.772 408.465 380.918C402.648 379.391 405.829 371.72 401.703 368.394C399.74 366.813 397.214 367.431 396.014 364.904C394.923 362.596 396.359 360.124 394.433 357.979C391.015 354.18 383.927 355.78 381.382 351.217C385.544 348.782 390.234 346.71 387.907 340.457C387.035 338.131 384.254 336.222 384.272 333.477C384.29 329.824 386.908 332.423 389.307 330.569C391.288 329.042 389.325 326.134 391.088 324.807C391.724 324.335 392.724 324.444 393.833 324.807C401.63 328.588 407.301 334.004 411.118 340.421C404.648 339.548 409.628 349.709 410.191 352.09Z" fill="#65809D"/>
<path d="M392.724 368.958C392.56 368.903 392.415 368.849 392.287 368.812C392.033 368.558 391.778 368.249 391.56 367.794L392.724 368.958Z" fill="#65809D"/>
<path d="M392.288 368.83C393.76 370.212 395.814 368.812 397.377 370.121C398.014 370.648 398.868 375.937 398.268 376.828C396.196 379.918 391.397 371.011 391.325 369.012C391.743 368.721 391.979 368.739 392.288 368.83Z" fill="#65809D"/>
<path d="M335.36 394.732L333.124 394.095C336.723 393.732 337.759 395.804 340.686 397.058C343.321 398.185 346.538 397.403 349.283 398.621C353.518 400.493 360.425 408.109 351.264 406.273C350.137 406.055 348.72 405.165 347.683 405.783C347.502 405.892 347.356 406.055 347.265 406.237C341.685 404.256 336.687 401.439 332.397 397.749C332.47 396.24 333.288 395.059 335.36 394.732Z" fill="#65809D"/>
<path d="M328.652 394.822C327.962 394.568 327.453 393.877 327.144 393.005C327.634 393.623 328.125 394.223 328.652 394.804C328.652 394.822 328.652 394.822 328.652 394.822Z" fill="#65809D"/>
<path d="M329.27 387.588C330.815 389.824 328.543 392.278 328.634 394.804C328.125 394.223 327.616 393.623 327.125 393.005C326.325 390.696 326.943 387.17 329.27 387.588Z" fill="#65809D"/>
<path d="M334.232 380.318C335.868 381.608 338.213 380.863 339.758 382.135C341.285 383.389 341.03 385.861 338.904 386.734C335.577 388.079 335.705 384.807 334.759 382.935C334.36 382.117 332.706 381.263 332.76 380.318C332.851 378.754 333.542 379.772 334.232 380.318Z" fill="#65809D"/>
<path d="M348.756 376.555C348.429 376.955 348.229 375.774 347.902 375.955C348.756 377.755 347.284 379.809 347.302 381.772C347.32 382.844 348.102 388.315 345.484 384.68C344.175 382.844 346.157 372.938 348.756 376.555Z" fill="#65809D"/>
<path d="M330.724 373.338L330.488 372.138C330.543 372.175 330.615 372.193 330.67 372.211C330.761 372.575 330.761 372.956 330.724 373.338Z" fill="#65809D"/>
<path d="M328.453 371.92C329.107 371.757 329.834 371.848 330.434 372.102C330.198 375.737 332.906 377.01 330.379 380.554C329.234 379.409 329.216 378.155 328.98 376.519C328.907 376.028 329.253 375.028 329.216 374.501C329.162 373.574 328.235 373.12 328.453 371.92Z" fill="#65809D"/>
<path d="M330.488 372.138C330.47 372.12 330.452 372.12 330.416 372.102C330.416 372.029 330.416 371.957 330.434 371.866L330.488 372.138Z" fill="#65809D"/>
<path d="M372.621 343.583C373.675 342.057 373.784 342.42 374.093 340.439C374.438 338.185 373.639 336.149 374.893 334.259C375.42 333.459 376.529 332.478 377.619 332.005H377.601C377.619 332.005 377.619 332.005 377.637 332.005C378.328 331.714 379.001 331.642 379.528 331.951C381.327 331.914 383.254 332.096 384.09 333.75C384.781 335.113 384.453 338.676 384.799 340.439C386.18 347.401 381.782 347.419 376.147 347.419C374.202 347.419 370.639 348.382 370.894 345.656C370.967 344.783 372.184 344.238 372.621 343.583Z" fill="#65809D"/>
<path d="M339.285 325.552C337.976 326.28 336.722 327.061 335.504 327.897C336.74 326.788 338.013 325.88 339.285 325.552Z" fill="#65809D"/>
<path d="M342.593 326.261C345.938 329.024 341.794 329.806 342.357 332.023C342.684 333.314 344.356 332.987 345.302 333.187C345.084 333.15 348.955 333.641 348.41 333.841C348.464 333.986 348.573 334.041 348.719 334.023C348.937 331.278 351.573 328.624 354.226 330.515C356.735 327.915 352.609 325.934 352.3 323.335C353.79 323.262 355.608 322.99 356.844 323.935C358.461 325.189 357.662 326.698 359.77 327.316C360.061 327.406 361.188 326.498 361.878 326.77C362.933 327.188 362.951 328.261 363.569 329.133C364.459 330.406 365.314 332.423 366.55 333.496C367.895 334.677 368.676 335.804 369.531 333.496C370.458 330.969 367.804 331.096 367.422 329.115C366.895 326.334 372.875 324.916 372.421 329.37C374.584 329.533 376.22 327.37 378.782 327.661C382.2 328.061 381.145 329.024 378.201 329.988C372.312 331.896 372.839 334.35 371.439 339.53C369.912 345.219 363.823 342.62 363.642 348.327C363.551 351.217 362.678 351.944 361.679 354.435C360.57 357.179 361.569 358.27 362.206 360.815C362.642 362.596 363.842 365.704 361.606 366.067C359.297 364.904 357.589 364.577 356.371 361.996C355.771 360.724 356.607 360.178 355.208 359.306C354.026 358.561 352.572 359.506 351.427 359.397C349.3 359.215 347.337 357.343 345.32 358.779C342.521 360.778 344.865 363.177 344.429 365.486C343.993 367.794 340.867 368.285 340.267 370.357C339.649 372.556 343.484 373.592 342.993 375.665C341.975 379.881 340.231 373.629 339.794 373.265C339.067 372.629 337.322 373.211 336.777 372.556C336.268 371.938 336.468 369.812 336.559 368.976C336.795 366.667 338.068 365.177 335.123 364.304C333.033 363.686 330.379 365.904 328.416 364.904C325.344 363.305 328.889 362.196 329.234 360.469C329.688 358.288 327.144 356.725 328.089 354.398C324.817 352.562 324.908 357.961 324.872 359.906C321.854 359.924 324.69 355.38 324.981 353.908C325.471 351.399 324.054 349.618 324.381 347.146C324.981 342.602 327.471 335.895 330.742 332.823C331.978 331.66 333.669 329.569 335.523 327.897C336.741 327.061 337.995 326.28 339.304 325.552C340.43 325.243 341.539 325.389 342.593 326.261Z" fill="#65809D"/>
<path d="M380.854 321.881C380 323.353 382.327 325.589 380.2 326.189C378.946 326.552 378.819 325.025 377.855 324.789C376.983 324.571 376.437 324.68 375.547 324.662C373.911 324.626 372.511 325.807 371.439 323.862C371.693 323.699 371.893 323.408 372.311 323.226C372.184 321.899 371.512 321.445 372.348 320.372C372.62 320.027 372.911 319.718 373.238 319.409C376.801 319.754 380.145 320.3 383.235 321.063C382.308 320.954 381.454 320.827 380.854 321.881Z" fill="#65809D"/>
<path opacity="0.3" d="M331.74 352.51C338.156 366.451 349.789 369.359 362.439 364.579C375.09 359.798 381.67 346.166 377.526 335.206C373.382 324.245 362.803 317.066 345.826 323.482C333.194 328.28 326.596 341.313 331.74 352.51Z" fill="#F0F5FB"/>
<path opacity="0.55" d="M344.865 343.184C347.137 347.928 351.827 348.636 357.134 346.637C362.442 344.638 365.477 339.675 364.078 335.931C362.66 332.187 358.516 329.933 351.391 332.623C346.065 334.641 343.03 339.385 344.865 343.184Z" fill="#D2DFED"/>
<path opacity="0.6" d="M354.45 392.288C380.751 392.288 402.108 371.986 402.108 349.211C402.108 341.631 400.509 334.324 397.092 327.944C409.942 335.906 415.559 349.211 415.559 363.479C415.559 386.254 394.201 406.557 367.9 406.557C349.215 406.557 334.129 399.832 326.204 385.254C333.947 390.016 343.599 392.288 354.45 392.288Z" fill="#65809D"/>
<path d="M84.2719 594.381C119.902 594.381 135.192 581.57 135.192 578.403C135.192 575.236 122.863 547.152 87.2334 547.152C51.6038 547.152 19.7588 585.479 19.7588 588.647C19.7588 591.814 48.6423 594.381 84.2719 594.381Z" fill="#DBE7F3"/>
<path d="M50.5934 515.895C50.5934 515.895 50.2491 511.785 49.1411 511.343C48.7668 511.193 47.7188 512.129 47.7188 512.129L48.7518 517.534L50.5934 515.895Z" fill="#192239"/>
<path d="M48.3924 523.725L0.608398 533.906L21.0231 585.381L70.791 571.367L118.305 560.243L85.0446 517.616L48.3924 523.725Z" fill="#5161BF"/>
<path d="M2.36816 526.847V537.163L21.2407 584.535V571.779L2.36816 526.847Z" fill="#A6C1DC"/>
<path d="M0.608398 537.702V533.906L21.0231 585.381L70.791 571.367L69.8402 573.268L20.7012 587.125L0.608398 537.702Z" fill="#6F8AA7"/>
<path d="M20.7012 587.125L21.0231 585.381L70.7909 571.367L69.8402 573.268L20.7012 587.125Z" fill="#EAF6FE"/>
<path d="M118.305 560.243L71.6816 571.165L73.366 572.453L118.305 562.548V560.243Z" fill="#EAF6FE"/>
<path d="M115.588 551.079C115.588 551.079 78.187 552.3 74.4514 556.035C70.7158 559.771 70.7832 563.776 70.7832 563.776C70.7832 563.776 68.2005 554.134 51.7759 557.937C35.3513 561.74 39.3414 568.417 21.2324 571.786V584.55L71.674 571.172L117.347 560.475C117.354 560.46 112.601 554.059 115.588 551.079Z" fill="#6A8AAC"/>
<path d="M21.2402 574.369V584.535L71.6818 571.157C71.6818 571.157 55.9684 575.327 37.7097 576.143C30.83 576.457 25.3576 575.596 21.2402 574.369Z" fill="#2B3C67"/>
<path d="M115.468 557.166C101.267 564.068 71.6816 571.157 71.6816 571.157L117.355 560.46C117.355 560.46 116.277 559.007 115.468 557.166Z" fill="#2B3C67"/>
<path d="M47.9807 520.192L70.9182 564.854L115.588 551.072L88.1663 515.168C88.1663 515.168 46.3562 509.194 47.9807 520.192Z" fill="#6A8AAC"/>
<path d="M63.0508 565.019C49.1191 567.272 21.2407 571.779 21.2407 571.779L2.36816 526.847L47.9812 520.199L70.9187 564.862C70.9187 564.854 67.6922 564.27 63.0508 565.019Z" fill="#B6CADC"/>
<path d="M63.0508 565.019C54.8685 566.344 44.7023 563.641 35.3745 565.153C28.8167 566.217 21.2407 571.779 21.2407 571.779L2.36816 526.847L8.46936 522.924L47.9812 520.199L70.9187 564.862C70.9187 564.854 67.6922 564.27 63.0508 565.019Z" fill="#DBE7F3"/>
<path d="M82.6638 506.612C82.6638 506.612 82.4617 507.024 81.7954 507.173C79.2277 507.75 69.6155 509.741 59.4568 510.557C47.5763 511.508 47.9881 520.199 47.9881 520.199L70.9256 564.861C70.9256 564.861 69.9823 558.858 75.9563 555.212C81.9227 551.559 97.6062 550.016 102.629 547.082C107.855 544.028 107.585 542.605 107.585 542.605L82.6638 506.612Z" fill="#95AEC7"/>
<path d="M71.6825 571.165C71.6825 571.165 72.4461 566.067 71.6825 565.46C70.9189 564.862 70.9189 564.862 70.9189 564.862C70.9189 564.862 70.627 565.258 70.627 566.351C70.627 567.444 70.7916 571.374 70.7916 571.374L71.6825 571.165Z" fill="#142655"/>
<path d="M52.2395 519.121L51.8428 519.016C51.8577 518.971 53.1828 514.263 59.4187 513.349C63.7457 512.713 68.5069 512.968 72.3398 513.177C74.0017 513.267 75.5738 513.349 76.8839 513.349C81.0911 513.349 82.9851 511.867 83.0001 511.852L83.2546 512.166C83.1723 512.234 81.2483 513.754 76.8839 513.754C75.5663 513.754 73.9868 513.671 72.3174 513.581C68.5069 513.379 63.7682 513.125 59.4786 513.754C53.5122 514.629 52.2545 519.076 52.2395 519.121Z" fill="#8D92AD"/>
<path d="M53.5725 521.247L53.1758 521.142C53.1908 521.097 54.5158 516.396 60.7517 515.475C65.0787 514.839 69.8399 515.093 73.6728 515.303C75.3348 515.393 76.9068 515.475 78.2169 515.475C82.4241 515.475 84.3181 513.993 84.3331 513.978L84.5876 514.292C84.5053 514.36 82.5813 515.88 78.2169 515.88C76.8993 515.88 75.3198 515.797 73.6504 515.707C69.8399 515.505 65.1012 515.251 60.8116 515.88C54.8377 516.755 53.58 521.202 53.5725 521.247Z" fill="#8D92AD"/>
<path d="M54.9573 523.411L54.5605 523.306C54.5755 523.261 55.9006 518.552 62.1365 517.639C66.4635 517.003 71.2247 517.257 75.0576 517.467C76.7195 517.556 78.2916 517.639 79.6017 517.639C83.8089 517.639 85.7029 516.157 85.7179 516.142L85.9724 516.456C85.89 516.523 83.9661 518.043 79.6017 518.043C78.2841 518.043 76.7045 517.961 75.0351 517.871C71.2247 517.669 66.486 517.414 62.1964 518.043C56.2299 518.919 54.9723 523.366 54.9573 523.411Z" fill="#8D92AD"/>
<path d="M56.3421 525.447L55.9453 525.342C55.9603 525.297 57.2854 520.596 63.5213 519.683C67.8483 519.046 72.6095 519.301 76.4424 519.51C78.1043 519.6 79.6764 519.683 80.9865 519.683C85.1937 519.683 87.0877 518.2 87.1026 518.185L87.3572 518.5C87.2748 518.567 85.3509 520.087 80.9865 520.087C79.6689 520.087 78.0893 520.004 76.4199 519.915C72.6095 519.712 67.8707 519.458 63.5812 520.087C57.6072 520.955 56.3496 525.402 56.3421 525.447Z" fill="#8D92AD"/>
<path d="M57.7649 528.516L57.3682 528.412C57.3831 528.367 58.7082 523.658 64.9441 522.745C69.2711 522.108 74.0323 522.363 77.8652 522.572C79.5271 522.662 81.0992 522.745 82.4093 522.745C86.6165 522.745 88.5105 521.262 88.5255 521.247L88.78 521.562C88.6976 521.629 86.7737 523.149 82.4093 523.149C81.0917 523.149 79.5121 523.066 77.8427 522.977C74.0323 522.774 69.2936 522.52 65.004 523.149C59.0376 524.025 57.7799 528.471 57.7649 528.516Z" fill="#8D92AD"/>
<path opacity="0.13" d="M69.0469 512.818C68.6127 512.818 55.3023 511.598 54.5911 515.161C53.88 518.724 70.0051 549.897 76.5854 550.593C83.4427 551.319 84.895 551.289 89.8209 545.502C94.5297 539.963 81.2643 512.818 69.0469 512.818Z" fill="#95AEC7"/>
<path d="M21.2402 573.298L49.5004 569.331L21.2402 573.912V573.298Z" fill="#142655"/>
<path d="M21.2402 575.335L62.938 568.814L21.2402 576.15V575.335Z" fill="#142655"/>
<path d="M21.2402 578.494L67.557 570.244L21.2402 579.407V578.494Z" fill="#142655"/>
<path d="M114.6 553.767C107.855 555.683 80.875 563.679 80.875 563.679L114.675 554.583C114.637 554.306 114.608 554.029 114.6 553.767Z" fill="#142655"/>
<path d="M114.831 555.339L86.459 563.933L114.966 555.826C114.914 555.661 114.869 555.504 114.831 555.339Z" fill="#142655"/>
<path d="M115.865 558.012C110.58 559.314 88.7881 565.153 88.7881 565.153L116.15 558.543C116.053 558.371 115.963 558.191 115.865 558.012Z" fill="#142655"/>
<path d="M6.89648 521.172L23.4184 569.877C23.4184 569.877 36.04 555.077 44.7314 555.077C53.4228 555.077 70.9254 564.854 70.9254 564.854L47.943 519.376C47.9355 519.376 34.8123 499.829 6.89648 521.172Z" fill="#EAF6FE"/>
<path opacity="0.13" d="M26.7951 515.872C24.961 515.872 16.614 516.89 15.3938 522.797C14.1735 528.703 23.9429 557.046 27.8133 557.046C31.6836 557.046 36.3175 554.089 38.9077 551.499C41.4979 548.901 33.7198 515.872 26.7951 515.872Z" fill="#EAF6FE"/>
<path d="M12.347 523.583L12.1299 523.239C24.0553 515.708 31.0998 514.15 45.5405 520.244L45.3833 520.618C31.1147 514.6 24.205 516.089 12.347 523.583Z" fill="#8D92AD"/>
<path d="M13.3802 525.335L13.1631 524.99C25.1259 517.437 32.1704 515.925 46.5737 521.996L46.4165 522.37C32.118 516.344 25.2083 517.864 13.3802 525.335Z" fill="#8D92AD"/>
<path d="M14.5999 527.468L14.3828 527.124C26.3157 519.585 33.3677 518.043 47.7935 524.129L47.6363 524.504C33.3677 518.485 26.458 519.982 14.5999 527.468Z" fill="#8D92AD"/>
<path d="M16.0443 530.013L15.8271 529.669C27.7301 522.153 34.7746 520.573 49.2378 526.675L49.0806 527.049C34.8045 521.03 27.9023 522.52 16.0443 530.013Z" fill="#8D92AD"/>
<path d="M45.4577 514.794C45.817 526.847 65.3034 553.752 65.3034 553.752L64.4725 549.066L68.8818 550.323C62.6982 545.465 45.031 513.537 49.0286 511.328C49.0286 511.328 45.3678 511.747 45.4577 514.794Z" fill="#2B3C67"/>
<path d="M16.7559 563.858L21.24 573.298V573.912L16.7559 563.858Z" fill="#142655"/>
<path d="M21.2403 575.335L18.5527 570.027L21.2403 576.151V575.335Z" fill="#142655"/>
<path d="M21.2404 578.494L11.4785 556.095L21.2404 579.407V578.494Z" fill="#142655"/>
</svg>
