<svg width="395" height="463" viewBox="0 0 395 463" fill="none" xmlns="http://www.w3.org/2000/svg">
<g clip-path="url(#clip0_128_3494)">
<path d="M318.584 255.5C310.978 260.083 300.775 275.08 297.065 290.874C294.435 302.071 299.498 307.227 303.87 307C309.849 306.689 307.928 291.102 307.928 291.102L309.384 283.83L317.239 270.877L318.584 255.5Z" fill="#48BAD9"/>
<path d="M365.568 158.003C373.974 161.615 398.158 167.96 394.495 194.26C390.832 220.559 381.217 220.127 385.795 231.769C390.372 243.409 378.468 239.53 374.805 245.566C371.142 251.603 368.853 259.794 375.722 267.553C382.591 275.314 370.684 279.195 360.155 279.195C349.622 279.195 310.244 278.333 317.571 267.553C324.897 256.776 323.009 257.013 316.038 254.406C309.065 251.798 318.945 248.152 318.488 242.979C318.03 237.805 306.584 236.08 307.958 227.458C309.332 218.837 309.332 211.075 309.332 211.075C309.332 211.075 334.347 144.596 365.568 158.003Z" fill="#855B48"/>
<path d="M311.013 221.709C310.007 225.014 311.157 230.906 315.181 235.36C323.946 245.421 334.582 246.57 332.57 252.606C343.06 254.188 350.678 254.905 350.678 254.905C350.678 254.905 346.654 247.863 360.738 243.122C374.822 238.379 385.886 229.614 383.014 221.709C380.137 213.804 311.013 221.709 311.013 221.709Z" fill="#765241"/>
<path d="M337.996 426.074C337.996 426.074 338.193 437.049 338.5 444.474C337.778 446.375 323.991 454.185 323.207 450.181C322.925 448.75 334.207 443.248 334.16 441.631C334.038 437.311 333.853 428.961 334.075 425.916C335.425 425.263 337.996 426.074 337.996 426.074Z" fill="#FBCDAD"/>
<path d="M338.608 442.615C339.342 442.914 340.133 448.367 338.932 449.669C337.728 450.977 325.975 456.924 319.271 456.991C314.923 457.038 314.943 455.122 316.856 453.236C318.829 451.284 326.106 447.116 326.106 447.116C326.106 447.116 324.279 448.738 327.238 449.197C330.246 449.66 336.935 445.46 338.608 442.615Z" fill="#E75195"/>
<path d="M348.08 427.705C348.08 427.705 348.265 443.08 348.211 446.187C347.758 448.876 346.122 456.902 349.128 456.922C353.186 456.954 352.351 449.202 352.45 446.703C352.554 444.199 352.61 427.893 352.61 427.893L348.08 427.705Z" fill="#FBCDAD"/>
<path d="M348.211 444.501C347.42 445.621 346.654 447.887 345.892 451.578C345.099 455.426 343.972 462.026 347.39 462.775C350.258 463.403 353.13 463.074 353.923 457.05C354.808 450.386 352.603 444.679 352.603 444.679C352.603 444.679 352.537 452.932 349.956 453.165C347.373 453.399 348.426 449.247 348.211 444.501Z" fill="#E75195"/>
<path d="M339.253 244.425C339.253 244.425 339.016 247.428 338.707 250.122C333.111 251.182 329.257 252.663 329.257 252.663C329.257 252.663 325.253 272.022 336.999 272.556C345.119 272.924 352.967 257.27 353.889 254.668C352.27 254.111 350.658 253.498 344.105 250.411L344.723 244.783L339.253 244.425Z" fill="#FBCDAD"/>
<path d="M339.287 249.044C340.582 247.423 342.058 247.922 343.442 249.165L343.815 245.178L339.628 244.854C339.49 246.691 339.616 245.267 339.287 249.044Z" fill="#EDB489"/>
<path d="M315.895 316.833C315.895 316.833 314.333 324.387 317.156 356.755C318.436 371.428 326.603 406.203 329.092 426.964C329.967 428.763 337.044 429.418 339.16 427.342C340.46 395.443 337.845 357.464 337.407 348.24C342.098 379.293 345.51 417.583 345.356 428.135C346.234 429.927 355.093 430.12 356.123 427.997C357.008 393.103 357.406 391.56 357.634 385.883C357.866 380.205 366.708 329.056 361.739 318.02C356.776 306.99 315.895 316.833 315.895 316.833Z" fill="#8597A9"/>
<path d="M317.321 322.83C317.321 322.83 316.51 330.571 316.928 340.335C330.328 327.076 347.635 332.798 361.314 345.081C361.707 335.354 360.377 322.689 360.377 322.689L317.321 322.83Z" fill="#667787"/>
<path d="M326.699 388.661C325.397 388.448 324.707 387.872 324.653 387.828C324.569 387.756 324.559 387.63 324.63 387.546C324.707 387.459 324.836 387.45 324.912 387.526C324.937 387.541 327.206 389.415 331.44 387.363C331.539 387.311 331.66 387.358 331.71 387.454C331.762 387.553 331.717 387.677 331.616 387.726C329.505 388.747 327.859 388.849 326.699 388.661Z" fill="#4C5967"/>
<path d="M347.156 388.411C345.85 388.194 345.158 387.623 345.106 387.581C345.02 387.507 345.013 387.38 345.084 387.296C345.158 387.21 345.284 387.2 345.366 387.274C345.391 387.296 347.657 389.16 351.894 387.111C351.995 387.062 352.114 387.104 352.161 387.205C352.21 387.304 352.168 387.425 352.067 387.474C349.956 388.5 348.315 388.597 347.156 388.411Z" fill="#4C5967"/>
<path d="M319.932 355.902C319.146 347.493 321.064 341.405 324.876 347.6C328.682 353.796 330.835 383.201 328.079 384.429C323.558 386.444 321.438 372.078 319.932 355.902Z" fill="#B7BECB"/>
<path d="M346.758 351.327C348.034 340.006 355.634 339.502 356 350.353C356.371 361.197 353.894 371.381 350.884 372.07C347.883 372.76 345.725 360.502 346.758 351.327Z" fill="#B7BECB"/>
<path d="M336.764 349.023C335.36 347.345 334.732 346.658 333.897 345.862L335.11 428.627C335.854 428.61 336.581 428.513 337.241 428.331C337.577 421.501 338.684 409.453 337.839 391.639C336.853 370.886 336.986 353.505 336.764 349.023Z" fill="#6E8192"/>
<path d="M330.991 251.795C329.943 254.191 329.862 266.181 337.752 266.933C347.841 267.894 351.285 257.134 352.486 253.998C360.764 256.801 366.204 260.34 368.372 263.544C366.889 266.732 352.444 287.048 365.614 322.649C351.678 332.368 328.754 331.842 313.417 322.822C316.432 308.595 319.223 299.118 318.884 294.231C312.747 290.326 311.585 287.738 315.426 274.392C318.027 265.361 319.643 257.233 321.062 255.669C323.245 253.251 330.991 251.795 330.991 251.795Z" fill="#E75195"/>
<path d="M359.589 290.222C359.589 290.222 354.534 304.331 361.715 322.493C353.204 327.247 332.508 331.671 317.776 324.362C354.821 327.289 359.589 290.222 359.589 290.222Z" fill="#CF4283"/>
<path d="M311.561 206.648C311.561 206.648 310.933 201.935 306.862 201.628C302.576 201.314 301.098 208.734 303.54 213.302C305.982 217.858 310.78 218.234 312.132 214.365L311.561 206.648Z" fill="#FBCDAD"/>
<path d="M307.305 202.068C308.338 202.149 309.129 202.535 309.745 203.049C309.256 202.669 308.67 202.411 307.975 202.394C303.939 202.313 303.397 208.092 304.71 211.508C306.487 216.14 310.294 216.553 312.264 213.95C311.003 217.554 306.514 217.185 304.213 212.934C301.914 208.672 303.284 201.759 307.305 202.068Z" fill="#EDB489"/>
<path d="M306.104 203.788C308.858 202.869 311.28 209.676 307.609 213.596C309.073 208.539 307.575 206.962 305.647 209.473C305.624 207.862 306.289 206.794 307.968 206.836C307.787 204.72 306.104 203.788 306.104 203.788Z" fill="#DA9968"/>
<path d="M309.829 221.091C315.529 234.572 325.399 244.958 338.091 246.31C350.999 247.687 369.483 239.503 376.933 224.616C386.889 204.695 380.821 169.641 346.448 168.716C312.076 167.794 299.979 197.787 309.829 221.091Z" fill="#FBCDAD"/>
<path d="M319.179 206.582C319.179 206.582 317.525 205.835 317.609 207.827C317.669 209.298 320.13 212.761 324.646 212.583C328.9 212.413 329.649 210 327.954 209.051C326.253 208.097 319.179 206.582 319.179 206.582Z" fill="#EDB489"/>
<path d="M330.044 205.383C329.697 209.125 326.551 211.891 323.026 211.565C319.496 211.238 316.918 207.944 317.257 204.204C317.603 200.464 320.745 197.698 324.274 198.027C327.807 198.351 330.387 201.643 330.044 205.383Z" fill="white"/>
<path d="M329.19 202.545C329.217 202.913 329.219 203.286 329.187 203.67C328.868 207.14 325.952 209.703 322.677 209.399C320.326 209.184 318.433 207.543 317.666 205.35C317.891 208.334 320.106 210.788 323.018 211.058C326.3 211.359 329.21 208.794 329.531 205.326C329.625 204.349 329.491 203.408 329.19 202.545Z" fill="#E5E5E5"/>
<path d="M327.909 205.368C327.724 207.397 326.024 208.893 324.11 208.717C322.197 208.537 320.796 206.755 320.986 204.728C321.164 202.703 322.874 201.203 324.78 201.378C326.696 201.556 328.1 203.341 327.909 205.368Z" fill="#AF978D"/>
<path d="M326.596 205.2C326.487 206.399 325.473 207.291 324.341 207.185C323.207 207.078 322.374 206.02 322.485 204.817C322.596 203.615 323.612 202.725 324.742 202.829C325.874 202.936 326.707 203.998 326.596 205.2Z" fill="black"/>
<path d="M323.821 202.997C323.764 203.593 323.257 204.038 322.694 203.984C322.13 203.929 321.717 203.405 321.772 202.807C321.829 202.209 322.33 201.769 322.896 201.821C323.46 201.868 323.873 202.397 323.821 202.997Z" fill="white"/>
<path d="M326.796 206.369C326.768 206.68 326.506 206.913 326.212 206.883C325.916 206.856 325.703 206.584 325.733 206.27C325.757 205.961 326.027 205.731 326.316 205.761C326.615 205.786 326.828 206.057 326.796 206.369Z" fill="white"/>
<path d="M317.652 201.126C317.652 201.126 318.633 197.008 322.074 196.4C325.522 195.79 329.148 200.273 329.148 200.273C329.148 200.273 323.308 197.226 317.652 201.126Z" fill="#EDB489"/>
<path d="M329.148 200.276C329.148 200.276 328.973 200.212 328.652 200.123C328.335 200.029 327.875 199.905 327.334 199.794C327.06 199.732 326.766 199.683 326.444 199.633C326.133 199.576 325.802 199.554 325.456 199.51C325.11 199.492 324.751 199.45 324.39 199.46C324.22 199.455 324.032 199.453 323.849 199.45C323.671 199.455 323.486 199.475 323.303 199.487C323.122 199.505 322.929 199.497 322.751 199.527C322.573 199.549 322.391 199.574 322.218 199.599C321.852 199.638 321.513 199.73 321.167 199.799C321.088 199.814 321.004 199.831 320.925 199.851C320.843 199.871 320.759 199.9 320.68 199.92C320.517 199.969 320.364 200.016 320.21 200.063C319.906 200.145 319.625 200.259 319.365 200.365C319.108 200.469 318.861 200.543 318.658 200.647C318.451 200.748 318.273 200.835 318.129 200.906C317.828 201.05 317.652 201.126 317.652 201.126C317.652 201.126 317.796 201.005 318.06 200.8C318.193 200.701 318.354 200.575 318.544 200.439C318.73 200.296 318.962 200.18 319.214 200.034C319.343 199.965 319.471 199.893 319.61 199.816C319.746 199.737 319.899 199.69 320.052 199.623C320.359 199.505 320.673 199.342 321.026 199.265C321.377 199.179 321.733 199.043 322.114 199.001C322.304 198.971 322.494 198.944 322.682 198.909C322.875 198.877 323.063 198.877 323.261 198.862C323.451 198.852 323.649 198.837 323.837 198.837C324.032 198.842 324.225 198.847 324.417 198.855L324.697 198.862C324.793 198.877 324.887 198.887 324.976 198.899C325.161 198.921 325.337 198.944 325.522 198.966C325.876 199.03 326.224 199.09 326.541 199.181C326.696 199.221 326.855 199.267 327.003 199.31C327.154 199.354 327.295 199.408 327.433 199.453C327.7 199.542 327.942 199.653 328.157 199.745C328.367 199.841 328.55 199.932 328.696 200.012C328.844 200.091 328.951 200.16 329.032 200.207C329.106 200.249 329.148 200.276 329.148 200.276Z" fill="#492D22"/>
<path d="M359.292 211.107C359.292 211.107 361.035 210.68 360.592 212.6C360.268 214.021 357.25 216.933 352.89 215.945C348.784 215.01 348.498 212.531 350.322 211.913C352.144 211.298 359.292 211.107 359.292 211.107Z" fill="#EDB489"/>
<path d="M348.963 207.981C348.619 211.673 351.17 214.929 354.66 215.255C358.148 215.574 361.252 212.84 361.596 209.147C361.94 205.452 359.384 202.194 355.896 201.873C352.406 201.549 349.304 204.283 348.963 207.981Z" fill="white"/>
<path d="M355.612 213.292C352.351 212.996 349.971 209.955 350.292 206.507C350.357 205.85 350.515 205.224 350.742 204.646C350.045 205.573 349.58 206.712 349.462 207.975C349.14 211.424 351.523 214.464 354.779 214.765C357.416 215.008 359.811 213.384 360.8 210.929C359.591 212.529 357.675 213.485 355.612 213.292Z" fill="#E5E5E5"/>
<path d="M359.591 209.093C359.4 211.092 357.717 212.573 355.826 212.397C353.94 212.224 352.566 210.457 352.741 208.457C352.927 206.458 354.61 204.975 356.501 205.153C358.392 205.323 359.776 207.088 359.591 209.093Z" fill="#AF978D"/>
<path d="M358.257 208.962C358.146 210.143 357.147 211.026 356.032 210.924C354.905 210.82 354.085 209.772 354.198 208.583C354.302 207.394 355.306 206.517 356.425 206.618C357.548 206.725 358.371 207.77 358.257 208.962Z" fill="black"/>
<path d="M355.512 206.779C355.46 207.372 354.961 207.81 354.405 207.76C353.844 207.706 353.434 207.187 353.488 206.594C353.547 206 354.039 205.563 354.603 205.617C355.159 205.667 355.569 206.191 355.512 206.779Z" fill="white"/>
<path d="M358.456 210.119C358.429 210.425 358.172 210.652 357.88 210.625C357.594 210.596 357.379 210.326 357.406 210.022C357.43 209.713 357.692 209.486 357.987 209.513C358.273 209.538 358.486 209.812 358.456 210.119Z" fill="white"/>
<path d="M361.767 206.082C361.767 206.082 361.554 201.91 358.328 200.691C355.09 199.475 350.752 203.178 350.752 203.178C350.752 203.178 356.979 201.27 361.767 206.082Z" fill="#EDB489"/>
<path d="M350.755 203.175C350.755 203.175 350.94 203.148 351.269 203.116C351.59 203.084 352.052 203.047 352.606 203.037C352.883 203.024 353.182 203.034 353.496 203.039C353.807 203.042 354.139 203.084 354.48 203.096C354.821 203.148 355.169 203.17 355.52 203.242C355.698 203.272 355.876 203.304 356.052 203.336C356.23 203.368 356.405 203.422 356.576 203.469C356.756 203.514 356.932 203.541 357.107 203.603C357.28 203.662 357.443 203.717 357.619 203.776C357.962 203.877 358.276 204.028 358.593 204.154C358.674 204.189 358.751 204.221 358.828 204.255C358.902 204.29 358.978 204.332 359.05 204.369C359.196 204.443 359.339 204.52 359.478 204.587C359.767 204.725 360.012 204.886 360.241 205.036C360.474 205.187 360.701 205.306 360.882 205.442C361.057 205.578 361.22 205.694 361.351 205.79C361.616 205.978 361.771 206.087 361.771 206.087C361.771 206.087 361.655 205.946 361.435 205.699C361.322 205.58 361.191 205.429 361.032 205.261C360.884 205.086 360.672 204.933 360.454 204.747C360.34 204.656 360.229 204.559 360.113 204.465C359.997 204.362 359.856 204.29 359.722 204.196C359.441 204.026 359.164 203.808 358.837 203.67C358.506 203.521 358.19 203.324 357.827 203.215C357.644 203.155 357.466 203.091 357.29 203.024C357.11 202.958 356.922 202.923 356.736 202.874C356.546 202.829 356.361 202.777 356.178 202.748C355.992 202.713 355.797 202.686 355.619 202.656L355.34 202.614C355.243 202.612 355.155 202.602 355.061 202.597C354.88 202.584 354.697 202.572 354.517 202.562C354.161 202.56 353.815 202.557 353.491 202.584C353.335 202.597 353.175 202.612 353.021 202.626C352.866 202.644 352.725 202.669 352.581 202.688C352.302 202.725 352.047 202.79 351.823 202.834C351.6 202.898 351.407 202.948 351.247 203.002C351.091 203.049 350.972 203.099 350.888 203.131C350.799 203.16 350.755 203.175 350.755 203.175Z" fill="#492D22"/>
<path d="M337.036 218.758C337.036 218.758 334.673 216.395 337.528 213.564C334.468 213.893 333.423 217.462 337.036 218.758Z" fill="#E2A679"/>
<path d="M370.509 181.181C352.69 187.793 337.955 182.39 321.36 184.486C307.708 186.211 304.908 199.744 308.981 215.915C303.467 208.717 301.729 189.487 307.505 175.187C317.395 150.731 346.379 142.419 366.851 157.692C378.98 157.912 386.912 166.338 389.9 173.348C395.128 185.593 389.191 206.74 379.415 218.046C370.365 202.881 373.238 190.092 370.509 181.181Z" fill="#855B48"/>
<path d="M373.753 203.907C374.655 207.513 375.686 213.955 374.01 216.016C372.334 218.078 370.275 215.888 370.275 215.888C370.275 215.888 369.887 218.592 373.239 218.335C376.588 218.078 378.133 213.826 378.393 209.832C378.647 205.837 373.753 203.907 373.753 203.907Z" fill="#855B48"/>
<path d="M363.811 180.964C360.894 185.668 349.138 188.772 342.929 189.054C349.138 190.653 364.844 187.455 368.324 183.974C365.032 188.584 361.364 191.501 361.364 191.501C361.364 191.501 372.18 190.559 372.274 181.342C372.368 172.125 365.971 175.227 365.971 175.227L363.811 180.964Z" fill="#855B48"/>
<path d="M364.382 161.896C364.382 161.896 356.544 149.876 333.183 157.086C338.71 156.871 349.462 160.186 349.462 160.186C349.462 160.186 339.602 160.446 323.867 169.287C337.83 165.226 353.036 164.524 358.247 167.376C355.993 164.643 343.609 163.693 343.609 163.693C343.609 163.693 357.004 159.168 364.382 161.896Z" fill="#9C7463"/>
<path d="M368.928 161.924C380.138 162.354 387.76 168.8 389.99 182.763C384.243 173.395 381.292 173.924 381.292 173.924C381.292 173.924 389.162 183.547 390.521 196C384.859 184.511 374.092 174.122 374.092 174.122C374.092 174.122 378.365 180.494 379.522 184.783C374.729 178.062 371.659 172.414 371.659 172.414C371.659 172.414 373.97 170.525 378.8 176.27C377.29 170.822 371.528 168.469 371.528 168.469C371.528 168.469 380.145 169.472 382.065 171.346C377.96 167.428 368.928 161.924 368.928 161.924Z" fill="#9C7463"/>
<path d="M323.376 194.084C325.017 194.212 325.914 191.321 323.005 191.187C318.904 191.002 317.391 194.781 317.391 194.781C317.391 194.781 319.062 193.745 323.376 194.084Z" fill="#986853"/>
<path d="M357.949 197.409C356.498 197.03 355.741 194.062 358.621 194.504C362.521 195.1 363.248 199.554 363.248 199.554C363.248 199.554 361.916 198.432 357.949 197.409Z" fill="#986853"/>
<path d="M325.478 224.042C325.994 231.69 327.732 237.662 336.119 238.944C344.864 240.287 348.003 235.027 350.52 227.517C345.873 227.473 338.596 224.203 336.27 226.029C334.376 223.693 330.028 225.797 325.478 224.042Z" fill="#F4A69B"/>
<path d="M325.477 224.042C327.655 232.355 330.653 234.648 336.652 235.481C342.644 236.312 345.835 234.938 350.521 227.52C347.709 228.197 342.703 228.212 337.821 227.574C332.841 226.927 327.996 225.604 325.477 224.042Z" fill="#53241E"/>
<path d="M327.323 224.962C327.518 225.372 327.733 225.76 328.003 226.064C329.787 228.074 331.228 229.255 335.141 229.989C338.995 230.704 345.51 230.659 348.306 228.378C348.501 228.217 348.689 228.019 348.877 227.807C343.172 228.489 332.783 227.226 327.323 224.962Z" fill="white"/>
<path d="M343.833 234.715C342.951 232.926 341.01 231.994 338.296 232.604C336.02 231.089 331.084 231.297 329.529 232.458C330.421 233.348 331.427 233.996 332.596 234.473C333.884 234.96 335.263 235.286 336.652 235.481C338.076 235.677 339.475 235.736 340.81 235.617C341.885 235.489 342.874 235.202 343.833 234.715Z" fill="#EA716A"/>
<path d="M341.498 233.598C340.717 233.039 338.985 232.896 338.601 233.405C338.132 234.011 339.709 234.592 340.675 234.557C341.657 234.517 342 233.954 341.498 233.598Z" fill="#F2918B"/>
<path d="M332.058 235.472C331.564 234.653 330.029 233.838 329.473 234.152C328.803 234.522 330.024 235.677 330.924 236.03C331.838 236.381 332.379 236 332.058 235.472Z" fill="#FBDDDB"/>
<path d="M334.017 225.691C333.602 225.433 332.707 225.416 332.522 225.691C332.309 226.017 333.135 226.264 333.634 226.212C334.133 226.16 334.286 225.859 334.017 225.691Z" fill="#FBDDDB"/>
<path d="M377.259 212.978C377.259 212.978 379.343 207.187 384.576 207.911C390.086 208.682 389.927 218.471 385.594 223.577C381.256 228.677 375.092 227.849 374.437 222.581L377.259 212.978Z" fill="#FBCDAD"/>
<path d="M383.889 208.349C382.564 208.168 381.457 208.44 380.539 208.924C381.271 208.573 382.077 208.408 382.962 208.581C388.088 209.572 387.194 217.037 384.601 220.999C381.088 226.37 376.164 225.856 374.377 222.022C374.993 226.926 380.769 227.69 384.84 222.935C388.909 218.171 389.06 209.055 383.889 208.349Z" fill="#EDB489"/>
<path d="M384.951 210.855C381.711 208.939 376.792 216.886 380.366 222.848C379.894 216.051 382.215 214.469 383.98 218.167C384.444 216.137 383.891 214.607 381.76 214.204C382.568 211.569 384.951 210.855 384.951 210.855Z" fill="#DA9968"/>
<path d="M354.66 254.688C351.395 263.67 346.266 297.467 345.45 338.296C360.147 339.111 368.725 330.515 368.725 330.515C368.725 330.515 356.82 289.997 369.884 263.865C364.169 256.924 354.66 254.688 354.66 254.688Z" fill="#48BAD9"/>
<path d="M329.053 252.062C325.538 261.559 326.923 321.27 326.923 337.999C318.118 340.201 312.267 335.488 312.267 335.488C312.267 335.488 309.776 273.992 318.58 255.501C324.745 252.418 330.205 252.191 329.053 252.062Z" fill="#48BAD9"/>
<path d="M385.552 322.38C385.552 322.38 390.197 343.281 388.437 355.88C388.227 357.385 365.906 366.145 359.302 366.291C352.7 366.439 355.391 326.295 356.274 326.883C357.156 327.472 385.552 322.38 385.552 322.38Z" fill="#E75195"/>
<path d="M356.769 327.729C356.769 327.729 381.697 322.249 384.429 322.521C385.625 324.913 387.662 343.13 374.855 346.87C358.949 351.517 356.769 327.729 356.769 327.729Z" fill="#BD3574"/>
<path d="M349.18 325.791C349.18 325.791 348.745 351.517 349.801 362.845C353.602 364.959 359.305 366.291 359.305 366.291C359.305 366.291 358.88 343.563 356.346 326.671C355.501 325.618 349.591 326.11 349.18 325.791Z" fill="#CF4283"/>
<path d="M349.18 325.791C349.18 325.791 348.745 351.517 349.801 362.845C351.126 363.582 349.398 331.226 353.375 331.622C357.152 332 359.305 366.291 359.305 366.291C359.305 366.291 358.88 343.563 356.346 326.671C355.501 325.618 349.591 326.11 349.18 325.791Z" fill="#BD3574"/>
<path d="M349.179 325.791C350.094 324.876 376.834 319.792 379.367 319.792C381.478 319.933 385.129 320.832 385.129 320.832C385.129 320.832 358.246 326.814 356.627 326.955C355.008 327.096 350.667 326.401 349.179 325.791Z" fill="#EE94BC"/>
<path d="M356.487 326.883C356.487 326.883 382.401 320.558 385.13 320.83C386.326 323.223 388.363 341.44 375.559 345.179C359.653 349.826 356.487 326.883 356.487 326.883Z" fill="#EA72A7"/>
<path d="M377.39 346.672C377.486 347.644 376.774 348.511 375.8 348.61C374.826 348.707 373.959 347.995 373.865 347.021L373.576 344.119C373.479 343.145 374.191 342.278 375.163 342.181C376.136 342.085 377.004 342.797 377.1 343.77L377.39 346.672Z" fill="#FCC004"/>
<path d="M360.054 327.477C364.043 325.257 384.332 322.108 384.811 322.842C385.293 323.574 352.25 331.819 360.054 327.477Z" fill="#EFA1C5"/>
<path d="M351.906 328.643C352.267 284.062 355.396 264.09 356.669 255.276C357.893 255.431 359.559 256.01 359.559 256.01C359.559 256.01 355.208 280.671 354.328 329.083C353.006 329.743 352.091 329.103 351.906 328.643Z" fill="#FCC004"/>
<path d="M340.938 260.383C341.372 263.59 344.291 285.143 344.699 288.159C344.699 288.159 344.716 288.279 344.746 288.502C345.154 291.516 348.028 312.736 348.462 315.941C348.882 319.045 346.549 318.851 346.549 318.851L315.571 319.976C314.543 320.013 313.655 319.265 313.517 318.246L310.123 293.19L310.077 292.848L306.638 267.456C306.5 266.437 307.158 265.479 308.159 265.241L338.32 258.089C338.32 258.089 340.554 257.549 340.938 260.383Z" fill="#A6C1DC"/>
<path d="M322.685 269.357C321.609 269.503 320.975 270.51 321.143 271.75C321.226 272.362 321.487 272.846 321.846 273.154C322.198 273.457 322.673 273.616 323.251 273.537C324.423 273.379 325.361 272.196 325.208 271.06L322.685 269.357ZM322.685 269.357C323.9 269.193 325.058 269.963 325.208 271.06L322.685 269.357Z" fill="#4D4949" stroke="#567089"/>
<path d="M347.683 316.518C347.242 313.26 344.32 291.682 343.905 288.619C343.874 288.395 343.858 288.273 343.858 288.273C343.443 285.208 340.475 263.296 340.034 260.038C339.893 258.994 339.505 258.405 339.067 258.073C339.755 258.169 340.7 258.631 340.938 260.383C341.372 263.59 344.291 285.143 344.699 288.159C344.699 288.159 344.715 288.279 344.746 288.502C345.154 291.516 348.028 312.736 348.462 315.941C348.713 317.801 347.978 318.475 347.347 318.718C347.647 318.283 347.829 317.596 347.683 316.518Z" fill="#9D9998"/>
<path d="M347.754 317.033C347.754 317.033 344.131 291.539 340.013 259.874C345.318 295.566 347.754 317.033 347.754 317.033Z" fill="#BAB7B7"/>
<path d="M302.417 305.317C303.025 305.487 303.624 305.643 304.214 305.789C304.869 308.1 307.578 309.751 311.148 310.379C313.558 311.62 315.397 312.042 315.656 311.031C315.923 309.971 313.145 308.822 312.497 308.436C312.616 308.446 316.163 309.489 316.961 309.669C318.81 310.067 319.386 308.352 317.846 307.717C316.563 307.18 313.538 306.155 313.387 306.098C313.54 306.098 317.342 306.644 318.044 306.758C320.103 307.086 320.706 304.835 318.351 304.412C316.746 304.128 313.916 303.72 313.679 303.614C313.788 303.542 315.938 303.327 317.191 303.109C319.265 302.751 319.206 300.907 316.786 300.907C314.878 300.907 310.315 300.692 310.315 300.692C310.315 300.692 312.213 298.233 310.819 297.17C309.425 296.092 306.239 300.502 306.239 300.502C306.239 300.502 305.515 299.864 303.819 299.716C300.61 301.32 302.417 305.317 302.417 305.317Z" fill="#FBCDAD"/>
<path d="M373.787 330.012C373.579 330.608 373.364 331.192 373.144 331.758C374.664 333.619 374.467 336.788 372.939 340.07C372.576 342.755 371.869 344.507 370.892 344.139C369.872 343.753 370.519 340.817 370.574 340.063C370.514 340.167 369.338 343.672 369.029 344.428C368.297 346.173 366.559 345.664 366.92 344.035C367.214 342.678 368.104 339.608 368.146 339.452C368.057 339.578 366.329 343.007 366.02 343.647C365.111 345.525 362.921 344.729 363.922 342.557C364.607 341.079 365.892 338.523 365.941 338.268C365.823 338.318 364.414 339.956 363.519 340.859C362.038 342.352 360.56 341.249 361.944 339.267C363.037 337.702 365.472 333.836 365.472 333.836C365.472 333.836 362.367 333.985 362.295 332.235C362.209 330.475 367.649 330.386 367.649 330.386C367.649 330.386 367.543 329.427 368.391 327.951C371.547 326.245 373.787 330.012 373.787 330.012Z" fill="#FBCDAD"/>
<path d="M369.884 263.868C376.251 273.992 382.996 288.862 383.876 293.705C384.756 298.547 379.472 320.568 375.769 330.539C369.807 331.068 367.553 328.285 367.553 328.285C367.553 328.285 373.277 303.308 372.837 297.145C369.399 288.457 366.769 285.852 363.378 281.561C361.929 272.872 369.884 263.868 369.884 263.868Z" fill="#48BAD9"/>
<path d="M137.222 453.75C56.6768 453.75 -0.000579834 449.186 -0.000579834 443.555C-0.000579834 437.924 56.6768 433.359 137.222 433.359C217.767 433.359 283.062 437.923 283.062 443.555C283.062 449.186 217.767 453.75 137.222 453.75Z" fill="#DBE7F3"/>
</g>
<path fill-rule="evenodd" clip-rule="evenodd" d="M78.2279 0C62.6381 0 50 12.6381 50 28.2279V410.772C50 426.362 62.6381 439 78.2279 439H233.772C249.362 439 262 426.362 262 410.772V28.2279C262 12.6381 249.362 0 233.772 0H78.2279ZM59 38C57.8954 38 57 38.8954 57 40V385C57 386.105 57.8954 387 59 387H251C252.105 387 253 386.105 253 385V40C253 38.8954 252.105 38 251 38H59Z" fill="#A6C1DC"/>
<rect x="118" y="18" width="79" height="7" rx="3.5" fill="#96B3CF"/>
<rect x="116" y="410" width="79" height="7" rx="3.5" fill="#96B3CF"/>
<circle cx="88" cy="21" r="2" fill="#96B3CF"/>
<path d="M262 109H263.371C264.271 109 265 109.729 265 110.629V137.371C265 138.271 264.271 139 263.371 139H262V109Z" fill="#B6CADC"/>
<path d="M262 169H263.371C264.271 169 265 169.729 265 170.629V232.371C265 233.271 264.271 234 263.371 234H262V169Z" fill="#B6CADC"/>
<defs>
<clipPath id="clip0_128_3494">
<rect width="395" height="313" fill="white" transform="matrix(-1 0 0 1 395 150)"/>
</clipPath>
</defs>
</svg>
