<svg width="508" height="572" viewBox="0 0 508 572" fill="none" xmlns="http://www.w3.org/2000/svg">
<path d="M369.84 449.695C450.385 449.695 507.062 445.131 507.062 439.5C507.062 433.869 450.385 429.304 369.84 429.304C289.295 429.304 224 433.869 224 439.5C224 445.131 289.295 449.695 369.84 449.695Z" fill="#DBE7F3"/>
<path fill-rule="evenodd" clip-rule="evenodd" d="M262.228 0C246.638 0 234 12.6381 234 28.2279V410.772C234 426.362 246.638 439 262.228 439H417.772C433.362 439 446 426.362 446 410.772V28.2279C446 12.6381 433.362 0 417.772 0H262.228ZM243 38C241.895 38 241 38.8954 241 40V385C241 386.105 241.895 387 243 387H435C436.105 387 437 386.105 437 385V40C437 38.8954 436.105 38 435 38H243Z" fill="#A6C1DC"/>
<rect x="302" y="18" width="79" height="7" rx="3.5" fill="#96B3CF"/>
<rect x="300" y="410" width="79" height="7" rx="3.5" fill="#96B3CF"/>
<circle cx="272" cy="21" r="2" fill="#96B3CF"/>
<path d="M446 109H447.371C448.271 109 449 109.729 449 110.629V137.371C449 138.271 448.271 139 447.371 139H446V109Z" fill="#B6CADC"/>
<path d="M446 169H447.371C448.271 169 449 169.729 449 170.629V232.371C449 233.271 448.271 234 447.371 234H446V169Z" fill="#B6CADC"/>
<rect x="302" y="18.4995" width="79" height="7" rx="3.5" fill="#96B3CF"/>
<rect x="300" y="410.5" width="79" height="7" rx="3.5" fill="#96B3CF"/>
<circle cx="272" cy="21.4995" r="2" fill="#96B3CF"/>
<path d="M446 109.5H447.371C448.271 109.5 449 110.229 449 111.128V137.871C449 138.77 448.271 139.5 447.371 139.5H446V109.5Z" fill="#B6CADC"/>
<path d="M446 169.5H447.371C448.271 169.5 449 170.229 449 171.128V232.871C449 233.77 448.271 234.5 447.371 234.5H446V169.5Z" fill="#B6CADC"/>
<path d="M133.771 557.143C166.068 557.143 188.795 551.287 188.795 544.064C188.795 536.841 166.068 530.985 133.771 530.985C101.474 530.985 75.292 536.841 75.292 544.064C75.292 551.287 101.474 557.143 133.771 557.143Z" fill="#DBE7F3"/>
<path d="M162.348 521.344C146.156 525.064 131.991 524.82 131.991 524.82C131.991 524.82 117.904 526.308 101.44 524.025L100.459 544.177C100.459 544.177 112.403 550.975 132.985 550.078C154.6 549.128 163.794 541.919 163.794 541.919L162.348 521.344Z" fill="#88A2BC"/>
<path d="M114.068 547.614C117.27 548.127 120.318 548.576 123.352 548.833C123.623 542.009 123.701 532.08 123.985 525.269C119.142 525.384 112.493 525.295 105.158 524.499C105.236 530.156 104.539 537.481 103.751 543.215C107.121 544.279 110.375 547.024 114.068 547.614Z" fill="#6F8AA7"/>
<path opacity="0.55" d="M159.017 541.355C158.604 538.635 158.216 534.364 157.88 531.632C157.493 528.502 156.951 525.423 156.835 522.46C154.084 522.96 151.424 523.371 148.958 523.679C150.107 529.849 150.456 539.238 150.637 545.537C153.464 544.793 156.266 542.355 159.017 541.355Z" fill="#EAF6FE"/>
<path opacity="0.55" d="M138.885 538.379C147.485 536.557 155.258 533.453 162.967 529.566L162.347 521.344C146.155 525.064 131.99 524.82 131.99 524.82C131.99 524.82 117.903 526.308 101.44 524.025L101.026 531.888C105.92 534.351 125.599 541.201 138.885 538.379Z" fill="#2B3C67"/>
<path d="M131.048 503.847L72 515.572L72.0775 517.432L132.43 534.826L191 512.172L190.91 510.325L131.048 503.847Z" fill="#95AEC7"/>
<path d="M132.52 504.014L131.048 503.847L72 515.572L72.0775 517.432L132.43 534.826L132.52 534.8V504.014Z" fill="#6A8AAC"/>
<path d="M130.971 502L72 515.571L132.352 532.978L190.91 510.325L130.971 502Z" fill="#B6D1ED"/>
<path d="M99.6832 518.765C103.557 514.994 107.353 511.172 111.123 507.311L74.7236 515.687L96.3259 521.908C97.4622 520.869 98.5856 519.83 99.6832 518.765Z" fill="#BAD0DF"/>
<path d="M138.344 517.329C141.017 513.16 143.741 509.042 146.388 504.861L141.133 504.129C133.605 512.313 125.909 520.343 117.994 528.142L129.77 531.542C132.585 526.796 135.361 521.998 138.344 517.329Z" fill="#BAD0DF"/>
<path d="M188.198 510.671L167.525 507.798C164.607 512.672 161.483 517.418 158.396 522.203L188.198 510.671Z" fill="#BAD0DF"/>
<path d="M131.513 514.225C131.513 514.225 87.6372 517.508 85.3775 520.998C83.1049 524.487 81.6846 559.993 81.6846 559.993L83.8409 559.903C83.8409 559.903 85.3904 524.859 86.9915 522.447C88.5927 520.035 131.513 514.225 131.513 514.225Z" fill="#2B3C67"/>
<path d="M77.6045 570.884C77.6045 570.884 79.6834 557.389 82.8856 558.172C85.9975 558.929 86.7206 570.845 86.7206 570.845L84.2931 571.808L82.834 567.523L83.6604 572L80.1482 571.987L80.3548 567.6L79.7092 571.743L77.6045 570.884Z" fill="#2B3C67"/>
<g opacity="0.7">
<path d="M61.3109 371.329C95.172 371.329 118.999 365.798 118.999 358.974C118.999 352.15 95.172 346.619 61.3109 346.619C27.4498 346.619 0 352.15 0 358.974C0 365.798 27.4498 371.329 61.3109 371.329Z" fill="#DBE7F3"/>
<path d="M68.5469 252.558C68.5469 252.558 77.4239 250.136 81.9236 254.946C81.2808 249.489 62.6085 234.608 49.6865 249.301C61.817 252.519 68.5469 252.558 68.5469 252.558Z" fill="#99B4D0"/>
<path d="M108.398 276.461C110.891 278.136 115.098 288.845 109.584 296.406C104.065 303.975 98.2664 308.204 100.177 312.646C102.088 317.089 107.305 324.759 102.875 329.478C98.4501 334.205 93.2988 331.651 93.2988 331.651L94.5101 345.557C94.5101 345.557 106.934 344.302 109.304 333.313C111.674 322.341 103.418 316.779 106.107 312.437C108.801 308.094 116.838 299.707 117.879 293.707C118.933 287.699 108.398 276.461 108.398 276.461Z" fill="#6F8AA7"/>
<path d="M117.883 293.703C118.714 288.967 112.347 281.004 109.623 277.838C110.117 278.582 110.598 279.561 111.031 280.716C113.825 284.459 116.843 289.435 116.27 292.785C115.212 298.797 107.183 307.185 104.494 311.523C101.791 315.852 110.052 321.427 107.677 332.399C105.814 341.018 97.7856 343.646 94.4141 344.376L94.5146 345.553C94.5146 345.553 106.938 344.298 109.308 333.308C111.678 322.337 103.422 316.774 106.112 312.432C108.805 308.09 116.843 299.703 117.883 293.703Z" fill="#B6D1ED"/>
<path d="M108.399 276.461C108.399 276.461 108.876 276.994 109.619 277.838C109.2 277.204 108.771 276.723 108.399 276.461Z" fill="#FCC353"/>
<path d="M71.6074 253.634C76.8637 254.373 90.3541 253.267 104.365 262.087C118.363 270.911 122.031 284.192 116.6 297.416C118.008 285.329 109.507 272.888 89.4445 273.133C79.4043 263.246 71.6074 253.634 71.6074 253.634Z" fill="#B6D1ED"/>
<path d="M91.357 349.318C95.1789 346.279 95.3101 344.162 95.3276 338.018C95.3232 331.852 98.1525 277.064 89.704 265.257C81.2556 253.464 60.3356 244.049 39.4506 250.433C18.5612 256.8 11.394 265.957 13.1082 294.705C14.818 323.443 61.9404 359.349 72.3611 359.301C78.0502 359.292 87.8543 352.108 91.357 349.318Z" fill="#95AEC7"/>
<path d="M69.9819 280.768C76.1302 303.533 82.0511 333.693 85.5757 331.135C91.3086 326.981 89.7606 282.246 89.7649 276.264C89.7649 275.262 88.921 270.806 89.0084 267.618C95.5284 282.845 93.1015 330.208 93.0971 335.84C93.0884 341.818 92.9659 343.873 89.2402 346.838C85.8293 349.549 76.2964 356.528 70.7734 356.55C60.6239 356.594 14.8046 321.681 13.1516 293.725C12.0978 276.154 14.4635 266.127 21.4033 259.537C36.1794 278.686 63.0771 280.798 69.9819 280.768Z" fill="#88A2BC"/>
<path d="M41.5405 255.117C51.4451 256.892 69.3566 265.603 71.8535 280.34C74.3635 295.085 78.907 353.511 74.3067 358.426C69.6977 363.333 18.8932 352.877 14.0043 339.715C9.11979 326.552 9.36468 296.602 11.2581 282.146C13.156 267.689 16.6849 250.669 41.5405 255.117Z" fill="#A6C1DC"/>
<path d="M45.3275 300.481C52.827 301.469 66.8728 290.24 68.7925 282.071C71.1801 296.104 75.5049 351.696 71.1276 356.358C66.7372 361.041 18.3947 351.08 13.7595 338.569C9.11544 326.036 9.33846 297.534 11.1401 283.79C13.1385 296.519 23.5198 297.599 45.3275 300.481Z" fill="#B6D1ED"/>
<path d="M85.3086 310.858C85.3086 310.858 85.3304 310.867 85.3435 310.862C85.6015 310.862 85.8027 310.661 85.7983 310.408C85.7939 309.161 85.466 279.762 83.0346 272.687C80.8001 266.215 66.61 248.719 40.5868 249.637C40.342 249.655 40.1408 249.856 40.1539 250.114C40.1496 250.368 40.3726 250.551 40.6131 250.547C65.8273 249.65 80.0961 266.928 82.1776 272.98C84.5739 279.915 84.8975 310.102 84.8931 310.408C84.8975 310.653 85.0855 310.849 85.3086 310.858Z" fill="#B6D1ED"/>
<path d="M55.9325 309.616C61.4555 312.979 63.4583 320.251 63.9524 327.807C64.4641 335.368 64.639 356.511 59.2778 359.148C50.0422 363.7 11.9717 349.243 9.51413 342.36C7.0653 335.477 3.66318 300.341 11.9367 298.063C18.2118 296.348 40.7892 300.389 55.9325 309.616Z" fill="#99B4D0"/>
<path d="M50.6448 312.073C55.0614 314.295 57.3135 319.039 57.9607 327.505C58.5991 335.971 57.7989 358.304 49.4904 359.839C41.536 361.299 10.5934 350.704 7.61978 343.641C3.89844 334.764 3.28623 307.547 8.40691 302.492C12.8848 298.08 41.2343 307.333 50.6448 312.073Z" fill="#B6D1ED"/>
<path d="M87.7574 313.823C88.4789 311.361 86.6466 307.355 85.2954 307.421C83.6118 307.504 82.7766 312.882 83.6774 314.234C84.3115 315.196 87.4906 314.758 87.7574 313.823Z" fill="#E0ECF9"/>
<path d="M60.6722 338.289C61.4024 335.823 59.5702 331.822 58.2277 331.892C56.5398 331.979 55.7002 337.345 56.5966 338.7C57.2263 339.658 60.4054 339.216 60.6722 338.289Z" fill="#E0ECF9"/>
<path d="M27.994 277.121C27.6311 282.583 30.937 287.266 35.3799 287.555C39.8096 287.848 43.7059 283.65 44.0645 278.179C44.4318 272.713 41.1259 268.043 36.6874 267.75C32.2532 267.452 28.3614 271.65 27.994 277.121Z" fill="#E0ECF9"/>
<path d="M29.409 277.208C29.151 281.126 31.508 284.476 34.6914 284.682C37.8662 284.892 40.6517 281.892 40.9097 277.974C41.1721 274.06 38.8063 270.706 35.6316 270.496C32.4525 270.286 29.6582 273.299 29.409 277.208Z" fill="#B6D1ED"/>
</g>
</svg>
