<svg width="35" height="38" viewBox="0 0 35 38" fill="none" xmlns="http://www.w3.org/2000/svg">
<path d="M1.34378 2.17722C0.939055 2.59234 0.704834 3.23866 0.704834 4.07566V33.9309C0.704834 34.7679 0.939055 35.4142 1.34378 35.8293L1.44367 35.9205L18.5178 19.1973V18.8025L1.44367 2.07934L1.34378 2.17722Z" fill="white"/>
<path d="M26.2695 24.7745L20.5844 19.1973V18.8024L26.2764 13.2252L26.4038 13.2978L33.1446 17.0558C35.0683 18.1223 35.0683 19.8773 33.1446 20.9506L26.4038 24.7019L26.2695 24.7745Z" fill="white"/>
<path d="M25.3706 25.7404L19.5512 20.0384L2.3772 36.8678C3.01614 37.5259 4.05809 37.6052 5.24297 36.9471L25.3706 25.7404Z" fill="white"/>
<path d="M25.3706 12.2594L5.24297 1.05268C4.05809 0.401303 3.01614 0.480614 2.3772 1.13874L19.5512 17.9614L25.3706 12.2594Z" fill="white"/>
</svg>
