<svg width="46" height="35" viewBox="0 0 46 35" fill="none" xmlns="http://www.w3.org/2000/svg">
<path d="M39.9868 15.9961C39.4821 15.9961 39.048 15.6249 38.9829 15.1193C37.5503 4.11281 35.0813 2.24612 35.0542 2.22999C33.7681 1.3854 31.1309 3.33278 30.0565 4.39792L29.6007 4.84442L29.0038 4.64538C23.5557 2.78945 17.006 4.63462 16.9409 4.65614L16.3657 4.8229L15.9424 4.4033C14.8626 3.33278 12.2253 1.39616 10.9447 2.21923L10.8796 2.26226C10.8904 2.26226 8.43771 4.15047 7.016 15.1246C6.94545 15.6734 6.4408 16.0661 5.88188 15.9907C5.32839 15.9208 4.93769 15.4151 5.00823 14.8664C6.52219 3.19292 9.21911 0.912009 9.85943 0.530065C12.399 -1.09992 15.7308 1.48762 16.9463 2.57965C18.6936 2.15467 24.0983 1.08415 29.0743 2.55276C30.3115 1.44996 33.6108 -1.09454 36.1286 0.524685C36.7689 0.912009 39.4767 3.19292 40.9907 14.861C41.0666 15.4151 40.6705 15.9154 40.117 15.9854C40.0736 15.9961 40.0302 15.9961 39.9868 15.9961Z" fill="#2B3C67"/>
<path d="M11.279 5C11.279 5 9.33049 7.86249 10.2435 11C10.2435 11 12.7153 8.10383 16 8.58653C16 8.58653 15.2707 6.17306 11.279 5Z" fill="#2B3C67"/>
<path d="M34.7273 5C34.7273 5 36.6683 7.86249 35.7562 11C35.7562 11 33.2869 8.10383 30 8.58653C30 8.58653 30.7286 6.17306 34.7273 5Z" fill="#2B3C67"/>
<path d="M33.0869 18C33.001 18 25.4359 18.0819 23.0268 24.2656C20.6124 18.0873 13.0526 18 12.9668 18H2V19.359H12.9668C13.3102 19.359 21.4172 19.4463 22.3401 27H23.7136C24.6311 19.4682 32.7435 19.359 33.0815 19.359H44V18H33.0869Z" fill="#2B3C67"/>
<path d="M33.3869 26C29.7485 26 26.7678 28.7871 26.5306 32.2921H19.4748C19.2376 28.7871 16.2569 26 12.6131 26H0V29.2833H12.6131C14.5589 29.2833 16.1383 30.8352 16.1383 32.7355V35H29.8563V32.7355C29.8563 30.8299 31.4411 29.2833 33.3815 29.2833H46V26H33.3869Z" fill="#2B3C67"/>
</svg>
