<svg width="153" height="152" viewBox="0 0 153 152" fill="none" xmlns="http://www.w3.org/2000/svg">
<path d="M102.474 86.947C119.453 88.0529 151.693 100.407 124.711 107.592C97.7286 114.777 23.1794 115.169 11.416 101.346C-0.341739 87.5236 28.0197 82.1039 102.474 86.947Z" fill="#DBE7F3"/>
<path d="M74.1609 86.4275C64.2064 70.992 65.6226 51.9519 77.324 43.9002C89.0255 35.8485 106.581 41.8342 116.536 57.2698C126.49 72.7053 125.074 91.7454 113.372 99.7971C101.671 107.849 84.1154 101.863 74.1609 86.4275Z" fill="#B6D1ED"/>
<path d="M113.384 99.7983C101.679 107.85 84.1314 101.855 74.1706 86.4313C64.2195 70.9969 65.6314 51.9487 77.3275 43.9071C89.0333 35.8551 106.58 41.8501 116.541 57.2741C126.492 72.7085 125.071 91.7477 113.384 99.7983ZM110.331 95.0785C120.057 88.3836 121.236 72.5601 112.958 59.7376C104.69 46.9046 90.0867 41.9333 80.3705 48.6178C70.6447 55.3128 69.4662 71.1362 77.744 83.9588C86.0122 96.7917 100.606 101.773 110.331 95.0785Z" fill="#95AEC7"/>
<path opacity="0.75" d="M121.029 83.6773C121.577 83.0061 122.204 82.3682 122.889 81.765C116.277 78.6224 70.974 56.952 70.5163 56.6057C69.1102 58.2813 68.8924 67.5323 67.8263 69.2905C69.2082 70.1442 116.713 81.9839 121.029 83.6773Z" fill="#B6D1ED"/>
<path d="M75.8364 57.6824C77.7839 52.4099 80.1406 47.4581 82.6237 42.5653C82.7955 42.0864 82.9867 41.6255 83.1683 41.175C81.1063 41.7602 79.1431 42.6494 77.3176 43.8982C68.5287 49.9524 65.555 62.2006 68.8357 74.4576C70.6937 68.793 73.6979 63.474 75.8364 57.6824Z" fill="#B6D1ED"/>
<path opacity="0.55" d="M95.3742 102.576C101.745 104.181 108.15 103.401 113.384 99.7985C125.09 91.7465 126.492 72.7086 116.541 57.2743C115.377 55.462 114.097 53.7941 112.74 52.2484C112.082 54.2106 97.205 97.2343 95.3742 102.576Z" fill="#B6D1ED"/>
<path opacity="0.55" d="M96.2649 40.4995C92.0857 40.517 80.8238 41.4989 77.3276 43.9075C67.3699 50.7552 64.8668 65.5653 70.4835 79.3465C73.4374 73.7103 95.4773 41.8003 96.2649 40.4995Z" fill="#B6D1ED"/>
<path opacity="0.55" d="M77.4444 90.8338C79.6803 93.4831 82.1565 95.7555 84.7853 97.6086C86.0826 93.8993 101.847 48.3914 103.191 44.3385C102.364 43.8631 101.528 43.437 100.672 43.0511C99.9135 44.3206 78.6152 88.7279 77.4444 90.8338Z" fill="#B6D1ED"/>
<path d="M69.0378 70.7784L61.7024 71.6442C61.7024 71.6442 61.1722 78.8664 61.5018 78.8427C61.8313 78.8191 69.6479 77.3161 69.6479 77.3161L69.0378 70.7784Z" fill="#6A8AAC"/>
<path d="M15.6502 71.2395L60.8784 69.992C60.8784 69.992 63.407 71.2691 63.5846 75.145C63.7622 79.0208 61.7046 80.3639 61.2306 80.5632L16.3274 86.0162L15.6502 71.2395Z" fill="#A6C1DC"/>
<path opacity="0.75" d="M16.2058 83.4878L16.3175 86.0074L61.2206 80.5543C61.4237 80.4717 61.8682 80.1871 62.3304 79.629L16.2058 83.4878Z" fill="#65809D"/>
<path opacity="0.75" d="M63.243 73.1669C63.154 72.8719 63.0457 72.5977 62.9182 72.3443L15.7743 74.3124L16.4477 76.7334L63.243 73.1669Z" fill="#65809D"/>
<path d="M63.5247 76.6561C63.5802 76.2049 63.6063 75.6878 63.574 75.136C63.5518 74.6515 16.34 78.2964 16.34 78.2964L16.7824 82.6686C20.9884 82.2506 60.9474 77.0157 63.5247 76.6561Z" fill="#B6CADC"/>
<path d="M16.5597 85.9998C14.1379 86.4066 11.8518 83.4596 11.4404 79.4061C11.029 75.3525 12.6468 71.7466 15.059 71.3502C17.4809 70.9434 19.7669 73.8904 20.1783 77.944C20.5896 81.9781 18.9621 85.5944 16.5597 85.9998Z" fill="#2B3C67"/>
<path d="M16.2208 82.7676C14.8743 82.9904 13.5944 81.3419 13.368 79.0833C13.1416 76.8248 14.0414 74.816 15.388 74.5931C16.7346 74.3703 18.0144 76.0188 18.2408 78.2774C18.4769 80.5255 17.577 82.5343 16.2208 82.7676Z" fill="#6A8AAC"/>
<path d="M111.858 102.445C98.2903 110.495 79.8148 103.254 70.582 86.2805C61.3589 69.2969 64.8677 48.9998 78.4255 40.9416C91.993 32.8923 110.469 40.1332 119.701 57.1064C128.934 74.0991 125.425 94.3961 111.858 102.445ZM115.816 59.2708C108.053 44.992 92.6094 38.856 81.3225 45.5559C70.0356 52.2557 67.1768 69.2689 74.9297 83.5387C82.6923 97.8175 98.136 103.953 109.423 97.2536C120.71 90.5537 123.579 73.5496 115.816 59.2708Z" fill="#7995B0"/>
<g opacity="0.75">
<path opacity="0.75" d="M113.936 56.2164C105.937 43.053 91.2053 37.5952 80.3436 44.0507C69.0566 50.7505 66.1978 67.7637 73.9507 82.0335C74.5291 83.11 75.1652 84.1241 75.8206 85.0979C75.5073 84.5953 75.2134 84.072 74.9195 83.5487C67.1568 69.2699 70.0254 52.2657 81.3123 45.5659C91.7585 39.3637 105.75 44.1553 113.936 56.2164Z" fill="#2B3C67"/>
<path opacity="0.75" d="M119.711 57.1152C119.044 55.8797 118.32 54.7067 117.557 53.5948C117.959 54.2562 118.36 54.9177 118.733 55.6104C127.956 72.594 124.447 92.891 110.889 100.949C98.3072 108.422 81.4988 102.725 71.7669 88.3049C81.321 103.836 98.8605 110.191 111.877 102.463C125.425 94.3958 128.934 74.0988 119.711 57.1152Z" fill="#2B3C67"/>
</g>
<path opacity="0.75" d="M67.6799 37.1906C66.503 39.412 62.8435 38.7933 59.9342 36.1756C57.4149 33.8881 56.3978 30.8587 57.3914 29.1875C58.3684 27.5429 61.1127 27.5143 63.8072 29.3221C66.9146 31.377 68.8386 35.01 67.6799 37.1906Z" fill="#B6D1ED"/>
<path opacity="0.75" d="M51.9863 30.8535C51.3631 32.2101 49.1542 32.0002 47.3413 30.5504C45.7614 29.2843 45.0528 27.5325 45.5993 26.4955C46.1295 25.4852 47.7618 25.3579 49.43 26.3199C51.3344 27.4375 52.6079 29.511 51.9863 30.8535Z" fill="#B6D1ED"/>
</svg>
