<svg width="93" height="73" viewBox="0 0 93 73" fill="none" xmlns="http://www.w3.org/2000/svg">
<path d="M88.5996 39.3023L46.0224 11.851L25.3828 17.2983L88.5996 39.3023Z" fill="#EAF6FE"/>
<path d="M30.5187 18.3797L27.8821 16.6423L28.0981 16.5908L30.7347 18.3282L32.7069 17.8224L30.0464 16.0643L30.2531 16.009L32.9174 17.7579L35.5506 17.0921L32.8624 15.3226L33.0691 15.2673L35.7666 17.0407L38.1484 16.4335L35.427 14.6395L35.6338 14.5842L38.3552 16.3782L40.737 15.771L37.9879 13.9655L38.1946 13.9102L40.9437 15.7157L43.6776 15.0158L40.9045 13.1897L41.1298 13.142L43.912 14.9719L46.4484 14.3312L43.6422 12.4805L43.8489 12.4252L46.6551 14.2759L48.8433 13.7186L46.0093 11.8565L46.0317 11.8549L58.951 20.1841L59.2147 20.3579L59.4028 20.4788L59.3935 20.475L61.7942 22.05L61.8426 22.0376L62.0307 22.1585L61.9823 22.171L64.6705 23.9405L64.7543 23.921L64.9424 24.0419L64.8548 24.0706L67.2554 25.6457L67.3784 25.6099L67.5665 25.7308L67.4343 25.7628L69.68 27.2415L69.8383 27.1986L70.0264 27.3195L69.8589 27.3586L71.9165 28.7163L72.1102 28.6665L72.2983 28.7874L72.1046 28.8372L74.3264 30.2952L74.5554 30.2383L74.7435 30.3592L74.5014 30.4216L76.7379 31.8964L77.0061 31.8232L77.1942 31.9441L76.9167 32.0135L79.0445 33.4111L79.3481 33.3308L79.5362 33.4517L79.2326 33.532L81.4451 34.9861L81.7841 34.8988L81.9868 35.0366L81.6387 35.1201L83.6115 36.4212L83.9858 36.3269L84.1739 36.4478L83.7996 36.5421L85.8849 37.9113L86.2946 37.81L86.4827 37.9309L86.073 38.0323L87.2972 38.8405L86.6627 38.6218L85.8532 38.093L85.4305 38.1998L85.1456 38.1038L85.6559 37.9683L83.5705 36.599L81.9857 37.0051L81.7008 36.9091L83.3824 36.4781L81.4096 35.177L79.2215 35.7343L80.2152 36.3933L79.5806 36.1747L79.0017 35.795L78.7019 35.866L78.417 35.7701L78.8136 35.6741L76.601 34.22L75.0646 34.6136L74.7797 34.5176L76.4129 34.0991L74.2852 32.7015L71.7581 33.3461L72.1397 33.601L71.2887 33.3038L71.3632 33.2805L69.1268 31.8056L67.894 32.119L67.609 32.023L68.9294 31.6809L66.7076 30.2229L64.242 30.8496L63.9571 30.7537L66.5195 30.102L64.4619 28.7443L61.7281 29.4441L63.4557 30.5792L62.8211 30.3605L61.5121 29.4956L60.8342 29.6702L60.5493 29.5742L61.3202 29.384L59.0745 27.9053L57.1415 28.3948L56.8566 28.2989L58.8864 27.7844L56.4857 26.2093L54.1039 26.8165L55.8131 27.9439L55.1785 27.7252L53.8749 26.8734L53.21 27.0425L52.9251 26.9466L53.6868 26.7525L50.9985 24.983L48.8496 25.524L48.5739 25.4318L50.8197 24.8659L48.419 23.2908L46.0372 23.898L48.1742 25.2993L47.5396 25.0807L45.8212 23.9495L44.9366 24.1793L44.6609 24.0872L45.6385 23.8416L42.884 22.0231L40.4799 22.6319L40.2042 22.5397L42.7051 21.906L40.441 20.4197L37.8078 21.0854L39.8176 22.4018L39.183 22.1831L37.5918 21.1369L36.7725 21.3396L36.4875 21.2437L37.4037 21.016L35.2667 19.6146L33.2853 20.1166L33.3516 20.1656L32.717 19.947L30.617 18.5609L29.5387 18.8407L29.263 18.7485L30.5187 18.3797ZM35.9547 17.1616L38.2096 18.6441L40.5915 18.0369L38.3365 16.5544L35.9547 17.1616ZM38.5525 16.5029L40.8074 17.9854L43.1893 17.3782L40.9343 15.8957L38.5525 16.5029ZM62.0466 24.61L59.3584 22.8405L56.822 23.4812L59.5102 25.2508L62.0466 24.61ZM59.6983 25.3717L62.0952 26.956L64.6315 26.3152L62.2309 24.7401L59.6983 25.3717ZM59.1703 22.7196L56.7696 21.1445L54.2333 21.7853L56.6339 23.3603L59.1703 22.7196ZM48.6671 18.103L51.2035 17.4623L49.0703 16.0517L46.534 16.6924L48.6671 18.103ZM46.3142 16.7532L43.5803 17.4531L45.7173 18.8544L48.4511 18.1545L46.3142 16.7532ZM48.8514 18.2332L51.1156 19.7195L53.6519 19.0787L51.3877 17.5924L48.8514 18.2332ZM51.3037 19.8404L54.0582 21.6589L56.5946 21.0182L53.84 19.1996L51.3037 19.8404ZM54.0304 21.8313L51.2965 22.5312L53.6934 24.1155L56.4272 23.4156L54.0304 21.8313ZM53.8423 21.7104L51.0877 19.8919L48.3539 20.5918L51.1177 22.4141L53.8423 21.7104ZM50.8996 19.771L48.6354 18.2847L45.9016 18.9846L48.1658 20.4709L50.8996 19.771ZM45.6856 19.036L43.3038 19.6432L45.5641 21.1388L47.946 20.5316L45.6856 19.036ZM45.4975 18.9151L43.3643 17.5046L40.9825 18.1117L43.1195 19.5131L45.4975 18.9151ZM41.1411 15.8404L43.396 17.3229L46.1299 16.623L43.8749 15.1405L41.1411 15.8404ZM44.0871 15.0983L46.342 16.5808L48.8784 15.94L46.6234 14.4575L44.0871 15.0983ZM49.0221 13.8357L46.834 14.393L49.0889 15.8754L51.2771 15.3182L49.0221 13.8357ZM51.4614 15.4483L49.2732 16.0056L51.4102 17.407L53.5984 16.8497L51.4614 15.4483ZM53.7865 16.9706L51.5983 17.5279L53.8625 19.0142L56.0507 18.4569L53.7865 16.9706ZM56.2349 18.587L54.0468 19.1443L56.8013 20.9628L58.9895 20.4055L56.2349 18.587ZM59.1776 20.5265L56.9894 21.0838L59.3901 22.6588L61.5782 22.1015L59.1776 20.5265ZM61.7625 22.2317L59.5743 22.789L62.2626 24.5585L64.4507 24.0012L61.7625 22.2317ZM64.6296 24.1183L62.4414 24.6756L64.8421 26.2507L67.0302 25.6934L64.6296 24.1183ZM67.2053 25.8197L65.0171 26.377L67.2628 27.8557L69.451 27.2984L67.2053 25.8197ZM69.6483 27.4231L67.4602 27.9804L69.5178 29.3382L71.7059 28.7809L69.6483 27.4231ZM71.894 28.9018L69.7059 29.4591L71.9277 30.9171L74.1158 30.3598L71.894 28.9018ZM79.0557 35.6118L81.2438 35.0545L79.0313 33.6003L76.8431 34.1576L79.0557 35.6118ZM76.655 34.0367L78.8432 33.4794L76.7154 32.0819L74.5273 32.6392L76.655 34.0367ZM76.5311 31.9517L74.2947 30.4769L72.1065 31.0342L74.343 32.509L76.5311 31.9517ZM71.5999 33.2051L74.127 32.5605L71.8905 31.0857L69.3542 31.7264L71.5999 33.2051ZM69.1753 31.6093L71.7117 30.9686L69.4899 29.5106L66.9628 30.1552L69.1753 31.6093ZM66.7747 30.0343L69.311 29.3935L67.2534 28.0357L64.7263 28.6803L66.7747 30.0343ZM67.0561 27.911L64.8104 26.4323L62.2833 27.0769L64.529 28.5556L67.0561 27.911ZM61.5792 29.307L64.313 28.6071L62.0673 27.1284L59.3334 27.8283L61.5792 29.307ZM59.1492 27.6981L61.883 26.9982L59.4824 25.4232L56.7485 26.123L59.1492 27.6981ZM59.2943 25.3022L56.606 23.5327L53.8722 24.2326L56.5604 26.0021L59.2943 25.3022ZM53.9719 26.6646L56.3537 26.0574L53.6655 24.2879L51.2836 24.8951L53.9719 26.6646ZM51.0993 24.765L53.4812 24.1578L51.0805 22.5827L48.6987 23.1899L51.0993 24.765ZM50.8924 22.4618L48.1379 20.6433L45.7561 21.2504L48.5198 23.0728L50.8924 22.4618ZM45.922 23.7314L48.3039 23.1243L45.5493 21.3058L43.1675 21.9129L45.922 23.7314ZM42.9794 21.792L45.3612 21.1848L43.097 19.6985L40.7152 20.3057L42.9794 21.792ZM42.9128 19.5684L40.7758 18.167L38.3939 18.7742L40.5309 20.1756L42.9128 19.5684ZM37.6779 20.902L40.3111 20.2363L38.1741 18.8349L35.5409 19.5007L37.6779 20.902ZM37.9991 18.7086L35.7441 17.2261L33.1109 17.8918L35.3659 19.3743L37.9991 18.7086ZM33.1777 19.9316L35.1592 19.4296L32.9042 17.9471L30.9228 18.4491L33.1777 19.9316Z" fill="#A6C1DC"/>
<path d="M26.231 46.5118L25.3828 17.2983L88.5996 39.3022L26.231 46.5118Z" fill="#6A8AAC"/>
<path d="M25.968 37.2942L88.5996 39.3022L26.231 46.5118L25.968 37.2942Z" fill="#2B3C67"/>
<path d="M13.4343 20.5343L88.5996 39.3022L0.366529 41.5265L13.4343 20.5343Z" fill="#EAF6FE"/>
<path d="M2.3667 38.3059L4.9988 38.9271L6.36479 36.7971L3.70115 36.1737L3.79374 36.028L6.45738 36.6514L7.82335 34.5215L5.12275 33.8828L5.21534 33.7371L7.91594 34.3758L9.47093 31.9452L6.73878 31.3043L6.83138 31.1586L9.57277 31.8033L11.0673 29.4668L8.29435 28.8199L8.38694 28.6742L11.1599 29.3211L12.6827 26.9422L9.8728 26.28L9.96539 26.1343L12.7753 26.7965L14.1772 24.6056L11.3358 23.9413L11.4284 23.7956L14.2791 24.4638L15.681 22.2729L12.8026 21.5933L12.8952 21.4476L15.7736 22.1272L16.3254 21.2623L16.4939 21.2994L15.9422 22.1644L19.2948 22.9532L19.8183 22.1307L19.9868 22.1678L19.4673 22.9811L22.6921 23.7388L23.1834 22.9679L23.3481 23.0143L22.8569 23.7852L25.7353 24.4648L26.2021 23.7271L26.3669 23.7734L25.9001 24.5112L29.3435 25.3158L29.7782 24.6298L29.9468 24.6669L29.5121 25.353L32.8648 26.1418L33.2711 25.4981L33.4397 25.5353L33.0334 26.1789L35.9211 26.8624L36.3121 26.2557L36.4807 26.2928L36.0934 26.8903L39.2405 27.6267L39.6033 27.0624L39.768 27.1088L39.4091 27.6638L42.2691 28.3358L42.6035 27.8139L42.7683 27.8603L42.4338 28.3822L45.4716 29.0952L45.7777 28.6157L45.9425 28.662L45.6364 29.1415L48.2592 29.7589L48.5408 29.3126L48.7094 29.3498L48.4278 29.7961L51.4748 30.5128L51.7281 30.1089L51.8929 30.1553L51.6396 30.5592L55.0515 31.3617L55.2857 31.004L55.4505 31.0504L55.2256 31.4119L58.017 32.0664L58.1973 31.7081L58.3621 31.7545L58.1562 32.0698L61.5274 32.8663L61.7049 32.5934L61.8735 32.6305L61.696 32.9034L64.3095 33.517L64.4626 33.2772L64.6274 33.3236L64.4743 33.5634L67.5529 34.2823L67.6776 34.085L67.8462 34.1221L67.7215 34.3195L70.3851 34.9429L70.4853 34.7787L70.6539 34.8158L70.5537 34.98L73.3359 35.6307L73.417 35.5128L73.5856 35.5499L73.5045 35.6679L75.8532 36.2154L75.9137 36.1214L76.0784 36.1678L76.0218 36.2526L78.754 36.8935L78.7861 36.8418L78.9509 36.8882L78.9187 36.9398L80.7432 37.3684L80.7639 37.3444L80.9325 37.3816L80.9211 37.4093L82.9327 37.8826L88.6128 39.2968L88.2859 39.3025L85.148 38.5698L84.6208 39.4016L84.4239 39.4069L84.9795 38.5327L83.0048 38.0747L82.1149 39.4707L81.918 39.476L82.8363 38.0375L80.8247 37.5642L79.5682 39.5338L79.3712 39.5391L80.6599 37.5179L78.8354 37.0893L77.4334 39.2802L78.5967 39.5548L77.9521 39.57L77.3409 39.4259L77.2406 39.5901L77.0437 39.5953L77.1723 39.3887L74.4401 38.7478L73.8394 39.6791L73.6425 39.6844L74.2623 38.7069L71.9135 38.1594L70.8988 39.7527L70.7019 39.758L71.7449 38.1222L68.9628 37.4715L67.5608 39.6623L68.2498 39.8277L67.6053 39.843L67.4682 39.808L67.4437 39.8412L67.2468 39.8465L67.2997 39.7709L64.6453 39.1513L64.1463 39.9406L63.9494 39.9459L64.4767 39.1142L61.3981 38.3952L60.3513 40.0402L60.1544 40.0455L61.2295 38.3581L58.6159 37.7445L57.0931 40.1234L56.4354 40.144L53.4569 39.4447L52.958 40.2341L52.7611 40.2394L53.2884 39.4076L50.4969 38.7531L49.4937 40.3187L49.2968 40.324L50.3322 38.7067L46.9317 37.8765L45.4371 40.213L46.1169 40.3746L45.4724 40.3898L45.3446 40.3587L45.3201 40.3919L45.1231 40.3972L45.176 40.3216L42.129 39.6048L41.5603 40.4844L41.3634 40.4897L41.9642 39.5585L39.3413 38.941L38.306 40.5583L38.1091 40.5636L39.1766 38.8947L36.1388 38.1817L34.5838 40.6123L34.7301 40.651L34.0855 40.6663L31.4719 40.0527L31.0335 40.748L30.8366 40.7533L31.3034 40.0155L28.1563 39.2791L27.153 40.8448L26.9561 40.85L27.9877 39.242L25.0962 38.5678L23.7302 40.6977L24.6563 40.9177L24.0117 40.9329L23.6376 40.8434L23.5771 40.9375L23.3802 40.9427L23.4728 40.797L20.1202 40.0082L19.459 41.0335L19.2621 41.0388L19.9516 39.9711L16.5081 39.1664L15.244 41.1545L15.0471 41.1597L16.3395 39.1293L13.4611 38.4496L12.0951 40.5796L14.5809 41.1621L13.9363 41.1773L12.0025 40.7253L11.6719 41.2379L11.475 41.2432L11.8339 40.6882L8.60909 39.9304L7.70223 41.3412L7.50533 41.3464L8.43126 39.8895L5.07859 39.1007L3.76544 41.1551L4.86017 41.4122L4.2156 41.4274L3.67285 41.3008L3.58026 41.4464L3.38336 41.4517L3.50428 41.2636L0.909165 40.6577L1.00175 40.512L3.6061 41.1217L4.91927 39.0674L2.28718 38.4461L2.3667 38.3059ZM6.62595 36.6886L9.97859 37.4774L11.3446 35.3474L7.99194 34.5586L6.62595 36.6886ZM8.08453 34.4129L11.4372 35.2018L12.9922 32.7712L9.6395 31.9823L8.08453 34.4129ZM53.4443 33.814L50.0324 33.0115L48.6305 35.2024L52.0424 36.0048L53.4443 33.814ZM52.211 36.042L55.0024 36.6965L56.4043 34.5057L53.6129 33.8511L52.211 36.042ZM49.8638 32.9744L46.8168 32.2576L45.4148 34.4485L48.4619 35.1652L49.8638 32.9744ZM46.6482 32.2205L44.0254 31.6031L42.6234 33.7939L45.2463 34.4113L46.6482 32.2205ZM29.7685 30.9437L26.4158 30.1549L24.893 32.5338L28.2456 33.3226L29.7685 30.9437ZM28.4142 33.3597L31.3057 34.034L32.8286 31.655L29.937 30.9808L28.4142 33.3597ZM26.238 30.1139L22.7945 29.3092L21.2717 31.6882L24.7151 32.4928L26.238 30.1139ZM22.639 29.2667L19.7606 28.587L18.2377 30.966L21.1161 31.6456L22.639 29.2667ZM18.1413 31.1209L16.6468 33.4575L19.5252 34.1371L21.0197 31.8006L18.1413 31.1209ZM17.9727 31.0838L14.7479 30.3261L13.2533 32.6626L16.4782 33.4203L17.9727 31.0838ZM18.0653 30.9381L19.5882 28.5592L16.3633 27.8014L14.8405 30.1804L18.0653 30.9381ZM19.6807 28.4135L21.0827 26.2226L17.8578 25.4649L16.4559 27.6558L19.6807 28.4135ZM19.8493 28.4506L22.7278 29.1302L24.1297 26.9394L21.2513 26.2598L19.8493 28.4506ZM22.8964 29.1674L26.3398 29.972L27.7417 27.7812L24.2983 26.9765L22.8964 29.1674ZM26.5084 30.0092L29.8611 30.798L31.263 28.6072L27.9103 27.8183L26.5084 30.0092ZM30.0296 30.8351L32.9212 31.5093L34.3231 29.3185L31.4316 28.6443L30.0296 30.8351ZM33.0859 31.5557L36.233 32.2921L37.6349 30.1013L34.4971 29.3687L33.0859 31.5557ZM36.3978 32.3385L39.2577 33.0105L40.6596 30.8197L37.7997 30.1477L36.3978 32.3385ZM39.4171 33.0438L42.4548 33.7568L43.8568 31.5659L40.819 30.853L39.4171 33.0438ZM42.5401 33.9434L41.0172 36.3224L43.6401 36.9398L45.1629 34.5608L42.5401 33.9434ZM42.3622 33.9025L39.3245 33.1895L37.8016 35.5685L40.8394 36.2814L42.3622 33.9025ZM39.1559 33.1524L36.2959 32.4804L34.7731 34.8593L37.633 35.5313L39.1559 33.1524ZM36.1312 32.434L32.9933 31.7014L31.4705 34.0803L34.6176 34.8168L36.1312 32.434ZM31.3779 34.226L29.8834 36.5626L33.0305 37.299L34.525 34.9625L31.3779 34.226ZM31.2093 34.1889L28.3178 33.5147L26.8233 35.8512L29.7148 36.5254L31.2093 34.1889ZM28.153 33.4683L24.8004 32.6795L23.3058 35.016L26.6585 35.8048L28.153 33.4683ZM24.6318 32.6424L21.1883 31.8377L19.6938 34.1742L23.1373 34.9789L24.6318 32.6424ZM19.6012 34.3199L18.0462 36.7505L21.4897 37.5552L23.0447 35.1246L19.6012 34.3199ZM19.4364 34.2735L16.558 33.5939L15.003 36.0245L17.8815 36.7041L19.4364 34.2735ZM16.3856 33.566L13.1607 32.8083L11.6058 35.2389L14.8306 35.9966L16.3856 33.566ZM9.73209 31.8366L13.0848 32.6255L14.5831 30.2797L11.2304 29.4909L9.73209 31.8366ZM11.3192 29.3544L14.6719 30.1433L16.1947 27.7643L12.8421 26.9755L11.3192 29.3544ZM12.9347 26.8298L16.2873 27.6186L17.6892 25.4278L14.3366 24.6389L12.9347 26.8298ZM15.8311 22.3024L14.4292 24.4933L17.7818 25.2821L19.1838 23.0912L15.8311 22.3024ZM19.3523 23.1284L17.9504 25.3192L21.1753 26.0769L22.5772 23.8861L19.3523 23.1284ZM22.7458 23.9232L21.3439 26.1141L24.2223 26.7937L25.6242 24.6029L22.7458 23.9232ZM25.7928 24.64L24.3909 26.8308L27.8251 27.6317L29.227 25.4408L25.7928 24.64ZM29.3918 25.4872L27.9899 27.6781L31.3425 28.4669L32.7445 26.2761L29.3918 25.4872ZM32.9223 26.317L31.5204 28.5078L34.408 29.1913L35.81 27.0004L32.9223 26.317ZM35.9824 27.0283L34.5804 29.2192L37.7275 29.9556L39.1295 27.7648L35.9824 27.0283ZM39.285 27.8073L37.883 29.9982L40.743 30.6702L42.1449 28.4793L39.285 27.8073ZM42.3135 28.5165L40.9116 30.7073L43.9494 31.4202L45.3513 29.2294L42.3135 28.5165ZM45.5199 29.2665L44.118 31.4574L46.7408 32.0748L48.1427 29.884L45.5199 29.2665ZM48.3075 29.9303L46.9056 32.1212L49.9526 32.8379L51.3545 30.6471L48.3075 29.9303ZM51.5231 30.6842L50.1212 32.8751L53.5331 33.6775L54.935 31.4867L51.5231 30.6842ZM55.1036 31.5238L53.7017 33.7147L56.4931 34.3692L57.895 32.1784L55.1036 31.5238ZM58.0636 32.2155L56.6617 34.4063L60.0328 35.2028L61.4348 33.012L58.0636 32.2155ZM61.6034 33.0491L60.2014 35.2399L62.815 35.8535L64.217 33.6627L61.6034 33.0491ZM64.3855 33.6998L62.9836 35.8907L66.0622 36.6096L67.4641 34.4188L64.3855 33.6998ZM77.2556 39.2392L78.6576 37.0484L75.9254 36.4075L74.5235 38.5983L77.2556 39.2392ZM74.3549 38.5612L75.7568 36.3704L73.4081 35.8228L72.0061 38.0137L74.3549 38.5612ZM71.8413 37.9673L73.2433 35.7764L70.4611 35.1257L69.0592 37.3166L71.8413 37.9673ZM70.2925 35.0886L67.6381 34.469L66.2362 36.6598L68.8998 37.2832L70.2925 35.0886ZM67.4091 39.6105L68.811 37.4197L66.1567 36.8001L64.7547 38.9909L67.4091 39.6105ZM64.5769 38.95L65.9788 36.7591L62.9003 36.0402L61.4983 38.231L64.5769 38.95ZM61.3336 38.1846L62.7355 35.9938L60.1219 35.3802L58.72 37.571L61.3336 38.1846ZM59.9441 35.3392L56.5729 34.5428L55.171 36.7336L58.5459 37.5208L59.9441 35.3392ZM56.9267 40.0547L58.4495 37.6758L55.0784 36.8793L53.5555 39.2583L56.9267 40.0547ZM53.3924 39.2342L54.9152 36.8553L52.1238 36.2007L50.601 38.5797L53.3924 39.2342ZM50.427 38.5295L51.9498 36.1505L48.5379 35.3481L47.015 37.727L50.427 38.5295ZM48.3693 35.3109L45.3223 34.5942L43.7994 36.9731L46.8464 37.6899L48.3693 35.3109ZM45.2686 40.1759L46.7631 37.8394L43.7161 37.1226L42.2215 39.4591L45.2686 40.1759ZM42.0437 39.4182L43.5382 37.0816L40.9154 36.4642L39.4209 38.8008L42.0437 39.4182ZM39.2615 38.7675L40.756 36.4309L37.7183 35.718L36.2238 38.0545L39.2615 38.7675ZM37.5404 35.677L34.6805 35.005L33.186 37.3416L36.0459 38.0136L37.5404 35.677ZM34.3983 40.5898L35.9533 38.1593L33.0934 37.4872L31.5384 39.9178L34.3983 40.5898ZM31.3829 39.8753L32.9379 37.4447L29.8 36.7121L28.2358 39.1388L31.3829 39.8753ZM28.0672 39.1017L29.6222 36.6711L26.7307 35.9969L25.1757 38.4275L28.0672 39.1017ZM26.5659 35.9505L23.2133 35.1617L21.6583 37.5923L25.0109 38.3811L26.5659 35.9505ZM23.5524 40.6568L24.9184 38.5268L21.5657 37.738L20.1997 39.868L23.5524 40.6568ZM20.0311 39.8308L21.3971 37.7009L17.9536 36.8962L16.5877 39.0261L20.0311 39.8308ZM16.4191 38.989L17.785 36.8591L14.9066 36.1794L13.5406 38.3094L16.4191 38.989ZM14.738 36.1423L11.5132 35.3846L10.1472 37.5145L13.372 38.2722L14.738 36.1423ZM11.9265 40.5425L13.2925 38.4125L10.0677 37.6548L8.70168 39.7847L11.9265 40.5425ZM8.53308 39.7476L9.89907 37.6177L6.54643 36.8288L5.18043 38.9588L8.53308 39.7476Z" fill="#A6C1DC"/>
<path opacity="0.38" d="M64.5989 36.7738C64.5989 36.7738 12.6259 38.0617 11.5132 35.3847C10.395 32.6945 11.4379 27.3372 15.5422 25.6235C19.6427 23.919 75.7386 34.1344 64.5989 36.7738Z" fill="#EAF6FE"/>
<path opacity="0.38" d="M64.8105 26.4322C64.8105 26.4322 49.1805 13.9766 44.9588 14.8738C40.7426 15.784 34.5576 14.5184 37.9993 18.7085C41.4355 22.8856 67.5781 28.2453 64.8105 26.4322Z" fill="#EAF6FE"/>
</svg>
