<svg width="36" height="36" viewBox="0 0 36 36" fill="none" xmlns="http://www.w3.org/2000/svg">
<path d="M7.84037 25.9655V20.4734L13.7612 24.3423C15.036 25.1753 16.5259 25.6189 18.0487 25.6189C19.5715 25.6189 21.0614 25.1753 22.3362 24.3423L28.257 20.4734V25.9655C28.257 26.2021 28.1803 26.4324 28.0383 26.6217L28.0368 26.6232L28.0354 26.6261L28.031 26.6319L28.0179 26.6465L28.0004 26.6698L27.9814 26.6946L27.856 26.8419C27.7089 27.0089 27.5546 27.1694 27.3937 27.3232C26.9897 27.7125 26.3875 28.2186 25.5708 28.7202C23.936 29.7265 21.4597 30.705 18.0487 30.705C14.6377 30.705 12.1629 29.728 10.5252 28.7202C9.86984 28.3209 9.25877 27.853 8.70225 27.3246C8.48146 27.1116 8.27353 26.8856 8.07954 26.648L8.06641 26.6334L8.06204 26.6261V26.6232C7.91918 26.4336 7.84142 26.2029 7.84037 25.9655ZM32.8654 14.85L21.1404 22.5107C20.2212 23.1114 19.1468 23.4314 18.0487 23.4314C16.9506 23.4314 15.8762 23.1114 14.957 22.5107L4.92371 15.9555V23.778C4.92371 24.068 4.80847 24.3462 4.60335 24.5513C4.39824 24.7565 4.12004 24.8717 3.82996 24.8717C3.53988 24.8717 3.26168 24.7565 3.05656 24.5513C2.85144 24.3462 2.73621 24.068 2.73621 23.778V14.6634C2.73621 14.535 2.75808 14.4125 2.79891 14.2988C2.71679 14.0663 2.7156 13.813 2.79554 13.5797C2.87548 13.3465 3.03187 13.1472 3.23933 13.014L14.9993 5.47441C15.9094 4.8911 16.9677 4.58105 18.0487 4.58105C19.1297 4.58105 20.188 4.8911 21.0981 5.47441L32.8581 13.014C33.0117 13.1126 33.1381 13.2481 33.226 13.4081C33.3138 13.5681 33.3602 13.7475 33.3609 13.93C33.3616 14.1125 33.3167 14.2923 33.2301 14.453C33.1436 14.6137 33.0182 14.7502 32.8654 14.85Z" fill="#B6D1ED"/>
</svg>
