<svg width="222" height="109" viewBox="0 0 222 109" fill="none" xmlns="http://www.w3.org/2000/svg">
<path d="M115.12 63.294V19H132V107L98 19H98.2394L115.12 63.294Z" fill="#991212"/>
<path d="M99 63.3393V108H82V21L99 63.3393Z" fill="#991212"/>
<path d="M132 106.634V108H116.245L100.276 67.4425L98.6654 63.1077V63.3556L82 21.0318V19H98.429L132 106.634Z" fill="#ED0000"/>
<circle cx="146.5" cy="77.5" r="5.5" fill="#E62117"/>
<path d="M149.859 76.4529L149.86 76.4528L148.443 77.0141C148.185 77.1164 148.164 77.0077 148.162 76.9779V76.5166C148.162 76.2314 148 76 147.8 76H144.362C144.162 76 144 76.2314 144 76.5166V79.4836C144 79.7687 144.162 80 144.362 80H147.8C148 80 148.162 79.7687 148.162 79.4836V79.172C148.163 79.1476 148.184 79.0627 148.423 79.1282L149.886 79.5293C149.939 79.5484 150 79.544 150 79.4192V76.5752C150 76.4082 149.904 76.4327 149.859 76.4529Z" fill="white"/>
<path d="M145 76C145.552 76 146 75.5523 146 75C146 74.4477 145.552 74 145 74C144.448 74 144 74.4477 144 75C144 75.5523 144.448 76 145 76Z" fill="white"/>
<path d="M147 76C147.552 76 148 75.5523 148 75C148 74.4477 147.552 74 147 74C146.448 74 146 74.4477 146 75C146 75.5523 146.448 76 147 76Z" fill="white"/>
<path d="M174.433 45.7715C174.481 45.7798 174.491 45.7821 174.537 45.7899C175.307 45.9248 176.061 46.0929 176.633 46.3724C177.163 46.6285 177.467 46.9377 177.734 47.4777C178.141 48.2966 178.124 49.4199 177.692 50.2531C177.37 50.873 176.698 51.3764 176.093 51.6331C175.464 51.902 174.851 52.0172 174.15 52.0671C172.926 52.1494 171.62 51.8475 170.544 51.2813C169.908 50.9433 169.137 50.3746 168.766 49.6671C168.492 49.1488 168.528 48.4903 168.906 48.0236C169.507 47.2798 170.735 47.1607 171.653 47.2301C172.353 47.2853 173.607 47.5498 174.263 47.8097C174.445 47.8828 175.115 48.1711 175.229 48.2955C175.309 48.382 175.358 48.505 175.316 48.6151C175.145 49.0663 174.005 49.2614 173.677 49.2965C172.797 49.3925 172.357 49.0489 171.379 48.6228C171.137 48.5178 170.812 48.3991 170.562 48.3661C170.113 48.3055 169.563 48.4075 169.457 48.888C169.404 49.1357 169.692 49.3812 169.915 49.4885C170.439 49.7352 170.869 49.8338 171.393 49.8621C172.942 49.9503 174.693 49.7703 175.996 48.9392C176.175 48.8245 176.352 48.6533 176.363 48.4287C176.387 47.9754 175.59 47.6651 175.59 47.6651C174.75 47.2805 173.18 47.046 172.37 46.9471C171.52 46.8398 170.183 46.6766 169.863 46.6169C169.533 46.5568 169.175 46.4763 168.893 46.3381C168.61 46.1982 168.339 45.8999 168.268 45.5792C168.143 45.0012 168.361 44.307 168.703 43.8633C169.598 42.7009 171.601 42.3271 173.09 42.2069C174.531 42.0898 176.85 42.186 178.229 42.9793C178.442 43.1028 178.548 43.2139 178.494 43.4407C178.384 43.8661 178.045 44.1293 177.642 44.2343C177.22 44.3479 176.355 44.3636 175.975 44.3716C174.273 44.3961 172.222 44.2635 170.587 44.6313C170.459 44.6617 170.237 44.7108 170.163 44.7861C169.899 45.046 170.619 45.1526 170.772 45.1899C170.818 45.2026 170.827 45.2044 170.875 45.2115L174.433 45.7715ZM164.632 37.9146C164.632 37.9146 164.925 37.5185 165.169 37.2189C165.613 36.6733 166.408 35.9239 167.002 35.4641C167.184 35.3237 167.398 35.1649 167.398 35.1649C167.398 35.1649 167.072 35.1847 166.887 35.2141C166.448 35.2797 165.792 35.6713 165.462 35.9281C164.917 36.3501 164.308 37.0473 164.544 37.6985C164.578 37.7905 164.632 37.9146 164.632 37.9146ZM167.53 38.8045C168.365 38.7819 169.154 38.5781 169.896 38.2118C170.624 37.8491 171.702 37.1281 171.63 36.2259C171.609 35.934 171.424 35.7067 171.184 35.5944C170.872 35.4462 170.706 35.4613 170.295 35.5633C169.997 35.636 169.862 35.6821 169.578 35.8273C168.742 36.2604 167.544 37.2114 166.883 37.9825C166.73 38.1644 166.574 38.3685 166.454 38.5079C166.377 38.5937 166.318 38.673 166.324 38.695C166.345 38.7863 167.204 38.8129 167.53 38.8045ZM165.348 40.2485C165.259 40.3343 165.159 40.5459 165.059 40.6979C165.005 40.7792 164.907 40.8828 164.844 40.9234C164.621 41.0712 164.437 41.071 164.235 40.8815C163.952 40.6145 163.799 40.2132 163.802 39.829C163.803 39.6614 163.84 39.4773 163.813 39.3348C163.77 39.0943 163.537 38.839 163.415 38.6058C163.273 38.3312 163.168 37.8581 163.164 37.5553C163.15 36.611 163.691 35.7637 164.375 35.1059C165.064 34.4406 165.952 33.9005 166.908 33.5472C167.812 33.2153 169.125 33.0174 170.087 33.3895C170.401 33.5095 170.832 33.7933 171.044 34.0809C171.088 34.1406 171.124 34.2047 171.172 34.2372C171.214 34.2662 171.327 34.2816 171.417 34.3015C171.726 34.3673 172.165 34.6172 172.341 34.779C172.697 35.106 172.886 35.4124 172.962 35.8489C173.113 36.7273 172.564 37.6619 171.959 38.2197C170.924 39.1799 169.913 39.8435 168.62 40.2815C168.053 40.4734 167.174 40.6385 166.542 40.5566C166.346 40.5325 166.146 40.4733 165.954 40.4529C165.857 40.4407 165.503 40.3354 165.465 40.3082C165.419 40.2705 165.359 40.2368 165.348 40.2485ZM166.406 42.2254C166.445 42.2334 166.504 42.2529 166.554 42.2745C166.994 42.4595 167.161 42.8728 167.252 43.3232C167.465 44.3689 167.48 46.6638 167.486 47.5621C167.49 48.2363 167.48 48.899 167.482 49.5653C167.483 50.1296 167.498 50.8804 167.357 51.4032C167.306 51.5913 167.168 51.8068 166.979 51.9123C166.761 52.0369 166.279 52.0274 166.016 51.9629C165.368 51.8035 165.173 51.382 165.105 50.7431C164.946 49.2186 165.173 46.2488 165.355 44.9992C165.416 44.5864 165.628 43.2648 165.871 42.7169C165.954 42.5321 166.13 42.1604 166.406 42.2254ZM146.431 43.9377C146.431 43.9377 145.456 43.9658 144.784 44.0116C143.929 44.067 142.319 44.2734 141.382 44.56C141.101 44.6462 140.529 44.8547 140.469 45.1327C140.406 45.4208 140.58 45.6551 140.774 45.8982C140.886 46.0393 141.527 46.6971 141.708 46.858C142.466 47.5332 144.015 48.5899 145.165 49.1194C145.561 49.2993 146.217 49.5605 146.217 49.5605C146.217 49.5605 146.243 47.6963 146.327 45.8624C146.371 44.8949 146.431 43.9377 146.431 43.9377ZM164.227 45.4046C164.263 45.9071 164.093 46.8477 164.066 46.9715C164.013 47.2574 163.765 47.9117 163.725 47.9912C163.531 48.3871 163.342 48.7102 163.142 49.0321C162.8 49.5832 162.006 50.4465 161.54 50.8108C159.809 52.1647 157.186 52.8688 154.952 53.045C153.437 53.1627 151.705 53.0659 150.119 52.7102C149.573 52.5895 148.762 52.3707 148.762 52.3707C148.762 52.3707 148.752 52.6925 148.716 52.9177C148.699 53.0204 148.609 53.2888 148.561 53.375C148.436 53.6063 148.24 53.7202 147.96 53.7613C147.623 53.8088 147.267 53.8147 146.963 53.6721C146.464 53.4413 146.301 52.9667 146.234 52.4243C146.18 51.9905 146.135 51.2384 146.135 51.2384C146.135 51.2384 145.763 51.046 145.452 50.8777C144.498 50.3667 143.597 49.7579 142.813 49.1376C142.595 48.9641 141.665 48.1326 141.461 47.9272C140.888 47.347 140.374 46.7721 139.996 46.0458C139.701 45.4785 139.63 44.9827 139.895 44.4051C140.261 43.5998 141.48 43.0319 142.311 42.7138C142.922 42.4779 144.812 41.9551 145.591 41.8756C145.959 41.8391 146.531 41.7622 146.567 41.7414C146.581 41.7312 146.591 41.7225 146.602 41.7113C146.621 41.6873 146.684 40.878 146.691 40.5812C146.695 40.2894 147 38.3839 147.089 37.982C147.136 37.7646 147.339 36.9285 147.52 36.7143C147.639 36.5694 147.838 36.5896 147.996 36.6943C148.863 37.2738 149.056 39.1688 149.083 40.1302C149.099 40.7158 149.083 41.5952 149.083 41.5952C149.083 41.5952 150.103 41.6071 150.73 41.6501C151.339 41.6888 152.007 41.8107 152.635 41.9355C153.44 42.0962 155.004 42.4989 155.891 42.987C156.621 43.3888 157.294 44.0432 157.493 44.7149C157.678 45.3307 157.63 45.7497 157.287 46.2848C156.902 46.889 156.203 47.3213 155.512 47.3316C155.306 47.3349 154.538 47.2025 154.307 47.0119C154.217 46.9359 154.227 46.806 154.298 46.7204C154.325 46.6905 154.694 46.5164 154.911 46.4149C155.02 46.3621 155.111 46.3041 155.198 46.2328C155.381 46.0867 155.547 45.9244 155.538 45.7258C155.524 45.468 155.254 45.2984 154.994 45.1858C153.778 44.6526 151.326 44.1514 150.136 44.0335C149.67 43.9875 149.007 43.9374 149.007 43.9374L148.884 50.4179C148.884 50.4179 149.429 50.5431 149.859 50.6296C150.106 50.6767 151.154 50.8126 151.433 50.8308C153.559 50.9727 155.942 50.882 157.932 50.0554C158.806 49.6937 159.612 49.2318 160.235 48.5874C161.056 47.7346 161.517 46.5406 161.459 45.2714C161.396 43.8854 160.474 42.2055 159.725 41.175C157.746 38.4525 154.259 36.1372 151.164 34.7371C148.005 33.3085 144.861 32.4327 141.457 32.1689C140.58 32.1011 138.662 32.0666 137.682 32.2906C137.542 32.3233 137.401 32.3634 137.271 32.3866C137.169 32.4069 137.006 32.4664 136.961 32.4995C136.936 32.5179 136.911 32.5437 136.911 32.5437C136.911 32.5437 136.969 32.5785 137.025 32.6046C137.126 32.6528 137.557 32.6967 137.779 32.746C137.977 32.7912 138.181 32.9029 138.258 33.0503C138.33 33.1904 138.336 33.2988 138.238 33.4092C138.008 33.6626 137.183 33.5847 136.822 33.5133C136.446 33.4387 135.98 33.3058 135.907 32.9788C135.822 32.5936 136.022 32.2276 136.235 31.8903C136.662 31.2157 137.249 30.8796 138.097 30.6887C139.301 30.4151 140.813 30.2511 141.94 30.2546C144.488 30.2637 146.879 30.7992 149.315 31.6356C150.709 32.1126 152.528 32.8917 153.854 33.587C154.806 34.0866 156.301 34.9949 157.137 35.5828C157.401 35.7696 158.94 36.9794 159.178 37.1907C159.675 37.6245 160.323 38.2454 160.79 38.7399C161.694 39.6954 162.808 41.1489 163.331 42.2879C163.457 42.5607 163.553 42.8279 163.717 43.1448C163.773 43.2534 164.007 43.8985 164.043 44.0836C164.078 44.2667 164.13 44.5359 164.139 44.5468C164.147 44.6447 164.245 45.1948 164.227 45.4046ZM196.279 45.2755C195.076 45.4972 191.936 45.5196 191.936 45.5196L191.491 46.7205C191.491 46.7205 193.063 46.6528 194.197 46.8162C194.197 46.8162 194.568 46.7891 194.593 47.245C194.591 47.6691 194.521 48.1215 194.521 48.1215C194.521 48.1215 194.486 48.3955 194.087 48.4494C193.654 48.5022 190.704 48.4943 190.704 48.4943L190.162 50.0612C190.162 50.0612 189.97 50.4207 190.372 50.3322C190.745 50.2501 193.855 49.8063 194.253 49.9046C194.68 50.0273 195.134 50.6114 194.975 51.1205C194.785 51.7517 191.625 53.5579 189.754 53.3467C189.754 53.3467 188.766 53.3691 187.986 52.027C187.261 50.7489 188.427 48.4322 188.427 48.4322C188.427 48.4322 187.981 47.3104 188.352 46.9514C188.352 46.9514 188.571 46.7713 189.19 46.7538L190.007 45.2487C190.007 45.2487 189.145 45.2718 188.658 44.6289C188.206 44.0194 188.177 43.7465 188.549 43.5984C188.947 43.4246 192.556 42.9277 195.017 43.1096C195.017 43.1096 195.877 43.0618 196.561 44.5528C196.561 44.5529 196.897 45.1583 196.279 45.2755ZM186.768 50.8035C186.422 51.5211 185.556 52.2667 184.539 51.7399C183.535 51.2127 182.039 47.8666 182.039 47.8666C182.039 47.8666 181.47 46.6185 181.35 46.6451C181.35 46.6451 181.226 46.4009 181.089 47.7339C180.95 49.0612 180.946 51.6602 180.389 52.0467C179.861 52.4354 179.248 52.2471 178.947 51.7556C178.674 51.2723 178.598 50.1473 178.837 48.1866C179.105 46.2232 179.656 44.1451 180.277 43.5164C180.898 42.8919 181.356 43.3822 181.535 43.5606C181.535 43.5606 182.301 44.3012 183.527 46.4343L183.743 46.8284C183.743 46.8284 184.854 48.8418 184.978 48.8423C184.978 48.8423 185.072 48.9365 185.162 48.8752C185.288 48.8451 185.263 48.2131 185.263 48.2131C185.263 48.2131 185.103 46.0617 184.164 42.3931C184.164 42.3931 184.018 41.9345 184.147 41.5155C184.274 41.092 184.703 41.3107 184.703 41.3107C184.703 41.3107 186.353 42.2118 187.061 44.9408C187.763 47.6704 187.118 50.0806 186.768 50.8035ZM204.96 49.927C204.139 51.2108 201.863 53.8762 199.013 53.109C197.971 55.3348 197.08 57.5931 196.484 61.0022C196.484 61.0022 196.357 61.6642 195.803 61.4099C195.253 61.1952 194.371 60.2456 194.236 58.9763C194.103 57.3106 194.968 54.5392 196.633 51.3888C196.215 50.6554 195.951 49.6214 196.272 48.1772C196.272 48.1772 196.767 45.4915 199.626 43.169C199.626 43.169 199.968 42.9016 200.156 42.9959C200.364 43.0916 200.23 43.9666 200.045 44.3873C199.854 44.8052 198.54 46.8462 198.54 46.8462C198.54 46.8462 197.716 48.2277 197.887 49.3507C199.423 47.2219 202.893 42.9444 204.875 44.4186C205.541 44.9283 205.814 45.9893 205.768 47.1186C205.728 48.1107 205.442 49.1551 204.96 49.927ZM204.505 46.438C204.505 46.438 204.427 45.5636 203.523 46.4866C202.746 47.2649 201.343 48.7253 200.179 50.7391C201.317 50.6601 202.435 50.1001 202.778 49.8057C203.335 49.3588 204.639 48.138 204.505 46.438ZM220.954 46.9094L215.682 46.6947C215.649 44.929 215.503 43.2044 215.235 41.4235C215.207 41.2392 215.051 41.1 214.862 41.0923L213.647 41.0428C213.541 41.0385 213.439 41.0812 213.367 41.1599C213.295 41.24 213.264 41.3443 213.28 41.4484C213.556 43.1724 213.706 44.8643 213.743 46.6174L208.671 46.411C208.435 46.4013 208.235 46.5817 208.226 46.813L208.182 47.8906C208.172 48.1225 208.357 48.3198 208.593 48.3294L213.737 48.5389C213.729 48.8049 213.722 49.0432 213.713 49.2666C213.65 50.8196 213.53 52.0961 213.312 53.5334C213.295 53.6444 213.327 53.757 213.401 53.842C213.472 53.9276 213.578 53.979 213.689 53.9836L214.816 54.0295C215.036 54.0384 215.225 53.8831 215.256 53.6687C215.469 52.2215 215.588 50.929 215.652 49.3455C215.662 49.1229 215.669 48.8838 215.676 48.6177L220.876 48.8294C221.112 48.839 221.312 48.6574 221.321 48.4255L221.365 47.3479C221.374 47.1155 221.19 46.919 220.954 46.9094Z" fill="#3790EC"/>
<path d="M30.2685 55.8715L27.7955 56.4271L27.4795 55.0174C26.7858 56.2957 26.0864 57.002 25.2349 57.1933C24.465 57.3663 23.8752 57.1405 23.4501 56.5554C23.2209 56.189 22.9692 55.6126 22.7679 54.7145L20.4698 44.4602L22.9428 43.9046L25.3021 54.4318C25.4369 54.7598 25.6191 54.8622 25.9341 54.7914C26.4007 54.6866 26.7497 54.1664 27.1141 53.3322L24.9026 43.4644L27.3756 42.9089L30.2802 55.8689L30.2685 55.8715ZM19.5628 49.1059C19.2519 47.7189 18.7518 46.7447 18.1049 46.2094C17.2479 45.4466 16.1332 45.3388 15.0833 45.5746C13.8935 45.8419 13.06 46.3874 12.6223 47.441C12.2542 48.2043 12.2229 49.3218 12.5286 50.686L13.5656 55.313C13.8713 56.6772 14.3186 57.5798 14.9746 58.1011C15.8317 58.8638 17.0068 59.0775 18.045 58.8443C19.0949 58.6084 20.0662 57.9126 20.5389 56.8511C20.8629 56.1097 20.8822 55.1023 20.5764 53.7381L19.5343 49.0884L19.5628 49.1059ZM18.2086 54.5446C18.6132 55.8031 18.3501 56.5428 17.5919 56.7131C16.822 56.8861 16.2801 56.3272 16.1089 55.0163L14.9573 49.8778C14.5527 48.6193 14.8143 47.9277 15.5842 47.7548C16.3424 47.5844 16.8858 48.0952 17.057 49.4061L18.2086 54.5446ZM10.176 52.9818L11.7557 60.0302L9.15431 60.6146L7.57464 53.5661C7.57464 53.5661 2.91006 45.4912 2 44L4.74134 43.3842L8.09132 49.7484L8.39513 42.5754L11.1248 41.9622L10.1618 52.973" fill="white"/>
<path d="M52.2001 39.7304C51.8229 39.8151 51.45 40.133 51.1299 40.5795L52.8433 48.2249C53.3054 48.5191 53.7682 48.6024 54.1568 48.5151C54.8426 48.3611 55.0235 47.8288 54.7412 46.5694L53.5274 41.153C53.2451 39.8936 52.8541 39.5952 52.1798 39.7467L52.2001 39.7304ZM62.0747 39.1158C61.8124 37.9456 61.4264 37.6695 60.6606 37.8415C59.8948 38.0135 59.6383 38.4223 59.9006 39.5925L60.2128 40.9857L62.3844 40.4978L62.0772 39.127" fill="#6088AF"/>
<path d="M65.993 31.4151C65.993 31.4151 65.0203 28.838 63.6132 27.9021C61.8153 26.6651 60.1852 27.0313 59.4375 27.1142C54.0283 27.9282 46.0372 29.7234 46.0372 29.7234L46.0144 29.7285C46.0144 29.7285 38.0348 31.5211 32.7968 33.0989C32.0765 33.3579 30.4464 33.7241 29.3462 35.6001C28.4708 37.0365 28.7051 39.7917 28.7051 39.7917C28.7051 39.7917 29.0229 43.0264 29.7283 46.1741L30.3896 49.125C31.0951 52.2727 32.1855 55.3218 32.1855 55.3218C32.1855 55.3218 33.1519 57.9246 34.5564 58.8489C36.3517 60.0743 38.245 59.6004 39.1223 59.5613C42.2334 59.1785 52.149 57.0482 52.149 57.0482C52.149 57.0482 60.1628 55.2479 65.3983 53.6586C66.1185 53.3995 67.7372 53.0359 68.8374 51.16C69.7129 49.7235 69.4874 46.9542 69.4874 46.9542C69.4874 46.9542 69.1493 43.7362 68.4413 40.5769L67.78 37.626C67.0746 34.4783 65.993 31.4151 65.993 31.4151ZM40.3094 54.2261L37.7673 54.7971L34.3958 39.7531L31.7169 40.3549L31.1671 37.9016L39.1923 36.0987L39.7422 38.5521L36.9493 39.1795L40.3207 54.2235L40.3094 54.2261ZM49.486 52.1646L47.0693 52.7075L46.7477 51.2725C46.0795 52.5652 45.4008 53.2768 44.5687 53.4637C43.8163 53.6327 43.2369 53.3982 42.8155 52.8001C42.5879 52.4258 42.3365 51.838 42.1316 50.9238L39.8183 40.6013L42.235 40.0584L44.6132 50.6702C44.748 51.0046 44.9273 51.1102 45.2351 51.041C45.691 50.9386 46.0283 50.4131 46.3779 49.5688L44.1501 39.6282L46.5554 39.0878L49.486 52.1646ZM57.387 46.2813C57.6568 47.4848 57.7689 48.3591 57.7452 48.9478C57.6438 49.9916 57.0828 50.6403 56.1708 50.8452C55.3501 51.0296 54.3924 50.7099 53.3994 49.9119L53.695 51.2312L51.3923 51.7485L47.4684 34.2395L49.7483 33.7274L51.0243 39.421C51.5692 38.3262 52.2909 37.5927 53.1458 37.4007C54.0578 37.1958 54.7953 37.6014 55.3069 38.4954C55.5998 39.0008 55.9373 39.8123 56.2148 41.0506L57.387 46.2813ZM62.9043 47.0717C63.4743 46.9437 63.7437 46.5428 63.715 45.8807C63.7119 45.7599 63.5822 45.1813 63.3696 44.2323L65.7863 43.6894L65.8693 44.0597C66.0404 44.8235 66.1053 45.3802 66.1344 45.6168C66.1739 46.167 66.0978 46.6825 65.9176 47.1605C65.4919 48.2529 64.6381 48.9309 63.4411 49.1998C62.2442 49.4687 61.2337 49.2338 60.3588 48.4822C59.7208 47.9327 59.1978 47.0414 58.8865 45.6527L57.8595 41.07C57.5483 39.6814 57.5895 38.5295 57.9293 37.7482C58.3908 36.7086 59.2192 36.0242 60.3819 35.763C61.5447 35.5018 62.5604 35.7598 63.4239 36.5139C64.0303 37.0827 64.5435 38.037 64.8573 39.4373L65.4616 42.1336L60.8789 43.1631L61.4028 45.5007C61.6751 46.7158 62.152 47.2407 62.9271 47.0666L62.9043 47.0717Z" fill="#BE1B13"/>
<path d="M29.4845 56.8353L27.0115 57.3909L26.678 55.9029C25.9976 57.2405 25.3047 57.9759 24.4531 58.1672C23.6832 58.3402 23.0893 58.0955 22.656 57.4744C22.4219 57.0858 22.1627 56.476 21.9502 55.528L19.5244 44.704L21.9974 44.1484L24.4878 55.2605C24.6268 55.6074 24.8108 55.7173 25.1257 55.6466C25.5923 55.5417 25.9361 54.9982 26.2916 54.1242L23.9572 43.7082L26.4302 43.1527L29.4962 56.8327L29.4845 56.8353ZM18.6701 49.5846C18.342 48.1206 17.8289 47.0889 17.174 46.5176C16.3056 45.7043 15.1867 45.5775 14.1368 45.8134C12.947 46.0807 12.1178 46.6451 11.6913 47.7492C11.3314 48.5485 11.3132 49.7248 11.6359 51.1648L12.7305 56.0488C13.0532 57.4888 13.5124 58.4444 14.1763 59.0011C15.0447 59.8144 16.2255 60.0533 17.2637 59.8201C18.3136 59.5842 19.2792 58.8631 19.7407 57.7511C20.0567 56.9743 20.0641 55.9139 19.7413 54.4739L18.6414 49.5659L18.6701 49.5846ZM17.3768 55.295C17.7974 56.6248 17.5424 57.4005 16.7841 57.5708C16.0142 57.7438 15.4643 57.1488 15.277 55.7666L14.0614 50.3426C13.6409 49.0128 13.895 48.2877 14.6649 48.1148C15.4231 47.9444 15.9739 48.4887 16.1612 49.8709L17.3768 55.295ZM9.30425 53.554L10.9717 60.994L8.37031 61.5784L6.70288 54.1383C6.70288 54.1383 1.93016 45.5808 1 44L3.74134 43.3842L7.17568 50.1248L7.39527 42.576L10.125 41.9628L9.28989 53.5446" fill="#111111"/>
<rect width="34" height="23" transform="matrix(0.982028 -0.188734 0.189324 0.981915 29 36)" fill="white"/>
<path d="M51.2001 39.7304C50.8229 39.8151 50.45 40.133 50.1299 40.5795L51.8433 48.2249C52.3054 48.5191 52.7682 48.6024 53.1568 48.5151C53.8426 48.3611 54.0235 47.8288 53.7412 46.5694L52.5274 41.153C52.2451 39.8936 51.8541 39.5952 51.1798 39.7467L51.2001 39.7304ZM61.0747 39.1158C60.8124 37.9456 60.4264 37.6695 59.6606 37.8415C58.8948 38.0135 58.6383 38.4223 58.9006 39.5925L59.2128 40.9857L61.3844 40.4978L61.0772 39.127" fill="#E62117"/>
<path d="M64.993 31.4151C64.993 31.4151 64.0203 28.838 62.6132 27.9021C60.8153 26.6651 59.1852 27.0313 58.4375 27.1142C53.0283 27.9282 45.0372 29.7234 45.0372 29.7234L45.0144 29.7285C45.0144 29.7285 37.0348 31.5211 31.7968 33.0989C31.0765 33.3579 29.4464 33.7241 28.3462 35.6001C27.4708 37.0365 27.7051 39.7917 27.7051 39.7917C27.7051 39.7917 28.0229 43.0264 28.7283 46.1741L29.3896 49.125C30.0951 52.2727 31.1855 55.3218 31.1855 55.3218C31.1855 55.3218 32.1519 57.9246 33.5564 58.8489C35.3517 60.0743 37.245 59.6004 38.1223 59.5613C41.2334 59.1785 51.149 57.0482 51.149 57.0482C51.149 57.0482 59.1628 55.2479 64.3983 53.6586C65.1185 53.3995 66.7372 53.0359 67.8374 51.16C68.7129 49.7235 68.4874 46.9542 68.4874 46.9542C68.4874 46.9542 68.1493 43.7362 67.4413 40.5769L66.78 37.626C66.0746 34.4783 64.993 31.4151 64.993 31.4151ZM39.3094 54.2261L36.7673 54.7971L33.3958 39.7531L30.7169 40.3549L30.1671 37.9016L38.1923 36.0987L38.7422 38.552L35.9493 39.1795L39.3207 54.2235L39.3094 54.2261ZM48.486 52.1646L46.0693 52.7075L45.7477 51.2725C45.0795 52.5652 44.4008 53.2768 43.5687 53.4637C42.8163 53.6327 42.2369 53.3982 41.8155 52.8001C41.5879 52.4258 41.3365 51.838 41.1316 50.9238L38.8183 40.6013L41.235 40.0584L43.6132 50.6702C43.748 51.0046 43.9273 51.1102 44.2351 51.041C44.691 50.9386 45.0283 50.4131 45.3779 49.5688L43.1501 39.6282L45.5554 39.0878L48.486 52.1646ZM56.387 46.2813C56.6568 47.4848 56.7689 48.3591 56.7452 48.9478C56.6438 49.9916 56.0828 50.6403 55.1708 50.8452C54.3501 51.0296 53.3924 50.7099 52.3994 49.9119L52.695 51.2312L50.3923 51.7485L46.4684 34.2395L48.7483 33.7274L50.0243 39.421C50.5692 38.3262 51.2909 37.5927 52.1458 37.4007C53.0578 37.1958 53.7953 37.6014 54.3069 38.4954C54.5998 39.0008 54.9373 39.8123 55.2148 41.0506L56.387 46.2813ZM61.9043 47.0717C62.4743 46.9437 62.7437 46.5428 62.715 45.8807C62.7119 45.7599 62.5822 45.1813 62.3696 44.2323L64.7863 43.6894L64.8693 44.0597C65.0404 44.8235 65.1053 45.3802 65.1344 45.6168C65.1739 46.167 65.0978 46.6825 64.9176 47.1605C64.4919 48.2529 63.6381 48.9309 62.4411 49.1998C61.2442 49.4687 60.2337 49.2338 59.3588 48.4822C58.7208 47.9327 58.1978 47.0414 57.8865 45.6527L56.8595 41.07C56.5483 39.6814 56.5895 38.5295 56.9293 37.7482C57.3908 36.7086 58.2192 36.0242 59.3819 35.763C60.5447 35.5018 61.5604 35.7598 62.4239 36.5139C63.0303 37.0827 63.5435 38.037 63.8573 39.4373L64.4616 42.1336L59.8789 43.1631L60.4028 45.5007C60.6751 46.7158 61.152 47.2407 61.9271 47.0666L61.9043 47.0717Z" fill="#E62117"/>
<circle cx="80" cy="89" r="15" fill="#E62117"/>
<path d="M79.5 87C80.3284 87 81 86.3284 81 85.5C81 84.6716 80.3284 84 79.5 84C78.6716 84 78 84.6716 78 85.5C78 86.3284 78.6716 87 79.5 87Z" fill="white"/>
<path d="M76.5 90C77.3284 90 78 89.3284 78 88.5C78 87.6716 77.3284 87 76.5 87C75.6716 87 75 87.6716 75 88.5C75 89.3284 75.6716 90 76.5 90Z" fill="white"/>
<path d="M83.5 90C84.3284 90 85 89.3284 85 88.5C85 87.6716 84.3284 87 83.5 87C82.6716 87 82 87.6716 82 88.5C82 89.3284 82.6716 90 83.5 90Z" fill="white"/>
<path d="M79.5 94C80.3284 94 81 93.3284 81 92.5C81 91.6716 80.3284 91 79.5 91C78.6716 91 78 91.6716 78 92.5C78 93.3284 78.6716 94 79.5 94Z" fill="white"/>
<path d="M80.5 81C78.716 81 76.9772 81.5613 75.53 82.6044C74.0827 83.6476 73.0003 85.1196 72.4362 86.8121C71.872 88.5045 71.8547 90.3316 72.3866 92.0344C72.9186 93.7373 73.9728 95.2296 75.4 96.3H72V98H80.5C82.7543 98 84.9163 97.1045 86.5104 95.5104C88.1045 93.9163 89 91.7543 89 89.5C89 87.2457 88.1045 85.0837 86.5104 83.4896C84.9163 81.8955 82.7543 81 80.5 81ZM80.5 96.3C79.1551 96.3 77.8404 95.9012 76.7221 95.154C75.6039 94.4068 74.7323 93.3448 74.2176 92.1022C73.7029 90.8597 73.5683 89.4925 73.8307 88.1734C74.093 86.8543 74.7407 85.6427 75.6917 84.6917C76.6427 83.7407 77.8543 83.093 79.1734 82.8307C80.4925 82.5683 81.8597 82.7029 83.1022 83.2176C84.3448 83.7323 85.4068 84.6039 86.154 85.7221C86.9012 86.8404 87.3 88.1551 87.3 89.5C87.3 91.3035 86.5836 93.0331 85.3083 94.3083C84.0331 95.5836 82.3035 96.3 80.5 96.3Z" fill="white"/>
<circle cx="105" cy="10" r="10" fill="#E62117"/>
<path d="M108.853 6.93162H105.657L106.476 6.11299C106.619 6.1795 106.777 6.21703 106.945 6.21703C107.556 6.21703 108.054 5.71984 108.054 5.10852C108.054 4.49745 107.557 4 106.945 4C106.333 4 105.835 4.49719 105.835 5.10852C105.835 5.25604 105.864 5.39684 105.917 5.52599L105 6.44246L104.083 5.52599C104.135 5.3971 104.164 5.2563 104.164 5.10852C104.164 4.49745 103.667 4 103.055 4C102.443 4 101.946 4.49745 101.946 5.10877C101.946 5.71984 102.443 6.21729 103.055 6.21729C103.222 6.21729 103.381 6.17976 103.523 6.11324L104.343 6.93188H101.146C100.513 6.93188 100 7.4446 100 8.07715V13.8547C100 14.4873 100.513 15 101.146 15H108.854C109.487 15 110 14.4873 110 13.8547V8.07715C110 7.4446 109.487 6.93162 108.853 6.93162ZM106.945 4.81036C107.11 4.81036 107.244 4.94417 107.244 5.10877C107.244 5.27338 107.11 5.40719 106.945 5.40719C106.78 5.40719 106.646 5.27338 106.646 5.10877C106.646 4.94417 106.78 4.81036 106.945 4.81036ZM103.055 5.40693C102.89 5.40693 102.756 5.27312 102.756 5.10852C102.756 4.94391 102.89 4.8101 103.055 4.8101C103.22 4.8101 103.354 4.94391 103.354 5.10852C103.354 5.27312 103.22 5.40693 103.055 5.40693ZM106.503 13.1352C106.503 13.4116 106.279 13.6355 106.002 13.6355H101.883C101.606 13.6355 101.382 13.4114 101.382 13.1352V8.7964C101.382 8.51999 101.606 8.29611 101.883 8.29611H106.002C106.279 8.29611 106.503 8.52025 106.503 8.7964V13.1352ZM108.264 13.0043C107.867 13.0043 107.545 12.6825 107.545 12.2858C107.545 11.889 107.867 11.5673 108.264 11.5673C108.661 11.5673 108.983 11.889 108.983 12.2858C108.983 12.6825 108.661 13.0043 108.264 13.0043ZM108.264 10.3646C107.867 10.3646 107.545 10.0429 107.545 9.6461C107.545 9.24934 107.867 8.92763 108.264 8.92763C108.661 8.92763 108.983 9.24934 108.983 9.6461C108.983 10.0429 108.661 10.3646 108.264 10.3646Z" fill="white"/>
</svg>
