<svg width="188" height="146" viewBox="0 0 188 146" fill="none" xmlns="http://www.w3.org/2000/svg">
<ellipse cx="92" cy="129.587" rx="55" ry="13.4302" fill="#EAEDF4"/>
<path d="M125.508 120.346C125.508 124.635 122.304 128.31 118.054 128.893C111.21 129.834 104.24 130.313 97.3306 130.319C90.4472 130.31 83.5005 129.831 76.6811 128.893C72.4317 128.31 69.2275 124.635 69.2275 120.346L69.2275 76.1236C69.2275 73.0711 70.7178 70.1948 73.2145 68.4299C74.2922 67.6693 74.9737 66.486 75.0851 65.1834C75.1944 63.9066 74.7364 62.6536 73.7846 61.7018C73.7005 61.6177 73.7005 61.4818 73.7832 61.3991L74.7487 60.4344C74.7896 60.3934 74.8414 60.3711 74.8968 60.3711C74.9041 60.3711 74.9114 60.3717 74.9192 60.3724L74.9212 60.3725C77.6501 60.6831 85.3014 61.4049 97.368 61.4049C109.434 61.4049 117.085 60.6831 119.815 60.3725C119.877 60.3661 119.94 60.3876 119.987 60.4351L120.951 61.3984C120.993 61.4401 121.014 61.4911 121.014 61.5494C121.014 61.6083 120.993 61.6594 120.907 61.7456C120 62.6529 119.542 63.9059 119.65 65.1819C119.762 66.4846 120.443 67.6686 121.52 68.4299C124.018 70.1948 125.508 73.0711 125.508 76.1235L125.508 120.346Z" fill="#C7DEFF"/>
<path fill-rule="evenodd" clip-rule="evenodd" d="M123.792 64.8297C123.796 64.8772 123.818 64.9663 123.922 65.0396C127.518 67.5809 129.665 71.7247 129.665 76.1236V120.346C129.665 126.699 124.918 132.142 118.624 133.007C111.683 133.96 104.612 134.453 97.6029 134.471H97.2636H97.2047C97.1831 134.471 97.163 134.471 97.1414 134.471C90.1322 134.453 83.0618 133.961 76.1209 133.007C75.5724 132.932 75.0357 132.822 74.5128 132.679C74.2669 130.91 74.413 129.023 74.5173 128.297C75.1984 128.586 75.9254 128.789 76.6859 128.893C83.1783 129.786 89.7859 130.263 96.3445 130.315C96.675 130.317 97.0053 130.319 97.3355 130.319C104.245 130.313 111.215 129.834 118.059 128.893C122.309 128.31 125.513 124.635 125.513 120.346L125.513 76.1236C125.513 73.0711 124.022 70.1948 121.525 68.4299C120.448 67.6686 119.767 66.4846 119.655 65.182C119.547 63.9059 120.004 62.6529 120.912 61.7457C120.998 61.6594 121.019 61.6083 121.019 61.5494C121.019 61.4912 120.998 61.4401 120.956 61.3984L119.992 60.4351C119.95 60.3928 119.892 60.3711 119.835 60.3714C119.829 60.3714 119.822 60.3718 119.815 60.3725C120.835 60.1827 123.281 59.8399 124.885 59.9874C125.073 60.4794 125.171 61.0069 125.171 61.5494C125.171 62.7162 124.717 63.8125 123.892 64.6371C123.817 64.7126 123.786 64.7543 123.792 64.8297ZM118.177 60.5439C114.587 60.891 107.549 61.4049 97.368 61.4049C96.7742 61.4049 96.1911 61.4031 95.6187 61.3998C96.1926 61.4031 96.7774 61.4049 97.3729 61.4049C107.554 61.4049 114.588 60.891 118.177 60.5439ZM74.8999 60.3711L74.8967 60.3711C74.8413 60.3711 74.7896 60.3934 74.7486 60.4344L73.7831 61.3991C73.7005 61.4818 73.7005 61.6177 73.7846 61.7018C74.7364 62.6536 75.1943 63.9066 75.085 65.1834C74.9736 66.486 74.2921 67.6693 73.2145 68.4299C70.7177 70.1948 69.2275 73.0711 69.2275 76.1236V98.8496L69.2273 103.554L69.2324 103.551L69.2324 76.1236C69.2324 73.0712 70.7227 70.1949 73.2194 68.43C74.297 67.6694 74.9786 66.4861 75.09 65.1834C75.1993 63.9066 74.7413 62.6536 73.7895 61.7018C73.7054 61.6177 73.7054 61.4818 73.7881 61.3991L74.7536 60.4344C74.7941 60.3938 74.8452 60.3716 74.8999 60.3711Z" fill="#C7DEFF"/>
<path d="M118.054 128.893C122.304 128.31 125.508 124.635 125.508 120.346L125.508 76.1235C125.508 73.0711 124.017 70.1948 121.52 68.4299C120.443 67.6686 119.762 66.4846 119.65 65.1819C119.542 63.9059 120 62.6529 120.907 61.7456C120.993 61.6594 121.014 61.6083 121.014 61.5494C121.014 61.4911 120.993 61.4401 120.951 61.3984L119.987 60.4351C119.945 60.3928 119.891 60.3711 119.835 60.3714C119.829 60.3714 119.822 60.3718 119.815 60.3725C116.289 61.0976 117.279 66.7983 119.992 77.0613C122.706 87.3244 125.37 112.854 119.35 119.802C115.918 123.764 110.956 123.012 103.282 123.886C95.6079 124.76 85.9912 118.442 78.9001 122.425C71.809 126.408 74.5173 128.297 74.5128 128.294L74.5175 128.296L74.5178 128.294C75.1987 128.583 75.9248 128.789 76.6859 128.893C83.1783 129.786 89.7859 130.263 96.3445 130.315C96.6733 130.317 97.002 130.319 97.3306 130.319C104.24 130.313 111.21 129.834 118.054 128.893Z" fill="#C7DEFF"/>
<path fill-rule="evenodd" clip-rule="evenodd" d="M76.6859 128.894C76.3092 128.842 75.9407 128.766 75.5819 128.667C75.939 128.766 76.3057 128.842 76.681 128.894C83.1749 129.786 89.7843 130.264 96.3445 130.315C89.7859 130.263 83.1783 129.786 76.6859 128.894ZM97.368 61.405C107.549 61.405 114.587 60.8911 118.177 60.544C114.588 60.8912 107.554 61.405 97.3729 61.405C96.7774 61.405 96.1926 61.4033 95.6187 61.3999C96.1911 61.4032 96.7742 61.405 97.368 61.405ZM74.8967 60.3712L74.8999 60.3713C74.8452 60.3717 74.7941 60.3939 74.7536 60.4345L73.7881 61.3993C73.7054 61.4819 73.7054 61.6178 73.7895 61.7019C74.7413 62.6537 75.1993 63.9068 75.09 65.1835C74.9786 66.4862 74.297 67.6695 73.2194 68.4301C70.7227 70.195 69.2324 73.0713 69.2324 76.1237L69.2324 103.551L69.2273 103.554L69.2275 98.8498V76.1237C69.2275 73.0712 70.7177 70.1949 73.2145 68.4301C74.2921 67.6695 74.9736 66.4861 75.085 65.1835C75.1943 63.9067 74.7364 62.6537 73.7846 61.7019C73.7005 61.6178 73.7005 61.4819 73.7831 61.3992L74.7486 60.4345C74.7896 60.3935 74.8413 60.3712 74.8967 60.3712Z" fill="#E8F1FF"/>
<path fill-rule="evenodd" clip-rule="evenodd" d="M118.054 128.894C122.304 128.31 125.245 125.297 126.012 120.346C127.113 113.245 127.228 102.088 127.143 96.7684C127.143 96.7684 127.918 82.9311 124.468 76.1237C121.019 69.3164 119.762 66.4847 119.65 65.1821C119.542 63.906 120 62.653 120.907 61.7457C120.993 61.6595 121.014 61.6084 121.014 61.5495C121.014 61.4913 120.993 61.4402 120.951 61.3985L119.987 60.4352C119.945 60.393 119.891 60.3712 119.835 60.3715C119.829 60.3716 119.822 60.3719 119.815 60.3727C116.289 61.0977 104.824 68.9845 116.703 72.6347C128.583 76.2848 127.86 103.551 122.902 121.348C120.395 129.358 110.932 124.375 110.932 124.375C106.064 122.61 100.375 122.013 97.1414 121.97C96.1248 122.086 95.1818 122.11 94.2943 122.072C85.386 122.762 78.9438 126.779 76.681 128.894L76.6859 128.894C83.1783 129.786 89.7859 130.263 96.3445 130.315C96.6733 130.317 97.002 130.319 97.3306 130.319C104.24 130.313 111.21 129.834 118.054 128.894Z" fill="#E8F1FF"/>
<path d="M123.792 64.8297C123.786 64.7543 123.817 64.7126 123.892 64.6371C124.717 63.8125 125.171 62.7162 125.171 61.5494C125.171 60.3834 124.717 59.287 123.892 58.4617L122.928 57.4984C121.981 56.5531 120.677 56.0951 119.35 56.2475C119.202 56.2644 119.011 56.2876 118.778 56.3159C116.301 56.6169 109.05 57.4984 97.3729 57.4977C89.6881 57.4973 86.4953 57.1709 83.1609 56.8301C80.9515 56.6043 78.6799 56.3721 74.9982 56.2241C73.8107 56.1949 72.6697 56.647 71.8183 57.4977L70.8521 58.4632C69.1519 60.1648 69.1519 62.9347 70.8974 64.6809C70.929 64.7118 70.9599 64.7543 70.9535 64.8297C70.9492 64.8772 70.9269 64.9663 70.8233 65.0396C67.2274 67.5817 65.0801 71.7254 65.0801 76.1236V120.346C65.0801 126.699 69.8269 132.142 76.1209 133.007C76.3076 133.033 76.4944 133.058 76.6812 133.083C83.4421 133.987 90.7822 134.454 97.6029 134.471C91.2052 131.158 89.9244 133.201 85.2352 130.177C85.056 130.062 84.877 129.944 84.6981 129.823C79.0253 125.987 73.5797 119.421 71.8183 108.847C69.1433 88.5467 69.8623 65.5482 87.7015 65.5998C96.1018 65.624 104.558 65.5998 110.797 65.5998C117.035 65.5998 121.958 64.8297 123.792 64.8297Z" fill="#A0C9FF"/>
<path fill-rule="evenodd" clip-rule="evenodd" d="M122.933 52.2639C123.131 51.7063 123.31 51.0948 123.437 50.4359C124.183 46.5553 122.777 43.0277 119.48 40.5022C115.401 37.3787 111.517 36.5895 107.752 36.2548L111.356 32.636L111.476 32.0128C112.085 28.846 110.004 25.7742 106.837 25.1653L96.1251 23.1056C92.9576 22.4974 89.8872 24.5779 89.2776 27.744C89.1993 28.1507 89.2444 28.5715 89.4071 28.9524L91.1634 33.0651C87.5437 31.9802 83.6443 31.2727 78.6962 32.6619C74.6976 33.7848 72.0845 36.5397 71.339 40.4195C70.8091 43.1744 71.3778 45.5417 71.4446 45.8026C71.6275 46.5195 72.1785 47.0849 72.8903 47.2864C72.9821 47.3129 80.5301 49.4419 89.6933 51.4499C89.6933 51.4499 102.016 54.0427 117.481 55.8838C117.974 55.9424 118.542 56.0155 119.093 56.0886C119.381 56.1267 119.663 56.1648 119.928 56.2009C120.839 56.3251 121.713 55.7917 122.013 54.9232L122.933 52.2639ZM106.054 29.2429L95.3415 27.1832C94.0142 26.9254 93.8412 28.7628 94.3722 30.0062L96.3915 34.7344C97.3408 35.0154 98.3098 35.2694 99.3041 35.4606C100.298 35.652 101.292 35.7756 102.278 35.8666L107.418 30.7072C107.332 29.9941 106.796 29.3852 106.054 29.2429ZM98.5204 39.5382C96.3113 39.1133 94.3314 38.4584 92.417 37.8251L92.4137 37.8239C88.2872 36.4599 84.7235 35.282 79.8191 36.659C75.3655 37.9092 75.101 41.6834 75.2857 43.6402C78.52 44.5201 87.4947 46.8875 96.7642 48.6696C106.04 50.4532 115.249 51.5818 118.578 51.9643C119.473 50.2203 120.631 46.6136 116.955 43.7991C112.91 40.7006 109.163 40.4735 104.824 40.2111L104.813 40.2104C102.803 40.0884 100.726 39.9623 98.5204 39.5382Z" fill="#C7DEFF"/>
<path d="M95.3415 27.1832L106.054 29.2429C106.796 29.3852 107.332 29.9941 107.418 30.7072L102.278 35.8666C101.292 35.7756 100.298 35.652 99.3041 35.4606C98.3098 35.2694 97.3408 35.0154 96.3915 34.7344L94.3722 30.0062C93.8412 28.7628 94.0142 26.9254 95.3415 27.1832ZM79.8191 36.659C84.7235 35.282 88.2872 36.4599 92.4137 37.8239L92.417 37.8251C94.3314 38.4584 96.3113 39.1133 98.5204 39.5382C100.726 39.9623 102.803 40.0884 104.813 40.2104C104.816 40.2106 104.82 40.2108 104.824 40.2111C109.163 40.4735 112.91 40.7006 116.955 43.7991C120.631 46.6136 119.473 50.2203 118.578 51.9643C115.249 51.5818 106.04 50.4532 96.7642 48.6696C87.4947 46.8875 78.52 44.5201 75.2857 43.6402C75.101 41.6834 75.3655 37.9092 79.8191 36.659Z" fill="#C7DEFF"/>
<path d="M79.8191 36.659C84.7235 35.282 88.2872 36.4599 92.4137 37.8239L92.417 37.8251C94.3314 38.4584 96.3113 39.1133 98.5204 39.5382C100.726 39.9623 102.803 40.0884 104.813 40.2104L104.824 40.2111C109.163 40.4735 112.91 40.7006 116.955 43.7991C120.631 46.6136 119.473 50.2203 118.578 51.9643C115.249 51.5818 106.04 50.4532 96.7642 48.6696C87.4947 46.8875 78.52 44.5201 75.2857 43.6402C75.101 41.6834 75.3655 37.9092 79.8191 36.659Z" fill="#C7DEFF"/>
<path d="M95.3415 27.1832L106.054 29.2429C106.796 29.3852 107.332 29.9941 107.418 30.7072L102.278 35.8666C101.292 35.7756 100.298 35.652 99.3041 35.4606C98.3098 35.2694 97.3408 35.0154 96.3915 34.7344L94.3722 30.0062C93.8412 28.7628 94.0142 26.9254 95.3415 27.1832Z" fill="#C7DEFF"/>
<path fill-rule="evenodd" clip-rule="evenodd" d="M96.7642 52.7956C96.7642 50.3251 88.9331 47.3152 85.0175 46.119C84.6192 46.0239 84.2278 45.9297 83.844 45.8365C79.9991 44.9037 76.9145 44.0833 75.2857 43.6402C75.101 41.6834 75.3655 37.9092 79.8191 36.659C81.8879 36.0781 83.7181 35.9519 85.4527 36.1025C85.508 36.1073 85.5632 36.1124 85.6183 36.1177C90.937 36.5913 95.7819 40.2044 96.1251 37.1683C96.3441 35.2303 95.2267 32.046 94.3898 29.9961C93.8817 28.7518 94.0221 26.927 95.3415 27.1832C100.684 28.1298 106.408 30.3425 106.837 25.1653L96.1251 23.1056C92.9576 22.4974 89.8872 24.5779 89.2776 27.744C89.1993 28.1507 89.2444 28.5715 89.4071 28.9524L91.1634 33.0651C87.5437 31.9802 83.6443 31.2727 78.6962 32.6619C74.6976 33.7848 72.0845 36.5397 71.339 40.4195C70.8091 43.1744 71.3778 45.5417 71.4446 45.8026C71.6275 46.5195 72.1785 47.0849 72.8903 47.2864C72.9821 47.3129 80.5301 49.4419 89.6933 51.4499C89.6933 51.4499 92.358 52.0106 96.7642 52.7956Z" fill="#A0C9FF"/>
<path d="M79.8191 36.659C75.3655 37.9092 75.101 41.6834 75.2857 43.6402C76.9145 44.0833 79.9991 44.9037 83.844 45.8365C73.8853 43.1125 80.2019 35.5452 85.4527 36.1025C83.7181 35.9519 81.8879 36.0781 79.8191 36.659Z" fill="#A0C9FF"/>
<path d="M121.362 49.1194C121.961 43.8786 116.761 41.1146 114.361 40.0963C111.961 39.078 107.815 37.9871 107.233 39.8782C106.462 42.3838 112.31 41.7969 117.489 45.0425C120.451 46.899 119.998 61.0443 121.362 49.1194Z" fill="#E8F1FF"/>
<circle cx="57.5" cy="51.5002" r="4.5" stroke="#F4B461" stroke-width="3"/>
<circle r="6" transform="matrix(-1 0 0 1 154 73.0002)" stroke="#34C759" stroke-width="3"/>
<circle cx="40.5" cy="35.5002" r="3.5" fill="#34C759"/>
<path d="M149.689 94.1849L146.127 93.8735M146.127 93.8735L142.565 93.562M146.127 93.8735L146.438 90.3118M146.127 93.8735L145.815 97.4351" stroke="#D5D6E1" stroke-width="3" stroke-linecap="round"/>
<path d="M39.4355 120.308L38.3361 118.498C42.1707 121.132 47.0574 122.41 52.2799 121.75C63.6781 120.324 72.3984 110.239 71.7186 99.2675C71.5267 96.1485 70.5935 93.2869 69.0903 90.8212L70.1898 92.6308C71.6929 95.0965 72.6261 97.9581 72.818 101.077C73.4979 112.049 64.7768 122.142 53.3787 123.568C48.1569 124.219 43.2702 122.942 39.4355 120.308Z" fill="#B82614"/>
<path d="M34.1131 114.71L33.0137 112.901C33.6369 113.924 34.3648 114.88 35.1733 115.76L36.2728 117.569C35.456 116.689 34.7363 115.733 34.1131 114.71Z" fill="#B82614"/>
<path d="M30.274 117.06L29.1745 115.251C27.3567 112.261 26.2237 108.784 25.9853 104.996C25.1666 91.7002 35.7393 79.4655 49.5564 77.7314C59.4406 76.4844 68.3498 80.9517 72.9248 88.4623L74.0242 90.2719C69.4499 82.7531 60.54 78.294 50.6564 79.5328C36.8394 81.2669 26.266 93.5099 27.0923 106.814C27.3224 110.602 28.4561 114.071 30.274 117.06Z" fill="#B82614"/>
<path d="M77.2118 100.519C78.0381 113.824 67.4654 126.058 53.6401 127.792C39.823 129.526 27.9088 120.111 27.0824 106.806C26.2637 93.5102 36.8371 81.2672 50.6541 79.5331C64.4712 77.799 76.3854 87.2143 77.2118 100.519ZM31.4836 106.264C31.7545 110.688 33.5167 114.589 36.2709 117.578L39.4426 120.317C43.2772 122.951 48.1639 124.229 53.3864 123.569C64.777 122.134 73.498 112.041 72.8182 101.069C72.5473 96.646 70.7851 92.7451 68.0309 89.7558L64.8592 87.0164C61.0246 84.3825 56.1379 83.1048 50.9153 83.7644C39.5166 85.1992 30.8044 95.2847 31.4836 106.264Z" fill="#E52D17"/>
<mask id="mask0_128_4137" style="mask-type:alpha" maskUnits="userSpaceOnUse" x="25" y="77" width="53" height="51">
<path d="M39.4355 120.308L38.3361 118.498C42.1707 121.132 47.0574 122.41 52.2799 121.75C63.6781 120.324 72.3984 110.239 71.7186 99.2675C71.5267 96.1485 70.5935 93.2869 69.0903 90.8212L70.1898 92.6308C71.6929 95.0965 72.6261 97.9581 72.818 101.077C73.4979 112.049 64.7768 122.142 53.3787 123.568C48.1569 124.219 43.2702 122.942 39.4355 120.308Z" fill="#95AEC7"/>
<path d="M34.1131 114.71L33.0137 112.901C33.6369 113.924 34.3648 114.88 35.1733 115.76L36.2728 117.569C35.456 116.689 34.7363 115.733 34.1131 114.71Z" fill="#95AEC7"/>
<path d="M30.274 117.06L29.1745 115.251C27.3567 112.261 26.2237 108.784 25.9853 104.996C25.1666 91.7002 35.7393 79.4655 49.5564 77.7313C59.4406 76.4843 68.3498 80.9517 72.9248 88.4622L74.0242 90.2719C69.4499 82.753 60.54 78.294 50.6564 79.5327C36.8394 81.2668 26.266 93.5098 27.0923 106.814C27.3224 110.602 28.4561 114.07 30.274 117.06Z" fill="#95AEC7"/>
<path d="M77.2118 100.519C78.0381 113.823 67.4654 126.058 53.6401 127.792C39.823 129.526 27.9088 120.11 27.0824 106.806C26.2637 93.5102 36.8371 81.2672 50.6541 79.533C64.4712 77.7989 76.3854 87.2143 77.2118 100.519ZM31.4836 106.264C31.7545 110.688 33.5167 114.589 36.2709 117.578L39.4426 120.317C43.2772 122.951 48.1639 124.229 53.3864 123.569C64.777 122.134 73.498 112.041 72.8182 101.069C72.5473 96.6459 70.7851 92.7451 68.0309 89.7558L64.8592 87.0163C61.0246 84.3825 56.1379 83.1048 50.9153 83.7643C39.5166 85.1991 30.8044 95.2847 31.4836 106.264Z" fill="#A6C1DC"/>
</mask>
<g mask="url(#mask0_128_4137)">
<path d="M45.9223 103.651C45.9528 103.662 45.9594 103.664 45.9892 103.675C46.487 103.854 46.971 104.055 47.3197 104.31C47.6433 104.544 47.81 104.788 47.925 105.185C48.1003 105.787 47.9573 106.548 47.5719 107.064C47.2844 107.448 46.7769 107.712 46.3429 107.817C45.8919 107.928 45.4691 107.936 44.9961 107.89C44.1695 107.806 43.3332 107.452 42.6818 106.945C42.2968 106.643 41.8493 106.169 41.6842 105.646C41.5625 105.263 41.6638 104.821 41.9702 104.547C42.4585 104.111 43.2917 104.171 43.8963 104.323C44.3569 104.44 45.1625 104.763 45.5699 105.014C45.6827 105.084 46.0959 105.357 46.1573 105.454C46.2007 105.522 46.2192 105.611 46.1782 105.681C46.0114 105.968 45.2277 105.97 45.0045 105.956C44.4065 105.921 44.153 105.637 43.5505 105.236C43.4008 105.137 43.1983 105.02 43.0352 104.969C42.7425 104.876 42.3637 104.883 42.2368 105.197C42.1725 105.359 42.3359 105.558 42.4721 105.657C42.7927 105.884 43.0681 106 43.4145 106.079C44.4374 106.316 45.6272 106.394 46.5942 105.979C46.7267 105.921 46.8653 105.825 46.8989 105.674C46.968 105.369 46.4722 105.068 46.4722 105.068C45.9571 104.711 44.9367 104.372 44.4078 104.213C43.8533 104.043 42.9801 103.779 42.7734 103.702C42.5604 103.624 42.3312 103.528 42.1592 103.402C41.9865 103.275 41.8409 103.042 41.8312 102.816C41.8153 102.409 42.0421 101.963 42.3221 101.701C43.0558 101.015 44.4356 100.99 45.4434 101.078C46.4189 101.164 47.9548 101.494 48.7819 102.19C48.9094 102.298 48.9677 102.385 48.9046 102.533C48.7818 102.809 48.5246 102.949 48.2436 102.974C47.9484 103.003 47.3694 102.915 47.1149 102.877C45.9762 102.699 44.6235 102.375 43.4892 102.438C43.4001 102.444 43.2467 102.452 43.1882 102.494C42.9815 102.64 43.4495 102.795 43.5477 102.838C43.5766 102.852 43.5823 102.854 43.6134 102.864L45.9223 103.651ZM40.3027 97.1999C40.3027 97.1999 40.5445 96.9646 40.7425 96.7892C41.1029 96.4697 41.7209 96.052 42.1712 95.8079C42.3089 95.7333 42.4702 95.6501 42.4702 95.6501C42.4702 95.6501 42.2508 95.6263 42.1238 95.6251C41.8231 95.6195 41.3395 95.8102 41.089 95.9467C40.6759 96.1708 40.1881 96.5744 40.2693 97.0432C40.2815 97.1095 40.3027 97.1999 40.3027 97.1999ZM42.132 98.1347C42.6916 98.2147 43.2422 98.1666 43.7802 98.0028C44.3084 97.8399 45.1123 97.4738 45.1699 96.8535C45.1899 96.653 45.0934 96.4777 44.9463 96.374C44.7555 96.2378 44.6427 96.229 44.3569 96.2514C44.1494 96.2667 44.0541 96.2825 43.8471 96.3485C43.2389 96.547 42.3278 97.0554 41.7964 97.503C41.6732 97.609 41.5456 97.7298 41.4486 97.8105C41.3878 97.86 41.3387 97.907 41.3402 97.9226C41.3438 97.987 41.9136 98.1032 42.132 98.1347ZM40.5072 98.8653C40.4374 98.9133 40.3462 99.0455 40.2613 99.1371C40.2159 99.1862 40.1387 99.2453 40.0916 99.2656C39.9255 99.3404 39.8028 99.3192 39.6904 99.1676C39.5329 98.9542 39.4774 98.6643 39.5248 98.4041C39.5448 98.2903 39.5909 98.1696 39.5899 98.07C39.589 97.9018 39.4637 97.702 39.4099 97.5299C39.3469 97.3272 39.3322 96.9942 39.3655 96.7884C39.4666 96.146 39.9265 95.6328 40.46 95.2647C40.9977 94.892 41.6535 94.627 42.333 94.4964C42.9749 94.3745 43.874 94.3902 44.4727 94.7526C44.6678 94.8698 44.9227 95.1118 45.0299 95.331C45.0528 95.3767 45.0693 95.4243 45.097 95.4517C45.1218 95.4762 45.1955 95.4996 45.253 95.5234C45.4516 95.6033 45.715 95.823 45.8141 95.953C46.0128 96.2154 46.1032 96.4449 46.1025 96.7498C46.1008 97.3631 45.625 97.9345 45.1562 98.2439C44.3528 98.7772 43.6004 99.1119 42.6867 99.2615C42.2854 99.3268 41.6797 99.3385 41.2677 99.2107C41.1395 99.1719 41.0129 99.1089 40.8876 99.0732C40.824 99.0538 40.6 98.9419 40.5784 98.9192C40.5521 98.8883 40.5161 98.8586 40.5072 98.8653ZM40.9816 100.328C41.0063 100.337 41.0434 100.357 41.0746 100.378C41.3461 100.553 41.4092 100.853 41.4176 101.169C41.437 101.903 41.1784 103.462 41.0771 104.072C41.0006 104.53 40.9164 104.978 40.8395 105.431C40.7743 105.814 40.6965 106.325 40.5412 106.664C40.4851 106.785 40.3677 106.916 40.2289 106.966C40.0693 107.025 39.7484 106.964 39.5806 106.89C39.167 106.708 39.086 106.4 39.1159 105.958C39.1878 104.906 39.6876 102.917 39.9554 102.09C40.044 101.816 40.3408 100.944 40.567 100.6C40.6439 100.484 40.8046 100.252 40.9816 100.328ZM27.4527 99.2075C27.4527 99.2075 26.7989 99.1152 26.3451 99.0695C25.7681 99.0094 24.6693 98.9655 24.0108 99.0529C23.8133 99.0793 23.4072 99.1555 23.3344 99.3372C23.2585 99.5255 23.3471 99.7044 23.4482 99.8915C23.5066 100 23.8573 100.52 23.9591 100.649C24.3855 101.194 25.2952 102.088 26.0011 102.579C26.2439 102.746 26.6508 102.998 26.6508 102.998C26.6508 102.998 26.8868 101.736 27.1574 100.501C27.3004 99.8501 27.4527 99.2075 27.4527 99.2075ZM39.1554 102.236C39.1201 102.581 38.8969 103.2 38.8639 103.281C38.795 103.468 38.5531 103.884 38.5172 103.933C38.3411 104.18 38.1771 104.378 38.0063 104.573C37.7137 104.908 37.0825 105.403 36.7292 105.597C35.4153 106.318 33.5823 106.496 32.0715 106.36C31.0466 106.267 29.9024 106.004 28.8857 105.581C28.5356 105.437 28.0202 105.196 28.0202 105.196C28.0202 105.196 27.9755 105.413 27.9255 105.562C27.9022 105.629 27.8106 105.801 27.7685 105.854C27.6575 105.997 27.5136 106.052 27.3223 106.048C27.0917 106.041 26.8535 106.005 26.6674 105.873C26.3612 105.66 26.3078 105.319 26.3269 104.943C26.3417 104.643 26.4001 104.127 26.4001 104.127C26.4001 104.127 26.1739 103.954 25.9865 103.805C25.4098 103.349 24.8799 102.833 24.429 102.322C24.3043 102.18 23.7811 101.509 23.6687 101.347C23.3543 100.887 23.0792 100.439 22.9115 99.9027C22.7816 99.4841 22.7921 99.1396 23.0366 98.7779C23.3749 98.2733 24.255 98.0272 24.8471 97.9064C25.2821 97.8161 26.6042 97.6772 27.1335 97.7123C27.3834 97.7295 27.7738 97.7427 27.8002 97.7327C27.8112 97.7274 27.819 97.7227 27.8275 97.7164C27.8429 97.7022 27.9799 97.1603 28.0188 96.9597C28.0559 96.7621 28.4826 95.504 28.5893 95.2415C28.6461 95.0994 28.8795 94.5553 29.0255 94.4306C29.1217 94.3459 29.2519 94.3823 29.3454 94.4715C29.8557 94.9636 29.7627 96.2715 29.6681 96.9269C29.61 97.3261 29.4963 97.9209 29.4963 97.9209C29.4963 97.9209 30.176 98.0456 30.5889 98.1463C30.9906 98.2422 31.4219 98.4012 31.8267 98.5577C32.3447 98.7586 33.3416 99.2106 33.8762 99.643C34.3164 99.9991 34.6883 100.52 34.7425 100.998C34.794 101.437 34.7125 101.716 34.4215 102.04C34.0939 102.406 33.5768 102.62 33.1142 102.548C32.9765 102.526 32.4792 102.349 32.3478 102.193C32.2965 102.131 32.3184 102.044 32.3757 101.994C32.3971 101.977 32.6636 101.901 32.8208 101.857C32.8998 101.834 32.9673 101.805 33.0333 101.766C33.1728 101.688 33.3027 101.597 33.3195 101.461C33.3403 101.285 33.1801 101.139 33.0202 101.033C32.271 100.532 30.6937 99.9116 29.9136 99.6957C29.6082 99.6113 29.1716 99.5016 29.1716 99.5016L28.3303 103.885C28.3303 103.885 28.6792 104.032 28.9558 104.14C29.115 104.2 29.7984 104.412 29.9826 104.456C31.3845 104.795 32.9852 105.006 34.4099 104.672C35.0352 104.527 35.6277 104.305 36.1187 103.939C36.7664 103.454 37.2134 102.697 37.3239 101.829C37.4442 100.882 37.0257 99.6364 36.6467 98.8516C35.6452 96.7782 33.5892 94.8088 31.6884 93.5053C29.7478 92.1751 27.7524 91.2216 25.5122 90.6538C24.9346 90.5076 23.6589 90.2651 22.9792 90.3052C22.882 90.3114 22.783 90.3225 22.6938 90.3234C22.6231 90.3254 22.5076 90.3473 22.4735 90.3646C22.4546 90.3741 22.4348 90.3888 22.4348 90.3888C22.4348 90.3888 22.4697 90.4191 22.504 90.4432C22.5657 90.4874 22.848 90.5664 22.9902 90.6252C23.1174 90.6785 23.2404 90.7776 23.2742 90.8864C23.3063 90.9898 23.2972 91.0639 23.2187 91.1276C23.0355 91.2733 22.4947 91.1263 22.2619 91.0365C22.02 90.943 21.7246 90.7996 21.714 90.5693C21.7026 90.2983 21.8785 90.0727 22.0601 89.8682C22.4246 89.4593 22.8557 89.2983 23.4435 89.2656C24.2788 89.2175 25.3073 89.279 26.0583 89.41C27.7579 89.7074 29.2904 90.3439 30.8177 91.1896C31.6921 91.6725 32.8145 92.4089 33.6181 93.0323C34.1947 93.48 35.0857 94.267 35.575 94.7615C35.7291 94.9184 36.6142 95.915 36.7483 96.0856C37.0291 96.4368 37.3886 96.9321 37.6425 97.321C38.1338 98.0726 38.7067 99.186 38.9225 100.019C38.9747 100.218 39.007 100.41 39.0793 100.644C39.1042 100.724 39.1848 101.189 39.187 101.318C39.1891 101.447 39.1922 101.635 39.1966 101.644C39.1908 101.711 39.192 102.095 39.1554 102.236ZM60.5569 105.81C59.7284 105.823 57.6306 105.479 57.6306 105.479L57.1932 106.243C57.1932 106.243 58.2497 106.377 58.9876 106.617C58.9876 106.617 59.2382 106.641 59.2014 106.953C59.1501 107.241 59.0505 107.54 59.0505 107.54C59.0505 107.54 58.9952 107.722 58.7225 107.713C58.4277 107.699 56.4599 107.357 56.4599 107.357L55.9149 108.358C55.9149 108.358 55.7445 108.58 56.0229 108.566C56.2814 108.553 58.4086 108.607 58.6632 108.719C58.9334 108.851 59.1678 109.299 59.0023 109.627C58.8014 110.033 56.4815 110.898 55.258 110.541C55.258 110.541 54.5958 110.443 54.2325 109.443C53.8982 108.493 54.9478 107.055 54.9478 107.055C54.9478 107.055 54.7818 106.242 55.0712 106.041C55.0712 106.041 55.2386 105.944 55.6533 106.003L56.3752 105.075C56.3752 105.075 55.797 104.992 55.5477 104.5C55.3171 104.035 55.3298 103.847 55.5954 103.789C55.8817 103.716 58.3475 103.791 59.9686 104.196C59.9686 104.196 60.5481 104.262 60.8295 105.351C60.8296 105.352 60.9827 105.801 60.5569 105.81ZM53.5629 108.474C53.2483 108.921 52.583 109.328 51.9661 108.855C51.3583 108.382 50.7517 105.941 50.7517 105.941C50.7517 105.941 50.5182 105.029 50.4348 105.033C50.4348 105.033 50.3807 104.854 50.1336 105.743C49.8851 106.627 49.578 108.39 49.1613 108.589C48.7633 108.792 48.3765 108.595 48.2328 108.227C48.1074 107.867 48.1885 107.095 48.5779 105.792C48.9864 104.491 49.5975 103.144 50.086 102.788C50.5732 102.435 50.8213 102.82 50.9199 102.962C50.9199 102.962 51.3442 103.552 51.9125 105.139L52.0102 105.431C52.0102 105.431 52.5158 106.924 52.5989 106.939C52.5989 106.939 52.6503 107.014 52.7172 106.982C52.8051 106.976 52.8626 106.544 52.8626 106.544C52.8626 106.544 53.0079 105.066 52.811 102.47C52.811 102.47 52.7673 102.142 52.9021 101.872C53.0369 101.6 53.297 101.797 53.297 101.797C53.297 101.797 54.2926 102.597 54.4452 104.529C54.5941 106.462 53.8816 108.024 53.5629 108.474ZM65.8042 109.957C65.1065 110.735 63.2753 112.283 61.4636 111.437C60.5076 112.828 59.6484 114.259 58.8515 116.504C58.8515 116.504 58.689 116.939 58.3493 116.703C58.0073 116.494 57.53 115.749 57.5889 114.873C57.6956 113.727 58.5971 111.946 60.0771 109.998C59.8838 109.453 59.8292 108.721 60.2121 107.778C60.2121 107.778 60.8572 106.012 63.0368 104.763C63.0368 104.763 63.2965 104.62 63.4111 104.706C63.5385 104.794 63.3468 105.373 63.1741 105.637C62.9974 105.899 61.8817 107.134 61.8817 107.134C61.8817 107.134 61.1701 107.977 61.1522 108.758C62.4268 107.49 65.2431 104.983 66.3933 106.21C66.7776 106.632 66.8356 107.383 66.6726 108.144C66.5298 108.813 66.2164 109.489 65.8042 109.957ZM65.9099 107.538C65.9099 107.538 65.9602 106.936 65.2489 107.459C64.6394 107.898 63.5318 108.729 62.5192 109.962C63.2881 110.039 64.0996 109.787 64.363 109.626C64.7867 109.386 65.7995 108.707 65.9099 107.538ZM76.83 109.737L73.3377 108.989C73.5222 107.787 73.6265 106.6 73.6563 105.361C73.6595 105.233 73.5714 105.121 73.4466 105.094L72.6415 104.922C72.5714 104.907 72.4984 104.924 72.4412 104.969C72.3837 105.015 72.3506 105.083 72.3491 105.155C72.3312 106.356 72.2332 107.521 72.0523 108.715L68.6925 107.996C68.5359 107.962 68.3816 108.062 68.3482 108.218L68.1927 108.944C68.1593 109.1 68.2591 109.255 68.4156 109.288L71.8236 110.018C71.7874 110.198 71.7548 110.359 71.7225 110.509C71.4984 111.556 71.2687 112.408 70.9549 113.359C70.9305 113.432 70.939 113.512 70.9782 113.578C71.0157 113.644 71.0801 113.691 71.154 113.707L71.9007 113.867C72.0465 113.898 72.1906 113.814 72.2363 113.673C72.5481 112.715 72.7787 111.851 73.0072 110.784C73.0393 110.634 73.0722 110.473 73.1084 110.293L76.553 111.031C76.7091 111.064 76.8639 110.964 76.8974 110.808L77.0529 110.082C77.0864 109.925 76.9861 109.77 76.83 109.737Z" fill="#8D190B"/>
</g>
<path d="M47.4828 102.089C47.5134 102.1 47.5199 102.102 47.5498 102.113C48.0475 102.292 48.5315 102.493 48.8802 102.748C49.2038 102.982 49.3705 103.227 49.4856 103.624C49.6608 104.226 49.5179 104.986 49.1325 105.502C48.845 105.886 48.3375 106.151 47.9035 106.256C47.4525 106.366 47.0297 106.374 46.5567 106.328C45.7301 106.244 44.8937 105.89 44.2423 105.383C43.8574 105.081 43.4098 104.607 43.2447 104.085C43.123 103.702 43.2243 103.259 43.5307 102.985C44.019 102.549 44.8523 102.609 45.4569 102.761C45.9175 102.878 46.723 103.201 47.1304 103.452C47.2432 103.523 47.6564 103.795 47.7178 103.892C47.7612 103.96 47.7797 104.049 47.7387 104.119C47.572 104.406 46.7883 104.408 46.565 104.394C45.9671 104.359 45.7136 104.075 45.1111 103.675C44.9614 103.576 44.7588 103.458 44.5958 103.407C44.3031 103.315 43.9242 103.321 43.7974 103.635C43.733 103.797 43.8965 103.996 44.0327 104.095C44.3533 104.322 44.6286 104.438 44.9751 104.517C45.9979 104.754 47.1878 104.832 48.1547 104.417C48.2872 104.359 48.4258 104.263 48.4594 104.112C48.5285 103.807 48.0327 103.506 48.0327 103.506C47.5176 103.149 46.4972 102.81 45.9684 102.651C45.4139 102.481 44.5407 102.217 44.334 102.14C44.1209 102.062 43.8918 101.966 43.7197 101.84C43.547 101.713 43.4014 101.48 43.3917 101.254C43.3758 100.847 43.6027 100.401 43.8827 100.139C44.6164 99.4529 45.9961 99.428 47.0039 99.5166C47.9794 99.6018 49.5153 99.9319 50.3424 100.628C50.47 100.736 50.5282 100.823 50.4651 100.971C50.3424 101.247 50.0851 101.387 49.8042 101.412C49.509 101.441 48.9299 101.353 48.6754 101.315C47.5367 101.137 46.1841 100.813 45.0497 100.876C44.9606 100.882 44.8072 100.89 44.7488 100.932C44.542 101.078 45.01 101.233 45.1082 101.276C45.1372 101.29 45.1429 101.292 45.174 101.302L47.4828 102.089ZM41.8633 95.638C41.8633 95.638 42.1051 95.4027 42.303 95.2273C42.6635 94.9078 43.2814 94.4901 43.7317 94.246C43.8694 94.1714 44.0308 94.0882 44.0308 94.0882C44.0308 94.0882 43.8114 94.0644 43.6844 94.0632C43.3836 94.0576 42.9 94.2483 42.6495 94.3848C42.2365 94.6089 41.7486 95.0125 41.8299 95.4813C41.842 95.5476 41.8633 95.638 41.8633 95.638ZM43.6926 96.5728C44.2522 96.6528 44.8027 96.6047 45.3408 96.4409C45.8689 96.278 46.6728 95.9119 46.7304 95.2916C46.7505 95.0911 46.6539 94.9158 46.5069 94.8121C46.316 94.6759 46.2032 94.6671 45.9174 94.6895C45.71 94.7048 45.6146 94.7206 45.4077 94.7866C44.7994 94.9851 43.8884 95.4935 43.357 95.9411C43.2338 96.0471 43.1061 96.1679 43.0092 96.2486C42.9483 96.2982 42.8992 96.3451 42.9007 96.3607C42.9043 96.4251 43.4741 96.5413 43.6926 96.5728ZM42.0677 97.3034C41.998 97.3514 41.9067 97.4836 41.8219 97.5752C41.7765 97.6243 41.6992 97.6834 41.6521 97.7037C41.486 97.7785 41.3634 97.7574 41.2509 97.6058C41.0934 97.3923 41.038 97.1024 41.0854 96.8422C41.1054 96.7285 41.1515 96.6078 41.1505 96.5081C41.1495 96.3399 41.0243 96.1401 40.9705 95.968C40.9075 95.7653 40.8927 95.4323 40.9261 95.2265C41.0271 94.5842 41.487 94.071 42.0205 93.7028C42.5583 93.3301 43.2141 93.0651 43.8935 92.9346C44.5355 92.8126 45.4346 92.8283 46.0332 93.1907C46.2283 93.3079 46.4832 93.5499 46.5904 93.7691C46.6134 93.8148 46.6299 93.8624 46.6576 93.8898C46.6824 93.9143 46.756 93.9377 46.8135 93.9615C47.0121 94.0414 47.2756 94.2611 47.3746 94.3911C47.5733 94.6535 47.6638 94.883 47.6631 95.1879C47.6613 95.8012 47.1855 96.3726 46.7168 96.682C45.9133 97.2153 45.161 97.55 44.2472 97.6996C43.8459 97.7649 43.2403 97.7766 42.8282 97.6488C42.7001 97.61 42.5734 97.547 42.4482 97.5113C42.3845 97.4919 42.1606 97.38 42.139 97.3573C42.1127 97.3264 42.0766 97.2967 42.0677 97.3034ZM42.5421 98.7656C42.5669 98.7755 42.604 98.7954 42.6352 98.8158C42.9067 98.9915 42.9697 99.2911 42.9782 99.6072C42.9975 100.341 42.739 101.9 42.6377 102.51C42.5612 102.968 42.477 103.417 42.4 103.869C42.3348 104.252 42.2571 104.763 42.1018 105.102C42.0456 105.223 41.9282 105.354 41.7894 105.404C41.6299 105.464 41.309 105.402 41.1412 105.328C40.7276 105.146 40.6466 104.838 40.6764 104.396C40.7483 103.344 41.2482 101.355 41.5159 100.528C41.6045 100.254 41.9014 99.382 42.1276 99.038C42.2045 98.9221 42.3651 98.6899 42.5421 98.7656ZM29.0133 97.6456C29.0133 97.6456 28.3595 97.5533 27.9056 97.5076C27.3287 97.4475 26.2298 97.4036 25.5714 97.491C25.3738 97.5174 24.9677 97.5936 24.8949 97.7753C24.819 97.9636 24.9076 98.1425 25.0087 98.3296C25.0671 98.4382 25.4179 98.9577 25.5196 99.0875C25.946 99.6322 26.8557 100.526 27.5616 101.017C27.8045 101.184 28.2114 101.436 28.2114 101.436C28.2114 101.436 28.4474 100.174 28.7179 98.9396C28.861 98.2882 29.0133 97.6456 29.0133 97.6456ZM40.7159 100.674C40.6806 101.019 40.4575 101.638 40.4245 101.719C40.3555 101.907 40.1137 102.322 40.0777 102.372C39.9016 102.618 39.7377 102.816 39.5669 103.011C39.2743 103.346 38.6431 103.841 38.2897 104.035C36.9759 104.756 35.1428 104.934 33.632 104.799C32.6071 104.705 31.4629 104.442 30.4463 104.019C30.0961 103.875 29.5807 103.634 29.5807 103.634C29.5807 103.634 29.5361 103.851 29.4861 104C29.4627 104.068 29.3712 104.239 29.3291 104.292C29.2181 104.435 29.0741 104.49 28.8828 104.486C28.6522 104.479 28.4141 104.443 28.2279 104.311C27.9217 104.098 27.8683 103.757 27.8875 103.381C27.9022 103.081 27.9607 102.565 27.9607 102.565C27.9607 102.565 27.7345 102.392 27.547 102.243C26.9703 101.787 26.4404 101.271 25.9895 100.76C25.8648 100.618 25.3416 99.9474 25.2293 99.7847C24.9149 99.3256 24.6397 98.8769 24.4721 98.3408C24.3421 97.9222 24.3527 97.5777 24.5971 97.216C24.9355 96.7114 25.8155 96.4653 26.4077 96.3445C26.8426 96.2542 28.1647 96.1153 28.694 96.1504C28.9439 96.1677 29.3344 96.1808 29.3607 96.1708C29.3717 96.1656 29.3796 96.1608 29.3881 96.1545C29.4035 96.1403 29.5404 95.5984 29.5794 95.3978C29.6164 95.2002 30.0431 93.9422 30.1499 93.6797C30.2067 93.5375 30.4401 92.9934 30.5861 92.8688C30.6823 92.784 30.8125 92.8204 30.9059 92.9096C31.4162 93.4017 31.3232 94.7097 31.2287 95.365C31.1706 95.7642 31.0568 96.359 31.0568 96.359C31.0568 96.359 31.7365 96.4837 32.1494 96.5844C32.5511 96.6803 32.9825 96.8393 33.3872 96.9958C33.9053 97.1967 34.9021 97.6487 35.4367 98.0811C35.8769 98.4373 36.2489 98.9581 36.303 99.4366C36.3545 99.8756 36.273 100.154 35.982 100.478C35.6544 100.844 35.1373 101.058 34.6748 100.986C34.5371 100.965 34.0398 100.787 33.9084 100.631C33.857 100.569 33.879 100.482 33.9363 100.432C33.9577 100.415 34.2242 100.339 34.3813 100.295C34.4604 100.272 34.5278 100.243 34.5939 100.204C34.7333 100.126 34.8633 100.035 34.8801 99.8991C34.9009 99.7226 34.7406 99.5767 34.5808 99.4706C33.8315 98.9699 32.2542 98.3497 31.4741 98.1338C31.1687 98.0494 30.7321 97.9397 30.7321 97.9397L29.8908 102.323C29.8908 102.323 30.2397 102.47 30.5164 102.578C30.6755 102.638 31.3589 102.85 31.5431 102.894C32.9451 103.233 34.5458 103.444 35.9705 103.11C36.5958 102.965 37.1882 102.743 37.6793 102.377C38.3269 101.893 38.774 101.135 38.8844 100.267C39.0047 99.3196 38.5863 98.0745 38.2072 97.2897C37.2057 95.2163 35.1497 93.2469 33.249 91.9434C31.3083 90.6132 29.313 89.6597 27.0727 89.0919C26.4951 88.9457 25.2195 88.7032 24.5398 88.7433C24.4426 88.7495 24.3436 88.7606 24.2544 88.7615C24.1836 88.7636 24.0682 88.7854 24.034 88.8027C24.0151 88.8123 23.9953 88.8269 23.9953 88.8269C23.9953 88.8269 24.0302 88.8572 24.0646 88.8813C24.1262 88.9255 24.4085 89.0045 24.5508 89.0633C24.6779 89.1166 24.8009 89.2157 24.8348 89.3245C24.8669 89.4279 24.8578 89.502 24.7793 89.5657C24.596 89.7114 24.0552 89.5644 23.8224 89.4746C23.5805 89.3811 23.2851 89.2377 23.2746 89.0074C23.2631 88.7364 23.439 88.5108 23.6206 88.3063C23.9851 87.8974 24.4162 87.7365 25.004 87.7037C25.8394 87.6556 26.8679 87.7171 27.6189 87.8481C29.3184 88.1455 30.8509 88.782 32.3782 89.6277C33.2526 90.1106 34.375 90.8471 35.1787 91.4704C35.7553 91.9181 36.6463 92.7051 37.1356 93.1996C37.2897 93.3565 38.1748 94.3531 38.3089 94.5237C38.5897 94.8749 38.9492 95.3702 39.203 95.7591C39.6944 96.5107 40.2673 97.6241 40.4831 98.4568C40.5352 98.6563 40.5675 98.8485 40.6398 99.0822C40.6648 99.1623 40.7453 99.6268 40.7475 99.7565C40.7497 99.8848 40.7528 100.073 40.7571 100.082C40.7514 100.149 40.7525 100.534 40.7159 100.674ZM62.1174 104.248C61.289 104.261 59.1912 103.917 59.1912 103.917L58.7537 104.681C58.7537 104.681 59.8102 104.815 60.5481 105.055C60.5481 105.055 60.7988 105.079 60.762 105.392C60.7106 105.679 60.611 105.978 60.611 105.978C60.611 105.978 60.5557 106.16 60.283 106.151C59.9883 106.137 58.0204 105.795 58.0204 105.795L57.4755 106.796C57.4755 106.796 57.3051 107.018 57.5834 107.004C57.842 106.991 59.9692 107.045 60.2237 107.157C60.494 107.289 60.7284 107.737 60.5628 108.065C60.3619 108.471 58.0421 109.336 56.8185 108.979C56.8185 108.979 56.1563 108.881 55.793 107.881C55.4588 106.931 56.5084 105.493 56.5084 105.493C56.5084 105.493 56.3424 104.681 56.6318 104.479C56.6318 104.479 56.7991 104.382 57.2139 104.441L57.9358 103.513C57.9358 103.513 57.3575 103.43 57.1083 102.938C56.8777 102.473 56.8904 102.285 57.156 102.227C57.4423 102.154 59.908 102.229 61.5292 102.634C61.5292 102.634 62.1086 102.7 62.39 103.79C62.3901 103.79 62.5433 104.239 62.1174 104.248ZM55.1235 106.912C54.8088 107.359 54.1435 107.766 53.5267 107.293C52.9188 106.82 52.3122 104.379 52.3122 104.379C52.3122 104.379 52.0788 103.467 51.9954 103.472C51.9954 103.472 51.9413 103.292 51.6941 104.181C51.4456 105.065 51.1385 106.828 50.7219 107.027C50.3239 107.23 49.9371 107.033 49.7933 106.665C49.6679 106.306 49.7491 105.534 50.1385 104.23C50.5469 102.929 51.1581 101.582 51.6465 101.226C52.1337 100.873 52.3819 101.258 52.4804 101.4C52.4804 101.4 52.9048 101.99 53.473 103.577L53.5707 103.869C53.5707 103.869 54.0763 105.362 54.1594 105.377C54.1594 105.377 54.2109 105.452 54.2777 105.42C54.3656 105.414 54.4231 104.983 54.4231 104.983C54.4231 104.983 54.5684 103.505 54.3715 100.908C54.3715 100.908 54.3279 100.58 54.4626 100.311C54.5975 100.038 54.8575 100.235 54.8575 100.235C54.8575 100.235 55.8532 101.035 56.0058 102.968C56.1547 104.9 55.4421 106.462 55.1235 106.912ZM67.3647 108.396C66.6671 109.173 64.8359 110.721 63.0242 109.875C62.0681 111.267 61.209 112.697 60.4121 114.942C60.4121 114.942 60.2495 115.377 59.9099 115.141C59.5679 114.932 59.0906 114.187 59.1495 113.311C59.2561 112.165 60.1577 110.384 61.6376 108.436C61.4444 107.891 61.3897 107.159 61.7726 106.216C61.7726 106.216 62.4177 104.45 64.5974 103.201C64.5974 103.201 64.8571 103.058 64.9717 103.144C65.0991 103.233 64.9074 103.811 64.7346 104.075C64.5579 104.337 63.4422 105.572 63.4422 105.572C63.4422 105.572 62.7307 106.415 62.7128 107.197C63.9873 105.928 66.8036 103.422 67.9539 104.648C68.3382 105.07 68.3961 105.821 68.2332 106.582C68.0903 107.251 67.777 107.927 67.3647 108.396ZM67.4704 105.976C67.4704 105.976 67.5207 105.374 66.8095 105.897C66.1999 106.336 65.0923 107.167 64.0798 108.4C64.8487 108.477 65.6601 108.225 65.9236 108.064C66.3472 107.824 67.3601 107.145 67.4704 105.976ZM78.3905 108.175L74.8982 107.427C75.0828 106.225 75.1871 105.039 75.2168 103.799C75.2201 103.671 75.132 103.559 75.0071 103.532L74.202 103.36C74.132 103.345 74.0589 103.362 74.0017 103.407C73.9442 103.453 73.9112 103.521 73.9097 103.593C73.8917 104.794 73.7937 105.96 73.6129 107.153L70.253 106.434C70.0965 106.4 69.9422 106.5 69.9088 106.656L69.7533 107.382C69.7198 107.538 69.8196 107.693 69.9762 107.727L73.3841 108.456C73.3479 108.636 73.3153 108.797 73.2831 108.947C73.059 109.994 72.8292 110.846 72.5154 111.797C72.491 111.87 72.4996 111.95 72.5387 112.016C72.5762 112.082 72.6406 112.129 72.7145 112.145L73.4612 112.305C73.607 112.336 73.7512 112.253 73.7969 112.111C74.1086 111.153 74.3393 110.29 74.5678 109.222C74.5999 109.072 74.6328 108.911 74.6689 108.731L78.1135 109.469C78.2697 109.502 78.4245 109.402 78.4579 109.246L78.6134 108.52C78.6469 108.363 78.5467 108.209 78.3905 108.175Z" fill="#101C50"/>
<path d="M35.1629 115.768L63.0045 85.846L64.8588 87.0165L36.263 117.569L35.1629 115.768Z" fill="#B82614"/>
<path d="M68.0306 89.7559L39.4347 120.309L36.263 117.569L64.8589 87.0165L68.0306 89.7559Z" fill="#E52D17"/>
<path d="M147.498 31.3134L146.493 32.038C147.852 29.6806 148.371 26.7725 147.745 23.758C146.387 17.1785 140.104 12.5603 133.739 13.4637C131.929 13.7197 130.304 14.396 128.936 15.3863L129.94 14.6617C131.308 13.6714 132.933 12.9951 134.743 12.739C141.108 11.8357 147.396 16.4539 148.754 23.0334C149.375 26.0478 148.856 28.956 147.498 31.3134Z" fill="#2E7CCC"/>
<path d="M144.478 34.6756L143.474 35.4002C144.041 34.9896 144.565 34.521 145.041 34.0089L146.045 33.2843C145.569 33.8012 145.046 34.2649 144.478 34.6756Z" fill="#2E7CCC"/>
<path d="M146.028 36.8061L145.024 37.5307C143.365 38.7288 141.39 39.55 139.192 39.864C131.478 40.9558 123.856 35.3569 122.207 27.3813C121.023 21.6761 123.216 16.2753 127.384 13.2609L128.388 12.5363C124.215 15.5507 122.027 20.9515 123.206 26.6566C124.856 34.6323 132.483 40.2311 140.201 39.1345C142.399 38.8254 144.369 38.0041 146.028 36.8061Z" fill="#2E7CCC"/>
<path d="M134.214 10.2028C141.932 9.10625 149.554 14.7051 151.204 22.6856C152.853 30.6612 147.914 38.0426 140.195 39.1392C132.482 40.231 124.855 34.6321 123.205 26.6565C121.556 18.6809 126.495 11.2994 134.214 10.2028ZM139.676 36.5982C142.243 36.2359 144.436 35.0282 146.051 33.2843L147.502 31.3085C148.86 28.9511 149.379 26.043 148.754 23.0286C147.39 16.4539 141.103 11.8356 134.737 12.739C132.171 13.1013 129.978 14.309 128.363 16.0529L126.912 18.0287C125.553 20.3861 125.034 23.2943 125.66 26.3087C127.024 32.8882 133.306 37.5016 139.676 36.5982Z" fill="#3790EC"/>
<mask id="mask1_128_4137" style="mask-type:alpha" maskUnits="userSpaceOnUse" x="121" y="10" width="31" height="30">
<path d="M147.498 31.3134L146.493 32.038C147.852 29.6806 148.371 26.7725 147.745 23.758C146.387 17.1785 140.104 12.5603 133.739 13.4637C131.929 13.7197 130.304 14.396 128.936 15.3863L129.94 14.6617C131.308 13.6714 132.933 12.9951 134.743 12.739C141.108 11.8357 147.396 16.4539 148.754 23.0334C149.375 26.0478 148.856 28.956 147.498 31.3134Z" fill="#95AEC7"/>
<path d="M144.478 34.6756L143.474 35.4002C144.041 34.9896 144.565 34.521 145.041 34.0089L146.045 33.2843C145.569 33.8012 145.046 34.2649 144.478 34.6756Z" fill="#95AEC7"/>
<path d="M146.028 36.806L145.024 37.5306C143.365 38.7286 141.39 39.5499 139.192 39.8639C131.478 40.9556 123.856 35.3568 122.207 27.3811C121.023 21.676 123.216 16.2752 127.384 13.2608L128.388 12.5361C124.215 15.5505 122.027 20.9514 123.206 26.6565C124.856 34.6321 132.483 40.231 140.201 39.1344C142.399 38.8253 144.369 38.004 146.028 36.806Z" fill="#95AEC7"/>
<path d="M134.294 10.1372C142.012 9.04058 149.634 14.6395 151.284 22.6199C152.933 30.5955 147.994 37.977 140.276 39.0736C132.562 40.1653 124.935 34.5664 123.285 26.5908C121.636 18.6152 126.575 11.2338 134.294 10.1372ZM139.756 36.5326C142.323 36.1703 144.516 34.9626 146.131 33.2187L147.582 31.2429C148.94 28.8854 149.46 25.9773 148.834 22.9629C147.47 16.3882 141.183 11.77 134.818 12.6733C132.251 13.0356 130.058 14.2433 128.443 15.9872L126.992 17.963C125.634 20.3205 125.114 23.2286 125.74 26.243C127.104 32.8225 133.386 37.4359 139.756 36.5326Z" fill="#A6C1DC"/>
</mask>
<g mask="url(#mask1_128_4137)">
<path d="M151.688 28.8412C152.206 28.7832 152.724 28.7293 153.242 28.6774L153.777 25.6835L155.474 28.4721C156.034 28.4255 156.593 28.3822 157.152 28.3426L154.176 23.4522L155.069 18.4614L153.492 18.794L153.48 18.8199L152.998 21.516L151.587 19.1958L150.029 19.5242L152.599 23.7469L151.688 28.8412Z" fill="#046C97"/>
<path d="M150.488 28.9816L148.559 19.8346L147.002 20.1628L148.904 29.1817C149.432 29.1119 149.96 29.0457 150.488 28.9816Z" fill="#046C97"/>
<path d="M138.687 30.9358C139.107 30.8472 139.527 30.7618 139.947 30.6769L139.238 27.3164L141.108 26.9221L140.806 25.491L138.936 25.8853L138.426 23.4673L140.58 23.0132L140.278 21.5805L136.562 22.3643L138.383 31.0011C138.484 30.9797 138.585 30.9572 138.687 30.9357" fill="#046C97"/>
<path d="M133.874 32.0424C134.388 31.9145 134.904 31.7896 135.421 31.6672L133.894 24.4236L135.348 24.1168L135.046 22.6842L130.579 23.6263L130.881 25.0589L132.336 24.7521L133.874 32.0424Z" fill="#046C97"/>
<path d="M122.172 35.5178L121.023 30.0681L123.968 34.909C124.522 34.7258 125.077 34.5462 125.634 34.3698L123.675 25.0825L122.182 25.3974L123.372 31.0423L120.193 25.8169L120.129 25.8304L118.636 26.1453L120.72 36.0286L120.729 36.0266C121.209 35.8542 121.69 35.6849 122.172 35.5178Z" fill="#046C97"/>
<path d="M129.38 25.3753L129.078 23.9426L125.361 24.7264L126.985 32.4247L127.287 33.8577L127.287 33.8589C128.498 33.4922 129.717 33.142 130.944 32.8073L130.944 32.8061L130.857 32.3932L130.642 31.3734C129.932 31.5666 129.225 31.7661 128.521 31.9703L128.038 29.679L129.908 29.2846L129.606 27.8528L127.736 28.2471L127.226 25.8295L129.38 25.3753Z" fill="#046C97"/>
<path d="M144.916 28.2917L143.363 20.9299L141.8 21.2596L143.338 28.5538L143.64 29.9864L143.641 29.988C144.894 29.7713 146.146 29.5738 147.397 29.3934L147.397 29.3916L147.299 28.9288L147.095 27.9589C146.368 28.0637 145.642 28.1748 144.916 28.2918" fill="#046C97"/>
</g>
<path d="M152.052 27.7462C152.57 27.6882 153.088 27.6343 153.606 27.5824L154.141 24.5885L155.838 27.377C156.398 27.3305 156.957 27.2871 157.516 27.2475L154.54 22.3572L155.433 17.3664L153.856 17.699L153.844 17.7248L153.362 20.421L151.951 18.1008L150.394 18.4291L152.963 22.6519L152.052 27.7462Z" fill="#B81D24"/>
<path d="M150.852 27.8867L148.923 18.7396L147.366 19.0679L149.268 28.0867C149.796 28.0169 150.324 27.9507 150.852 27.8867Z" fill="#B81D24"/>
<path d="M139.051 29.8408C139.471 29.7521 139.891 29.6668 140.311 29.5819L139.602 26.2214L141.472 25.827L141.171 24.3959L139.301 24.7903L138.791 22.3723L140.944 21.9181L140.642 20.4855L136.926 21.2692L138.747 29.9061C138.848 29.8847 138.949 29.8621 139.051 29.8407" fill="#B81D24"/>
<path d="M134.238 30.9475C134.752 30.8196 135.268 30.6947 135.786 30.5723L134.258 23.3287L135.713 23.0219L135.41 21.5893L130.943 22.5314L131.246 23.964L132.701 23.6572L134.238 30.9475Z" fill="#B81D24"/>
<path d="M122.536 34.4228L121.387 28.973L124.333 33.814C124.886 33.6308 125.441 33.4511 125.998 33.2748L124.04 23.9875L122.546 24.3024L123.737 29.9472L120.557 24.7218L120.493 24.7354L119 25.0503L121.084 34.9336L121.094 34.9316C121.573 34.7591 122.054 34.5899 122.536 34.4228Z" fill="#B81D24"/>
<path d="M129.744 24.2803L129.442 22.8476L125.726 23.6314L127.349 31.3296L127.651 32.7626L127.652 32.7639C128.862 32.3972 130.081 32.0469 131.308 31.7123L131.308 31.711L131.221 31.2981L131.006 30.2784C130.296 30.4716 129.59 30.6711 128.886 30.8753L128.402 28.584L130.272 28.1896L129.97 26.7577L128.1 27.1521L127.591 24.7345L129.744 24.2803Z" fill="#B81D24"/>
<path d="M145.28 27.1966L143.727 19.8349L142.164 20.1646L143.702 27.4587L144.005 28.8914L144.005 28.8929C145.258 28.6763 146.51 28.4788 147.761 28.2984L147.761 28.2965L147.663 27.8338L147.459 26.8639C146.733 26.9686 146.006 27.0798 145.28 27.1967" fill="#B81D24"/>
<path d="M145.047 34.0138L126.315 19.1639L126.912 18.0287L146.047 33.2891L145.047 34.0138Z" fill="#2E7CCC"/>
<path d="M128.362 16.0529L147.496 31.3133L146.046 33.2891L126.911 18.0286L128.362 16.0529Z" fill="#3790EC"/>
<path d="M93.9986 104.8L99.4486 103.2C98.9486 102.75 98.5486 101.9 98.5486 101.1C98.5486 96.9 106.899 96.35 106.899 89.05C106.899 84.4 102.949 81.15 96.4986 81.15C92.1986 81.15 88.1986 82.9 85.5486 86L89.5986 90.55C91.1486 88.7 93.2486 87.45 95.7486 87.45C98.4986 87.45 99.6486 88.75 99.6486 90.3C99.6486 93.75 92.3486 94.45 92.3486 100.4C92.3486 102.15 92.9486 103.65 93.9986 104.8ZM96.3986 115.55C98.5986 115.55 100.449 113.7 100.449 111.5C100.449 109.3 98.5986 107.45 96.3986 107.45C94.1986 107.45 92.3486 109.3 92.3486 111.5C92.3486 113.7 94.1986 115.55 96.3986 115.55Z" fill="#3790EC"/>
</svg>
